<?xml version="1.0" encoding="utf-8" standalone="no"?>
<!DOCTYPE svg PUBLIC "-//W3C//DTD SVG 1.1//EN"
  "http://www.w3.org/Graphics/SVG/1.1/DTD/svg11.dtd">
<svg xmlns:xlink="http://www.w3.org/1999/xlink" width="864pt" height="360pt" viewBox="0 0 864 360" xmlns="http://www.w3.org/2000/svg" version="1.1">
 <metadata>
  <rdf:RDF xmlns:dc="http://purl.org/dc/elements/1.1/" xmlns:cc="http://creativecommons.org/ns#" xmlns:rdf="http://www.w3.org/1999/02/22-rdf-syntax-ns#">
   <cc:Work>
    <dc:type rdf:resource="http://purl.org/dc/dcmitype/StillImage"/>
    <dc:date>2025-07-08T08:28:20.249104</dc:date>
    <dc:format>image/svg+xml</dc:format>
    <dc:creator>
     <cc:Agent>
      <dc:title>Matplotlib v3.10.0, https://matplotlib.org/</dc:title>
     </cc:Agent>
    </dc:creator>
   </cc:Work>
  </rdf:RDF>
 </metadata>
 <defs>
  <style type="text/css">*{stroke-linejoin: round; stroke-linecap: butt}</style>
 </defs>
 <g id="figure_1">
  <g id="patch_1">
   <path d="M 0 360 
L 864 360 
L 864 0 
L 0 0 
z
" style="fill: #ffffff"/>
  </g>
  <g id="axes_1">
   <g id="patch_2">
    <path d="M 47.72 318.04 
L 422.46 318.04 
L 422.46 26.88 
L 47.72 26.88 
z
" style="fill: #ffffff"/>
   </g>
   <g id="patch_3">
    <path d="M 80.23876 318.04 
L 90.562176 318.04 
L 90.562176 309.094992 
L 80.23876 309.094992 
z
" clip-path="url(#pc91e73319b)" style="fill: #87ceeb; stroke: #000000; stroke-linejoin: miter"/>
   </g>
   <g id="patch_4">
    <path d="M 90.562176 318.04 
L 100.885592 318.04 
L 100.885592 318.04 
L 90.562176 318.04 
z
" clip-path="url(#pc91e73319b)" style="fill: #87ceeb; stroke: #000000; stroke-linejoin: miter"/>
   </g>
   <g id="patch_5">
    <path d="M 100.885592 318.04 
L 111.209008 318.04 
L 111.209008 318.04 
L 100.885592 318.04 
z
" clip-path="url(#pc91e73319b)" style="fill: #87ceeb; stroke: #000000; stroke-linejoin: miter"/>
   </g>
   <g id="patch_6">
    <path d="M 111.209008 318.04 
L 121.532424 318.04 
L 121.532424 309.094992 
L 111.209008 309.094992 
z
" clip-path="url(#pc91e73319b)" style="fill: #87ceeb; stroke: #000000; stroke-linejoin: miter"/>
   </g>
   <g id="patch_7">
    <path d="M 121.532424 318.04 
L 131.85584 318.04 
L 131.85584 309.094992 
L 121.532424 309.094992 
z
" clip-path="url(#pc91e73319b)" style="fill: #87ceeb; stroke: #000000; stroke-linejoin: miter"/>
   </g>
   <g id="patch_8">
    <path d="M 131.85584 318.04 
L 142.179256 318.04 
L 142.179256 282.259969 
L 131.85584 282.259969 
z
" clip-path="url(#pc91e73319b)" style="fill: #87ceeb; stroke: #000000; stroke-linejoin: miter"/>
   </g>
   <g id="patch_9">
    <path d="M 142.179256 318.04 
L 152.502672 318.04 
L 152.502672 246.479939 
L 142.179256 246.479939 
z
" clip-path="url(#pc91e73319b)" style="fill: #87ceeb; stroke: #000000; stroke-linejoin: miter"/>
   </g>
   <g id="patch_10">
    <path d="M 152.502672 318.04 
L 162.826088 318.04 
L 162.826088 300.149985 
L 152.502672 300.149985 
z
" clip-path="url(#pc91e73319b)" style="fill: #87ceeb; stroke: #000000; stroke-linejoin: miter"/>
   </g>
   <g id="patch_11">
    <path d="M 162.826088 318.04 
L 173.149504 318.04 
L 173.149504 246.479939 
L 162.826088 246.479939 
z
" clip-path="url(#pc91e73319b)" style="fill: #87ceeb; stroke: #000000; stroke-linejoin: miter"/>
   </g>
   <g id="patch_12">
    <path d="M 173.149504 318.04 
L 183.47292 318.04 
L 183.47292 157.029862 
L 173.149504 157.029862 
z
" clip-path="url(#pc91e73319b)" style="fill: #87ceeb; stroke: #000000; stroke-linejoin: miter"/>
   </g>
   <g id="patch_13">
    <path d="M 183.47292 318.04 
L 193.796336 318.04 
L 193.796336 40.744762 
L 183.47292 40.744762 
z
" clip-path="url(#pc91e73319b)" style="fill: #87ceeb; stroke: #000000; stroke-linejoin: miter"/>
   </g>
   <g id="patch_14">
    <path d="M 193.796336 318.04 
L 204.119752 318.04 
L 204.119752 282.259969 
L 193.796336 282.259969 
z
" clip-path="url(#pc91e73319b)" style="fill: #87ceeb; stroke: #000000; stroke-linejoin: miter"/>
   </g>
   <g id="patch_15">
    <path d="M 204.119752 318.04 
L 214.443168 318.04 
L 214.443168 192.809892 
L 204.119752 192.809892 
z
" clip-path="url(#pc91e73319b)" style="fill: #87ceeb; stroke: #000000; stroke-linejoin: miter"/>
   </g>
   <g id="patch_16">
    <path d="M 214.443168 318.04 
L 224.766584 318.04 
L 224.766584 264.369954 
L 214.443168 264.369954 
z
" clip-path="url(#pc91e73319b)" style="fill: #87ceeb; stroke: #000000; stroke-linejoin: miter"/>
   </g>
   <g id="patch_17">
    <path d="M 224.766584 318.04 
L 235.09 318.04 
L 235.09 300.149985 
L 224.766584 300.149985 
z
" clip-path="url(#pc91e73319b)" style="fill: #87ceeb; stroke: #000000; stroke-linejoin: miter"/>
   </g>
   <g id="patch_18">
    <path d="M 235.09 318.04 
L 245.413416 318.04 
L 245.413416 300.149985 
L 235.09 300.149985 
z
" clip-path="url(#pc91e73319b)" style="fill: #87ceeb; stroke: #000000; stroke-linejoin: miter"/>
   </g>
   <g id="patch_19">
    <path d="M 245.413416 318.04 
L 255.736832 318.04 
L 255.736832 291.204977 
L 245.413416 291.204977 
z
" clip-path="url(#pc91e73319b)" style="fill: #87ceeb; stroke: #000000; stroke-linejoin: miter"/>
   </g>
   <g id="patch_20">
    <path d="M 255.736832 318.04 
L 266.060248 318.04 
L 266.060248 300.149985 
L 255.736832 300.149985 
z
" clip-path="url(#pc91e73319b)" style="fill: #87ceeb; stroke: #000000; stroke-linejoin: miter"/>
   </g>
   <g id="patch_21">
    <path d="M 266.060248 318.04 
L 276.383664 318.04 
L 276.383664 300.149985 
L 266.060248 300.149985 
z
" clip-path="url(#pc91e73319b)" style="fill: #87ceeb; stroke: #000000; stroke-linejoin: miter"/>
   </g>
   <g id="patch_22">
    <path d="M 276.383664 318.04 
L 286.70708 318.04 
L 286.70708 309.094992 
L 276.383664 309.094992 
z
" clip-path="url(#pc91e73319b)" style="fill: #87ceeb; stroke: #000000; stroke-linejoin: miter"/>
   </g>
   <g id="patch_23">
    <path d="M 286.70708 318.04 
L 297.030496 318.04 
L 297.030496 318.04 
L 286.70708 318.04 
z
" clip-path="url(#pc91e73319b)" style="fill: #87ceeb; stroke: #000000; stroke-linejoin: miter"/>
   </g>
   <g id="patch_24">
    <path d="M 297.030496 318.04 
L 307.353912 318.04 
L 307.353912 318.04 
L 297.030496 318.04 
z
" clip-path="url(#pc91e73319b)" style="fill: #87ceeb; stroke: #000000; stroke-linejoin: miter"/>
   </g>
   <g id="patch_25">
    <path d="M 307.353912 318.04 
L 317.677328 318.04 
L 317.677328 318.04 
L 307.353912 318.04 
z
" clip-path="url(#pc91e73319b)" style="fill: #87ceeb; stroke: #000000; stroke-linejoin: miter"/>
   </g>
   <g id="patch_26">
    <path d="M 317.677328 318.04 
L 328.000744 318.04 
L 328.000744 318.04 
L 317.677328 318.04 
z
" clip-path="url(#pc91e73319b)" style="fill: #87ceeb; stroke: #000000; stroke-linejoin: miter"/>
   </g>
   <g id="patch_27">
    <path d="M 328.000744 318.04 
L 338.32416 318.04 
L 338.32416 318.04 
L 328.000744 318.04 
z
" clip-path="url(#pc91e73319b)" style="fill: #87ceeb; stroke: #000000; stroke-linejoin: miter"/>
   </g>
   <g id="patch_28">
    <path d="M 338.32416 318.04 
L 348.647576 318.04 
L 348.647576 318.04 
L 338.32416 318.04 
z
" clip-path="url(#pc91e73319b)" style="fill: #87ceeb; stroke: #000000; stroke-linejoin: miter"/>
   </g>
   <g id="patch_29">
    <path d="M 348.647576 318.04 
L 358.970992 318.04 
L 358.970992 318.04 
L 348.647576 318.04 
z
" clip-path="url(#pc91e73319b)" style="fill: #87ceeb; stroke: #000000; stroke-linejoin: miter"/>
   </g>
   <g id="patch_30">
    <path d="M 358.970992 318.04 
L 369.294408 318.04 
L 369.294408 318.04 
L 358.970992 318.04 
z
" clip-path="url(#pc91e73319b)" style="fill: #87ceeb; stroke: #000000; stroke-linejoin: miter"/>
   </g>
   <g id="patch_31">
    <path d="M 369.294408 318.04 
L 379.617824 318.04 
L 379.617824 318.04 
L 369.294408 318.04 
z
" clip-path="url(#pc91e73319b)" style="fill: #87ceeb; stroke: #000000; stroke-linejoin: miter"/>
   </g>
   <g id="patch_32">
    <path d="M 379.617824 318.04 
L 389.94124 318.04 
L 389.94124 309.094992 
L 379.617824 309.094992 
z
" clip-path="url(#pc91e73319b)" style="fill: #87ceeb; stroke: #000000; stroke-linejoin: miter"/>
   </g>
   <g id="matplotlib.axis_1">
    <g id="xtick_1">
     <g id="line2d_1">
      <defs>
       <path id="mf5bcf9045e" d="M 0 0 
L 0 3.5 
" style="stroke: #000000; stroke-width: 0.8"/>
      </defs>
      <g>
       <use xlink:href="#mf5bcf9045e" x="120.917735" y="318.04" style="stroke: #000000; stroke-width: 0.8"/>
      </g>
     </g>
     <g id="text_1">
      <!-- −5 -->
      <g transform="translate(113.546641 332.638438) scale(0.1 -0.1)">
       <defs>
        <path id="DejaVuSans-2212" d="M 678 2272 
L 4684 2272 
L 4684 1741 
L 678 1741 
L 678 2272 
z
" transform="scale(0.015625)"/>
        <path id="DejaVuSans-35" d="M 691 4666 
L 3169 4666 
L 3169 4134 
L 1269 4134 
L 1269 2991 
Q 1406 3038 1543 3061 
Q 1681 3084 1819 3084 
Q 2600 3084 3056 2656 
Q 3513 2228 3513 1497 
Q 3513 744 3044 326 
Q 2575 -91 1722 -91 
Q 1428 -91 1123 -41 
Q 819 9 494 109 
L 494 744 
Q 775 591 1075 516 
Q 1375 441 1709 441 
Q 2250 441 2565 725 
Q 2881 1009 2881 1497 
Q 2881 1984 2565 2268 
Q 2250 2553 1709 2553 
Q 1456 2553 1204 2497 
Q 953 2441 691 2322 
L 691 4666 
z
" transform="scale(0.015625)"/>
       </defs>
       <use xlink:href="#DejaVuSans-2212"/>
       <use xlink:href="#DejaVuSans-35" transform="translate(83.789062 0)"/>
      </g>
     </g>
    </g>
    <g id="xtick_2">
     <g id="line2d_2">
      <g>
       <use xlink:href="#mf5bcf9045e" x="201.458904" y="318.04" style="stroke: #000000; stroke-width: 0.8"/>
      </g>
     </g>
     <g id="text_2">
      <!-- 0 -->
      <g transform="translate(198.277654 332.638438) scale(0.1 -0.1)">
       <defs>
        <path id="DejaVuSans-30" d="M 2034 4250 
Q 1547 4250 1301 3770 
Q 1056 3291 1056 2328 
Q 1056 1369 1301 889 
Q 1547 409 2034 409 
Q 2525 409 2770 889 
Q 3016 1369 3016 2328 
Q 3016 3291 2770 3770 
Q 2525 4250 2034 4250 
z
M 2034 4750 
Q 2819 4750 3233 4129 
Q 3647 3509 3647 2328 
Q 3647 1150 3233 529 
Q 2819 -91 2034 -91 
Q 1250 -91 836 529 
Q 422 1150 422 2328 
Q 422 3509 836 4129 
Q 1250 4750 2034 4750 
z
" transform="scale(0.015625)"/>
       </defs>
       <use xlink:href="#DejaVuSans-30"/>
      </g>
     </g>
    </g>
    <g id="xtick_3">
     <g id="line2d_3">
      <g>
       <use xlink:href="#mf5bcf9045e" x="282.000074" y="318.04" style="stroke: #000000; stroke-width: 0.8"/>
      </g>
     </g>
     <g id="text_3">
      <!-- 5 -->
      <g transform="translate(278.818824 332.638438) scale(0.1 -0.1)">
       <use xlink:href="#DejaVuSans-35"/>
      </g>
     </g>
    </g>
    <g id="xtick_4">
     <g id="line2d_4">
      <g>
       <use xlink:href="#mf5bcf9045e" x="362.541243" y="318.04" style="stroke: #000000; stroke-width: 0.8"/>
      </g>
     </g>
     <g id="text_4">
      <!-- 10 -->
      <g transform="translate(356.178743 332.638438) scale(0.1 -0.1)">
       <defs>
        <path id="DejaVuSans-31" d="M 794 531 
L 1825 531 
L 1825 4091 
L 703 3866 
L 703 4441 
L 1819 4666 
L 2450 4666 
L 2450 531 
L 3481 531 
L 3481 0 
L 794 0 
L 794 531 
z
" transform="scale(0.015625)"/>
       </defs>
       <use xlink:href="#DejaVuSans-31"/>
       <use xlink:href="#DejaVuSans-30" transform="translate(63.623047 0)"/>
      </g>
     </g>
    </g>
    <g id="text_5">
     <!-- Residuals -->
     <g transform="translate(211.369687 346.316563) scale(0.1 -0.1)">
      <defs>
       <path id="DejaVuSans-52" d="M 2841 2188 
Q 3044 2119 3236 1894 
Q 3428 1669 3622 1275 
L 4263 0 
L 3584 0 
L 2988 1197 
Q 2756 1666 2539 1819 
Q 2322 1972 1947 1972 
L 1259 1972 
L 1259 0 
L 628 0 
L 628 4666 
L 2053 4666 
Q 2853 4666 3247 4331 
Q 3641 3997 3641 3322 
Q 3641 2881 3436 2590 
Q 3231 2300 2841 2188 
z
M 1259 4147 
L 1259 2491 
L 2053 2491 
Q 2509 2491 2742 2702 
Q 2975 2913 2975 3322 
Q 2975 3731 2742 3939 
Q 2509 4147 2053 4147 
L 1259 4147 
z
" transform="scale(0.015625)"/>
       <path id="DejaVuSans-65" d="M 3597 1894 
L 3597 1613 
L 953 1613 
Q 991 1019 1311 708 
Q 1631 397 2203 397 
Q 2534 397 2845 478 
Q 3156 559 3463 722 
L 3463 178 
Q 3153 47 2828 -22 
Q 2503 -91 2169 -91 
Q 1331 -91 842 396 
Q 353 884 353 1716 
Q 353 2575 817 3079 
Q 1281 3584 2069 3584 
Q 2775 3584 3186 3129 
Q 3597 2675 3597 1894 
z
M 3022 2063 
Q 3016 2534 2758 2815 
Q 2500 3097 2075 3097 
Q 1594 3097 1305 2825 
Q 1016 2553 972 2059 
L 3022 2063 
z
" transform="scale(0.015625)"/>
       <path id="DejaVuSans-73" d="M 2834 3397 
L 2834 2853 
Q 2591 2978 2328 3040 
Q 2066 3103 1784 3103 
Q 1356 3103 1142 2972 
Q 928 2841 928 2578 
Q 928 2378 1081 2264 
Q 1234 2150 1697 2047 
L 1894 2003 
Q 2506 1872 2764 1633 
Q 3022 1394 3022 966 
Q 3022 478 2636 193 
Q 2250 -91 1575 -91 
Q 1294 -91 989 -36 
Q 684 19 347 128 
L 347 722 
Q 666 556 975 473 
Q 1284 391 1588 391 
Q 1994 391 2212 530 
Q 2431 669 2431 922 
Q 2431 1156 2273 1281 
Q 2116 1406 1581 1522 
L 1381 1569 
Q 847 1681 609 1914 
Q 372 2147 372 2553 
Q 372 3047 722 3315 
Q 1072 3584 1716 3584 
Q 2034 3584 2315 3537 
Q 2597 3491 2834 3397 
z
" transform="scale(0.015625)"/>
       <path id="DejaVuSans-69" d="M 603 3500 
L 1178 3500 
L 1178 0 
L 603 0 
L 603 3500 
z
M 603 4863 
L 1178 4863 
L 1178 4134 
L 603 4134 
L 603 4863 
z
" transform="scale(0.015625)"/>
       <path id="DejaVuSans-64" d="M 2906 2969 
L 2906 4863 
L 3481 4863 
L 3481 0 
L 2906 0 
L 2906 525 
Q 2725 213 2448 61 
Q 2172 -91 1784 -91 
Q 1150 -91 751 415 
Q 353 922 353 1747 
Q 353 2572 751 3078 
Q 1150 3584 1784 3584 
Q 2172 3584 2448 3432 
Q 2725 3281 2906 2969 
z
M 947 1747 
Q 947 1113 1208 752 
Q 1469 391 1925 391 
Q 2381 391 2643 752 
Q 2906 1113 2906 1747 
Q 2906 2381 2643 2742 
Q 2381 3103 1925 3103 
Q 1469 3103 1208 2742 
Q 947 2381 947 1747 
z
" transform="scale(0.015625)"/>
       <path id="DejaVuSans-75" d="M 544 1381 
L 544 3500 
L 1119 3500 
L 1119 1403 
Q 1119 906 1312 657 
Q 1506 409 1894 409 
Q 2359 409 2629 706 
Q 2900 1003 2900 1516 
L 2900 3500 
L 3475 3500 
L 3475 0 
L 2900 0 
L 2900 538 
Q 2691 219 2414 64 
Q 2138 -91 1772 -91 
Q 1169 -91 856 284 
Q 544 659 544 1381 
z
M 1991 3584 
L 1991 3584 
z
" transform="scale(0.015625)"/>
       <path id="DejaVuSans-61" d="M 2194 1759 
Q 1497 1759 1228 1600 
Q 959 1441 959 1056 
Q 959 750 1161 570 
Q 1363 391 1709 391 
Q 2188 391 2477 730 
Q 2766 1069 2766 1631 
L 2766 1759 
L 2194 1759 
z
M 3341 1997 
L 3341 0 
L 2766 0 
L 2766 531 
Q 2569 213 2275 61 
Q 1981 -91 1556 -91 
Q 1019 -91 701 211 
Q 384 513 384 1019 
Q 384 1609 779 1909 
Q 1175 2209 1959 2209 
L 2766 2209 
L 2766 2266 
Q 2766 2663 2505 2880 
Q 2244 3097 1772 3097 
Q 1472 3097 1187 3025 
Q 903 2953 641 2809 
L 641 3341 
Q 956 3463 1253 3523 
Q 1550 3584 1831 3584 
Q 2591 3584 2966 3190 
Q 3341 2797 3341 1997 
z
" transform="scale(0.015625)"/>
       <path id="DejaVuSans-6c" d="M 603 4863 
L 1178 4863 
L 1178 0 
L 603 0 
L 603 4863 
z
" transform="scale(0.015625)"/>
      </defs>
      <use xlink:href="#DejaVuSans-52"/>
      <use xlink:href="#DejaVuSans-65" transform="translate(64.982422 0)"/>
      <use xlink:href="#DejaVuSans-73" transform="translate(126.505859 0)"/>
      <use xlink:href="#DejaVuSans-69" transform="translate(178.605469 0)"/>
      <use xlink:href="#DejaVuSans-64" transform="translate(206.388672 0)"/>
      <use xlink:href="#DejaVuSans-75" transform="translate(269.865234 0)"/>
      <use xlink:href="#DejaVuSans-61" transform="translate(333.244141 0)"/>
      <use xlink:href="#DejaVuSans-6c" transform="translate(394.523438 0)"/>
      <use xlink:href="#DejaVuSans-73" transform="translate(422.306641 0)"/>
     </g>
    </g>
   </g>
   <g id="matplotlib.axis_2">
    <g id="ytick_1">
     <g id="line2d_5">
      <defs>
       <path id="m588a6f83ec" d="M 0 0 
L -3.5 0 
" style="stroke: #000000; stroke-width: 0.8"/>
      </defs>
      <g>
       <use xlink:href="#m588a6f83ec" x="47.72" y="318.04" style="stroke: #000000; stroke-width: 0.8"/>
      </g>
     </g>
     <g id="text_6">
      <!-- 0.0 -->
      <g transform="translate(24.816875 321.839219) scale(0.1 -0.1)">
       <defs>
        <path id="DejaVuSans-2e" d="M 684 794 
L 1344 794 
L 1344 0 
L 684 0 
L 684 794 
z
" transform="scale(0.015625)"/>
       </defs>
       <use xlink:href="#DejaVuSans-30"/>
       <use xlink:href="#DejaVuSans-2e" transform="translate(63.623047 0)"/>
       <use xlink:href="#DejaVuSans-30" transform="translate(95.410156 0)"/>
      </g>
     </g>
    </g>
    <g id="ytick_2">
     <g id="line2d_6">
      <g>
       <use xlink:href="#m588a6f83ec" x="47.72" y="254.407469" style="stroke: #000000; stroke-width: 0.8"/>
      </g>
     </g>
     <g id="text_7">
      <!-- 0.1 -->
      <g transform="translate(24.816875 258.206688) scale(0.1 -0.1)">
       <use xlink:href="#DejaVuSans-30"/>
       <use xlink:href="#DejaVuSans-2e" transform="translate(63.623047 0)"/>
       <use xlink:href="#DejaVuSans-31" transform="translate(95.410156 0)"/>
      </g>
     </g>
    </g>
    <g id="ytick_3">
     <g id="line2d_7">
      <g>
       <use xlink:href="#m588a6f83ec" x="47.72" y="190.774938" style="stroke: #000000; stroke-width: 0.8"/>
      </g>
     </g>
     <g id="text_8">
      <!-- 0.2 -->
      <g transform="translate(24.816875 194.574157) scale(0.1 -0.1)">
       <defs>
        <path id="DejaVuSans-32" d="M 1228 531 
L 3431 531 
L 3431 0 
L 469 0 
L 469 531 
Q 828 903 1448 1529 
Q 2069 2156 2228 2338 
Q 2531 2678 2651 2914 
Q 2772 3150 2772 3378 
Q 2772 3750 2511 3984 
Q 2250 4219 1831 4219 
Q 1534 4219 1204 4116 
Q 875 4013 500 3803 
L 500 4441 
Q 881 4594 1212 4672 
Q 1544 4750 1819 4750 
Q 2544 4750 2975 4387 
Q 3406 4025 3406 3419 
Q 3406 3131 3298 2873 
Q 3191 2616 2906 2266 
Q 2828 2175 2409 1742 
Q 1991 1309 1228 531 
z
" transform="scale(0.015625)"/>
       </defs>
       <use xlink:href="#DejaVuSans-30"/>
       <use xlink:href="#DejaVuSans-2e" transform="translate(63.623047 0)"/>
       <use xlink:href="#DejaVuSans-32" transform="translate(95.410156 0)"/>
      </g>
     </g>
    </g>
    <g id="ytick_4">
     <g id="line2d_8">
      <g>
       <use xlink:href="#m588a6f83ec" x="47.72" y="127.142407" style="stroke: #000000; stroke-width: 0.8"/>
      </g>
     </g>
     <g id="text_9">
      <!-- 0.3 -->
      <g transform="translate(24.816875 130.941626) scale(0.1 -0.1)">
       <defs>
        <path id="DejaVuSans-33" d="M 2597 2516 
Q 3050 2419 3304 2112 
Q 3559 1806 3559 1356 
Q 3559 666 3084 287 
Q 2609 -91 1734 -91 
Q 1441 -91 1130 -33 
Q 819 25 488 141 
L 488 750 
Q 750 597 1062 519 
Q 1375 441 1716 441 
Q 2309 441 2620 675 
Q 2931 909 2931 1356 
Q 2931 1769 2642 2001 
Q 2353 2234 1838 2234 
L 1294 2234 
L 1294 2753 
L 1863 2753 
Q 2328 2753 2575 2939 
Q 2822 3125 2822 3475 
Q 2822 3834 2567 4026 
Q 2313 4219 1838 4219 
Q 1578 4219 1281 4162 
Q 984 4106 628 3988 
L 628 4550 
Q 988 4650 1302 4700 
Q 1616 4750 1894 4750 
Q 2613 4750 3031 4423 
Q 3450 4097 3450 3541 
Q 3450 3153 3228 2886 
Q 3006 2619 2597 2516 
z
" transform="scale(0.015625)"/>
       </defs>
       <use xlink:href="#DejaVuSans-30"/>
       <use xlink:href="#DejaVuSans-2e" transform="translate(63.623047 0)"/>
       <use xlink:href="#DejaVuSans-33" transform="translate(95.410156 0)"/>
      </g>
     </g>
    </g>
    <g id="ytick_5">
     <g id="line2d_9">
      <g>
       <use xlink:href="#m588a6f83ec" x="47.72" y="63.509877" style="stroke: #000000; stroke-width: 0.8"/>
      </g>
     </g>
     <g id="text_10">
      <!-- 0.4 -->
      <g transform="translate(24.816875 67.309095) scale(0.1 -0.1)">
       <defs>
        <path id="DejaVuSans-34" d="M 2419 4116 
L 825 1625 
L 2419 1625 
L 2419 4116 
z
M 2253 4666 
L 3047 4666 
L 3047 1625 
L 3713 1625 
L 3713 1100 
L 3047 1100 
L 3047 0 
L 2419 0 
L 2419 1100 
L 313 1100 
L 313 1709 
L 2253 4666 
z
" transform="scale(0.015625)"/>
       </defs>
       <use xlink:href="#DejaVuSans-30"/>
       <use xlink:href="#DejaVuSans-2e" transform="translate(63.623047 0)"/>
       <use xlink:href="#DejaVuSans-34" transform="translate(95.410156 0)"/>
      </g>
     </g>
    </g>
    <g id="text_11">
     <!-- Density -->
     <g transform="translate(18.737188 191.468594) rotate(-90) scale(0.1 -0.1)">
      <defs>
       <path id="DejaVuSans-44" d="M 1259 4147 
L 1259 519 
L 2022 519 
Q 2988 519 3436 956 
Q 3884 1394 3884 2338 
Q 3884 3275 3436 3711 
Q 2988 4147 2022 4147 
L 1259 4147 
z
M 628 4666 
L 1925 4666 
Q 3281 4666 3915 4102 
Q 4550 3538 4550 2338 
Q 4550 1131 3912 565 
Q 3275 0 1925 0 
L 628 0 
L 628 4666 
z
" transform="scale(0.015625)"/>
       <path id="DejaVuSans-6e" d="M 3513 2113 
L 3513 0 
L 2938 0 
L 2938 2094 
Q 2938 2591 2744 2837 
Q 2550 3084 2163 3084 
Q 1697 3084 1428 2787 
Q 1159 2491 1159 1978 
L 1159 0 
L 581 0 
L 581 3500 
L 1159 3500 
L 1159 2956 
Q 1366 3272 1645 3428 
Q 1925 3584 2291 3584 
Q 2894 3584 3203 3211 
Q 3513 2838 3513 2113 
z
" transform="scale(0.015625)"/>
       <path id="DejaVuSans-74" d="M 1172 4494 
L 1172 3500 
L 2356 3500 
L 2356 3053 
L 1172 3053 
L 1172 1153 
Q 1172 725 1289 603 
Q 1406 481 1766 481 
L 2356 481 
L 2356 0 
L 1766 0 
Q 1100 0 847 248 
Q 594 497 594 1153 
L 594 3053 
L 172 3053 
L 172 3500 
L 594 3500 
L 594 4494 
L 1172 4494 
z
" transform="scale(0.015625)"/>
       <path id="DejaVuSans-79" d="M 2059 -325 
Q 1816 -950 1584 -1140 
Q 1353 -1331 966 -1331 
L 506 -1331 
L 506 -850 
L 844 -850 
Q 1081 -850 1212 -737 
Q 1344 -625 1503 -206 
L 1606 56 
L 191 3500 
L 800 3500 
L 1894 763 
L 2988 3500 
L 3597 3500 
L 2059 -325 
z
" transform="scale(0.015625)"/>
      </defs>
      <use xlink:href="#DejaVuSans-44"/>
      <use xlink:href="#DejaVuSans-65" transform="translate(77.001953 0)"/>
      <use xlink:href="#DejaVuSans-6e" transform="translate(138.525391 0)"/>
      <use xlink:href="#DejaVuSans-73" transform="translate(201.904297 0)"/>
      <use xlink:href="#DejaVuSans-69" transform="translate(254.003906 0)"/>
      <use xlink:href="#DejaVuSans-74" transform="translate(281.787109 0)"/>
      <use xlink:href="#DejaVuSans-79" transform="translate(320.996094 0)"/>
     </g>
    </g>
   </g>
   <g id="line2d_10">
    <path d="M 64.753636 317.672659 
L 68.194775 317.541191 
L 71.635914 317.368369 
L 75.077052 317.143275 
L 78.518191 316.852811 
L 81.95933 316.481481 
L 85.400468 316.011213 
L 88.841607 315.421259 
L 92.282746 314.688179 
L 95.723884 313.785967 
L 99.165023 312.686315 
L 102.606162 311.359074 
L 106.0473 309.772913 
L 109.488439 307.89621 
L 112.929578 305.698161 
L 116.370716 303.150112 
L 119.811855 300.227089 
L 123.252994 296.909475 
L 126.694132 293.18478 
L 130.135271 289.049425 
L 133.57641 284.510431 
L 137.017548 279.586929 
L 140.458687 274.311357 
L 143.899826 268.73024 
L 147.340964 262.904452 
L 150.782103 256.908871 
L 154.223242 250.831368 
L 157.66438 244.77111 
L 161.105519 238.836188 
L 164.546657 233.140629 
L 167.987796 227.800895 
L 171.428935 222.932011 
L 174.870073 218.64349 
L 178.311212 215.035265 
L 181.752351 212.193827 
L 185.193489 210.188784 
L 188.634628 209.070026 
L 192.075767 208.865662 
L 195.516905 209.580848 
L 198.958044 211.19757 
L 202.399183 213.675397 
L 205.840321 216.953163 
L 209.28146 220.951474 
L 212.722599 225.575904 
L 216.163737 230.720697 
L 219.604876 236.272765 
L 223.046015 242.115791 
L 226.487153 248.134208 
L 229.928292 254.216891 
L 233.369431 260.260381 
L 236.810569 266.171546 
L 240.251708 271.869577 
L 243.692847 277.287306 
L 247.133985 282.37184 
L 250.575124 287.084559 
L 254.016263 291.400553 
L 257.457401 295.307597 
L 260.89854 298.80477 
L 264.339679 301.900824 
L 267.780817 304.612436 
L 271.221956 306.962417 
L 274.663095 308.977986 
L 278.104233 310.68917 
L 281.545372 312.127381 
L 284.986511 313.3242 
L 288.427649 314.310396 
L 291.868788 315.11516 
L 295.309927 315.765566 
L 298.751065 316.286215 
L 302.192204 316.699054 
L 305.633343 317.023334 
L 309.074481 317.275676 
L 312.51562 317.470219 
L 315.956758 317.618817 
L 319.397897 317.73128 
L 322.839036 317.815616 
L 326.280174 317.878285 
L 329.721313 317.924431 
L 333.162452 317.958104 
L 336.60359 317.982454 
L 340.044729 317.999904 
L 343.485868 318.012297 
L 346.927006 318.021021 
L 350.368145 318.027107 
L 353.809284 318.031315 
L 357.250422 318.034199 
L 360.691561 318.036158 
L 364.1327 318.037477 
L 367.573838 318.038357 
L 371.014977 318.038939 
L 374.456116 318.03932 
L 377.897254 318.039569 
L 381.338393 318.039728 
L 384.779532 318.03983 
L 388.22067 318.039895 
L 391.661809 318.039936 
L 395.102948 318.039961 
L 398.544086 318.039976 
L 401.985225 318.039986 
L 405.426364 318.039992 
" clip-path="url(#pc91e73319b)" style="fill: none; stroke-dasharray: 5.55,2.4; stroke-dashoffset: 0; stroke: #ff0000; stroke-width: 1.5"/>
   </g>
   <g id="patch_33">
    <path d="M 47.72 318.04 
L 47.72 26.88 
" style="fill: none; stroke: #000000; stroke-width: 0.8; stroke-linejoin: miter; stroke-linecap: square"/>
   </g>
   <g id="patch_34">
    <path d="M 422.46 318.04 
L 422.46 26.88 
" style="fill: none; stroke: #000000; stroke-width: 0.8; stroke-linejoin: miter; stroke-linecap: square"/>
   </g>
   <g id="patch_35">
    <path d="M 47.72 318.04 
L 422.46 318.04 
" style="fill: none; stroke: #000000; stroke-width: 0.8; stroke-linejoin: miter; stroke-linecap: square"/>
   </g>
   <g id="patch_36">
    <path d="M 47.72 26.88 
L 422.46 26.88 
" style="fill: none; stroke: #000000; stroke-width: 0.8; stroke-linejoin: miter; stroke-linecap: square"/>
   </g>
   <g id="text_12">
    <!-- Histogram of Residuals -->
    <g transform="translate(165.903437 20.88) scale(0.12 -0.12)">
     <defs>
      <path id="DejaVuSans-48" d="M 628 4666 
L 1259 4666 
L 1259 2753 
L 3553 2753 
L 3553 4666 
L 4184 4666 
L 4184 0 
L 3553 0 
L 3553 2222 
L 1259 2222 
L 1259 0 
L 628 0 
L 628 4666 
z
" transform="scale(0.015625)"/>
      <path id="DejaVuSans-6f" d="M 1959 3097 
Q 1497 3097 1228 2736 
Q 959 2375 959 1747 
Q 959 1119 1226 758 
Q 1494 397 1959 397 
Q 2419 397 2687 759 
Q 2956 1122 2956 1747 
Q 2956 2369 2687 2733 
Q 2419 3097 1959 3097 
z
M 1959 3584 
Q 2709 3584 3137 3096 
Q 3566 2609 3566 1747 
Q 3566 888 3137 398 
Q 2709 -91 1959 -91 
Q 1206 -91 779 398 
Q 353 888 353 1747 
Q 353 2609 779 3096 
Q 1206 3584 1959 3584 
z
" transform="scale(0.015625)"/>
      <path id="DejaVuSans-67" d="M 2906 1791 
Q 2906 2416 2648 2759 
Q 2391 3103 1925 3103 
Q 1463 3103 1205 2759 
Q 947 2416 947 1791 
Q 947 1169 1205 825 
Q 1463 481 1925 481 
Q 2391 481 2648 825 
Q 2906 1169 2906 1791 
z
M 3481 434 
Q 3481 -459 3084 -895 
Q 2688 -1331 1869 -1331 
Q 1566 -1331 1297 -1286 
Q 1028 -1241 775 -1147 
L 775 -588 
Q 1028 -725 1275 -790 
Q 1522 -856 1778 -856 
Q 2344 -856 2625 -561 
Q 2906 -266 2906 331 
L 2906 616 
Q 2728 306 2450 153 
Q 2172 0 1784 0 
Q 1141 0 747 490 
Q 353 981 353 1791 
Q 353 2603 747 3093 
Q 1141 3584 1784 3584 
Q 2172 3584 2450 3431 
Q 2728 3278 2906 2969 
L 2906 3500 
L 3481 3500 
L 3481 434 
z
" transform="scale(0.015625)"/>
      <path id="DejaVuSans-72" d="M 2631 2963 
Q 2534 3019 2420 3045 
Q 2306 3072 2169 3072 
Q 1681 3072 1420 2755 
Q 1159 2438 1159 1844 
L 1159 0 
L 581 0 
L 581 3500 
L 1159 3500 
L 1159 2956 
Q 1341 3275 1631 3429 
Q 1922 3584 2338 3584 
Q 2397 3584 2469 3576 
Q 2541 3569 2628 3553 
L 2631 2963 
z
" transform="scale(0.015625)"/>
      <path id="DejaVuSans-6d" d="M 3328 2828 
Q 3544 3216 3844 3400 
Q 4144 3584 4550 3584 
Q 5097 3584 5394 3201 
Q 5691 2819 5691 2113 
L 5691 0 
L 5113 0 
L 5113 2094 
Q 5113 2597 4934 2840 
Q 4756 3084 4391 3084 
Q 3944 3084 3684 2787 
Q 3425 2491 3425 1978 
L 3425 0 
L 2847 0 
L 2847 2094 
Q 2847 2600 2669 2842 
Q 2491 3084 2119 3084 
Q 1678 3084 1418 2786 
Q 1159 2488 1159 1978 
L 1159 0 
L 581 0 
L 581 3500 
L 1159 3500 
L 1159 2956 
Q 1356 3278 1631 3431 
Q 1906 3584 2284 3584 
Q 2666 3584 2933 3390 
Q 3200 3197 3328 2828 
z
" transform="scale(0.015625)"/>
      <path id="DejaVuSans-20" transform="scale(0.015625)"/>
      <path id="DejaVuSans-66" d="M 2375 4863 
L 2375 4384 
L 1825 4384 
Q 1516 4384 1395 4259 
Q 1275 4134 1275 3809 
L 1275 3500 
L 2222 3500 
L 2222 3053 
L 1275 3053 
L 1275 0 
L 697 0 
L 697 3053 
L 147 3053 
L 147 3500 
L 697 3500 
L 697 3744 
Q 697 4328 969 4595 
Q 1241 4863 1831 4863 
L 2375 4863 
z
" transform="scale(0.015625)"/>
     </defs>
     <use xlink:href="#DejaVuSans-48"/>
     <use xlink:href="#DejaVuSans-69" transform="translate(75.195312 0)"/>
     <use xlink:href="#DejaVuSans-73" transform="translate(102.978516 0)"/>
     <use xlink:href="#DejaVuSans-74" transform="translate(155.078125 0)"/>
     <use xlink:href="#DejaVuSans-6f" transform="translate(194.287109 0)"/>
     <use xlink:href="#DejaVuSans-67" transform="translate(255.46875 0)"/>
     <use xlink:href="#DejaVuSans-72" transform="translate(318.945312 0)"/>
     <use xlink:href="#DejaVuSans-61" transform="translate(360.058594 0)"/>
     <use xlink:href="#DejaVuSans-6d" transform="translate(421.337891 0)"/>
     <use xlink:href="#DejaVuSans-20" transform="translate(518.75 0)"/>
     <use xlink:href="#DejaVuSans-6f" transform="translate(550.537109 0)"/>
     <use xlink:href="#DejaVuSans-66" transform="translate(611.71875 0)"/>
     <use xlink:href="#DejaVuSans-20" transform="translate(646.923828 0)"/>
     <use xlink:href="#DejaVuSans-52" transform="translate(678.710938 0)"/>
     <use xlink:href="#DejaVuSans-65" transform="translate(743.693359 0)"/>
     <use xlink:href="#DejaVuSans-73" transform="translate(805.216797 0)"/>
     <use xlink:href="#DejaVuSans-69" transform="translate(857.316406 0)"/>
     <use xlink:href="#DejaVuSans-64" transform="translate(885.099609 0)"/>
     <use xlink:href="#DejaVuSans-75" transform="translate(948.576172 0)"/>
     <use xlink:href="#DejaVuSans-61" transform="translate(1011.955078 0)"/>
     <use xlink:href="#DejaVuSans-6c" transform="translate(1073.234375 0)"/>
     <use xlink:href="#DejaVuSans-73" transform="translate(1101.017578 0)"/>
    </g>
   </g>
  </g>
  <g id="axes_2">
   <g id="patch_37">
    <path d="M 478.46 318.04 
L 853.2 318.04 
L 853.2 26.88 
L 478.46 26.88 
z
" style="fill: #ffffff"/>
   </g>
   <g id="matplotlib.axis_3">
    <g id="xtick_5">
     <g id="line2d_11">
      <g>
       <use xlink:href="#mf5bcf9045e" x="529.512909" y="318.04" style="stroke: #000000; stroke-width: 0.8"/>
      </g>
     </g>
     <g id="text_13">
      <!-- −2 -->
      <g transform="translate(522.141816 332.638438) scale(0.1 -0.1)">
       <use xlink:href="#DejaVuSans-2212"/>
       <use xlink:href="#DejaVuSans-32" transform="translate(83.789062 0)"/>
      </g>
     </g>
    </g>
    <g id="xtick_6">
     <g id="line2d_12">
      <g>
       <use xlink:href="#mf5bcf9045e" x="597.671455" y="318.04" style="stroke: #000000; stroke-width: 0.8"/>
      </g>
     </g>
     <g id="text_14">
      <!-- −1 -->
      <g transform="translate(590.300361 332.638438) scale(0.1 -0.1)">
       <use xlink:href="#DejaVuSans-2212"/>
       <use xlink:href="#DejaVuSans-31" transform="translate(83.789062 0)"/>
      </g>
     </g>
    </g>
    <g id="xtick_7">
     <g id="line2d_13">
      <g>
       <use xlink:href="#mf5bcf9045e" x="665.83" y="318.04" style="stroke: #000000; stroke-width: 0.8"/>
      </g>
     </g>
     <g id="text_15">
      <!-- 0 -->
      <g transform="translate(662.64875 332.638438) scale(0.1 -0.1)">
       <use xlink:href="#DejaVuSans-30"/>
      </g>
     </g>
    </g>
    <g id="xtick_8">
     <g id="line2d_14">
      <g>
       <use xlink:href="#mf5bcf9045e" x="733.988545" y="318.04" style="stroke: #000000; stroke-width: 0.8"/>
      </g>
     </g>
     <g id="text_16">
      <!-- 1 -->
      <g transform="translate(730.807295 332.638438) scale(0.1 -0.1)">
       <use xlink:href="#DejaVuSans-31"/>
      </g>
     </g>
    </g>
    <g id="xtick_9">
     <g id="line2d_15">
      <g>
       <use xlink:href="#mf5bcf9045e" x="802.147091" y="318.04" style="stroke: #000000; stroke-width: 0.8"/>
      </g>
     </g>
     <g id="text_17">
      <!-- 2 -->
      <g transform="translate(798.965841 332.638438) scale(0.1 -0.1)">
       <use xlink:href="#DejaVuSans-32"/>
      </g>
     </g>
    </g>
    <g id="text_18">
     <!-- Theoretical quantiles -->
     <g transform="translate(613.315937 346.316563) scale(0.1 -0.1)">
      <defs>
       <path id="DejaVuSans-54" d="M -19 4666 
L 3928 4666 
L 3928 4134 
L 2272 4134 
L 2272 0 
L 1638 0 
L 1638 4134 
L -19 4134 
L -19 4666 
z
" transform="scale(0.015625)"/>
       <path id="DejaVuSans-68" d="M 3513 2113 
L 3513 0 
L 2938 0 
L 2938 2094 
Q 2938 2591 2744 2837 
Q 2550 3084 2163 3084 
Q 1697 3084 1428 2787 
Q 1159 2491 1159 1978 
L 1159 0 
L 581 0 
L 581 4863 
L 1159 4863 
L 1159 2956 
Q 1366 3272 1645 3428 
Q 1925 3584 2291 3584 
Q 2894 3584 3203 3211 
Q 3513 2838 3513 2113 
z
" transform="scale(0.015625)"/>
       <path id="DejaVuSans-63" d="M 3122 3366 
L 3122 2828 
Q 2878 2963 2633 3030 
Q 2388 3097 2138 3097 
Q 1578 3097 1268 2742 
Q 959 2388 959 1747 
Q 959 1106 1268 751 
Q 1578 397 2138 397 
Q 2388 397 2633 464 
Q 2878 531 3122 666 
L 3122 134 
Q 2881 22 2623 -34 
Q 2366 -91 2075 -91 
Q 1284 -91 818 406 
Q 353 903 353 1747 
Q 353 2603 823 3093 
Q 1294 3584 2113 3584 
Q 2378 3584 2631 3529 
Q 2884 3475 3122 3366 
z
" transform="scale(0.015625)"/>
       <path id="DejaVuSans-71" d="M 947 1747 
Q 947 1113 1208 752 
Q 1469 391 1925 391 
Q 2381 391 2643 752 
Q 2906 1113 2906 1747 
Q 2906 2381 2643 2742 
Q 2381 3103 1925 3103 
Q 1469 3103 1208 2742 
Q 947 2381 947 1747 
z
M 2906 525 
Q 2725 213 2448 61 
Q 2172 -91 1784 -91 
Q 1150 -91 751 415 
Q 353 922 353 1747 
Q 353 2572 751 3078 
Q 1150 3584 1784 3584 
Q 2172 3584 2448 3432 
Q 2725 3281 2906 2969 
L 2906 3500 
L 3481 3500 
L 3481 -1331 
L 2906 -1331 
L 2906 525 
z
" transform="scale(0.015625)"/>
      </defs>
      <use xlink:href="#DejaVuSans-54"/>
      <use xlink:href="#DejaVuSans-68" transform="translate(61.083984 0)"/>
      <use xlink:href="#DejaVuSans-65" transform="translate(124.462891 0)"/>
      <use xlink:href="#DejaVuSans-6f" transform="translate(185.986328 0)"/>
      <use xlink:href="#DejaVuSans-72" transform="translate(247.167969 0)"/>
      <use xlink:href="#DejaVuSans-65" transform="translate(286.03125 0)"/>
      <use xlink:href="#DejaVuSans-74" transform="translate(347.554688 0)"/>
      <use xlink:href="#DejaVuSans-69" transform="translate(386.763672 0)"/>
      <use xlink:href="#DejaVuSans-63" transform="translate(414.546875 0)"/>
      <use xlink:href="#DejaVuSans-61" transform="translate(469.527344 0)"/>
      <use xlink:href="#DejaVuSans-6c" transform="translate(530.806641 0)"/>
      <use xlink:href="#DejaVuSans-20" transform="translate(558.589844 0)"/>
      <use xlink:href="#DejaVuSans-71" transform="translate(590.376953 0)"/>
      <use xlink:href="#DejaVuSans-75" transform="translate(653.853516 0)"/>
      <use xlink:href="#DejaVuSans-61" transform="translate(717.232422 0)"/>
      <use xlink:href="#DejaVuSans-6e" transform="translate(778.511719 0)"/>
      <use xlink:href="#DejaVuSans-74" transform="translate(841.890625 0)"/>
      <use xlink:href="#DejaVuSans-69" transform="translate(881.099609 0)"/>
      <use xlink:href="#DejaVuSans-6c" transform="translate(908.882812 0)"/>
      <use xlink:href="#DejaVuSans-65" transform="translate(936.666016 0)"/>
      <use xlink:href="#DejaVuSans-73" transform="translate(998.189453 0)"/>
     </g>
    </g>
   </g>
   <g id="matplotlib.axis_4">
    <g id="ytick_6">
     <g id="line2d_16">
      <g>
       <use xlink:href="#m588a6f83ec" x="478.46" y="304.456419" style="stroke: #000000; stroke-width: 0.8"/>
      </g>
     </g>
     <g id="text_19">
      <!-- −7.5 -->
      <g transform="translate(447.177187 308.255638) scale(0.1 -0.1)">
       <defs>
        <path id="DejaVuSans-37" d="M 525 4666 
L 3525 4666 
L 3525 4397 
L 1831 0 
L 1172 0 
L 2766 4134 
L 525 4134 
L 525 4666 
z
" transform="scale(0.015625)"/>
       </defs>
       <use xlink:href="#DejaVuSans-2212"/>
       <use xlink:href="#DejaVuSans-37" transform="translate(83.789062 0)"/>
       <use xlink:href="#DejaVuSans-2e" transform="translate(147.412109 0)"/>
       <use xlink:href="#DejaVuSans-35" transform="translate(179.199219 0)"/>
      </g>
     </g>
    </g>
    <g id="ytick_7">
     <g id="line2d_17">
      <g>
       <use xlink:href="#m588a6f83ec" x="478.46" y="270.038685" style="stroke: #000000; stroke-width: 0.8"/>
      </g>
     </g>
     <g id="text_20">
      <!-- −5.0 -->
      <g transform="translate(447.177187 273.837904) scale(0.1 -0.1)">
       <use xlink:href="#DejaVuSans-2212"/>
       <use xlink:href="#DejaVuSans-35" transform="translate(83.789062 0)"/>
       <use xlink:href="#DejaVuSans-2e" transform="translate(147.412109 0)"/>
       <use xlink:href="#DejaVuSans-30" transform="translate(179.199219 0)"/>
      </g>
     </g>
    </g>
    <g id="ytick_8">
     <g id="line2d_18">
      <g>
       <use xlink:href="#m588a6f83ec" x="478.46" y="235.620951" style="stroke: #000000; stroke-width: 0.8"/>
      </g>
     </g>
     <g id="text_21">
      <!-- −2.5 -->
      <g transform="translate(447.177187 239.420169) scale(0.1 -0.1)">
       <use xlink:href="#DejaVuSans-2212"/>
       <use xlink:href="#DejaVuSans-32" transform="translate(83.789062 0)"/>
       <use xlink:href="#DejaVuSans-2e" transform="translate(147.412109 0)"/>
       <use xlink:href="#DejaVuSans-35" transform="translate(179.199219 0)"/>
      </g>
     </g>
    </g>
    <g id="ytick_9">
     <g id="line2d_19">
      <g>
       <use xlink:href="#m588a6f83ec" x="478.46" y="201.203216" style="stroke: #000000; stroke-width: 0.8"/>
      </g>
     </g>
     <g id="text_22">
      <!-- 0.0 -->
      <g transform="translate(455.556875 205.002435) scale(0.1 -0.1)">
       <use xlink:href="#DejaVuSans-30"/>
       <use xlink:href="#DejaVuSans-2e" transform="translate(63.623047 0)"/>
       <use xlink:href="#DejaVuSans-30" transform="translate(95.410156 0)"/>
      </g>
     </g>
    </g>
    <g id="ytick_10">
     <g id="line2d_20">
      <g>
       <use xlink:href="#m588a6f83ec" x="478.46" y="166.785482" style="stroke: #000000; stroke-width: 0.8"/>
      </g>
     </g>
     <g id="text_23">
      <!-- 2.5 -->
      <g transform="translate(455.556875 170.5847) scale(0.1 -0.1)">
       <use xlink:href="#DejaVuSans-32"/>
       <use xlink:href="#DejaVuSans-2e" transform="translate(63.623047 0)"/>
       <use xlink:href="#DejaVuSans-35" transform="translate(95.410156 0)"/>
      </g>
     </g>
    </g>
    <g id="ytick_11">
     <g id="line2d_21">
      <g>
       <use xlink:href="#m588a6f83ec" x="478.46" y="132.367747" style="stroke: #000000; stroke-width: 0.8"/>
      </g>
     </g>
     <g id="text_24">
      <!-- 5.0 -->
      <g transform="translate(455.556875 136.166966) scale(0.1 -0.1)">
       <use xlink:href="#DejaVuSans-35"/>
       <use xlink:href="#DejaVuSans-2e" transform="translate(63.623047 0)"/>
       <use xlink:href="#DejaVuSans-30" transform="translate(95.410156 0)"/>
      </g>
     </g>
    </g>
    <g id="ytick_12">
     <g id="line2d_22">
      <g>
       <use xlink:href="#m588a6f83ec" x="478.46" y="97.950013" style="stroke: #000000; stroke-width: 0.8"/>
      </g>
     </g>
     <g id="text_25">
      <!-- 7.5 -->
      <g transform="translate(455.556875 101.749232) scale(0.1 -0.1)">
       <use xlink:href="#DejaVuSans-37"/>
       <use xlink:href="#DejaVuSans-2e" transform="translate(63.623047 0)"/>
       <use xlink:href="#DejaVuSans-35" transform="translate(95.410156 0)"/>
      </g>
     </g>
    </g>
    <g id="ytick_13">
     <g id="line2d_23">
      <g>
       <use xlink:href="#m588a6f83ec" x="478.46" y="63.532278" style="stroke: #000000; stroke-width: 0.8"/>
      </g>
     </g>
     <g id="text_26">
      <!-- 10.0 -->
      <g transform="translate(449.194375 67.331497) scale(0.1 -0.1)">
       <use xlink:href="#DejaVuSans-31"/>
       <use xlink:href="#DejaVuSans-30" transform="translate(63.623047 0)"/>
       <use xlink:href="#DejaVuSans-2e" transform="translate(127.246094 0)"/>
       <use xlink:href="#DejaVuSans-30" transform="translate(159.033203 0)"/>
      </g>
     </g>
    </g>
    <g id="ytick_14">
     <g id="line2d_24">
      <g>
       <use xlink:href="#m588a6f83ec" x="478.46" y="29.114544" style="stroke: #000000; stroke-width: 0.8"/>
      </g>
     </g>
     <g id="text_27">
      <!-- 12.5 -->
      <g transform="translate(449.194375 32.913763) scale(0.1 -0.1)">
       <use xlink:href="#DejaVuSans-31"/>
       <use xlink:href="#DejaVuSans-32" transform="translate(63.623047 0)"/>
       <use xlink:href="#DejaVuSans-2e" transform="translate(127.246094 0)"/>
       <use xlink:href="#DejaVuSans-35" transform="translate(159.033203 0)"/>
      </g>
     </g>
    </g>
    <g id="text_28">
     <!-- Ordered Values -->
     <g transform="translate(441.0975 210.733438) rotate(-90) scale(0.1 -0.1)">
      <defs>
       <path id="DejaVuSans-4f" d="M 2522 4238 
Q 1834 4238 1429 3725 
Q 1025 3213 1025 2328 
Q 1025 1447 1429 934 
Q 1834 422 2522 422 
Q 3209 422 3611 934 
Q 4013 1447 4013 2328 
Q 4013 3213 3611 3725 
Q 3209 4238 2522 4238 
z
M 2522 4750 
Q 3503 4750 4090 4092 
Q 4678 3434 4678 2328 
Q 4678 1225 4090 567 
Q 3503 -91 2522 -91 
Q 1538 -91 948 565 
Q 359 1222 359 2328 
Q 359 3434 948 4092 
Q 1538 4750 2522 4750 
z
" transform="scale(0.015625)"/>
       <path id="DejaVuSans-56" d="M 1831 0 
L 50 4666 
L 709 4666 
L 2188 738 
L 3669 4666 
L 4325 4666 
L 2547 0 
L 1831 0 
z
" transform="scale(0.015625)"/>
      </defs>
      <use xlink:href="#DejaVuSans-4f"/>
      <use xlink:href="#DejaVuSans-72" transform="translate(78.710938 0)"/>
      <use xlink:href="#DejaVuSans-64" transform="translate(118.074219 0)"/>
      <use xlink:href="#DejaVuSans-65" transform="translate(181.550781 0)"/>
      <use xlink:href="#DejaVuSans-72" transform="translate(243.074219 0)"/>
      <use xlink:href="#DejaVuSans-65" transform="translate(281.9375 0)"/>
      <use xlink:href="#DejaVuSans-64" transform="translate(343.460938 0)"/>
      <use xlink:href="#DejaVuSans-20" transform="translate(406.9375 0)"/>
      <use xlink:href="#DejaVuSans-56" transform="translate(438.724609 0)"/>
      <use xlink:href="#DejaVuSans-61" transform="translate(499.382812 0)"/>
      <use xlink:href="#DejaVuSans-6c" transform="translate(560.662109 0)"/>
      <use xlink:href="#DejaVuSans-75" transform="translate(588.445312 0)"/>
      <use xlink:href="#DejaVuSans-65" transform="translate(651.824219 0)"/>
      <use xlink:href="#DejaVuSans-73" transform="translate(713.347656 0)"/>
     </g>
    </g>
   </g>
   <g id="line2d_25">
    <defs>
     <path id="m0ec82f8153" d="M 0 3 
C 0.795609 3 1.55874 2.683901 2.12132 2.12132 
C 2.683901 1.55874 3 0.795609 3 0 
C 3 -0.795609 2.683901 -1.55874 2.12132 -2.12132 
C 1.55874 -2.683901 0.795609 -3 0 -3 
C -0.795609 -3 -1.55874 -2.683901 -2.12132 -2.12132 
C -2.683901 -1.55874 -3 -0.795609 -3 0 
C -3 0.795609 -2.683901 1.55874 -2.12132 2.12132 
C -1.55874 2.683901 -0.795609 3 0 3 
z
" style="stroke: #0000ff"/>
    </defs>
    <g clip-path="url(#pc51265dd50)">
     <use xlink:href="#m0ec82f8153" x="495.493636" y="304.805455" style="fill: #0000ff; stroke: #0000ff"/>
     <use xlink:href="#m0ec82f8153" x="518.113536" y="277.573524" style="fill: #0000ff; stroke: #0000ff"/>
     <use xlink:href="#m0ec82f8153" x="531.160834" y="261.294817" style="fill: #0000ff; stroke: #0000ff"/>
     <use xlink:href="#m0ec82f8153" x="540.587641" y="255.969334" style="fill: #0000ff; stroke: #0000ff"/>
     <use xlink:href="#m0ec82f8153" x="548.091788" y="255.667077" style="fill: #0000ff; stroke: #0000ff"/>
     <use xlink:href="#m0ec82f8153" x="554.391677" y="254.760306" style="fill: #0000ff; stroke: #0000ff"/>
     <use xlink:href="#m0ec82f8153" x="559.861976" y="253.155464" style="fill: #0000ff; stroke: #0000ff"/>
     <use xlink:href="#m0ec82f8153" x="564.724017" y="250.341594" style="fill: #0000ff; stroke: #0000ff"/>
     <use xlink:href="#m0ec82f8153" x="569.119964" y="247.527724" style="fill: #0000ff; stroke: #0000ff"/>
     <use xlink:href="#m0ec82f8153" x="573.146814" y="247.225466" style="fill: #0000ff; stroke: #0000ff"/>
     <use xlink:href="#m0ec82f8153" x="576.873846" y="245.016111" style="fill: #0000ff; stroke: #0000ff"/>
     <use xlink:href="#m0ec82f8153" x="580.352356" y="245.016111" style="fill: #0000ff; stroke: #0000ff"/>
     <use xlink:href="#m0ec82f8153" x="583.621437" y="244.713853" style="fill: #0000ff; stroke: #0000ff"/>
     <use xlink:href="#m0ec82f8153" x="586.711607" y="244.713853" style="fill: #0000ff; stroke: #0000ff"/>
     <use xlink:href="#m0ec82f8153" x="589.647175" y="244.713853" style="fill: #0000ff; stroke: #0000ff"/>
     <use xlink:href="#m0ec82f8153" x="592.447833" y="242.20224" style="fill: #0000ff; stroke: #0000ff"/>
     <use xlink:href="#m0ec82f8153" x="595.129777" y="242.20224" style="fill: #0000ff; stroke: #0000ff"/>
     <use xlink:href="#m0ec82f8153" x="597.706497" y="234.062887" style="fill: #0000ff; stroke: #0000ff"/>
     <use xlink:href="#m0ec82f8153" x="600.189357" y="234.062887" style="fill: #0000ff; stroke: #0000ff"/>
     <use xlink:href="#m0ec82f8153" x="602.588032" y="231.249017" style="fill: #0000ff; stroke: #0000ff"/>
     <use xlink:href="#m0ec82f8153" x="604.910829" y="228.435147" style="fill: #0000ff; stroke: #0000ff"/>
     <use xlink:href="#m0ec82f8153" x="607.164943" y="227.528375" style="fill: #0000ff; stroke: #0000ff"/>
     <use xlink:href="#m0ec82f8153" x="609.356648" y="225.621276" style="fill: #0000ff; stroke: #0000ff"/>
     <use xlink:href="#m0ec82f8153" x="611.491457" y="225.621276" style="fill: #0000ff; stroke: #0000ff"/>
     <use xlink:href="#m0ec82f8153" x="613.574244" y="225.621276" style="fill: #0000ff; stroke: #0000ff"/>
     <use xlink:href="#m0ec82f8153" x="615.609339" y="223.109663" style="fill: #0000ff; stroke: #0000ff"/>
     <use xlink:href="#m0ec82f8153" x="617.600614" y="223.109663" style="fill: #0000ff; stroke: #0000ff"/>
     <use xlink:href="#m0ec82f8153" x="619.551547" y="223.109663" style="fill: #0000ff; stroke: #0000ff"/>
     <use xlink:href="#m0ec82f8153" x="621.465279" y="223.109663" style="fill: #0000ff; stroke: #0000ff"/>
     <use xlink:href="#m0ec82f8153" x="623.344657" y="223.109663" style="fill: #0000ff; stroke: #0000ff"/>
     <use xlink:href="#m0ec82f8153" x="625.192271" y="223.109663" style="fill: #0000ff; stroke: #0000ff"/>
     <use xlink:href="#m0ec82f8153" x="627.010493" y="223.109663" style="fill: #0000ff; stroke: #0000ff"/>
     <use xlink:href="#m0ec82f8153" x="628.801499" y="223.109663" style="fill: #0000ff; stroke: #0000ff"/>
     <use xlink:href="#m0ec82f8153" x="630.567292" y="223.109663" style="fill: #0000ff; stroke: #0000ff"/>
     <use xlink:href="#m0ec82f8153" x="632.309726" y="222.807406" style="fill: #0000ff; stroke: #0000ff"/>
     <use xlink:href="#m0ec82f8153" x="634.030522" y="220.295793" style="fill: #0000ff; stroke: #0000ff"/>
     <use xlink:href="#m0ec82f8153" x="635.731281" y="220.295793" style="fill: #0000ff; stroke: #0000ff"/>
     <use xlink:href="#m0ec82f8153" x="637.4135" y="220.295793" style="fill: #0000ff; stroke: #0000ff"/>
     <use xlink:href="#m0ec82f8153" x="639.078583" y="220.295793" style="fill: #0000ff; stroke: #0000ff"/>
     <use xlink:href="#m0ec82f8153" x="640.72785" y="220.295793" style="fill: #0000ff; stroke: #0000ff"/>
     <use xlink:href="#m0ec82f8153" x="642.362547" y="220.295793" style="fill: #0000ff; stroke: #0000ff"/>
     <use xlink:href="#m0ec82f8153" x="643.983853" y="217.481923" style="fill: #0000ff; stroke: #0000ff"/>
     <use xlink:href="#m0ec82f8153" x="645.59289" y="216.877409" style="fill: #0000ff; stroke: #0000ff"/>
     <use xlink:href="#m0ec82f8153" x="647.190726" y="214.365796" style="fill: #0000ff; stroke: #0000ff"/>
     <use xlink:href="#m0ec82f8153" x="648.778381" y="214.365796" style="fill: #0000ff; stroke: #0000ff"/>
     <use xlink:href="#m0ec82f8153" x="650.356837" y="214.063538" style="fill: #0000ff; stroke: #0000ff"/>
     <use xlink:href="#m0ec82f8153" x="651.927037" y="212.15644" style="fill: #0000ff; stroke: #0000ff"/>
     <use xlink:href="#m0ec82f8153" x="653.489892" y="212.15644" style="fill: #0000ff; stroke: #0000ff"/>
     <use xlink:href="#m0ec82f8153" x="655.046284" y="212.15644" style="fill: #0000ff; stroke: #0000ff"/>
     <use xlink:href="#m0ec82f8153" x="656.597074" y="212.15644" style="fill: #0000ff; stroke: #0000ff"/>
     <use xlink:href="#m0ec82f8153" x="658.143097" y="212.15644" style="fill: #0000ff; stroke: #0000ff"/>
     <use xlink:href="#m0ec82f8153" x="659.685175" y="212.15644" style="fill: #0000ff; stroke: #0000ff"/>
     <use xlink:href="#m0ec82f8153" x="661.224114" y="212.15644" style="fill: #0000ff; stroke: #0000ff"/>
     <use xlink:href="#m0ec82f8153" x="662.760707" y="212.15644" style="fill: #0000ff; stroke: #0000ff"/>
     <use xlink:href="#m0ec82f8153" x="664.295743" y="212.15644" style="fill: #0000ff; stroke: #0000ff"/>
     <use xlink:href="#m0ec82f8153" x="665.83" y="212.15644" style="fill: #0000ff; stroke: #0000ff"/>
     <use xlink:href="#m0ec82f8153" x="667.364257" y="212.15644" style="fill: #0000ff; stroke: #0000ff"/>
     <use xlink:href="#m0ec82f8153" x="668.899293" y="212.15644" style="fill: #0000ff; stroke: #0000ff"/>
     <use xlink:href="#m0ec82f8153" x="670.435886" y="212.15644" style="fill: #0000ff; stroke: #0000ff"/>
     <use xlink:href="#m0ec82f8153" x="671.974825" y="212.15644" style="fill: #0000ff; stroke: #0000ff"/>
     <use xlink:href="#m0ec82f8153" x="673.516903" y="212.15644" style="fill: #0000ff; stroke: #0000ff"/>
     <use xlink:href="#m0ec82f8153" x="675.062926" y="212.15644" style="fill: #0000ff; stroke: #0000ff"/>
     <use xlink:href="#m0ec82f8153" x="676.613716" y="212.15644" style="fill: #0000ff; stroke: #0000ff"/>
     <use xlink:href="#m0ec82f8153" x="678.170108" y="212.15644" style="fill: #0000ff; stroke: #0000ff"/>
     <use xlink:href="#m0ec82f8153" x="679.732963" y="212.15644" style="fill: #0000ff; stroke: #0000ff"/>
     <use xlink:href="#m0ec82f8153" x="681.303163" y="212.15644" style="fill: #0000ff; stroke: #0000ff"/>
     <use xlink:href="#m0ec82f8153" x="682.881619" y="212.15644" style="fill: #0000ff; stroke: #0000ff"/>
     <use xlink:href="#m0ec82f8153" x="684.469274" y="212.15644" style="fill: #0000ff; stroke: #0000ff"/>
     <use xlink:href="#m0ec82f8153" x="686.06711" y="212.15644" style="fill: #0000ff; stroke: #0000ff"/>
     <use xlink:href="#m0ec82f8153" x="687.676147" y="211.249668" style="fill: #0000ff; stroke: #0000ff"/>
     <use xlink:href="#m0ec82f8153" x="689.297453" y="209.34257" style="fill: #0000ff; stroke: #0000ff"/>
     <use xlink:href="#m0ec82f8153" x="690.93215" y="209.34257" style="fill: #0000ff; stroke: #0000ff"/>
     <use xlink:href="#m0ec82f8153" x="692.581417" y="209.34257" style="fill: #0000ff; stroke: #0000ff"/>
     <use xlink:href="#m0ec82f8153" x="694.2465" y="208.738055" style="fill: #0000ff; stroke: #0000ff"/>
     <use xlink:href="#m0ec82f8153" x="695.928719" y="205.621928" style="fill: #0000ff; stroke: #0000ff"/>
     <use xlink:href="#m0ec82f8153" x="697.629478" y="205.017414" style="fill: #0000ff; stroke: #0000ff"/>
     <use xlink:href="#m0ec82f8153" x="699.350274" y="203.714829" style="fill: #0000ff; stroke: #0000ff"/>
     <use xlink:href="#m0ec82f8153" x="701.092708" y="200.900959" style="fill: #0000ff; stroke: #0000ff"/>
     <use xlink:href="#m0ec82f8153" x="702.858501" y="198.389346" style="fill: #0000ff; stroke: #0000ff"/>
     <use xlink:href="#m0ec82f8153" x="704.649507" y="198.389346" style="fill: #0000ff; stroke: #0000ff"/>
     <use xlink:href="#m0ec82f8153" x="706.467729" y="198.389346" style="fill: #0000ff; stroke: #0000ff"/>
     <use xlink:href="#m0ec82f8153" x="708.315343" y="198.389346" style="fill: #0000ff; stroke: #0000ff"/>
     <use xlink:href="#m0ec82f8153" x="710.194721" y="198.389346" style="fill: #0000ff; stroke: #0000ff"/>
     <use xlink:href="#m0ec82f8153" x="712.108453" y="198.389346" style="fill: #0000ff; stroke: #0000ff"/>
     <use xlink:href="#m0ec82f8153" x="714.059386" y="198.087089" style="fill: #0000ff; stroke: #0000ff"/>
     <use xlink:href="#m0ec82f8153" x="716.050661" y="197.784832" style="fill: #0000ff; stroke: #0000ff"/>
     <use xlink:href="#m0ec82f8153" x="718.085756" y="197.784832" style="fill: #0000ff; stroke: #0000ff"/>
     <use xlink:href="#m0ec82f8153" x="720.168543" y="195.575476" style="fill: #0000ff; stroke: #0000ff"/>
     <use xlink:href="#m0ec82f8153" x="722.303352" y="195.575476" style="fill: #0000ff; stroke: #0000ff"/>
     <use xlink:href="#m0ec82f8153" x="724.495057" y="194.366447" style="fill: #0000ff; stroke: #0000ff"/>
     <use xlink:href="#m0ec82f8153" x="726.749171" y="194.06419" style="fill: #0000ff; stroke: #0000ff"/>
     <use xlink:href="#m0ec82f8153" x="729.071968" y="192.761606" style="fill: #0000ff; stroke: #0000ff"/>
     <use xlink:href="#m0ec82f8153" x="731.470643" y="189.343221" style="fill: #0000ff; stroke: #0000ff"/>
     <use xlink:href="#m0ec82f8153" x="733.953503" y="189.040964" style="fill: #0000ff; stroke: #0000ff"/>
     <use xlink:href="#m0ec82f8153" x="736.530223" y="184.622252" style="fill: #0000ff; stroke: #0000ff"/>
     <use xlink:href="#m0ec82f8153" x="739.212167" y="183.413224" style="fill: #0000ff; stroke: #0000ff"/>
     <use xlink:href="#m0ec82f8153" x="742.012825" y="181.808382" style="fill: #0000ff; stroke: #0000ff"/>
     <use xlink:href="#m0ec82f8153" x="744.948393" y="181.506125" style="fill: #0000ff; stroke: #0000ff"/>
     <use xlink:href="#m0ec82f8153" x="748.038563" y="178.994512" style="fill: #0000ff; stroke: #0000ff"/>
     <use xlink:href="#m0ec82f8153" x="751.307644" y="172.762257" style="fill: #0000ff; stroke: #0000ff"/>
     <use xlink:href="#m0ec82f8153" x="754.786154" y="171.855486" style="fill: #0000ff; stroke: #0000ff"/>
     <use xlink:href="#m0ec82f8153" x="758.513186" y="167.739031" style="fill: #0000ff; stroke: #0000ff"/>
     <use xlink:href="#m0ec82f8153" x="762.540036" y="162.413548" style="fill: #0000ff; stroke: #0000ff"/>
     <use xlink:href="#m0ec82f8153" x="766.935983" y="162.413548" style="fill: #0000ff; stroke: #0000ff"/>
     <use xlink:href="#m0ec82f8153" x="771.798024" y="161.204519" style="fill: #0000ff; stroke: #0000ff"/>
     <use xlink:href="#m0ec82f8153" x="777.268323" y="150.85581" style="fill: #0000ff; stroke: #0000ff"/>
     <use xlink:href="#m0ec82f8153" x="783.568212" y="147.135168" style="fill: #0000ff; stroke: #0000ff"/>
     <use xlink:href="#m0ec82f8153" x="791.072359" y="141.809685" style="fill: #0000ff; stroke: #0000ff"/>
     <use xlink:href="#m0ec82f8153" x="800.499166" y="137.390973" style="fill: #0000ff; stroke: #0000ff"/>
     <use xlink:href="#m0ec82f8153" x="813.546464" y="132.06549" style="fill: #0000ff; stroke: #0000ff"/>
     <use xlink:href="#m0ec82f8153" x="836.166364" y="40.114545" style="fill: #0000ff; stroke: #0000ff"/>
    </g>
   </g>
   <g id="line2d_26">
    <path d="M 495.493636 286.199945 
L 518.113536 276.086342 
L 531.160834 270.252753 
L 540.587641 266.037925 
L 548.091788 262.682739 
L 554.391677 259.865991 
L 559.861976 257.420161 
L 564.724017 255.246289 
L 569.119964 253.280813 
L 573.146814 251.480365 
L 576.873846 249.813968 
L 580.352356 248.258689 
L 583.621437 246.797047 
L 586.711607 245.415398 
L 589.647175 244.102874 
L 592.447833 242.85067 
L 595.129777 241.651543 
L 597.706497 240.499464 
L 600.189357 239.38935 
L 602.588032 238.316876 
L 604.910829 237.278328 
L 607.164943 236.27049 
L 609.356648 235.290554 
L 611.491457 234.336058 
L 613.574244 233.404821 
L 615.609339 232.494908 
L 617.600614 231.604588 
L 619.551547 230.732304 
L 621.465279 229.876654 
L 623.344657 229.036364 
L 625.192271 228.210275 
L 627.010493 227.397328 
L 628.801499 226.59655 
L 630.567292 225.807045 
L 632.309726 225.027984 
L 634.030522 224.258597 
L 635.731281 223.498169 
L 637.4135 222.746031 
L 639.078583 222.001554 
L 640.72785 221.264149 
L 642.362547 220.533258 
L 643.983853 219.808354 
L 645.59289 219.088936 
L 647.190726 218.374527 
L 648.778381 217.664669 
L 650.356837 216.958924 
L 651.927037 216.25687 
L 653.489892 215.558101 
L 655.046284 214.862221 
L 656.597074 214.168846 
L 658.143097 213.477602 
L 659.685175 212.788123 
L 661.224114 212.100046 
L 662.760707 211.413019 
L 664.295743 210.726688 
L 665.83 210.040705 
L 667.364257 209.354721 
L 668.899293 208.66839 
L 670.435886 207.981363 
L 671.974825 207.293286 
L 673.516903 206.603807 
L 675.062926 205.912563 
L 676.613716 205.219188 
L 678.170108 204.523308 
L 679.732963 203.824539 
L 681.303163 203.122485 
L 682.881619 202.41674 
L 684.469274 201.706882 
L 686.06711 200.992473 
L 687.676147 200.273055 
L 689.297453 199.548151 
L 690.93215 198.81726 
L 692.581417 198.079855 
L 694.2465 197.335378 
L 695.928719 196.58324 
L 697.629478 195.822812 
L 699.350274 195.053425 
L 701.092708 194.274364 
L 702.858501 193.484859 
L 704.649507 192.684081 
L 706.467729 191.871134 
L 708.315343 191.045045 
L 710.194721 190.204755 
L 712.108453 189.349105 
L 714.059386 188.476821 
L 716.050661 187.586501 
L 718.085756 186.676588 
L 720.168543 185.745351 
L 722.303352 184.790855 
L 724.495057 183.810919 
L 726.749171 182.803081 
L 729.071968 181.764533 
L 731.470643 180.692059 
L 733.953503 179.581945 
L 736.530223 178.429866 
L 739.212167 177.230739 
L 742.012825 175.978535 
L 744.948393 174.666011 
L 748.038563 173.284362 
L 751.307644 171.82272 
L 754.786154 170.267441 
L 758.513186 168.601044 
L 762.540036 166.800596 
L 766.935983 164.83512 
L 771.798024 162.661248 
L 777.268323 160.215418 
L 783.568212 157.39867 
L 791.072359 154.043484 
L 800.499166 149.828656 
L 813.546464 143.995067 
L 836.166364 133.881464 
" clip-path="url(#pc51265dd50)" style="fill: none; stroke: #ff0000; stroke-width: 1.5; stroke-linecap: square"/>
   </g>
   <g id="patch_38">
    <path d="M 478.46 318.04 
L 478.46 26.88 
" style="fill: none; stroke: #000000; stroke-width: 0.8; stroke-linejoin: miter; stroke-linecap: square"/>
   </g>
   <g id="patch_39">
    <path d="M 853.2 318.04 
L 853.2 26.88 
" style="fill: none; stroke: #000000; stroke-width: 0.8; stroke-linejoin: miter; stroke-linecap: square"/>
   </g>
   <g id="patch_40">
    <path d="M 478.46 318.04 
L 853.2 318.04 
" style="fill: none; stroke: #000000; stroke-width: 0.8; stroke-linejoin: miter; stroke-linecap: square"/>
   </g>
   <g id="patch_41">
    <path d="M 478.46 26.88 
L 853.2 26.88 
" style="fill: none; stroke: #000000; stroke-width: 0.8; stroke-linejoin: miter; stroke-linecap: square"/>
   </g>
   <g id="text_29">
    <!-- Q-Q Plot -->
    <g transform="translate(640.621562 20.88) scale(0.12 -0.12)">
     <defs>
      <path id="DejaVuSans-51" d="M 2522 4238 
Q 1834 4238 1429 3725 
Q 1025 3213 1025 2328 
Q 1025 1447 1429 934 
Q 1834 422 2522 422 
Q 3209 422 3611 934 
Q 4013 1447 4013 2328 
Q 4013 3213 3611 3725 
Q 3209 4238 2522 4238 
z
M 3406 84 
L 4238 -825 
L 3475 -825 
L 2784 -78 
Q 2681 -84 2626 -87 
Q 2572 -91 2522 -91 
Q 1538 -91 948 567 
Q 359 1225 359 2328 
Q 359 3434 948 4092 
Q 1538 4750 2522 4750 
Q 3503 4750 4090 4092 
Q 4678 3434 4678 2328 
Q 4678 1516 4351 937 
Q 4025 359 3406 84 
z
" transform="scale(0.015625)"/>
      <path id="DejaVuSans-2d" d="M 313 2009 
L 1997 2009 
L 1997 1497 
L 313 1497 
L 313 2009 
z
" transform="scale(0.015625)"/>
      <path id="DejaVuSans-50" d="M 1259 4147 
L 1259 2394 
L 2053 2394 
Q 2494 2394 2734 2622 
Q 2975 2850 2975 3272 
Q 2975 3691 2734 3919 
Q 2494 4147 2053 4147 
L 1259 4147 
z
M 628 4666 
L 2053 4666 
Q 2838 4666 3239 4311 
Q 3641 3956 3641 3272 
Q 3641 2581 3239 2228 
Q 2838 1875 2053 1875 
L 1259 1875 
L 1259 0 
L 628 0 
L 628 4666 
z
" transform="scale(0.015625)"/>
     </defs>
     <use xlink:href="#DejaVuSans-51"/>
     <use xlink:href="#DejaVuSans-2d" transform="translate(81.460938 0)"/>
     <use xlink:href="#DejaVuSans-51" transform="translate(121.169922 0)"/>
     <use xlink:href="#DejaVuSans-20" transform="translate(199.880859 0)"/>
     <use xlink:href="#DejaVuSans-50" transform="translate(231.667969 0)"/>
     <use xlink:href="#DejaVuSans-6c" transform="translate(291.970703 0)"/>
     <use xlink:href="#DejaVuSans-6f" transform="translate(319.753906 0)"/>
     <use xlink:href="#DejaVuSans-74" transform="translate(380.935547 0)"/>
    </g>
   </g>
  </g>
 </g>
 <defs>
  <clipPath id="pc91e73319b">
   <rect x="47.72" y="26.88" width="374.74" height="291.16"/>
  </clipPath>
  <clipPath id="pc51265dd50">
   <rect x="478.46" y="26.88" width="374.74" height="291.16"/>
  </clipPath>
 </defs>
</svg>
