<?xml version="1.0" encoding="utf-8" standalone="no"?>
<!DOCTYPE svg PUBLIC "-//W3C//DTD SVG 1.1//EN"
  "http://www.w3.org/Graphics/SVG/1.1/DTD/svg11.dtd">
<svg xmlns:xlink="http://www.w3.org/1999/xlink" width="576pt" height="432pt" viewBox="0 0 576 432" xmlns="http://www.w3.org/2000/svg" version="1.1">
 <metadata>
  <rdf:RDF xmlns:dc="http://purl.org/dc/elements/1.1/" xmlns:cc="http://creativecommons.org/ns#" xmlns:rdf="http://www.w3.org/1999/02/22-rdf-syntax-ns#">
   <cc:Work>
    <dc:type rdf:resource="http://purl.org/dc/dcmitype/StillImage"/>
    <dc:date>2025-12-15T13:58:18.109930</dc:date>
    <dc:format>image/svg+xml</dc:format>
    <dc:creator>
     <cc:Agent>
      <dc:title>Matplotlib v3.10.0, https://matplotlib.org/</dc:title>
     </cc:Agent>
    </dc:creator>
   </cc:Work>
  </rdf:RDF>
 </metadata>
 <defs>
  <style type="text/css">*{stroke-linejoin: round; stroke-linecap: butt}</style>
 </defs>
 <g id="figure_1">
  <g id="patch_1">
   <path d="M 0 432 
L 576 432 
L 576 0 
L 0 0 
z
" style="fill: #ffffff"/>
  </g>
  <g id="axes_1">
   <g id="LineCollection_1">
    <path d="M 382.788871 295.559203 
L 336.211165 246.055565 
" clip-path="url(#p383593e819)" style="fill: none; stroke: #009e73; stroke-width: 1.274883"/>
    <path d="M 336.211165 246.055565 
L 301.473965 194.61108 
" clip-path="url(#p383593e819)" style="fill: none; stroke: #009e73; stroke-width: 0.792036"/>
    <path d="M 336.211165 246.055565 
L 360.65566 196.244337 
" clip-path="url(#p383593e819)" style="fill: none; stroke: #009e73; stroke-width: 0.652674"/>
    <path d="M 336.211165 246.055565 
L 291.208978 295.625237 
" clip-path="url(#p383593e819)" style="fill: none; stroke: #009e73; stroke-width: 0.652674"/>
    <path d="M 301.473965 194.61108 
L 336.389428 146.393514 
" clip-path="url(#p383593e819)" style="fill: none; stroke: #009e73; stroke-width: 0.966744"/>
    <path d="M 301.473965 194.61108 
L 360.65566 196.244337 
" clip-path="url(#p383593e819)" style="fill: none; stroke: #009e73; stroke-width: 2.295406"/>
    <path d="M 301.473965 194.61108 
L 205.87282 180.056493 
" clip-path="url(#p383593e819)" style="fill: none; stroke: #009e73; stroke-width: 0.665879"/>
    <path d="M 336.389428 146.393514 
L 348.977854 82.213228 
" clip-path="url(#p383593e819)" style="fill: none; stroke: #009e73; stroke-width: 0.691083"/>
    <path d="M 336.389428 146.393514 
L 298.015132 127.184285 
" clip-path="url(#p383593e819)" style="fill: none; stroke: #6e6e6e; stroke-width: 4.531509"/>
    <path d="M 484.193078 108.802819 
L 429.855889 152.041966 
" clip-path="url(#p383593e819)" style="fill: none; stroke: #009e73; stroke-width: 0.652674"/>
    <path d="M 360.65566 196.244337 
L 298.015132 127.184285 
" clip-path="url(#p383593e819)" style="fill: none; stroke: #6e6e6e; stroke-width: 1.249521"/>
    <path d="M 291.208978 295.625237 
L 261.73295 344.651625 
" clip-path="url(#p383593e819)" style="fill: none; stroke: #009e73; stroke-width: 0.691083"/>
    <path d="M 298.015132 127.184285 
L 246.005529 80.183411 
" clip-path="url(#p383593e819)" style="fill: none; stroke: #6e6e6e; stroke-width: 1.249521"/>
   </g>
   <g id="PathCollection_1">
    <defs>
     <path id="mb6b178c1a1" d="M 0 5.428393 
C 1.439627 5.428393 2.820484 4.856423 3.838454 3.838454 
C 4.856423 2.820484 5.428393 1.439627 5.428393 0 
C 5.428393 -1.439627 4.856423 -2.820484 3.838454 -3.838454 
C 2.820484 -4.856423 1.439627 -5.428393 0 -5.428393 
C -1.439627 -5.428393 -2.820484 -4.856423 -3.838454 -3.838454 
C -4.856423 -2.820484 -5.428393 -1.439627 -5.428393 0 
C -5.428393 1.439627 -4.856423 2.820484 -3.838454 3.838454 
C -2.820484 4.856423 -1.439627 5.428393 0 5.428393 
z
" style="stroke: #000000"/>
    </defs>
    <g clip-path="url(#p383593e819)">
     <use xlink:href="#mb6b178c1a1" x="92.290909" y="344.651625" style="stroke: #000000"/>
    </g>
   </g>
   <g id="PathCollection_2">
    <defs>
     <path id="m7154107460" d="M 0 5.309078 
C 1.407984 5.309078 2.75849 4.74968 3.754085 3.754085 
C 4.74968 2.75849 5.309078 1.407984 5.309078 0 
C 5.309078 -1.407984 4.74968 -2.75849 3.754085 -3.754085 
C 2.75849 -4.74968 1.407984 -5.309078 0 -5.309078 
C -1.407984 -5.309078 -2.75849 -4.74968 -3.754085 -3.754085 
C -4.74968 -2.75849 -5.309078 -1.407984 -5.309078 0 
C -5.309078 1.407984 -4.74968 2.75849 -3.754085 3.754085 
C -2.75849 4.74968 -1.407984 5.309078 0 5.309078 
z
" style="stroke: #000000"/>
    </defs>
    <g clip-path="url(#p383593e819)">
     <use xlink:href="#m7154107460" x="112.363583" y="344.651625" style="stroke: #000000"/>
    </g>
   </g>
   <g id="PathCollection_3">
    <defs>
     <path id="m50cf94276a" d="M 0 5.169663 
C 1.371011 5.169663 2.686053 4.624954 3.655504 3.655504 
C 4.624954 2.686053 5.169663 1.371011 5.169663 0 
C 5.169663 -1.371011 4.624954 -2.686053 3.655504 -3.655504 
C 2.686053 -4.624954 1.371011 -5.169663 0 -5.169663 
C -1.371011 -5.169663 -2.686053 -4.624954 -3.655504 -3.655504 
C -4.624954 -2.686053 -5.169663 -1.371011 -5.169663 0 
C -5.169663 1.371011 -4.624954 2.686053 -3.655504 3.655504 
C -2.686053 4.624954 -1.371011 5.169663 0 5.169663 
z
" style="stroke: #000000"/>
    </defs>
    <g clip-path="url(#p383593e819)">
     <use xlink:href="#m50cf94276a" x="132.436257" y="344.651625" style="stroke: #000000"/>
    </g>
   </g>
   <g id="PathCollection_4">
    <defs>
     <path id="ma10e04c0e1" d="M 0 5.041235 
C 1.336951 5.041235 2.619324 4.510059 3.564691 3.564691 
C 4.510059 2.619324 5.041235 1.336951 5.041235 0 
C 5.041235 -1.336951 4.510059 -2.619324 3.564691 -3.564691 
C 2.619324 -4.510059 1.336951 -5.041235 0 -5.041235 
C -1.336951 -5.041235 -2.619324 -4.510059 -3.564691 -3.564691 
C -4.510059 -2.619324 -5.041235 -1.336951 -5.041235 0 
C -5.041235 1.336951 -4.510059 2.619324 -3.564691 3.564691 
C -2.619324 4.510059 -1.336951 5.041235 0 5.041235 
z
" style="stroke: #000000"/>
    </defs>
    <g clip-path="url(#p383593e819)">
     <use xlink:href="#ma10e04c0e1" x="152.508931" y="344.651625" style="stroke: #000000"/>
    </g>
   </g>
   <g id="PathCollection_5">
    <defs>
     <path id="m6cdccb9200" d="M 0 4.843919 
C 1.284622 4.843919 2.516803 4.333533 3.425168 3.425168 
C 4.333533 2.516803 4.843919 1.284622 4.843919 0 
C 4.843919 -1.284622 4.333533 -2.516803 3.425168 -3.425168 
C 2.516803 -4.333533 1.284622 -4.843919 0 -4.843919 
C -1.284622 -4.843919 -2.516803 -4.333533 -3.425168 -3.425168 
C -4.333533 -2.516803 -4.843919 -1.284622 -4.843919 0 
C -4.843919 1.284622 -4.333533 2.516803 -3.425168 3.425168 
C -2.516803 4.333533 -1.284622 4.843919 0 4.843919 
z
" style="stroke: #000000"/>
    </defs>
    <g clip-path="url(#p383593e819)">
     <use xlink:href="#m6cdccb9200" x="172.581606" y="344.651625" style="stroke: #000000"/>
    </g>
   </g>
   <g id="PathCollection_6">
    <defs>
     <path id="mf4bc280182" d="M 0 4.811183 
C 1.275941 4.811183 2.499794 4.304246 3.40202 3.40202 
C 4.304246 2.499794 4.811183 1.275941 4.811183 0 
C 4.811183 -1.275941 4.304246 -2.499794 3.40202 -3.40202 
C 2.499794 -4.304246 1.275941 -4.811183 0 -4.811183 
C -1.275941 -4.811183 -2.499794 -4.304246 -3.40202 -3.40202 
C -4.304246 -2.499794 -4.811183 -1.275941 -4.811183 0 
C -4.811183 1.275941 -4.304246 2.499794 -3.40202 3.40202 
C -2.499794 4.304246 -1.275941 4.811183 0 4.811183 
z
" style="stroke: #000000"/>
    </defs>
    <g clip-path="url(#p383593e819)">
     <use xlink:href="#mf4bc280182" x="192.65428" y="344.651625" style="stroke: #000000"/>
    </g>
   </g>
   <g id="PathCollection_7">
    <defs>
     <path id="m3248f1020a" d="M 0 4.379215 
C 1.161381 4.379215 2.275352 3.917793 3.096572 3.096572 
C 3.917793 2.275352 4.379215 1.161381 4.379215 0 
C 4.379215 -1.161381 3.917793 -2.275352 3.096572 -3.096572 
C 2.275352 -3.917793 1.161381 -4.379215 0 -4.379215 
C -1.161381 -4.379215 -2.275352 -3.917793 -3.096572 -3.096572 
C -3.917793 -2.275352 -4.379215 -1.161381 -4.379215 0 
C -4.379215 1.161381 -3.917793 2.275352 -3.096572 3.096572 
C -2.275352 3.917793 -1.161381 4.379215 0 4.379215 
z
" style="stroke: #000000"/>
    </defs>
    <g clip-path="url(#p383593e819)">
     <use xlink:href="#m3248f1020a" x="212.726954" y="344.651625" style="stroke: #000000"/>
    </g>
   </g>
   <g id="PathCollection_8">
    <defs>
     <path id="m20343adc6d" d="M 0 4.376733 
C 1.160723 4.376733 2.274062 3.915573 3.094818 3.094818 
C 3.915573 2.274062 4.376733 1.160723 4.376733 0 
C 4.376733 -1.160723 3.915573 -2.274062 3.094818 -3.094818 
C 2.274062 -3.915573 1.160723 -4.376733 0 -4.376733 
C -1.160723 -4.376733 -2.274062 -3.915573 -3.094818 -3.094818 
C -3.915573 -2.274062 -4.376733 -1.160723 -4.376733 0 
C -4.376733 1.160723 -3.915573 2.274062 -3.094818 3.094818 
C -2.274062 3.915573 -1.160723 4.376733 0 4.376733 
z
" style="stroke: #000000"/>
    </defs>
    <g clip-path="url(#p383593e819)">
     <use xlink:href="#m20343adc6d" x="232.799628" y="344.651625" style="stroke: #000000"/>
    </g>
   </g>
   <g id="PathCollection_9">
    <defs>
     <path id="mc400b8b800" d="M 0 4.356373 
C 1.155324 4.356373 2.263484 3.897358 3.080421 3.080421 
C 3.897358 2.263484 4.356373 1.155324 4.356373 0 
C 4.356373 -1.155324 3.897358 -2.263484 3.080421 -3.080421 
C 2.263484 -3.897358 1.155324 -4.356373 0 -4.356373 
C -1.155324 -4.356373 -2.263484 -3.897358 -3.080421 -3.080421 
C -3.897358 -2.263484 -4.356373 -1.155324 -4.356373 0 
C -4.356373 1.155324 -3.897358 2.263484 -3.080421 3.080421 
C -2.263484 3.897358 -1.155324 4.356373 0 4.356373 
z
" style="stroke: #000000"/>
    </defs>
    <g clip-path="url(#p383593e819)">
     <use xlink:href="#mc400b8b800" x="252.872302" y="344.651625" style="stroke: #000000"/>
    </g>
   </g>
   <g id="PathCollection_10">
    <defs>
     <path id="m055cbf348c" d="M 0 4.230842 
C 1.122032 4.230842 2.19826 3.785053 2.991657 2.991657 
C 3.785053 2.19826 4.230842 1.122032 4.230842 0 
C 4.230842 -1.122032 3.785053 -2.19826 2.991657 -2.991657 
C 2.19826 -3.785053 1.122032 -4.230842 0 -4.230842 
C -1.122032 -4.230842 -2.19826 -3.785053 -2.991657 -2.991657 
C -3.785053 -2.19826 -4.230842 -1.122032 -4.230842 0 
C -4.230842 1.122032 -3.785053 2.19826 -2.991657 2.991657 
C -2.19826 3.785053 -1.122032 4.230842 0 4.230842 
z
" style="stroke: #000000"/>
    </defs>
    <g clip-path="url(#p383593e819)">
     <use xlink:href="#m055cbf348c" x="272.944976" y="344.651625" style="stroke: #000000"/>
    </g>
   </g>
   <g id="PathCollection_11">
    <defs>
     <path id="m052c6fb145" d="M 0 4.159882 
C 1.103214 4.159882 2.161391 3.721571 2.941481 2.941481 
C 3.721571 2.161391 4.159882 1.103214 4.159882 0 
C 4.159882 -1.103214 3.721571 -2.161391 2.941481 -2.941481 
C 2.161391 -3.721571 1.103214 -4.159882 0 -4.159882 
C -1.103214 -4.159882 -2.161391 -3.721571 -2.941481 -2.941481 
C -3.721571 -2.161391 -4.159882 -1.103214 -4.159882 0 
C -4.159882 1.103214 -3.721571 2.161391 -2.941481 2.941481 
C -2.161391 3.721571 -1.103214 4.159882 0 4.159882 
z
" style="stroke: #000000"/>
    </defs>
    <g clip-path="url(#p383593e819)">
     <use xlink:href="#m052c6fb145" x="293.01765" y="344.651625" style="stroke: #000000"/>
    </g>
   </g>
   <g id="PathCollection_12">
    <defs>
     <path id="mbb0cc4d38b" d="M 0 4.094318 
C 1.085826 4.094318 2.127325 3.662915 2.89512 2.89512 
C 3.662915 2.127325 4.094318 1.085826 4.094318 0 
C 4.094318 -1.085826 3.662915 -2.127325 2.89512 -2.89512 
C 2.127325 -3.662915 1.085826 -4.094318 0 -4.094318 
C -1.085826 -4.094318 -2.127325 -3.662915 -2.89512 -2.89512 
C -3.662915 -2.127325 -4.094318 -1.085826 -4.094318 0 
C -4.094318 1.085826 -3.662915 2.127325 -2.89512 2.89512 
C -2.127325 3.662915 -1.085826 4.094318 0 4.094318 
z
" style="stroke: #000000"/>
    </defs>
    <g clip-path="url(#p383593e819)">
     <use xlink:href="#mbb0cc4d38b" x="313.090325" y="344.651625" style="stroke: #000000"/>
    </g>
   </g>
   <g id="PathCollection_13">
    <defs>
     <path id="m46293efeff" d="M 0 4.074184 
C 1.080486 4.074184 2.116864 3.644902 2.880883 2.880883 
C 3.644902 2.116864 4.074184 1.080486 4.074184 0 
C 4.074184 -1.080486 3.644902 -2.116864 2.880883 -2.880883 
C 2.116864 -3.644902 1.080486 -4.074184 0 -4.074184 
C -1.080486 -4.074184 -2.116864 -3.644902 -2.880883 -2.880883 
C -3.644902 -2.116864 -4.074184 -1.080486 -4.074184 0 
C -4.074184 1.080486 -3.644902 2.116864 -2.880883 2.880883 
C -2.116864 3.644902 -1.080486 4.074184 0 4.074184 
z
" style="stroke: #000000"/>
    </defs>
    <g clip-path="url(#p383593e819)">
     <use xlink:href="#m46293efeff" x="333.162999" y="344.651625" style="stroke: #000000"/>
    </g>
   </g>
   <g id="PathCollection_14">
    <defs>
     <path id="m622ec23fce" d="M 0 3.951177 
C 1.047864 3.951177 2.052952 3.534856 2.793904 2.793904 
C 3.534856 2.052952 3.951177 1.047864 3.951177 0 
C 3.951177 -1.047864 3.534856 -2.052952 2.793904 -2.793904 
C 2.052952 -3.534856 1.047864 -3.951177 0 -3.951177 
C -1.047864 -3.951177 -2.052952 -3.534856 -2.793904 -2.793904 
C -3.534856 -2.052952 -3.951177 -1.047864 -3.951177 0 
C -3.951177 1.047864 -3.534856 2.052952 -2.793904 2.793904 
C -2.052952 3.534856 -1.047864 3.951177 0 3.951177 
z
" style="stroke: #000000"/>
    </defs>
    <g clip-path="url(#p383593e819)">
     <use xlink:href="#m622ec23fce" x="353.235673" y="344.651625" style="stroke: #000000"/>
    </g>
   </g>
   <g id="PathCollection_15">
    <defs>
     <path id="ma1a71bacb7" d="M 0 3.590718 
C 0.952269 3.590718 1.865665 3.212377 2.539021 2.539021 
C 3.212377 1.865665 3.590718 0.952269 3.590718 0 
C 3.590718 -0.952269 3.212377 -1.865665 2.539021 -2.539021 
C 1.865665 -3.212377 0.952269 -3.590718 0 -3.590718 
C -0.952269 -3.590718 -1.865665 -3.212377 -2.539021 -2.539021 
C -3.212377 -1.865665 -3.590718 -0.952269 -3.590718 0 
C -3.590718 0.952269 -3.212377 1.865665 -2.539021 2.539021 
C -1.865665 3.212377 -0.952269 3.590718 0 3.590718 
z
" style="stroke: #000000"/>
    </defs>
    <g clip-path="url(#p383593e819)">
     <use xlink:href="#ma1a71bacb7" x="373.308347" y="344.651625" style="stroke: #000000"/>
    </g>
   </g>
   <g id="PathCollection_16">
    <defs>
     <path id="m547747cf77" d="M 0 3.5667 
C 0.9459 3.5667 1.853185 3.19089 2.522037 2.522037 
C 3.19089 1.853185 3.5667 0.9459 3.5667 0 
C 3.5667 -0.9459 3.19089 -1.853185 2.522037 -2.522037 
C 1.853185 -3.19089 0.9459 -3.5667 0 -3.5667 
C -0.9459 -3.5667 -1.853185 -3.19089 -2.522037 -2.522037 
C -3.19089 -1.853185 -3.5667 -0.9459 -3.5667 0 
C -3.5667 0.9459 -3.19089 1.853185 -2.522037 2.522037 
C -1.853185 3.19089 -0.9459 3.5667 0 3.5667 
z
" style="stroke: #000000"/>
    </defs>
    <g clip-path="url(#p383593e819)">
     <use xlink:href="#m547747cf77" x="393.381021" y="344.651625" style="stroke: #000000"/>
    </g>
   </g>
   <g id="PathCollection_17">
    <defs>
     <path id="m524e16b150" d="M 0 3.415958 
C 0.905923 3.415958 1.774863 3.056031 2.415447 2.415447 
C 3.056031 1.774863 3.415958 0.905923 3.415958 0 
C 3.415958 -0.905923 3.056031 -1.774863 2.415447 -2.415447 
C 1.774863 -3.056031 0.905923 -3.415958 0 -3.415958 
C -0.905923 -3.415958 -1.774863 -3.056031 -2.415447 -2.415447 
C -3.056031 -1.774863 -3.415958 -0.905923 -3.415958 0 
C -3.415958 0.905923 -3.056031 1.774863 -2.415447 2.415447 
C -1.774863 3.056031 -0.905923 3.415958 0 3.415958 
z
" style="stroke: #000000"/>
    </defs>
    <g clip-path="url(#p383593e819)">
     <use xlink:href="#m524e16b150" x="413.453695" y="344.651625" style="stroke: #000000"/>
    </g>
   </g>
   <g id="PathCollection_18">
    <defs>
     <path id="mca4c6b5c47" d="M 0 3.237104 
C 0.85849 3.237104 1.681934 2.896022 2.288978 2.288978 
C 2.896022 1.681934 3.237104 0.85849 3.237104 0 
C 3.237104 -0.85849 2.896022 -1.681934 2.288978 -2.288978 
C 1.681934 -2.896022 0.85849 -3.237104 0 -3.237104 
C -0.85849 -3.237104 -1.681934 -2.896022 -2.288978 -2.288978 
C -2.896022 -1.681934 -3.237104 -0.85849 -3.237104 0 
C -3.237104 0.85849 -2.896022 1.681934 -2.288978 2.288978 
C -1.681934 2.896022 -0.85849 3.237104 0 3.237104 
z
" style="stroke: #000000"/>
    </defs>
    <g clip-path="url(#p383593e819)">
     <use xlink:href="#mca4c6b5c47" x="433.526369" y="344.651625" style="stroke: #000000"/>
    </g>
   </g>
   <g id="PathCollection_19">
    <defs>
     <path id="m8f537ab381" d="M 0 3.209877 
C 0.851269 3.209877 1.667788 2.871664 2.269726 2.269726 
C 2.871664 1.667788 3.209877 0.851269 3.209877 0 
C 3.209877 -0.851269 2.871664 -1.667788 2.269726 -2.269726 
C 1.667788 -2.871664 0.851269 -3.209877 0 -3.209877 
C -0.851269 -3.209877 -1.667788 -2.871664 -2.269726 -2.269726 
C -2.871664 -1.667788 -3.209877 -0.851269 -3.209877 0 
C -3.209877 0.851269 -2.871664 1.667788 -2.269726 2.269726 
C -1.667788 2.871664 -0.851269 3.209877 0 3.209877 
z
" style="stroke: #000000"/>
    </defs>
    <g clip-path="url(#p383593e819)">
     <use xlink:href="#m8f537ab381" x="453.599043" y="344.651625" style="stroke: #000000"/>
    </g>
   </g>
   <g id="PathCollection_20">
    <defs>
     <path id="m260e355ecd" d="M 0 3.202133 
C 0.849216 3.202133 1.663764 2.864736 2.26425 2.26425 
C 2.864736 1.663764 3.202133 0.849216 3.202133 0 
C 3.202133 -0.849216 2.864736 -1.663764 2.26425 -2.26425 
C 1.663764 -2.864736 0.849216 -3.202133 0 -3.202133 
C -0.849216 -3.202133 -1.663764 -2.864736 -2.26425 -2.26425 
C -2.864736 -1.663764 -3.202133 -0.849216 -3.202133 0 
C -3.202133 0.849216 -2.864736 1.663764 -2.26425 2.26425 
C -1.663764 2.864736 -0.849216 3.202133 0 3.202133 
z
" style="stroke: #000000"/>
    </defs>
    <g clip-path="url(#p383593e819)">
     <use xlink:href="#m260e355ecd" x="473.671718" y="344.651625" style="stroke: #000000"/>
    </g>
   </g>
   <g id="PathCollection_21">
    <defs>
     <path id="mdd0e42a404" d="M 0 3.066845 
C 0.813337 3.066845 1.593471 2.743703 2.168587 2.168587 
C 2.743703 1.593471 3.066845 0.813337 3.066845 0 
C 3.066845 -0.813337 2.743703 -1.593471 2.168587 -2.168587 
C 1.593471 -2.743703 0.813337 -3.066845 0 -3.066845 
C -0.813337 -3.066845 -1.593471 -2.743703 -2.168587 -2.168587 
C -2.743703 -1.593471 -3.066845 -0.813337 -3.066845 0 
C -3.066845 0.813337 -2.743703 1.593471 -2.168587 2.168587 
C -1.593471 2.743703 -0.813337 3.066845 0 3.066845 
z
" style="stroke: #000000"/>
    </defs>
    <g clip-path="url(#p383593e819)">
     <use xlink:href="#mdd0e42a404" x="92.290909" y="357.005813" style="stroke: #000000"/>
    </g>
   </g>
   <g id="PathCollection_22">
    <defs>
     <path id="m54e357392e" d="M 0 2.834742 
C 0.751782 2.834742 1.472875 2.536056 2.004466 2.004466 
C 2.536056 1.472875 2.834742 0.751782 2.834742 0 
C 2.834742 -0.751782 2.536056 -1.472875 2.004466 -2.004466 
C 1.472875 -2.536056 0.751782 -2.834742 0 -2.834742 
C -0.751782 -2.834742 -1.472875 -2.536056 -2.004466 -2.004466 
C -2.536056 -1.472875 -2.834742 -0.751782 -2.834742 0 
C -2.834742 0.751782 -2.536056 1.472875 -2.004466 2.004466 
C -1.472875 2.536056 -0.751782 2.834742 0 2.834742 
z
" style="stroke: #000000"/>
    </defs>
    <g clip-path="url(#p383593e819)">
     <use xlink:href="#m54e357392e" x="112.363583" y="357.005813" style="stroke: #000000"/>
    </g>
   </g>
   <g id="PathCollection_23">
    <defs>
     <path id="mc9ad5a2bcf" d="M 0 2.816736 
C 0.747007 2.816736 1.463519 2.519947 1.991733 1.991733 
C 2.519947 1.463519 2.816736 0.747007 2.816736 0 
C 2.816736 -0.747007 2.519947 -1.463519 1.991733 -1.991733 
C 1.463519 -2.519947 0.747007 -2.816736 0 -2.816736 
C -0.747007 -2.816736 -1.463519 -2.519947 -1.991733 -1.991733 
C -2.519947 -1.463519 -2.816736 -0.747007 -2.816736 0 
C -2.816736 0.747007 -2.519947 1.463519 -1.991733 1.991733 
C -1.463519 2.519947 -0.747007 2.816736 0 2.816736 
z
" style="stroke: #000000"/>
    </defs>
    <g clip-path="url(#p383593e819)">
     <use xlink:href="#mc9ad5a2bcf" x="132.436257" y="357.005813" style="stroke: #000000"/>
    </g>
   </g>
   <g id="PathCollection_24">
    <defs>
     <path id="mbc411e5b8f" d="M 0 2.809735 
C 0.74515 2.809735 1.459882 2.513683 1.986782 1.986782 
C 2.513683 1.459882 2.809735 0.74515 2.809735 0 
C 2.809735 -0.74515 2.513683 -1.459882 1.986782 -1.986782 
C 1.459882 -2.513683 0.74515 -2.809735 0 -2.809735 
C -0.74515 -2.809735 -1.459882 -2.513683 -1.986782 -1.986782 
C -2.513683 -1.459882 -2.809735 -0.74515 -2.809735 0 
C -2.809735 0.74515 -2.513683 1.459882 -1.986782 1.986782 
C -1.459882 2.513683 -0.74515 2.809735 0 2.809735 
z
" style="stroke: #000000"/>
    </defs>
    <g clip-path="url(#p383593e819)">
     <use xlink:href="#mbc411e5b8f" x="152.508931" y="357.005813" style="stroke: #000000"/>
    </g>
   </g>
   <g id="PathCollection_25">
    <defs>
     <path id="mec2b54d7f3" d="M 0 2.784489 
C 0.738455 2.784489 1.446764 2.491097 1.968931 1.968931 
C 2.491097 1.446764 2.784489 0.738455 2.784489 0 
C 2.784489 -0.738455 2.491097 -1.446764 1.968931 -1.968931 
C 1.446764 -2.491097 0.738455 -2.784489 0 -2.784489 
C -0.738455 -2.784489 -1.446764 -2.491097 -1.968931 -1.968931 
C -2.491097 -1.446764 -2.784489 -0.738455 -2.784489 0 
C -2.784489 0.738455 -2.491097 1.446764 -1.968931 1.968931 
C -1.446764 2.491097 -0.738455 2.784489 0 2.784489 
z
" style="stroke: #000000"/>
    </defs>
    <g clip-path="url(#p383593e819)">
     <use xlink:href="#mec2b54d7f3" x="172.581606" y="357.005813" style="stroke: #000000"/>
    </g>
   </g>
   <g id="PathCollection_26">
    <defs>
     <path id="m82ad58aeb2" d="M 0 2.775397 
C 0.736044 2.775397 1.44204 2.482963 1.962502 1.962502 
C 2.482963 1.44204 2.775397 0.736044 2.775397 0 
C 2.775397 -0.736044 2.482963 -1.44204 1.962502 -1.962502 
C 1.44204 -2.482963 0.736044 -2.775397 0 -2.775397 
C -0.736044 -2.775397 -1.44204 -2.482963 -1.962502 -1.962502 
C -2.482963 -1.44204 -2.775397 -0.736044 -2.775397 0 
C -2.775397 0.736044 -2.482963 1.44204 -1.962502 1.962502 
C -1.44204 2.482963 -0.736044 2.775397 0 2.775397 
z
" style="stroke: #000000"/>
    </defs>
    <g clip-path="url(#p383593e819)">
     <use xlink:href="#m82ad58aeb2" x="192.65428" y="357.005813" style="stroke: #000000"/>
    </g>
   </g>
   <g id="PathCollection_27">
    <defs>
     <path id="m759bb6b4b0" d="M 0 2.554146 
C 0.677367 2.554146 1.327083 2.285025 1.806054 1.806054 
C 2.285025 1.327083 2.554146 0.677367 2.554146 0 
C 2.554146 -0.677367 2.285025 -1.327083 1.806054 -1.806054 
C 1.327083 -2.285025 0.677367 -2.554146 0 -2.554146 
C -0.677367 -2.554146 -1.327083 -2.285025 -1.806054 -1.806054 
C -2.285025 -1.327083 -2.554146 -0.677367 -2.554146 0 
C -2.554146 0.677367 -2.285025 1.327083 -1.806054 1.806054 
C -1.327083 2.285025 -0.677367 2.554146 0 2.554146 
z
" style="stroke: #000000"/>
    </defs>
    <g clip-path="url(#p383593e819)">
     <use xlink:href="#m759bb6b4b0" x="212.726954" y="357.005813" style="stroke: #000000"/>
    </g>
   </g>
   <g id="PathCollection_28">
    <defs>
     <path id="m2b2e8ec2af" d="M 0 2.358849 
C 0.625574 2.358849 1.22561 2.110306 1.667958 1.667958 
C 2.110306 1.22561 2.358849 0.625574 2.358849 0 
C 2.358849 -0.625574 2.110306 -1.22561 1.667958 -1.667958 
C 1.22561 -2.110306 0.625574 -2.358849 0 -2.358849 
C -0.625574 -2.358849 -1.22561 -2.110306 -1.667958 -1.667958 
C -2.110306 -1.22561 -2.358849 -0.625574 -2.358849 0 
C -2.358849 0.625574 -2.110306 1.22561 -1.667958 1.667958 
C -1.22561 2.110306 -0.625574 2.358849 0 2.358849 
z
" style="stroke: #000000"/>
    </defs>
    <g clip-path="url(#p383593e819)">
     <use xlink:href="#m2b2e8ec2af" x="232.799628" y="357.005813" style="stroke: #000000"/>
    </g>
   </g>
   <g id="PathCollection_29">
    <defs>
     <path id="ma39bb09eff" d="M 0 2.307978 
C 0.612083 2.307978 1.199179 2.064795 1.631987 1.631987 
C 2.064795 1.199179 2.307978 0.612083 2.307978 0 
C 2.307978 -0.612083 2.064795 -1.199179 1.631987 -1.631987 
C 1.199179 -2.064795 0.612083 -2.307978 0 -2.307978 
C -0.612083 -2.307978 -1.199179 -2.064795 -1.631987 -1.631987 
C -2.064795 -1.199179 -2.307978 -0.612083 -2.307978 0 
C -2.307978 0.612083 -2.064795 1.199179 -1.631987 1.631987 
C -1.199179 2.064795 -0.612083 2.307978 0 2.307978 
z
" style="stroke: #000000"/>
    </defs>
    <g clip-path="url(#p383593e819)">
     <use xlink:href="#ma39bb09eff" x="252.872302" y="357.005813" style="stroke: #000000"/>
    </g>
   </g>
   <g id="PathCollection_30">
    <defs>
     <path id="m07357d1d3a" d="M 0 2.294342 
C 0.608467 2.294342 1.192094 2.052595 1.622345 1.622345 
C 2.052595 1.192094 2.294342 0.608467 2.294342 0 
C 2.294342 -0.608467 2.052595 -1.192094 1.622345 -1.622345 
C 1.192094 -2.052595 0.608467 -2.294342 0 -2.294342 
C -0.608467 -2.294342 -1.192094 -2.052595 -1.622345 -1.622345 
C -2.052595 -1.192094 -2.294342 -0.608467 -2.294342 0 
C -2.294342 0.608467 -2.052595 1.192094 -1.622345 1.622345 
C -1.192094 2.052595 -0.608467 2.294342 0 2.294342 
z
" style="stroke: #000000"/>
    </defs>
    <g clip-path="url(#p383593e819)">
     <use xlink:href="#m07357d1d3a" x="272.944976" y="357.005813" style="stroke: #000000"/>
    </g>
   </g>
   <g id="PathCollection_31">
    <defs>
     <path id="m9c9a9e69ef" d="M 0 2.288392 
C 0.606889 2.288392 1.189002 2.047273 1.618137 1.618137 
C 2.047273 1.189002 2.288392 0.606889 2.288392 0 
C 2.288392 -0.606889 2.047273 -1.189002 1.618137 -1.618137 
C 1.189002 -2.047273 0.606889 -2.288392 0 -2.288392 
C -0.606889 -2.288392 -1.189002 -2.047273 -1.618137 -1.618137 
C -2.047273 -1.189002 -2.288392 -0.606889 -2.288392 0 
C -2.288392 0.606889 -2.047273 1.189002 -1.618137 1.618137 
C -1.189002 2.047273 -0.606889 2.288392 0 2.288392 
z
" style="stroke: #000000"/>
    </defs>
    <g clip-path="url(#p383593e819)">
     <use xlink:href="#m9c9a9e69ef" x="293.01765" y="357.005813" style="stroke: #000000"/>
    </g>
   </g>
   <g id="PathCollection_32">
    <defs>
     <path id="me151eddc88" d="M 0 2.276497 
C 0.603734 2.276497 1.182822 2.036631 1.609726 1.609726 
C 2.036631 1.182822 2.276497 0.603734 2.276497 0 
C 2.276497 -0.603734 2.036631 -1.182822 1.609726 -1.609726 
C 1.182822 -2.036631 0.603734 -2.276497 0 -2.276497 
C -0.603734 -2.276497 -1.182822 -2.036631 -1.609726 -1.609726 
C -2.036631 -1.182822 -2.276497 -0.603734 -2.276497 0 
C -2.276497 0.603734 -2.036631 1.182822 -1.609726 1.609726 
C -1.182822 2.036631 -0.603734 2.276497 0 2.276497 
z
" style="stroke: #000000"/>
    </defs>
    <g clip-path="url(#p383593e819)">
     <use xlink:href="#me151eddc88" x="313.090325" y="357.005813" style="stroke: #000000"/>
    </g>
   </g>
   <g id="PathCollection_33">
    <defs>
     <path id="mc4bb55aa9d" d="M 0 2.267867 
C 0.601445 2.267867 1.178338 2.02891 1.603624 1.603624 
C 2.02891 1.178338 2.267867 0.601445 2.267867 0 
C 2.267867 -0.601445 2.02891 -1.178338 1.603624 -1.603624 
C 1.178338 -2.02891 0.601445 -2.267867 0 -2.267867 
C -0.601445 -2.267867 -1.178338 -2.02891 -1.603624 -1.603624 
C -2.02891 -1.178338 -2.267867 -0.601445 -2.267867 0 
C -2.267867 0.601445 -2.02891 1.178338 -1.603624 1.603624 
C -1.178338 2.02891 -0.601445 2.267867 0 2.267867 
z
" style="stroke: #000000"/>
    </defs>
    <g clip-path="url(#p383593e819)">
     <use xlink:href="#mc4bb55aa9d" x="333.162999" y="357.005813" style="stroke: #000000"/>
    </g>
   </g>
   <g id="PathCollection_34">
    <defs>
     <path id="m4a20a282bf" d="M 0 2.032194 
C 0.538944 2.032194 1.055887 1.818069 1.436978 1.436978 
C 1.818069 1.055887 2.032194 0.538944 2.032194 0 
C 2.032194 -0.538944 1.818069 -1.055887 1.436978 -1.436978 
C 1.055887 -1.818069 0.538944 -2.032194 0 -2.032194 
C -0.538944 -2.032194 -1.055887 -1.818069 -1.436978 -1.436978 
C -1.818069 -1.055887 -2.032194 -0.538944 -2.032194 0 
C -2.032194 0.538944 -1.818069 1.055887 -1.436978 1.436978 
C -1.055887 1.818069 -0.538944 2.032194 0 2.032194 
z
" style="stroke: #000000"/>
    </defs>
    <g clip-path="url(#p383593e819)">
     <use xlink:href="#m4a20a282bf" x="353.235673" y="357.005813" style="stroke: #000000"/>
    </g>
   </g>
   <g id="PathCollection_35">
    <defs>
     <path id="m0197a91000" d="M 0 2.008733 
C 0.532722 2.008733 1.043697 1.79708 1.420389 1.420389 
C 1.79708 1.043697 2.008733 0.532722 2.008733 0 
C 2.008733 -0.532722 1.79708 -1.043697 1.420389 -1.420389 
C 1.043697 -1.79708 0.532722 -2.008733 0 -2.008733 
C -0.532722 -2.008733 -1.043697 -1.79708 -1.420389 -1.420389 
C -1.79708 -1.043697 -2.008733 -0.532722 -2.008733 0 
C -2.008733 0.532722 -1.79708 1.043697 -1.420389 1.420389 
C -1.043697 1.79708 -0.532722 2.008733 0 2.008733 
z
" style="stroke: #000000"/>
    </defs>
    <g clip-path="url(#p383593e819)">
     <use xlink:href="#m0197a91000" x="373.308347" y="357.005813" style="stroke: #000000"/>
    </g>
   </g>
   <g id="PathCollection_36">
    <defs>
     <path id="m5142b0f25c" d="M 0 2.002198 
C 0.530989 2.002198 1.040302 1.791234 1.415768 1.415768 
C 1.791234 1.040302 2.002198 0.530989 2.002198 0 
C 2.002198 -0.530989 1.791234 -1.040302 1.415768 -1.415768 
C 1.040302 -1.791234 0.530989 -2.002198 0 -2.002198 
C -0.530989 -2.002198 -1.040302 -1.791234 -1.415768 -1.415768 
C -1.791234 -1.040302 -2.002198 -0.530989 -2.002198 0 
C -2.002198 0.530989 -1.791234 1.040302 -1.415768 1.415768 
C -1.040302 1.791234 -0.530989 2.002198 0 2.002198 
z
" style="stroke: #000000"/>
    </defs>
    <g clip-path="url(#p383593e819)">
     <use xlink:href="#m5142b0f25c" x="393.381021" y="357.005813" style="stroke: #000000"/>
    </g>
   </g>
   <g id="PathCollection_37">
    <defs>
     <path id="mde883a5b0c" d="M 0 1.994785 
C 0.529023 1.994785 1.03645 1.784601 1.410526 1.410526 
C 1.784601 1.03645 1.994785 0.529023 1.994785 0 
C 1.994785 -0.529023 1.784601 -1.03645 1.410526 -1.410526 
C 1.03645 -1.784601 0.529023 -1.994785 0 -1.994785 
C -0.529023 -1.994785 -1.03645 -1.784601 -1.410526 -1.410526 
C -1.784601 -1.03645 -1.994785 -0.529023 -1.994785 0 
C -1.994785 0.529023 -1.784601 1.03645 -1.410526 1.410526 
C -1.03645 1.784601 -0.529023 1.994785 0 1.994785 
z
" style="stroke: #000000"/>
    </defs>
    <g clip-path="url(#p383593e819)">
     <use xlink:href="#mde883a5b0c" x="413.453695" y="357.005813" style="stroke: #000000"/>
    </g>
   </g>
   <g id="PathCollection_38">
    <defs>
     <path id="m67e0dddb09" d="M 0 1.967174 
C 0.521701 1.967174 1.022104 1.7599 1.391002 1.391002 
C 1.7599 1.022104 1.967174 0.521701 1.967174 0 
C 1.967174 -0.521701 1.7599 -1.022104 1.391002 -1.391002 
C 1.022104 -1.7599 0.521701 -1.967174 0 -1.967174 
C -0.521701 -1.967174 -1.022104 -1.7599 -1.391002 -1.391002 
C -1.7599 -1.022104 -1.967174 -0.521701 -1.967174 0 
C -1.967174 0.521701 -1.7599 1.022104 -1.391002 1.391002 
C -1.022104 1.7599 -0.521701 1.967174 0 1.967174 
z
" style="stroke: #000000"/>
    </defs>
    <g clip-path="url(#p383593e819)">
     <use xlink:href="#m67e0dddb09" x="433.526369" y="357.005813" style="stroke: #000000"/>
    </g>
   </g>
   <g id="PathCollection_39">
    <defs>
     <path id="m1724002b6b" d="M 0 1.92914 
C 0.511614 1.92914 1.002342 1.725873 1.364108 1.364108 
C 1.725873 1.002342 1.92914 0.511614 1.92914 0 
C 1.92914 -0.511614 1.725873 -1.002342 1.364108 -1.364108 
C 1.002342 -1.725873 0.511614 -1.92914 0 -1.92914 
C -0.511614 -1.92914 -1.002342 -1.725873 -1.364108 -1.364108 
C -1.725873 -1.002342 -1.92914 -0.511614 -1.92914 0 
C -1.92914 0.511614 -1.725873 1.002342 -1.364108 1.364108 
C -1.002342 1.725873 -0.511614 1.92914 0 1.92914 
z
" style="stroke: #000000"/>
    </defs>
    <g clip-path="url(#p383593e819)">
     <use xlink:href="#m1724002b6b" x="453.599043" y="357.005813" style="stroke: #000000"/>
    </g>
   </g>
   <g id="PathCollection_40">
    <defs>
     <path id="m2d11dd2fa8" d="M 0 1.758328 
C 0.466314 1.758328 0.913592 1.573059 1.243325 1.243325 
C 1.573059 0.913592 1.758328 0.466314 1.758328 0 
C 1.758328 -0.466314 1.573059 -0.913592 1.243325 -1.243325 
C 0.913592 -1.573059 0.466314 -1.758328 0 -1.758328 
C -0.466314 -1.758328 -0.913592 -1.573059 -1.243325 -1.243325 
C -1.573059 -0.913592 -1.758328 -0.466314 -1.758328 0 
C -1.758328 0.466314 -1.573059 0.913592 -1.243325 1.243325 
C -0.913592 1.573059 -0.466314 1.758328 0 1.758328 
z
" style="stroke: #000000"/>
    </defs>
    <g clip-path="url(#p383593e819)">
     <use xlink:href="#m2d11dd2fa8" x="473.671718" y="357.005813" style="stroke: #000000"/>
    </g>
   </g>
   <g id="PathCollection_41">
    <defs>
     <path id="ma273f7d842" d="M 0 1.684744 
C 0.446799 1.684744 0.875359 1.507229 1.191294 1.191294 
C 1.507229 0.875359 1.684744 0.446799 1.684744 0 
C 1.684744 -0.446799 1.507229 -0.875359 1.191294 -1.191294 
C 0.875359 -1.507229 0.446799 -1.684744 0 -1.684744 
C -0.446799 -1.684744 -0.875359 -1.507229 -1.191294 -1.191294 
C -1.507229 -0.875359 -1.684744 -0.446799 -1.684744 0 
C -1.684744 0.446799 -1.507229 0.875359 -1.191294 1.191294 
C -0.875359 1.507229 -0.446799 1.684744 0 1.684744 
z
" style="stroke: #000000"/>
    </defs>
    <g clip-path="url(#p383593e819)">
     <use xlink:href="#ma273f7d842" x="92.290909" y="369.36" style="stroke: #000000"/>
    </g>
   </g>
   <g id="PathCollection_42">
    <defs>
     <path id="m653e58acbc" d="M 0 1.655766 
C 0.439114 1.655766 0.860303 1.481304 1.170804 1.170804 
C 1.481304 0.860303 1.655766 0.439114 1.655766 0 
C 1.655766 -0.439114 1.481304 -0.860303 1.170804 -1.170804 
C 0.860303 -1.481304 0.439114 -1.655766 0 -1.655766 
C -0.439114 -1.655766 -0.860303 -1.481304 -1.170804 -1.170804 
C -1.481304 -0.860303 -1.655766 -0.439114 -1.655766 0 
C -1.655766 0.439114 -1.481304 0.860303 -1.170804 1.170804 
C -0.860303 1.481304 -0.439114 1.655766 0 1.655766 
z
" style="stroke: #000000"/>
    </defs>
    <g clip-path="url(#p383593e819)">
     <use xlink:href="#m653e58acbc" x="112.363583" y="369.36" style="stroke: #000000"/>
    </g>
   </g>
   <g id="PathCollection_43">
    <defs>
     <path id="m894b5a1a86" d="M 0 1.646777 
C 0.43673 1.646777 0.855632 1.473262 1.164447 1.164447 
C 1.473262 0.855632 1.646777 0.43673 1.646777 0 
C 1.646777 -0.43673 1.473262 -0.855632 1.164447 -1.164447 
C 0.855632 -1.473262 0.43673 -1.646777 0 -1.646777 
C -0.43673 -1.646777 -0.855632 -1.473262 -1.164447 -1.164447 
C -1.473262 -0.855632 -1.646777 -0.43673 -1.646777 0 
C -1.646777 0.43673 -1.473262 0.855632 -1.164447 1.164447 
C -0.855632 1.473262 -0.43673 1.646777 0 1.646777 
z
" style="stroke: #000000"/>
    </defs>
    <g clip-path="url(#p383593e819)">
     <use xlink:href="#m894b5a1a86" x="132.436257" y="369.36" style="stroke: #000000"/>
    </g>
   </g>
   <g id="PathCollection_44">
    <defs>
     <path id="m04fe723bbd" d="M 0 1.638097 
C 0.434429 1.638097 0.851122 1.465497 1.15831 1.15831 
C 1.465497 0.851122 1.638097 0.434429 1.638097 0 
C 1.638097 -0.434429 1.465497 -0.851122 1.15831 -1.15831 
C 0.851122 -1.465497 0.434429 -1.638097 0 -1.638097 
C -0.434429 -1.638097 -0.851122 -1.465497 -1.15831 -1.15831 
C -1.465497 -0.851122 -1.638097 -0.434429 -1.638097 0 
C -1.638097 0.434429 -1.465497 0.851122 -1.15831 1.15831 
C -0.851122 1.465497 -0.434429 1.638097 0 1.638097 
z
" style="stroke: #000000"/>
    </defs>
    <g clip-path="url(#p383593e819)">
     <use xlink:href="#m04fe723bbd" x="152.508931" y="369.36" style="stroke: #000000"/>
    </g>
   </g>
   <g id="PathCollection_45">
    <defs>
     <path id="m3cf0cf9d1b" d="M 0 1.629009 
C 0.432018 1.629009 0.8464 1.457366 1.151883 1.151883 
C 1.457366 0.8464 1.629009 0.432018 1.629009 0 
C 1.629009 -0.432018 1.457366 -0.8464 1.151883 -1.151883 
C 0.8464 -1.457366 0.432018 -1.629009 0 -1.629009 
C -0.432018 -1.629009 -0.8464 -1.457366 -1.151883 -1.151883 
C -1.457366 -0.8464 -1.629009 -0.432018 -1.629009 0 
C -1.629009 0.432018 -1.457366 0.8464 -1.151883 1.151883 
C -0.8464 1.457366 -0.432018 1.629009 0 1.629009 
z
" style="stroke: #000000"/>
    </defs>
    <g clip-path="url(#p383593e819)">
     <use xlink:href="#m3cf0cf9d1b" x="172.581606" y="369.36" style="stroke: #000000"/>
    </g>
   </g>
   <g id="PathCollection_46">
    <defs>
     <path id="m567067a7c9" d="M 0 1.3099 
C 0.34739 1.3099 0.680598 1.171881 0.926239 0.926239 
C 1.171881 0.680598 1.3099 0.34739 1.3099 0 
C 1.3099 -0.34739 1.171881 -0.680598 0.926239 -0.926239 
C 0.680598 -1.171881 0.34739 -1.3099 0 -1.3099 
C -0.34739 -1.3099 -0.680598 -1.171881 -0.926239 -0.926239 
C -1.171881 -0.680598 -1.3099 -0.34739 -1.3099 0 
C -1.3099 0.34739 -1.171881 0.680598 -0.926239 0.926239 
C -0.680598 1.171881 -0.34739 1.3099 0 1.3099 
z
" style="stroke: #000000"/>
    </defs>
    <g clip-path="url(#p383593e819)">
     <use xlink:href="#m567067a7c9" x="192.65428" y="369.36" style="stroke: #000000"/>
    </g>
   </g>
   <g id="PathCollection_47">
    <defs>
     <path id="ma365e7640f" d="M 0 1.298479 
C 0.344361 1.298479 0.674663 1.161663 0.918163 0.918163 
C 1.161663 0.674663 1.298479 0.344361 1.298479 0 
C 1.298479 -0.344361 1.161663 -0.674663 0.918163 -0.918163 
C 0.674663 -1.161663 0.344361 -1.298479 0 -1.298479 
C -0.344361 -1.298479 -0.674663 -1.161663 -0.918163 -0.918163 
C -1.161663 -0.674663 -1.298479 -0.344361 -1.298479 0 
C -1.298479 0.344361 -1.161663 0.674663 -0.918163 0.918163 
C -0.674663 1.161663 -0.344361 1.298479 0 1.298479 
z
" style="stroke: #000000"/>
    </defs>
    <g clip-path="url(#p383593e819)">
     <use xlink:href="#ma365e7640f" x="212.726954" y="369.36" style="stroke: #000000"/>
    </g>
   </g>
   <g id="PathCollection_48">
    <defs>
     <path id="m4ac8e72bfc" d="M 0 1.261312 
C 0.334504 1.261312 0.655353 1.128413 0.891883 0.891883 
C 1.128413 0.655353 1.261312 0.334504 1.261312 0 
C 1.261312 -0.334504 1.128413 -0.655353 0.891883 -0.891883 
C 0.655353 -1.128413 0.334504 -1.261312 0 -1.261312 
C -0.334504 -1.261312 -0.655353 -1.128413 -0.891883 -0.891883 
C -1.128413 -0.655353 -1.261312 -0.334504 -1.261312 0 
C -1.261312 0.334504 -1.128413 0.655353 -0.891883 0.891883 
C -0.655353 1.128413 -0.334504 1.261312 0 1.261312 
z
" style="stroke: #000000"/>
    </defs>
    <g clip-path="url(#p383593e819)">
     <use xlink:href="#m4ac8e72bfc" x="232.799628" y="369.36" style="stroke: #000000"/>
    </g>
   </g>
   <g id="PathCollection_49">
    <defs>
     <path id="mcbb5856013" d="M 0 1.221769 
C 0.324017 1.221769 0.634806 1.093035 0.863921 0.863921 
C 1.093035 0.634806 1.221769 0.324017 1.221769 0 
C 1.221769 -0.324017 1.093035 -0.634806 0.863921 -0.863921 
C 0.634806 -1.093035 0.324017 -1.221769 0 -1.221769 
C -0.324017 -1.221769 -0.634806 -1.093035 -0.863921 -0.863921 
C -1.093035 -0.634806 -1.221769 -0.324017 -1.221769 0 
C -1.221769 0.324017 -1.093035 0.634806 -0.863921 0.863921 
C -0.634806 1.093035 -0.324017 1.221769 0 1.221769 
z
" style="stroke: #000000"/>
    </defs>
    <g clip-path="url(#p383593e819)">
     <use xlink:href="#mcbb5856013" x="252.872302" y="369.36" style="stroke: #000000"/>
    </g>
   </g>
   <g id="PathCollection_50">
    <g clip-path="url(#p383593e819)">
     <use xlink:href="#mcbb5856013" x="272.944976" y="369.36" style="stroke: #000000"/>
    </g>
   </g>
   <g id="PathCollection_51">
    <defs>
     <path id="m771aefa114" d="M 0 1.17105 
C 0.310566 1.17105 0.608454 1.047661 0.828058 0.828058 
C 1.047661 0.608454 1.17105 0.310566 1.17105 0 
C 1.17105 -0.310566 1.047661 -0.608454 0.828058 -0.828058 
C 0.608454 -1.047661 0.310566 -1.17105 0 -1.17105 
C -0.310566 -1.17105 -0.608454 -1.047661 -0.828058 -0.828058 
C -1.047661 -0.608454 -1.17105 -0.310566 -1.17105 0 
C -1.17105 0.310566 -1.047661 0.608454 -0.828058 0.828058 
C -0.608454 1.047661 -0.310566 1.17105 0 1.17105 
z
" style="stroke: #000000"/>
    </defs>
    <g clip-path="url(#p383593e819)">
     <use xlink:href="#m771aefa114" x="293.01765" y="369.36" style="stroke: #000000"/>
    </g>
   </g>
   <g id="PathCollection_52">
    <defs>
     <path id="mfd793ce4e8" d="M 0 1.167601 
C 0.309652 1.167601 0.606662 1.044576 0.825619 0.825619 
C 1.044576 0.606662 1.167601 0.309652 1.167601 0 
C 1.167601 -0.309652 1.044576 -0.606662 0.825619 -0.825619 
C 0.606662 -1.044576 0.309652 -1.167601 0 -1.167601 
C -0.309652 -1.167601 -0.606662 -1.044576 -0.825619 -0.825619 
C -1.044576 -0.606662 -1.167601 -0.309652 -1.167601 0 
C -1.167601 0.309652 -1.044576 0.606662 -0.825619 0.825619 
C -0.606662 1.044576 -0.309652 1.167601 0 1.167601 
z
" style="stroke: #000000"/>
    </defs>
    <g clip-path="url(#p383593e819)">
     <use xlink:href="#mfd793ce4e8" x="313.090325" y="369.36" style="stroke: #000000"/>
    </g>
   </g>
   <g id="PathCollection_53">
    <defs>
     <path id="mca6a18ea97" d="M 0 1.163317 
C 0.308515 1.163317 0.604436 1.040742 0.822589 0.822589 
C 1.040742 0.604436 1.163317 0.308515 1.163317 0 
C 1.163317 -0.308515 1.040742 -0.604436 0.822589 -0.822589 
C 0.604436 -1.040742 0.308515 -1.163317 0 -1.163317 
C -0.308515 -1.163317 -0.604436 -1.040742 -0.822589 -0.822589 
C -1.040742 -0.604436 -1.163317 -0.308515 -1.163317 0 
C -1.163317 0.308515 -1.040742 0.604436 -0.822589 0.822589 
C -0.604436 1.040742 -0.308515 1.163317 0 1.163317 
z
" style="stroke: #000000"/>
    </defs>
    <g clip-path="url(#p383593e819)">
     <use xlink:href="#mca6a18ea97" x="333.162999" y="369.36" style="stroke: #000000"/>
    </g>
   </g>
   <g id="PathCollection_54">
    <path d="M 382.788871 301.390117 
C 384.335248 301.390117 385.818497 300.775736 386.91195 299.682282 
C 388.005404 298.588829 388.619786 297.10558 388.619786 295.559203 
C 388.619786 294.012827 388.005404 292.529578 386.91195 291.436124 
C 385.818497 290.342671 384.335248 289.728289 382.788871 289.728289 
C 381.242495 289.728289 379.759246 290.342671 378.665792 291.436124 
C 377.572339 292.529578 376.957957 294.012827 376.957957 295.559203 
C 376.957957 297.10558 377.572339 298.588829 378.665792 299.682282 
C 379.759246 300.775736 381.242495 301.390117 382.788871 301.390117 
z
" clip-path="url(#p383593e819)" style="fill: #009e73; stroke: #009e73"/>
    <path d="M 336.211165 252.604161 
C 337.947873 252.604161 339.613684 251.91416 340.841722 250.686122 
C 342.06976 249.458084 342.759762 247.792273 342.759762 246.055565 
C 342.759762 244.318857 342.06976 242.653046 340.841722 241.425008 
C 339.613684 240.19697 337.947873 239.506969 336.211165 239.506969 
C 334.474457 239.506969 332.808647 240.19697 331.580609 241.425008 
C 330.35257 242.653046 329.662569 244.318857 329.662569 246.055565 
C 329.662569 247.792273 330.35257 249.458084 331.580609 250.686122 
C 332.808647 251.91416 334.474457 252.604161 336.211165 252.604161 
z
" clip-path="url(#p383593e819)" style="fill: #009e73; stroke: #009e73"/>
    <path d="M 301.473965 200.932694 
C 303.150477 200.932694 304.758549 200.266609 305.944022 199.081136 
C 307.129495 197.895663 307.79558 196.287591 307.79558 194.61108 
C 307.79558 192.934568 307.129495 191.326496 305.944022 190.141023 
C 304.758549 188.95555 303.150477 188.289465 301.473965 188.289465 
C 299.797454 188.289465 298.189382 188.95555 297.003909 190.141023 
C 295.818436 191.326496 295.152351 192.934568 295.152351 194.61108 
C 295.152351 196.287591 295.818436 197.895663 297.003909 199.081136 
C 298.189382 200.266609 299.797454 200.932694 301.473965 200.932694 
z
" clip-path="url(#p383593e819)" style="fill: #6e6e6e; stroke: #6e6e6e"/>
    <path d="M 336.389428 152.93554 
C 338.124394 152.93554 339.788534 152.246231 341.01534 151.019425 
C 342.242146 149.792619 342.931455 148.128479 342.931455 146.393514 
C 342.931455 144.658548 342.242146 142.994408 341.01534 141.767602 
C 339.788534 140.540796 338.124394 139.851487 336.389428 139.851487 
C 334.654463 139.851487 332.990323 140.540796 331.763517 141.767602 
C 330.536711 142.994408 329.847402 144.658548 329.847402 146.393514 
C 329.847402 148.128479 330.536711 149.792619 331.763517 151.019425 
C 332.990323 152.246231 334.654463 152.93554 336.389428 152.93554 
z
" clip-path="url(#p383593e819)" style="fill: #6e6e6e; stroke: #6e6e6e"/>
    <path d="M 484.193078 113.890047 
C 485.542227 113.890047 486.836299 113.354024 487.790291 112.400032 
C 488.744284 111.44604 489.280306 110.151967 489.280306 108.802819 
C 489.280306 107.45367 488.744284 106.159597 487.790291 105.205605 
C 486.836299 104.251613 485.542227 103.715591 484.193078 103.715591 
C 482.843929 103.715591 481.549857 104.251613 480.595864 105.205605 
C 479.641872 106.159597 479.10585 107.45367 479.10585 108.802819 
C 479.10585 110.151967 479.641872 111.44604 480.595864 112.400032 
C 481.549857 113.354024 482.843929 113.890047 484.193078 113.890047 
z
" clip-path="url(#p383593e819)" style="fill: #009e73; stroke: #009e73"/>
    <path d="M 429.855889 157.9797 
C 431.430594 157.9797 432.941016 157.354063 434.054501 156.240578 
C 435.167986 155.127093 435.793623 153.616672 435.793623 152.041966 
C 435.793623 150.467261 435.167986 148.956839 434.054501 147.843354 
C 432.941016 146.729869 431.430594 146.104232 429.855889 146.104232 
C 428.281183 146.104232 426.770762 146.729869 425.657277 147.843354 
C 424.543792 148.956839 423.918155 150.467261 423.918155 152.041966 
C 423.918155 153.616672 424.543792 155.127093 425.657277 156.240578 
C 426.770762 157.354063 428.281183 157.9797 429.855889 157.9797 
z
" clip-path="url(#p383593e819)" style="fill: #6e6e6e; stroke: #6e6e6e"/>
    <path d="M 348.977854 88.43964 
C 350.629118 88.43964 352.212972 87.783586 353.380592 86.615966 
C 354.548212 85.448347 355.204266 83.864492 355.204266 82.213228 
C 355.204266 80.561964 354.548212 78.978109 353.380592 77.810489 
C 352.212972 76.642869 350.629118 75.986815 348.977854 75.986815 
C 347.32659 75.986815 345.742735 76.642869 344.575115 77.810489 
C 343.407495 78.978109 342.751441 80.561964 342.751441 82.213228 
C 342.751441 83.864492 343.407495 85.448347 344.575115 86.615966 
C 345.742735 87.783586 347.32659 88.43964 348.977854 88.43964 
z
" clip-path="url(#p383593e819)" style="fill: #009e73; stroke: #009e73"/>
    <path d="M 360.65566 201.707212 
C 362.104431 201.707212 363.49406 201.131609 364.518496 200.107173 
C 365.542932 199.082737 366.118535 197.693109 366.118535 196.244337 
C 366.118535 194.795566 365.542932 193.405937 364.518496 192.381501 
C 363.49406 191.357065 362.104431 190.781462 360.65566 190.781462 
C 359.206888 190.781462 357.81726 191.357065 356.792824 192.381501 
C 355.768388 193.405937 355.192785 194.795566 355.192785 196.244337 
C 355.192785 197.693109 355.768388 199.082737 356.792824 200.107173 
C 357.81726 201.131609 359.206888 201.707212 360.65566 201.707212 
z
" clip-path="url(#p383593e819)" style="fill: #6e6e6e; stroke: #6e6e6e"/>
    <path d="M 205.87282 182.64382 
C 206.558987 182.64382 207.217143 182.371203 207.702337 181.88601 
C 208.18753 181.400816 208.460148 180.74266 208.460148 180.056493 
C 208.460148 179.370325 208.18753 178.712169 207.702337 178.226975 
C 207.217143 177.741782 206.558987 177.469165 205.87282 177.469165 
C 205.186652 177.469165 204.528496 177.741782 204.043303 178.226975 
C 203.558109 178.712169 203.285492 179.370325 203.285492 180.056493 
C 203.285492 180.74266 203.558109 181.400816 204.043303 181.88601 
C 204.528496 182.371203 205.186652 182.64382 205.87282 182.64382 
z
" clip-path="url(#p383593e819)" style="fill: #009e73; stroke: #009e73"/>
    <path d="M 291.208978 300.57953 
C 292.522872 300.57953 293.783129 300.057514 294.712193 299.128451 
C 295.641256 298.199388 296.163272 296.939131 296.163272 295.625237 
C 296.163272 294.311343 295.641256 293.051086 294.712193 292.122022 
C 293.783129 291.192959 292.522872 290.670943 291.208978 290.670943 
C 289.895084 290.670943 288.634827 291.192959 287.705764 292.122022 
C 286.776701 293.051086 286.254685 294.311343 286.254685 295.625237 
C 286.254685 296.939131 286.776701 298.199388 287.705764 299.128451 
C 288.634827 300.057514 289.895084 300.57953 291.208978 300.57953 
z
" clip-path="url(#p383593e819)" style="fill: #009e73; stroke: #009e73"/>
    <path d="M 261.73295 348.494573 
C 262.752112 348.494573 263.729669 348.089656 264.450325 347.369 
C 265.170981 346.648344 265.575899 345.670787 265.575899 344.651625 
C 265.575899 343.632463 265.170981 342.654907 264.450325 341.93425 
C 263.729669 341.213594 262.752112 340.808677 261.73295 340.808677 
C 260.713789 340.808677 259.736232 341.213594 259.015576 341.93425 
C 258.29492 342.654907 257.890002 343.632463 257.890002 344.651625 
C 257.890002 345.670787 258.29492 346.648344 259.015576 347.369 
C 259.736232 348.089656 260.713789 348.494573 261.73295 348.494573 
z
" clip-path="url(#p383593e819)" style="fill: #009e73; stroke: #009e73"/>
    <path d="M 298.015132 133.785505 
C 299.765796 133.785505 301.444993 133.089959 302.6829 131.852052 
C 303.920806 130.614146 304.616353 128.934949 304.616353 127.184285 
C 304.616353 125.433621 303.920806 123.754424 302.6829 122.516517 
C 301.444993 121.278611 299.765796 120.583064 298.015132 120.583064 
C 296.264468 120.583064 294.585271 121.278611 293.347365 122.516517 
C 292.109458 123.754424 291.413912 125.433621 291.413912 127.184285 
C 291.413912 128.934949 292.109458 130.614146 293.347365 131.852052 
C 294.585271 133.089959 296.264468 133.785505 298.015132 133.785505 
z
" clip-path="url(#p383593e819)" style="fill: #6e6e6e; stroke: #6e6e6e"/>
    <path d="M 246.005529 85.118339 
C 247.314287 85.118339 248.569618 84.598364 249.49505 83.672932 
C 250.420482 82.7475 250.940457 81.492169 250.940457 80.183411 
C 250.940457 78.874653 250.420482 77.619321 249.49505 76.69389 
C 248.569618 75.768458 247.314287 75.248483 246.005529 75.248483 
C 244.696771 75.248483 243.44144 75.768458 242.516008 76.69389 
C 241.590576 77.619321 241.070601 78.874653 241.070601 80.183411 
C 241.070601 81.492169 241.590576 82.7475 242.516008 83.672932 
C 243.44144 84.598364 244.696771 85.118339 246.005529 85.118339 
z
" clip-path="url(#p383593e819)" style="fill: #6e6e6e; stroke: #6e6e6e"/>
   </g>
   <g id="text_1">
    <g clip-path="url(#p383593e819)">
     <!-- Alo gera -->
     <g transform="translate(370.291996 297.214828) scale(0.06 -0.06)">
      <defs>
       <path id="DejaVuSans-41" d="M 2188 4044 
L 1331 1722 
L 3047 1722 
L 2188 4044 
z
M 1831 4666 
L 2547 4666 
L 4325 0 
L 3669 0 
L 3244 1197 
L 1141 1197 
L 716 0 
L 50 0 
L 1831 4666 
z
" transform="scale(0.015625)"/>
       <path id="DejaVuSans-6c" d="M 603 4863 
L 1178 4863 
L 1178 0 
L 603 0 
L 603 4863 
z
" transform="scale(0.015625)"/>
       <path id="DejaVuSans-6f" d="M 1959 3097 
Q 1497 3097 1228 2736 
Q 959 2375 959 1747 
Q 959 1119 1226 758 
Q 1494 397 1959 397 
Q 2419 397 2687 759 
Q 2956 1122 2956 1747 
Q 2956 2369 2687 2733 
Q 2419 3097 1959 3097 
z
M 1959 3584 
Q 2709 3584 3137 3096 
Q 3566 2609 3566 1747 
Q 3566 888 3137 398 
Q 2709 -91 1959 -91 
Q 1206 -91 779 398 
Q 353 888 353 1747 
Q 353 2609 779 3096 
Q 1206 3584 1959 3584 
z
" transform="scale(0.015625)"/>
       <path id="DejaVuSans-20" transform="scale(0.015625)"/>
       <path id="DejaVuSans-67" d="M 2906 1791 
Q 2906 2416 2648 2759 
Q 2391 3103 1925 3103 
Q 1463 3103 1205 2759 
Q 947 2416 947 1791 
Q 947 1169 1205 825 
Q 1463 481 1925 481 
Q 2391 481 2648 825 
Q 2906 1169 2906 1791 
z
M 3481 434 
Q 3481 -459 3084 -895 
Q 2688 -1331 1869 -1331 
Q 1566 -1331 1297 -1286 
Q 1028 -1241 775 -1147 
L 775 -588 
Q 1028 -725 1275 -790 
Q 1522 -856 1778 -856 
Q 2344 -856 2625 -561 
Q 2906 -266 2906 331 
L 2906 616 
Q 2728 306 2450 153 
Q 2172 0 1784 0 
Q 1141 0 747 490 
Q 353 981 353 1791 
Q 353 2603 747 3093 
Q 1141 3584 1784 3584 
Q 2172 3584 2450 3431 
Q 2728 3278 2906 2969 
L 2906 3500 
L 3481 3500 
L 3481 434 
z
" transform="scale(0.015625)"/>
       <path id="DejaVuSans-65" d="M 3597 1894 
L 3597 1613 
L 953 1613 
Q 991 1019 1311 708 
Q 1631 397 2203 397 
Q 2534 397 2845 478 
Q 3156 559 3463 722 
L 3463 178 
Q 3153 47 2828 -22 
Q 2503 -91 2169 -91 
Q 1331 -91 842 396 
Q 353 884 353 1716 
Q 353 2575 817 3079 
Q 1281 3584 2069 3584 
Q 2775 3584 3186 3129 
Q 3597 2675 3597 1894 
z
M 3022 2063 
Q 3016 2534 2758 2815 
Q 2500 3097 2075 3097 
Q 1594 3097 1305 2825 
Q 1016 2553 972 2059 
L 3022 2063 
z
" transform="scale(0.015625)"/>
       <path id="DejaVuSans-72" d="M 2631 2963 
Q 2534 3019 2420 3045 
Q 2306 3072 2169 3072 
Q 1681 3072 1420 2755 
Q 1159 2438 1159 1844 
L 1159 0 
L 581 0 
L 581 3500 
L 1159 3500 
L 1159 2956 
Q 1341 3275 1631 3429 
Q 1922 3584 2338 3584 
Q 2397 3584 2469 3576 
Q 2541 3569 2628 3553 
L 2631 2963 
z
" transform="scale(0.015625)"/>
       <path id="DejaVuSans-61" d="M 2194 1759 
Q 1497 1759 1228 1600 
Q 959 1441 959 1056 
Q 959 750 1161 570 
Q 1363 391 1709 391 
Q 2188 391 2477 730 
Q 2766 1069 2766 1631 
L 2766 1759 
L 2194 1759 
z
M 3341 1997 
L 3341 0 
L 2766 0 
L 2766 531 
Q 2569 213 2275 61 
Q 1981 -91 1556 -91 
Q 1019 -91 701 211 
Q 384 513 384 1019 
Q 384 1609 779 1909 
Q 1175 2209 1959 2209 
L 2766 2209 
L 2766 2266 
Q 2766 2663 2505 2880 
Q 2244 3097 1772 3097 
Q 1472 3097 1187 3025 
Q 903 2953 641 2809 
L 641 3341 
Q 956 3463 1253 3523 
Q 1550 3584 1831 3584 
Q 2591 3584 2966 3190 
Q 3341 2797 3341 1997 
z
" transform="scale(0.015625)"/>
      </defs>
      <use xlink:href="#DejaVuSans-41"/>
      <use xlink:href="#DejaVuSans-6c" transform="translate(68.408203 0)"/>
      <use xlink:href="#DejaVuSans-6f" transform="translate(96.191406 0)"/>
      <use xlink:href="#DejaVuSans-20" transform="translate(157.373047 0)"/>
      <use xlink:href="#DejaVuSans-67" transform="translate(189.160156 0)"/>
      <use xlink:href="#DejaVuSans-65" transform="translate(252.636719 0)"/>
      <use xlink:href="#DejaVuSans-72" transform="translate(314.160156 0)"/>
      <use xlink:href="#DejaVuSans-61" transform="translate(355.273438 0)"/>
     </g>
    </g>
   </g>
   <g id="text_2">
    <g clip-path="url(#p383593e819)">
     <!-- Poa alpi -->
     <g transform="translate(324.473665 247.71119) scale(0.06 -0.06)">
      <defs>
       <path id="DejaVuSans-50" d="M 1259 4147 
L 1259 2394 
L 2053 2394 
Q 2494 2394 2734 2622 
Q 2975 2850 2975 3272 
Q 2975 3691 2734 3919 
Q 2494 4147 2053 4147 
L 1259 4147 
z
M 628 4666 
L 2053 4666 
Q 2838 4666 3239 4311 
Q 3641 3956 3641 3272 
Q 3641 2581 3239 2228 
Q 2838 1875 2053 1875 
L 1259 1875 
L 1259 0 
L 628 0 
L 628 4666 
z
" transform="scale(0.015625)"/>
       <path id="DejaVuSans-70" d="M 1159 525 
L 1159 -1331 
L 581 -1331 
L 581 3500 
L 1159 3500 
L 1159 2969 
Q 1341 3281 1617 3432 
Q 1894 3584 2278 3584 
Q 2916 3584 3314 3078 
Q 3713 2572 3713 1747 
Q 3713 922 3314 415 
Q 2916 -91 2278 -91 
Q 1894 -91 1617 61 
Q 1341 213 1159 525 
z
M 3116 1747 
Q 3116 2381 2855 2742 
Q 2594 3103 2138 3103 
Q 1681 3103 1420 2742 
Q 1159 2381 1159 1747 
Q 1159 1113 1420 752 
Q 1681 391 2138 391 
Q 2594 391 2855 752 
Q 3116 1113 3116 1747 
z
" transform="scale(0.015625)"/>
       <path id="DejaVuSans-69" d="M 603 3500 
L 1178 3500 
L 1178 0 
L 603 0 
L 603 3500 
z
M 603 4863 
L 1178 4863 
L 1178 4134 
L 603 4134 
L 603 4863 
z
" transform="scale(0.015625)"/>
      </defs>
      <use xlink:href="#DejaVuSans-50"/>
      <use xlink:href="#DejaVuSans-6f" transform="translate(56.677734 0)"/>
      <use xlink:href="#DejaVuSans-61" transform="translate(117.859375 0)"/>
      <use xlink:href="#DejaVuSans-20" transform="translate(179.138672 0)"/>
      <use xlink:href="#DejaVuSans-61" transform="translate(210.925781 0)"/>
      <use xlink:href="#DejaVuSans-6c" transform="translate(272.205078 0)"/>
      <use xlink:href="#DejaVuSans-70" transform="translate(299.988281 0)"/>
      <use xlink:href="#DejaVuSans-69" transform="translate(363.464844 0)"/>
     </g>
    </g>
   </g>
   <g id="text_3">
    <g clip-path="url(#p383593e819)">
     <!-- Car semp -->
     <g transform="translate(287.118497 196.266705) scale(0.06 -0.06)">
      <defs>
       <path id="DejaVuSans-43" d="M 4122 4306 
L 4122 3641 
Q 3803 3938 3442 4084 
Q 3081 4231 2675 4231 
Q 1875 4231 1450 3742 
Q 1025 3253 1025 2328 
Q 1025 1406 1450 917 
Q 1875 428 2675 428 
Q 3081 428 3442 575 
Q 3803 722 4122 1019 
L 4122 359 
Q 3791 134 3420 21 
Q 3050 -91 2638 -91 
Q 1578 -91 968 557 
Q 359 1206 359 2328 
Q 359 3453 968 4101 
Q 1578 4750 2638 4750 
Q 3056 4750 3426 4639 
Q 3797 4528 4122 4306 
z
" transform="scale(0.015625)"/>
       <path id="DejaVuSans-73" d="M 2834 3397 
L 2834 2853 
Q 2591 2978 2328 3040 
Q 2066 3103 1784 3103 
Q 1356 3103 1142 2972 
Q 928 2841 928 2578 
Q 928 2378 1081 2264 
Q 1234 2150 1697 2047 
L 1894 2003 
Q 2506 1872 2764 1633 
Q 3022 1394 3022 966 
Q 3022 478 2636 193 
Q 2250 -91 1575 -91 
Q 1294 -91 989 -36 
Q 684 19 347 128 
L 347 722 
Q 666 556 975 473 
Q 1284 391 1588 391 
Q 1994 391 2212 530 
Q 2431 669 2431 922 
Q 2431 1156 2273 1281 
Q 2116 1406 1581 1522 
L 1381 1569 
Q 847 1681 609 1914 
Q 372 2147 372 2553 
Q 372 3047 722 3315 
Q 1072 3584 1716 3584 
Q 2034 3584 2315 3537 
Q 2597 3491 2834 3397 
z
" transform="scale(0.015625)"/>
       <path id="DejaVuSans-6d" d="M 3328 2828 
Q 3544 3216 3844 3400 
Q 4144 3584 4550 3584 
Q 5097 3584 5394 3201 
Q 5691 2819 5691 2113 
L 5691 0 
L 5113 0 
L 5113 2094 
Q 5113 2597 4934 2840 
Q 4756 3084 4391 3084 
Q 3944 3084 3684 2787 
Q 3425 2491 3425 1978 
L 3425 0 
L 2847 0 
L 2847 2094 
Q 2847 2600 2669 2842 
Q 2491 3084 2119 3084 
Q 1678 3084 1418 2786 
Q 1159 2488 1159 1978 
L 1159 0 
L 581 0 
L 581 3500 
L 1159 3500 
L 1159 2956 
Q 1356 3278 1631 3431 
Q 1906 3584 2284 3584 
Q 2666 3584 2933 3390 
Q 3200 3197 3328 2828 
z
" transform="scale(0.015625)"/>
      </defs>
      <use xlink:href="#DejaVuSans-43"/>
      <use xlink:href="#DejaVuSans-61" transform="translate(69.824219 0)"/>
      <use xlink:href="#DejaVuSans-72" transform="translate(131.103516 0)"/>
      <use xlink:href="#DejaVuSans-20" transform="translate(172.216797 0)"/>
      <use xlink:href="#DejaVuSans-73" transform="translate(204.003906 0)"/>
      <use xlink:href="#DejaVuSans-65" transform="translate(256.103516 0)"/>
      <use xlink:href="#DejaVuSans-6d" transform="translate(317.626953 0)"/>
      <use xlink:href="#DejaVuSans-70" transform="translate(415.039062 0)"/>
     </g>
    </g>
   </g>
   <g id="text_4">
    <g clip-path="url(#p383593e819)">
     <!-- Tri alpi -->
     <g transform="translate(326.569585 148.049139) scale(0.06 -0.06)">
      <defs>
       <path id="DejaVuSans-54" d="M -19 4666 
L 3928 4666 
L 3928 4134 
L 2272 4134 
L 2272 0 
L 1638 0 
L 1638 4134 
L -19 4134 
L -19 4666 
z
" transform="scale(0.015625)"/>
      </defs>
      <use xlink:href="#DejaVuSans-54"/>
      <use xlink:href="#DejaVuSans-72" transform="translate(46.333984 0)"/>
      <use xlink:href="#DejaVuSans-69" transform="translate(87.447266 0)"/>
      <use xlink:href="#DejaVuSans-20" transform="translate(115.230469 0)"/>
      <use xlink:href="#DejaVuSans-61" transform="translate(147.017578 0)"/>
      <use xlink:href="#DejaVuSans-6c" transform="translate(208.296875 0)"/>
      <use xlink:href="#DejaVuSans-70" transform="translate(236.080078 0)"/>
      <use xlink:href="#DejaVuSans-69" transform="translate(299.556641 0)"/>
     </g>
    </g>
   </g>
   <g id="text_5">
    <g clip-path="url(#p383593e819)">
     <!-- Fes hall -->
     <g transform="translate(472.863859 110.458444) scale(0.06 -0.06)">
      <defs>
       <path id="DejaVuSans-46" d="M 628 4666 
L 3309 4666 
L 3309 4134 
L 1259 4134 
L 1259 2759 
L 3109 2759 
L 3109 2228 
L 1259 2228 
L 1259 0 
L 628 0 
L 628 4666 
z
" transform="scale(0.015625)"/>
       <path id="DejaVuSans-68" d="M 3513 2113 
L 3513 0 
L 2938 0 
L 2938 2094 
Q 2938 2591 2744 2837 
Q 2550 3084 2163 3084 
Q 1697 3084 1428 2787 
Q 1159 2491 1159 1978 
L 1159 0 
L 581 0 
L 581 4863 
L 1159 4863 
L 1159 2956 
Q 1366 3272 1645 3428 
Q 1925 3584 2291 3584 
Q 2894 3584 3203 3211 
Q 3513 2838 3513 2113 
z
" transform="scale(0.015625)"/>
      </defs>
      <use xlink:href="#DejaVuSans-46"/>
      <use xlink:href="#DejaVuSans-65" transform="translate(52.019531 0)"/>
      <use xlink:href="#DejaVuSans-73" transform="translate(113.542969 0)"/>
      <use xlink:href="#DejaVuSans-20" transform="translate(165.642578 0)"/>
      <use xlink:href="#DejaVuSans-68" transform="translate(197.429688 0)"/>
      <use xlink:href="#DejaVuSans-61" transform="translate(260.808594 0)"/>
      <use xlink:href="#DejaVuSans-6c" transform="translate(322.087891 0)"/>
      <use xlink:href="#DejaVuSans-6c" transform="translate(349.871094 0)"/>
     </g>
    </g>
   </g>
   <g id="text_6">
    <g clip-path="url(#p383593e819)">
     <!-- Fes nigr -->
     <g transform="translate(418.060733 153.697591) scale(0.06 -0.06)">
      <defs>
       <path id="DejaVuSans-6e" d="M 3513 2113 
L 3513 0 
L 2938 0 
L 2938 2094 
Q 2938 2591 2744 2837 
Q 2550 3084 2163 3084 
Q 1697 3084 1428 2787 
Q 1159 2491 1159 1978 
L 1159 0 
L 581 0 
L 581 3500 
L 1159 3500 
L 1159 2956 
Q 1366 3272 1645 3428 
Q 1925 3584 2291 3584 
Q 2894 3584 3203 3211 
Q 3513 2838 3513 2113 
z
" transform="scale(0.015625)"/>
      </defs>
      <use xlink:href="#DejaVuSans-46"/>
      <use xlink:href="#DejaVuSans-65" transform="translate(52.019531 0)"/>
      <use xlink:href="#DejaVuSans-73" transform="translate(113.542969 0)"/>
      <use xlink:href="#DejaVuSans-20" transform="translate(165.642578 0)"/>
      <use xlink:href="#DejaVuSans-6e" transform="translate(197.429688 0)"/>
      <use xlink:href="#DejaVuSans-69" transform="translate(260.808594 0)"/>
      <use xlink:href="#DejaVuSans-67" transform="translate(288.591797 0)"/>
      <use xlink:href="#DejaVuSans-72" transform="translate(352.068359 0)"/>
     </g>
    </g>
   </g>
   <g id="text_7">
    <g clip-path="url(#p383593e819)">
     <!-- Sco pyre -->
     <g transform="translate(335.942854 83.868853) scale(0.06 -0.06)">
      <defs>
       <path id="DejaVuSans-53" d="M 3425 4513 
L 3425 3897 
Q 3066 4069 2747 4153 
Q 2428 4238 2131 4238 
Q 1616 4238 1336 4038 
Q 1056 3838 1056 3469 
Q 1056 3159 1242 3001 
Q 1428 2844 1947 2747 
L 2328 2669 
Q 3034 2534 3370 2195 
Q 3706 1856 3706 1288 
Q 3706 609 3251 259 
Q 2797 -91 1919 -91 
Q 1588 -91 1214 -16 
Q 841 59 441 206 
L 441 856 
Q 825 641 1194 531 
Q 1563 422 1919 422 
Q 2459 422 2753 634 
Q 3047 847 3047 1241 
Q 3047 1584 2836 1778 
Q 2625 1972 2144 2069 
L 1759 2144 
Q 1053 2284 737 2584 
Q 422 2884 422 3419 
Q 422 4038 858 4394 
Q 1294 4750 2059 4750 
Q 2388 4750 2728 4690 
Q 3069 4631 3425 4513 
z
" transform="scale(0.015625)"/>
       <path id="DejaVuSans-63" d="M 3122 3366 
L 3122 2828 
Q 2878 2963 2633 3030 
Q 2388 3097 2138 3097 
Q 1578 3097 1268 2742 
Q 959 2388 959 1747 
Q 959 1106 1268 751 
Q 1578 397 2138 397 
Q 2388 397 2633 464 
Q 2878 531 3122 666 
L 3122 134 
Q 2881 22 2623 -34 
Q 2366 -91 2075 -91 
Q 1284 -91 818 406 
Q 353 903 353 1747 
Q 353 2603 823 3093 
Q 1294 3584 2113 3584 
Q 2378 3584 2631 3529 
Q 2884 3475 3122 3366 
z
" transform="scale(0.015625)"/>
       <path id="DejaVuSans-79" d="M 2059 -325 
Q 1816 -950 1584 -1140 
Q 1353 -1331 966 -1331 
L 506 -1331 
L 506 -850 
L 844 -850 
Q 1081 -850 1212 -737 
Q 1344 -625 1503 -206 
L 1606 56 
L 191 3500 
L 800 3500 
L 1894 763 
L 2988 3500 
L 3597 3500 
L 2059 -325 
z
" transform="scale(0.015625)"/>
      </defs>
      <use xlink:href="#DejaVuSans-53"/>
      <use xlink:href="#DejaVuSans-63" transform="translate(63.476562 0)"/>
      <use xlink:href="#DejaVuSans-6f" transform="translate(118.457031 0)"/>
      <use xlink:href="#DejaVuSans-20" transform="translate(179.638672 0)"/>
      <use xlink:href="#DejaVuSans-70" transform="translate(211.425781 0)"/>
      <use xlink:href="#DejaVuSans-79" transform="translate(274.902344 0)"/>
      <use xlink:href="#DejaVuSans-72" transform="translate(334.082031 0)"/>
      <use xlink:href="#DejaVuSans-65" transform="translate(372.945312 0)"/>
     </g>
    </g>
   </g>
   <g id="text_8">
    <g clip-path="url(#p383593e819)">
     <!-- Pla alpi -->
     <g transform="translate(349.811597 197.899962) scale(0.06 -0.06)">
      <use xlink:href="#DejaVuSans-50"/>
      <use xlink:href="#DejaVuSans-6c" transform="translate(60.302734 0)"/>
      <use xlink:href="#DejaVuSans-61" transform="translate(88.085938 0)"/>
      <use xlink:href="#DejaVuSans-20" transform="translate(149.365234 0)"/>
      <use xlink:href="#DejaVuSans-61" transform="translate(181.152344 0)"/>
      <use xlink:href="#DejaVuSans-6c" transform="translate(242.431641 0)"/>
      <use xlink:href="#DejaVuSans-70" transform="translate(270.214844 0)"/>
      <use xlink:href="#DejaVuSans-69" transform="translate(333.691406 0)"/>
     </g>
    </g>
   </g>
   <g id="text_9">
    <g clip-path="url(#p383593e819)">
     <!-- Sal herb -->
     <g transform="translate(193.457976 181.712118) scale(0.06 -0.06)">
      <defs>
       <path id="DejaVuSans-62" d="M 3116 1747 
Q 3116 2381 2855 2742 
Q 2594 3103 2138 3103 
Q 1681 3103 1420 2742 
Q 1159 2381 1159 1747 
Q 1159 1113 1420 752 
Q 1681 391 2138 391 
Q 2594 391 2855 752 
Q 3116 1113 3116 1747 
z
M 1159 2969 
Q 1341 3281 1617 3432 
Q 1894 3584 2278 3584 
Q 2916 3584 3314 3078 
Q 3713 2572 3713 1747 
Q 3713 922 3314 415 
Q 2916 -91 2278 -91 
Q 1894 -91 1617 61 
Q 1341 213 1159 525 
L 1159 0 
L 581 0 
L 581 4863 
L 1159 4863 
L 1159 2969 
z
" transform="scale(0.015625)"/>
      </defs>
      <use xlink:href="#DejaVuSans-53"/>
      <use xlink:href="#DejaVuSans-61" transform="translate(63.476562 0)"/>
      <use xlink:href="#DejaVuSans-6c" transform="translate(124.755859 0)"/>
      <use xlink:href="#DejaVuSans-20" transform="translate(152.539062 0)"/>
      <use xlink:href="#DejaVuSans-68" transform="translate(184.326172 0)"/>
      <use xlink:href="#DejaVuSans-65" transform="translate(247.705078 0)"/>
      <use xlink:href="#DejaVuSans-72" transform="translate(309.228516 0)"/>
      <use xlink:href="#DejaVuSans-62" transform="translate(350.341797 0)"/>
     </g>
    </g>
   </g>
   <g id="text_10">
    <g clip-path="url(#p383593e819)">
     <!-- Hel vers -->
     <g transform="translate(278.902416 297.280862) scale(0.06 -0.06)">
      <defs>
       <path id="DejaVuSans-48" d="M 628 4666 
L 1259 4666 
L 1259 2753 
L 3553 2753 
L 3553 4666 
L 4184 4666 
L 4184 0 
L 3553 0 
L 3553 2222 
L 1259 2222 
L 1259 0 
L 628 0 
L 628 4666 
z
" transform="scale(0.015625)"/>
       <path id="DejaVuSans-76" d="M 191 3500 
L 800 3500 
L 1894 563 
L 2988 3500 
L 3597 3500 
L 2284 0 
L 1503 0 
L 191 3500 
z
" transform="scale(0.015625)"/>
      </defs>
      <use xlink:href="#DejaVuSans-48"/>
      <use xlink:href="#DejaVuSans-65" transform="translate(75.195312 0)"/>
      <use xlink:href="#DejaVuSans-6c" transform="translate(136.71875 0)"/>
      <use xlink:href="#DejaVuSans-20" transform="translate(164.501953 0)"/>
      <use xlink:href="#DejaVuSans-76" transform="translate(196.289062 0)"/>
      <use xlink:href="#DejaVuSans-65" transform="translate(255.46875 0)"/>
      <use xlink:href="#DejaVuSans-72" transform="translate(316.992188 0)"/>
      <use xlink:href="#DejaVuSans-73" transform="translate(358.105469 0)"/>
     </g>
    </g>
   </g>
   <g id="text_11">
    <g clip-path="url(#p383593e819)">
     <!-- Sag glab -->
     <g transform="translate(248.651075 346.30725) scale(0.06 -0.06)">
      <use xlink:href="#DejaVuSans-53"/>
      <use xlink:href="#DejaVuSans-61" transform="translate(63.476562 0)"/>
      <use xlink:href="#DejaVuSans-67" transform="translate(124.755859 0)"/>
      <use xlink:href="#DejaVuSans-20" transform="translate(188.232422 0)"/>
      <use xlink:href="#DejaVuSans-67" transform="translate(220.019531 0)"/>
      <use xlink:href="#DejaVuSans-6c" transform="translate(283.496094 0)"/>
      <use xlink:href="#DejaVuSans-61" transform="translate(311.279297 0)"/>
      <use xlink:href="#DejaVuSans-62" transform="translate(372.558594 0)"/>
     </g>
    </g>
   </g>
   <g id="text_12">
    <g clip-path="url(#p383593e819)">
     <!-- Pot aure -->
     <g transform="translate(285.598414 128.83991) scale(0.06 -0.06)">
      <defs>
       <path id="DejaVuSans-74" d="M 1172 4494 
L 1172 3500 
L 2356 3500 
L 2356 3053 
L 1172 3053 
L 1172 1153 
Q 1172 725 1289 603 
Q 1406 481 1766 481 
L 2356 481 
L 2356 0 
L 1766 0 
Q 1100 0 847 248 
Q 594 497 594 1153 
L 594 3053 
L 172 3053 
L 172 3500 
L 594 3500 
L 594 4494 
L 1172 4494 
z
" transform="scale(0.015625)"/>
       <path id="DejaVuSans-75" d="M 544 1381 
L 544 3500 
L 1119 3500 
L 1119 1403 
Q 1119 906 1312 657 
Q 1506 409 1894 409 
Q 2359 409 2629 706 
Q 2900 1003 2900 1516 
L 2900 3500 
L 3475 3500 
L 3475 0 
L 2900 0 
L 2900 538 
Q 2691 219 2414 64 
Q 2138 -91 1772 -91 
Q 1169 -91 856 284 
Q 544 659 544 1381 
z
M 1991 3584 
L 1991 3584 
z
" transform="scale(0.015625)"/>
      </defs>
      <use xlink:href="#DejaVuSans-50"/>
      <use xlink:href="#DejaVuSans-6f" transform="translate(56.677734 0)"/>
      <use xlink:href="#DejaVuSans-74" transform="translate(117.859375 0)"/>
      <use xlink:href="#DejaVuSans-20" transform="translate(157.068359 0)"/>
      <use xlink:href="#DejaVuSans-61" transform="translate(188.855469 0)"/>
      <use xlink:href="#DejaVuSans-75" transform="translate(250.134766 0)"/>
      <use xlink:href="#DejaVuSans-72" transform="translate(313.513672 0)"/>
      <use xlink:href="#DejaVuSans-65" transform="translate(352.376953 0)"/>
     </g>
    </g>
   </g>
   <g id="text_13">
    <g clip-path="url(#p383593e819)">
     <!-- Pot cran -->
     <g transform="translate(233.717717 81.839036) scale(0.06 -0.06)">
      <use xlink:href="#DejaVuSans-50"/>
      <use xlink:href="#DejaVuSans-6f" transform="translate(56.677734 0)"/>
      <use xlink:href="#DejaVuSans-74" transform="translate(117.859375 0)"/>
      <use xlink:href="#DejaVuSans-20" transform="translate(157.068359 0)"/>
      <use xlink:href="#DejaVuSans-63" transform="translate(188.855469 0)"/>
      <use xlink:href="#DejaVuSans-72" transform="translate(243.835938 0)"/>
      <use xlink:href="#DejaVuSans-61" transform="translate(284.949219 0)"/>
      <use xlink:href="#DejaVuSans-6e" transform="translate(346.228516 0)"/>
     </g>
    </g>
   </g>
   <g id="text_14">
    <!-- G_CP -->
    <g transform="translate(279.743437 45.84) scale(0.12 -0.12)">
     <defs>
      <path id="DejaVuSans-47" d="M 3809 666 
L 3809 1919 
L 2778 1919 
L 2778 2438 
L 4434 2438 
L 4434 434 
Q 4069 175 3628 42 
Q 3188 -91 2688 -91 
Q 1594 -91 976 548 
Q 359 1188 359 2328 
Q 359 3472 976 4111 
Q 1594 4750 2688 4750 
Q 3144 4750 3555 4637 
Q 3966 4525 4313 4306 
L 4313 3634 
Q 3963 3931 3569 4081 
Q 3175 4231 2741 4231 
Q 1884 4231 1454 3753 
Q 1025 3275 1025 2328 
Q 1025 1384 1454 906 
Q 1884 428 2741 428 
Q 3075 428 3337 486 
Q 3600 544 3809 666 
z
" transform="scale(0.015625)"/>
      <path id="DejaVuSans-5f" d="M 3263 -1063 
L 3263 -1509 
L -63 -1509 
L -63 -1063 
L 3263 -1063 
z
" transform="scale(0.015625)"/>
     </defs>
     <use xlink:href="#DejaVuSans-47"/>
     <use xlink:href="#DejaVuSans-5f" transform="translate(77.490234 0)"/>
     <use xlink:href="#DejaVuSans-43" transform="translate(127.490234 0)"/>
     <use xlink:href="#DejaVuSans-50" transform="translate(197.314453 0)"/>
    </g>
   </g>
  </g>
 </g>
 <defs>
  <clipPath id="p383593e819">
   <rect x="72" y="51.84" width="446.4" height="332.64"/>
  </clipPath>
 </defs>
</svg>
