<?xml version="1.0" encoding="utf-8" standalone="no"?>
<!DOCTYPE svg PUBLIC "-//W3C//DTD SVG 1.1//EN"
  "http://www.w3.org/Graphics/SVG/1.1/DTD/svg11.dtd">
<svg xmlns:xlink="http://www.w3.org/1999/xlink" width="576pt" height="432pt" viewBox="0 0 576 432" xmlns="http://www.w3.org/2000/svg" version="1.1">
 <metadata>
  <rdf:RDF xmlns:dc="http://purl.org/dc/elements/1.1/" xmlns:cc="http://creativecommons.org/ns#" xmlns:rdf="http://www.w3.org/1999/02/22-rdf-syntax-ns#">
   <cc:Work>
    <dc:type rdf:resource="http://purl.org/dc/dcmitype/StillImage"/>
    <dc:date>2025-12-15T13:58:18.463256</dc:date>
    <dc:format>image/svg+xml</dc:format>
    <dc:creator>
     <cc:Agent>
      <dc:title>Matplotlib v3.10.0, https://matplotlib.org/</dc:title>
     </cc:Agent>
    </dc:creator>
   </cc:Work>
  </rdf:RDF>
 </metadata>
 <defs>
  <style type="text/css">*{stroke-linejoin: round; stroke-linecap: butt}</style>
 </defs>
 <g id="figure_1">
  <g id="patch_1">
   <path d="M 0 432 
L 576 432 
L 576 0 
L 0 0 
z
" style="fill: #ffffff"/>
  </g>
  <g id="axes_1">
   <g id="LineCollection_1">
    <path d="M 283.276011 197.120751 
L 335.716482 136.100612 
" clip-path="url(#pd08e17aace)" style="fill: none; stroke: #cc79a7; stroke-width: 0.706784"/>
    <path d="M 283.276011 197.120751 
L 241.187742 154.30704 
" clip-path="url(#pd08e17aace)" style="fill: none; stroke: #cc79a7; stroke-width: 0.706784"/>
    <path d="M 283.276011 197.120751 
L 201.800855 214.455305 
" clip-path="url(#pd08e17aace)" style="fill: none; stroke: #cc79a7; stroke-width: 0.706784"/>
    <path d="M 283.276011 197.120751 
L 229.961758 240.376139 
" clip-path="url(#pd08e17aace)" style="fill: none; stroke: #cc79a7; stroke-width: 0.706784"/>
    <path d="M 283.276011 197.120751 
L 356.552114 184.02178 
" clip-path="url(#pd08e17aace)" style="fill: none; stroke: #cc79a7; stroke-width: 2.103327"/>
    <path d="M 283.276011 197.120751 
L 380.989637 197.639231 
" clip-path="url(#pd08e17aace)" style="fill: none; stroke: #cc79a7; stroke-width: 0.935448"/>
    <path d="M 335.716482 136.100612 
L 280.11808 125.606483 
" clip-path="url(#pd08e17aace)" style="fill: none; stroke: #cc79a7; stroke-width: 1.813782"/>
    <path d="M 335.716482 136.100612 
L 400.489303 151.97106 
" clip-path="url(#pd08e17aace)" style="fill: none; stroke: #cc79a7; stroke-width: 2.103327"/>
    <path d="M 241.187742 154.30704 
L 315.15399 145.980193 
" clip-path="url(#pd08e17aace)" style="fill: none; stroke: #cc79a7; stroke-width: 0.721717"/>
    <path d="M 280.11808 125.606483 
L 315.15399 145.980193 
" clip-path="url(#pd08e17aace)" style="fill: none; stroke: #6e6e6e; stroke-width: 7.061982"/>
    <path d="M 280.11808 125.606483 
L 337.309172 198.853019 
" clip-path="url(#pd08e17aace)" style="fill: none; stroke: #6e6e6e; stroke-width: 1.457981"/>
    <path d="M 280.11808 125.606483 
L 232.633071 75.756374 
" clip-path="url(#pd08e17aace)" style="fill: none; stroke: #6e6e6e; stroke-width: 0.691083"/>
    <path d="M 315.15399 145.980193 
L 400.489303 151.97106 
" clip-path="url(#pd08e17aace)" style="fill: none; stroke: #cc79a7; stroke-width: 0.706784"/>
    <path d="M 315.15399 145.980193 
L 356.552114 184.02178 
" clip-path="url(#pd08e17aace)" style="fill: none; stroke: #cc79a7; stroke-width: 0.706784"/>
    <path d="M 400.489303 151.97106 
L 356.552114 184.02178 
" clip-path="url(#pd08e17aace)" style="fill: none; stroke: #cc79a7; stroke-width: 1.211603"/>
    <path d="M 400.489303 151.97106 
L 380.989637 197.639231 
" clip-path="url(#pd08e17aace)" style="fill: none; stroke: #cc79a7; stroke-width: 0.706784"/>
    <path d="M 400.489303 151.97106 
L 337.309172 198.853019 
" clip-path="url(#pd08e17aace)" style="fill: none; stroke: #cc79a7; stroke-width: 0.706784"/>
    <path d="M 400.489303 151.97106 
L 483.999175 152.006 
" clip-path="url(#pd08e17aace)" style="fill: none; stroke: #cc79a7; stroke-width: 0.925146"/>
    <path d="M 356.552114 184.02178 
L 388.977751 251.5747 
" clip-path="url(#pd08e17aace)" style="fill: none; stroke: #0000ff; stroke-width: 1.466069"/>
    <path d="M 435.86429 226.436353 
L 337.309172 198.853019 
" clip-path="url(#pd08e17aace)" style="fill: none; stroke: #cc79a7; stroke-width: 0.706784"/>
    <path d="M 337.309172 198.853019 
L 380.989637 197.639231 
" clip-path="url(#pd08e17aace)" style="fill: none; stroke: #cc79a7; stroke-width: 0.703922"/>
    <path d="M 388.977751 251.5747 
L 314.991236 251.683848 
" clip-path="url(#pd08e17aace)" style="fill: none; stroke: #0000ff; stroke-width: 0.680916"/>
   </g>
   <g id="PathCollection_1">
    <defs>
     <path id="m568497003f" d="M 0 5.956609 
C 1.579711 5.956609 3.094934 5.328983 4.211958 4.211958 
C 5.328983 3.094934 5.956609 1.579711 5.956609 0 
C 5.956609 -1.579711 5.328983 -3.094934 4.211958 -4.211958 
C 3.094934 -5.328983 1.579711 -5.956609 0 -5.956609 
C -1.579711 -5.956609 -3.094934 -5.328983 -4.211958 -4.211958 
C -5.328983 -3.094934 -5.956609 -1.579711 -5.956609 0 
C -5.956609 1.579711 -5.328983 3.094934 -4.211958 4.211958 
C -3.094934 5.328983 -1.579711 5.956609 0 5.956609 
z
" style="stroke: #000000"/>
    </defs>
    <g clip-path="url(#pd08e17aace)">
     <use xlink:href="#m568497003f" x="92.290909" y="356.256891" style="stroke: #000000"/>
    </g>
   </g>
   <g id="PathCollection_2">
    <defs>
     <path id="mccf6ed2099" d="M 0 5.56069 
C 1.474712 5.56069 2.889223 4.974781 3.932002 3.932002 
C 4.974781 2.889223 5.56069 1.474712 5.56069 0 
C 5.56069 -1.474712 4.974781 -2.889223 3.932002 -3.932002 
C 2.889223 -4.974781 1.474712 -5.56069 0 -5.56069 
C -1.474712 -5.56069 -2.889223 -4.974781 -3.932002 -3.932002 
C -4.974781 -2.889223 -5.56069 -1.474712 -5.56069 0 
C -5.56069 1.474712 -4.974781 2.889223 -3.932002 3.932002 
C -2.889223 4.974781 -1.474712 5.56069 0 5.56069 
z
" style="stroke: #000000"/>
    </defs>
    <g clip-path="url(#pd08e17aace)">
     <use xlink:href="#mccf6ed2099" x="110.617354" y="356.256891" style="stroke: #000000"/>
    </g>
   </g>
   <g id="PathCollection_3">
    <defs>
     <path id="m97db48f4ee" d="M 0 5.441324 
C 1.443056 5.441324 2.827203 4.867992 3.847597 3.847597 
C 4.867992 2.827203 5.441324 1.443056 5.441324 0 
C 5.441324 -1.443056 4.867992 -2.827203 3.847597 -3.847597 
C 2.827203 -4.867992 1.443056 -5.441324 0 -5.441324 
C -1.443056 -5.441324 -2.827203 -4.867992 -3.847597 -3.847597 
C -4.867992 -2.827203 -5.441324 -1.443056 -5.441324 0 
C -5.441324 1.443056 -4.867992 2.827203 -3.847597 3.847597 
C -2.827203 4.867992 -1.443056 5.441324 0 5.441324 
z
" style="stroke: #000000"/>
    </defs>
    <g clip-path="url(#pd08e17aace)">
     <use xlink:href="#m97db48f4ee" x="128.943798" y="356.256891" style="stroke: #000000"/>
    </g>
   </g>
   <g id="PathCollection_4">
    <defs>
     <path id="mcb770e54f7" d="M 0 5.269363 
C 1.397451 5.269363 2.737855 4.71415 3.726003 3.726003 
C 4.71415 2.737855 5.269363 1.397451 5.269363 0 
C 5.269363 -1.397451 4.71415 -2.737855 3.726003 -3.726003 
C 2.737855 -4.71415 1.397451 -5.269363 0 -5.269363 
C -1.397451 -5.269363 -2.737855 -4.71415 -3.726003 -3.726003 
C -4.71415 -2.737855 -5.269363 -1.397451 -5.269363 0 
C -5.269363 1.397451 -4.71415 2.737855 -3.726003 3.726003 
C -2.737855 4.71415 -1.397451 5.269363 0 5.269363 
z
" style="stroke: #000000"/>
    </defs>
    <g clip-path="url(#pd08e17aace)">
     <use xlink:href="#mcb770e54f7" x="147.270243" y="356.256891" style="stroke: #000000"/>
    </g>
   </g>
   <g id="PathCollection_5">
    <defs>
     <path id="m382132e555" d="M 0 5.112397 
C 1.355824 5.112397 2.656299 4.573723 3.615011 3.615011 
C 4.573723 2.656299 5.112397 1.355824 5.112397 0 
C 5.112397 -1.355824 4.573723 -2.656299 3.615011 -3.615011 
C 2.656299 -4.573723 1.355824 -5.112397 0 -5.112397 
C -1.355824 -5.112397 -2.656299 -4.573723 -3.615011 -3.615011 
C -4.573723 -2.656299 -5.112397 -1.355824 -5.112397 0 
C -5.112397 1.355824 -4.573723 2.656299 -3.615011 3.615011 
C -2.656299 4.573723 -1.355824 5.112397 0 5.112397 
z
" style="stroke: #000000"/>
    </defs>
    <g clip-path="url(#pd08e17aace)">
     <use xlink:href="#m382132e555" x="165.596688" y="356.256891" style="stroke: #000000"/>
    </g>
   </g>
   <g id="PathCollection_6">
    <defs>
     <path id="mac29710e19" d="M 0 4.808433 
C 1.275211 4.808433 2.498365 4.301786 3.400076 3.400076 
C 4.301786 2.498365 4.808433 1.275211 4.808433 0 
C 4.808433 -1.275211 4.301786 -2.498365 3.400076 -3.400076 
C 2.498365 -4.301786 1.275211 -4.808433 0 -4.808433 
C -1.275211 -4.808433 -2.498365 -4.301786 -3.400076 -3.400076 
C -4.301786 -2.498365 -4.808433 -1.275211 -4.808433 0 
C -4.808433 1.275211 -4.301786 2.498365 -3.400076 3.400076 
C -2.498365 4.301786 -1.275211 4.808433 0 4.808433 
z
" style="stroke: #000000"/>
    </defs>
    <g clip-path="url(#pd08e17aace)">
     <use xlink:href="#mac29710e19" x="183.923132" y="356.256891" style="stroke: #000000"/>
    </g>
   </g>
   <g id="PathCollection_7">
    <defs>
     <path id="m8958f6e651" d="M 0 4.080021 
C 1.082034 4.080021 2.119897 3.650124 2.88501 2.88501 
C 3.650124 2.119897 4.080021 1.082034 4.080021 0 
C 4.080021 -1.082034 3.650124 -2.119897 2.88501 -2.88501 
C 2.119897 -3.650124 1.082034 -4.080021 0 -4.080021 
C -1.082034 -4.080021 -2.119897 -3.650124 -2.88501 -2.88501 
C -3.650124 -2.119897 -4.080021 -1.082034 -4.080021 0 
C -4.080021 1.082034 -3.650124 2.119897 -2.88501 2.88501 
C -2.119897 3.650124 -1.082034 4.080021 0 4.080021 
z
" style="stroke: #000000"/>
    </defs>
    <g clip-path="url(#pd08e17aace)">
     <use xlink:href="#m8958f6e651" x="202.249577" y="356.256891" style="stroke: #000000"/>
    </g>
   </g>
   <g id="PathCollection_8">
    <defs>
     <path id="m9184257435" d="M 0 3.571719 
C 0.947231 3.571719 1.855793 3.19538 2.525586 2.525586 
C 3.19538 1.855793 3.571719 0.947231 3.571719 0 
C 3.571719 -0.947231 3.19538 -1.855793 2.525586 -2.525586 
C 1.855793 -3.19538 0.947231 -3.571719 0 -3.571719 
C -0.947231 -3.571719 -1.855793 -3.19538 -2.525586 -2.525586 
C -3.19538 -1.855793 -3.571719 -0.947231 -3.571719 0 
C -3.571719 0.947231 -3.19538 1.855793 -2.525586 2.525586 
C -1.855793 3.19538 -0.947231 3.571719 0 3.571719 
z
" style="stroke: #000000"/>
    </defs>
    <g clip-path="url(#pd08e17aace)">
     <use xlink:href="#m9184257435" x="220.576022" y="356.256891" style="stroke: #000000"/>
    </g>
   </g>
   <g id="PathCollection_9">
    <defs>
     <path id="m9162f57cd4" d="M 0 3.220242 
C 0.854018 3.220242 1.673173 2.880937 2.277055 2.277055 
C 2.880937 1.673173 3.220242 0.854018 3.220242 0 
C 3.220242 -0.854018 2.880937 -1.673173 2.277055 -2.277055 
C 1.673173 -2.880937 0.854018 -3.220242 0 -3.220242 
C -0.854018 -3.220242 -1.673173 -2.880937 -2.277055 -2.277055 
C -2.880937 -1.673173 -3.220242 -0.854018 -3.220242 0 
C -3.220242 0.854018 -2.880937 1.673173 -2.277055 2.277055 
C -1.673173 2.880937 -0.854018 3.220242 0 3.220242 
z
" style="stroke: #000000"/>
    </defs>
    <g clip-path="url(#pd08e17aace)">
     <use xlink:href="#m9162f57cd4" x="238.902466" y="356.256891" style="stroke: #000000"/>
    </g>
   </g>
   <g id="PathCollection_10">
    <defs>
     <path id="m6006202221" d="M 0 3.125954 
C 0.829013 3.125954 1.624183 2.796584 2.210383 2.210383 
C 2.796584 1.624183 3.125954 0.829013 3.125954 0 
C 3.125954 -0.829013 2.796584 -1.624183 2.210383 -2.210383 
C 1.624183 -2.796584 0.829013 -3.125954 0 -3.125954 
C -0.829013 -3.125954 -1.624183 -2.796584 -2.210383 -2.210383 
C -2.796584 -1.624183 -3.125954 -0.829013 -3.125954 0 
C -3.125954 0.829013 -2.796584 1.624183 -2.210383 2.210383 
C -1.624183 2.796584 -0.829013 3.125954 0 3.125954 
z
" style="stroke: #000000"/>
    </defs>
    <g clip-path="url(#pd08e17aace)">
     <use xlink:href="#m6006202221" x="257.228911" y="356.256891" style="stroke: #000000"/>
    </g>
   </g>
   <g id="PathCollection_11">
    <defs>
     <path id="m9dd6f60719" d="M 0 3.049805 
C 0.808818 3.049805 1.584617 2.728458 2.156538 2.156538 
C 2.728458 1.584617 3.049805 0.808818 3.049805 0 
C 3.049805 -0.808818 2.728458 -1.584617 2.156538 -2.156538 
C 1.584617 -2.728458 0.808818 -3.049805 0 -3.049805 
C -0.808818 -3.049805 -1.584617 -2.728458 -2.156538 -2.156538 
C -2.728458 -1.584617 -3.049805 -0.808818 -3.049805 0 
C -3.049805 0.808818 -2.728458 1.584617 -2.156538 2.156538 
C -1.584617 2.728458 -0.808818 3.049805 0 3.049805 
z
" style="stroke: #000000"/>
    </defs>
    <g clip-path="url(#pd08e17aace)">
     <use xlink:href="#m9dd6f60719" x="275.555356" y="356.256891" style="stroke: #000000"/>
    </g>
   </g>
   <g id="PathCollection_12">
    <defs>
     <path id="m477b3e7457" d="M 0 3.034235 
C 0.804688 3.034235 1.576527 2.714529 2.145528 2.145528 
C 2.714529 1.576527 3.034235 0.804688 3.034235 0 
C 3.034235 -0.804688 2.714529 -1.576527 2.145528 -2.145528 
C 1.576527 -2.714529 0.804688 -3.034235 0 -3.034235 
C -0.804688 -3.034235 -1.576527 -2.714529 -2.145528 -2.145528 
C -2.714529 -1.576527 -3.034235 -0.804688 -3.034235 0 
C -3.034235 0.804688 -2.714529 1.576527 -2.145528 2.145528 
C -1.576527 2.714529 -0.804688 3.034235 0 3.034235 
z
" style="stroke: #000000"/>
    </defs>
    <g clip-path="url(#pd08e17aace)">
     <use xlink:href="#m477b3e7457" x="293.8818" y="356.256891" style="stroke: #000000"/>
    </g>
   </g>
   <g id="PathCollection_13">
    <defs>
     <path id="m75c81c571b" d="M 0 2.809709 
C 0.745144 2.809709 1.459868 2.51366 1.986764 1.986764 
C 2.51366 1.459868 2.809709 0.745144 2.809709 0 
C 2.809709 -0.745144 2.51366 -1.459868 1.986764 -1.986764 
C 1.459868 -2.51366 0.745144 -2.809709 0 -2.809709 
C -0.745144 -2.809709 -1.459868 -2.51366 -1.986764 -1.986764 
C -2.51366 -1.459868 -2.809709 -0.745144 -2.809709 0 
C -2.809709 0.745144 -2.51366 1.459868 -1.986764 1.986764 
C -1.459868 2.51366 -0.745144 2.809709 0 2.809709 
z
" style="stroke: #000000"/>
    </defs>
    <g clip-path="url(#pd08e17aace)">
     <use xlink:href="#m75c81c571b" x="312.208245" y="356.256891" style="stroke: #000000"/>
    </g>
   </g>
   <g id="PathCollection_14">
    <defs>
     <path id="m51d911a767" d="M 0 2.807146 
C 0.744464 2.807146 1.458536 2.511367 1.984952 1.984952 
C 2.511367 1.458536 2.807146 0.744464 2.807146 0 
C 2.807146 -0.744464 2.511367 -1.458536 1.984952 -1.984952 
C 1.458536 -2.511367 0.744464 -2.807146 0 -2.807146 
C -0.744464 -2.807146 -1.458536 -2.511367 -1.984952 -1.984952 
C -2.511367 -1.458536 -2.807146 -0.744464 -2.807146 0 
C -2.807146 0.744464 -2.511367 1.458536 -1.984952 1.984952 
C -1.458536 2.511367 -0.744464 2.807146 0 2.807146 
z
" style="stroke: #000000"/>
    </defs>
    <g clip-path="url(#pd08e17aace)">
     <use xlink:href="#m51d911a767" x="330.53469" y="356.256891" style="stroke: #000000"/>
    </g>
   </g>
   <g id="PathCollection_15">
    <defs>
     <path id="m7e4ec2f3d3" d="M 0 2.611643 
C 0.692616 2.611643 1.356957 2.336464 1.846711 1.846711 
C 2.336464 1.356957 2.611643 0.692616 2.611643 0 
C 2.611643 -0.692616 2.336464 -1.356957 1.846711 -1.846711 
C 1.356957 -2.336464 0.692616 -2.611643 0 -2.611643 
C -0.692616 -2.611643 -1.356957 -2.336464 -1.846711 -1.846711 
C -2.336464 -1.356957 -2.611643 -0.692616 -2.611643 0 
C -2.611643 0.692616 -2.336464 1.356957 -1.846711 1.846711 
C -1.356957 2.336464 -0.692616 2.611643 0 2.611643 
z
" style="stroke: #000000"/>
    </defs>
    <g clip-path="url(#pd08e17aace)">
     <use xlink:href="#m7e4ec2f3d3" x="348.861134" y="356.256891" style="stroke: #000000"/>
    </g>
   </g>
   <g id="PathCollection_16">
    <defs>
     <path id="mf338227f9a" d="M 0 2.57899 
C 0.683956 2.57899 1.339991 2.307251 1.823621 1.823621 
C 2.307251 1.339991 2.57899 0.683956 2.57899 0 
C 2.57899 -0.683956 2.307251 -1.339991 1.823621 -1.823621 
C 1.339991 -2.307251 0.683956 -2.57899 0 -2.57899 
C -0.683956 -2.57899 -1.339991 -2.307251 -1.823621 -1.823621 
C -2.307251 -1.339991 -2.57899 -0.683956 -2.57899 0 
C -2.57899 0.683956 -2.307251 1.339991 -1.823621 1.823621 
C -1.339991 2.307251 -0.683956 2.57899 0 2.57899 
z
" style="stroke: #000000"/>
    </defs>
    <g clip-path="url(#pd08e17aace)">
     <use xlink:href="#mf338227f9a" x="367.187579" y="356.256891" style="stroke: #000000"/>
    </g>
   </g>
   <g id="PathCollection_17">
    <defs>
     <path id="m8f4b33316b" d="M 0 2.573071 
C 0.682386 2.573071 1.336916 2.301956 1.819436 1.819436 
C 2.301956 1.336916 2.573071 0.682386 2.573071 0 
C 2.573071 -0.682386 2.301956 -1.336916 1.819436 -1.819436 
C 1.336916 -2.301956 0.682386 -2.573071 0 -2.573071 
C -0.682386 -2.573071 -1.336916 -2.301956 -1.819436 -1.819436 
C -2.301956 -1.336916 -2.573071 -0.682386 -2.573071 0 
C -2.573071 0.682386 -2.301956 1.336916 -1.819436 1.819436 
C -1.336916 2.301956 -0.682386 2.573071 0 2.573071 
z
" style="stroke: #000000"/>
    </defs>
    <g clip-path="url(#pd08e17aace)">
     <use xlink:href="#m8f4b33316b" x="385.514024" y="356.256891" style="stroke: #000000"/>
    </g>
   </g>
   <g id="PathCollection_18">
    <defs>
     <path id="m351f126bc2" d="M 0 2.55212 
C 0.67683 2.55212 1.32603 2.283213 1.804622 1.804622 
C 2.283213 1.32603 2.55212 0.67683 2.55212 0 
C 2.55212 -0.67683 2.283213 -1.32603 1.804622 -1.804622 
C 1.32603 -2.283213 0.67683 -2.55212 0 -2.55212 
C -0.67683 -2.55212 -1.32603 -2.283213 -1.804622 -1.804622 
C -2.283213 -1.32603 -2.55212 -0.67683 -2.55212 0 
C -2.55212 0.67683 -2.283213 1.32603 -1.804622 1.804622 
C -1.32603 2.283213 -0.67683 2.55212 0 2.55212 
z
" style="stroke: #000000"/>
    </defs>
    <g clip-path="url(#pd08e17aace)">
     <use xlink:href="#m351f126bc2" x="403.840469" y="356.256891" style="stroke: #000000"/>
    </g>
   </g>
   <g id="PathCollection_19">
    <defs>
     <path id="m011cf9d8d6" d="M 0 2.336062 
C 0.619531 2.336062 1.213771 2.089919 1.651845 1.651845 
C 2.089919 1.213771 2.336062 0.619531 2.336062 0 
C 2.336062 -0.619531 2.089919 -1.213771 1.651845 -1.651845 
C 1.213771 -2.089919 0.619531 -2.336062 0 -2.336062 
C -0.619531 -2.336062 -1.213771 -2.089919 -1.651845 -1.651845 
C -2.089919 -1.213771 -2.336062 -0.619531 -2.336062 0 
C -2.336062 0.619531 -2.089919 1.213771 -1.651845 1.651845 
C -1.213771 2.089919 -0.619531 2.336062 0 2.336062 
z
" style="stroke: #000000"/>
    </defs>
    <g clip-path="url(#pd08e17aace)">
     <use xlink:href="#m011cf9d8d6" x="422.166913" y="356.256891" style="stroke: #000000"/>
    </g>
   </g>
   <g id="PathCollection_20">
    <defs>
     <path id="m9531a2ef2d" d="M 0 2.333615 
C 0.618882 2.333615 1.212499 2.08773 1.650115 1.650115 
C 2.08773 1.212499 2.333615 0.618882 2.333615 0 
C 2.333615 -0.618882 2.08773 -1.212499 1.650115 -1.650115 
C 1.212499 -2.08773 0.618882 -2.333615 0 -2.333615 
C -0.618882 -2.333615 -1.212499 -2.08773 -1.650115 -1.650115 
C -2.08773 -1.212499 -2.333615 -0.618882 -2.333615 0 
C -2.333615 0.618882 -2.08773 1.212499 -1.650115 1.650115 
C -1.212499 2.08773 -0.618882 2.333615 0 2.333615 
z
" style="stroke: #000000"/>
    </defs>
    <g clip-path="url(#pd08e17aace)">
     <use xlink:href="#m9531a2ef2d" x="440.493358" y="356.256891" style="stroke: #000000"/>
    </g>
   </g>
   <g id="PathCollection_21">
    <defs>
     <path id="m73f2f832ae" d="M 0 2.30954 
C 0.612497 2.30954 1.199991 2.066192 1.633092 1.633092 
C 2.066192 1.199991 2.30954 0.612497 2.30954 0 
C 2.30954 -0.612497 2.066192 -1.199991 1.633092 -1.633092 
C 1.199991 -2.066192 0.612497 -2.30954 0 -2.30954 
C -0.612497 -2.30954 -1.199991 -2.066192 -1.633092 -1.633092 
C -2.066192 -1.199991 -2.30954 -0.612497 -2.30954 0 
C -2.30954 0.612497 -2.066192 1.199991 -1.633092 1.633092 
C -1.199991 2.066192 -0.612497 2.30954 0 2.30954 
z
" style="stroke: #000000"/>
    </defs>
    <g clip-path="url(#pd08e17aace)">
     <use xlink:href="#m73f2f832ae" x="92.290909" y="369.36" style="stroke: #000000"/>
    </g>
   </g>
   <g id="PathCollection_22">
    <defs>
     <path id="md01f479cdc" d="M 0 2.302896 
C 0.610735 2.302896 1.196538 2.060248 1.628393 1.628393 
C 2.060248 1.196538 2.302896 0.610735 2.302896 0 
C 2.302896 -0.610735 2.060248 -1.196538 1.628393 -1.628393 
C 1.196538 -2.060248 0.610735 -2.302896 0 -2.302896 
C -0.610735 -2.302896 -1.196538 -2.060248 -1.628393 -1.628393 
C -2.060248 -1.196538 -2.302896 -0.610735 -2.302896 0 
C -2.302896 0.610735 -2.060248 1.196538 -1.628393 1.628393 
C -1.196538 2.060248 -0.610735 2.302896 0 2.302896 
z
" style="stroke: #000000"/>
    </defs>
    <g clip-path="url(#pd08e17aace)">
     <use xlink:href="#md01f479cdc" x="110.617354" y="369.36" style="stroke: #000000"/>
    </g>
   </g>
   <g id="PathCollection_23">
    <defs>
     <path id="me783ffc909" d="M 0 2.300393 
C 0.610071 2.300393 1.195238 2.058009 1.626623 1.626623 
C 2.058009 1.195238 2.300393 0.610071 2.300393 0 
C 2.300393 -0.610071 2.058009 -1.195238 1.626623 -1.626623 
C 1.195238 -2.058009 0.610071 -2.300393 0 -2.300393 
C -0.610071 -2.300393 -1.195238 -2.058009 -1.626623 -1.626623 
C -2.058009 -1.195238 -2.300393 -0.610071 -2.300393 0 
C -2.300393 0.610071 -2.058009 1.195238 -1.626623 1.626623 
C -1.195238 2.058009 -0.610071 2.300393 0 2.300393 
z
" style="stroke: #000000"/>
    </defs>
    <g clip-path="url(#pd08e17aace)">
     <use xlink:href="#me783ffc909" x="128.943798" y="369.36" style="stroke: #000000"/>
    </g>
   </g>
   <g id="PathCollection_24">
    <defs>
     <path id="mca9978e185" d="M 0 2.021958 
C 0.536229 2.021958 1.050569 1.808912 1.42974 1.42974 
C 1.808912 1.050569 2.021958 0.536229 2.021958 0 
C 2.021958 -0.536229 1.808912 -1.050569 1.42974 -1.42974 
C 1.050569 -1.808912 0.536229 -2.021958 0 -2.021958 
C -0.536229 -2.021958 -1.050569 -1.808912 -1.42974 -1.42974 
C -1.808912 -1.050569 -2.021958 -0.536229 -2.021958 0 
C -2.021958 0.536229 -1.808912 1.050569 -1.42974 1.42974 
C -1.050569 1.808912 -0.536229 2.021958 0 2.021958 
z
" style="stroke: #000000"/>
    </defs>
    <g clip-path="url(#pd08e17aace)">
     <use xlink:href="#mca9978e185" x="147.270243" y="369.36" style="stroke: #000000"/>
    </g>
   </g>
   <g id="PathCollection_25">
    <defs>
     <path id="m7d8ff12401" d="M 0 2.011492 
C 0.533454 2.011492 1.045131 1.799548 1.422339 1.422339 
C 1.799548 1.045131 2.011492 0.533454 2.011492 0 
C 2.011492 -0.533454 1.799548 -1.045131 1.422339 -1.422339 
C 1.045131 -1.799548 0.533454 -2.011492 0 -2.011492 
C -0.533454 -2.011492 -1.045131 -1.799548 -1.422339 -1.422339 
C -1.799548 -1.045131 -2.011492 -0.533454 -2.011492 0 
C -2.011492 0.533454 -1.799548 1.045131 -1.422339 1.422339 
C -1.045131 1.799548 -0.533454 2.011492 0 2.011492 
z
" style="stroke: #000000"/>
    </defs>
    <g clip-path="url(#pd08e17aace)">
     <use xlink:href="#m7d8ff12401" x="165.596688" y="369.36" style="stroke: #000000"/>
    </g>
   </g>
   <g id="PathCollection_26">
    <defs>
     <path id="m3fc692632a" d="M 0 2.009184 
C 0.532842 2.009184 1.043932 1.797484 1.420708 1.420708 
C 1.797484 1.043932 2.009184 0.532842 2.009184 0 
C 2.009184 -0.532842 1.797484 -1.043932 1.420708 -1.420708 
C 1.043932 -1.797484 0.532842 -2.009184 0 -2.009184 
C -0.532842 -2.009184 -1.043932 -1.797484 -1.420708 -1.420708 
C -1.797484 -1.043932 -2.009184 -0.532842 -2.009184 0 
C -2.009184 0.532842 -1.797484 1.043932 -1.420708 1.420708 
C -1.043932 1.797484 -0.532842 2.009184 0 2.009184 
z
" style="stroke: #000000"/>
    </defs>
    <g clip-path="url(#pd08e17aace)">
     <use xlink:href="#m3fc692632a" x="183.923132" y="369.36" style="stroke: #000000"/>
    </g>
   </g>
   <g id="PathCollection_27">
    <defs>
     <path id="ma88594cb7e" d="M 0 1.99623 
C 0.529406 1.99623 1.037201 1.785895 1.411548 1.411548 
C 1.785895 1.037201 1.99623 0.529406 1.99623 0 
C 1.99623 -0.529406 1.785895 -1.037201 1.411548 -1.411548 
C 1.037201 -1.785895 0.529406 -1.99623 0 -1.99623 
C -0.529406 -1.99623 -1.037201 -1.785895 -1.411548 -1.411548 
C -1.785895 -1.037201 -1.99623 -0.529406 -1.99623 0 
C -1.99623 0.529406 -1.785895 1.037201 -1.411548 1.411548 
C -1.037201 1.785895 -0.529406 1.99623 0 1.99623 
z
" style="stroke: #000000"/>
    </defs>
    <g clip-path="url(#pd08e17aace)">
     <use xlink:href="#ma88594cb7e" x="202.249577" y="369.36" style="stroke: #000000"/>
    </g>
   </g>
   <g id="PathCollection_28">
    <defs>
     <path id="mfdd3f98f1d" d="M 0 1.987389 
C 0.527062 1.987389 1.032607 1.777985 1.405296 1.405296 
C 1.777985 1.032607 1.987389 0.527062 1.987389 0 
C 1.987389 -0.527062 1.777985 -1.032607 1.405296 -1.405296 
C 1.032607 -1.777985 0.527062 -1.987389 0 -1.987389 
C -0.527062 -1.987389 -1.032607 -1.777985 -1.405296 -1.405296 
C -1.777985 -1.032607 -1.987389 -0.527062 -1.987389 0 
C -1.987389 0.527062 -1.777985 1.032607 -1.405296 1.405296 
C -1.032607 1.777985 -0.527062 1.987389 0 1.987389 
z
" style="stroke: #000000"/>
    </defs>
    <g clip-path="url(#pd08e17aace)">
     <use xlink:href="#mfdd3f98f1d" x="220.576022" y="369.36" style="stroke: #000000"/>
    </g>
   </g>
   <g id="PathCollection_29">
    <defs>
     <path id="m65fe226a06" d="M 0 1.98357 
C 0.526049 1.98357 1.030623 1.774569 1.402596 1.402596 
C 1.774569 1.030623 1.98357 0.526049 1.98357 0 
C 1.98357 -0.526049 1.774569 -1.030623 1.402596 -1.402596 
C 1.030623 -1.774569 0.526049 -1.98357 0 -1.98357 
C -0.526049 -1.98357 -1.030623 -1.774569 -1.402596 -1.402596 
C -1.774569 -1.030623 -1.98357 -0.526049 -1.98357 0 
C -1.98357 0.526049 -1.774569 1.030623 -1.402596 1.402596 
C -1.030623 1.774569 -0.526049 1.98357 0 1.98357 
z
" style="stroke: #000000"/>
    </defs>
    <g clip-path="url(#pd08e17aace)">
     <use xlink:href="#m65fe226a06" x="238.902466" y="369.36" style="stroke: #000000"/>
    </g>
   </g>
   <g id="PathCollection_30">
    <defs>
     <path id="m2017a010ff" d="M 0 1.747105 
C 0.463338 1.747105 0.90776 1.563019 1.235389 1.235389 
C 1.563019 0.90776 1.747105 0.463338 1.747105 0 
C 1.747105 -0.463338 1.563019 -0.90776 1.235389 -1.235389 
C 0.90776 -1.563019 0.463338 -1.747105 0 -1.747105 
C -0.463338 -1.747105 -0.90776 -1.563019 -1.235389 -1.235389 
C -1.563019 -0.90776 -1.747105 -0.463338 -1.747105 0 
C -1.747105 0.463338 -1.563019 0.90776 -1.235389 1.235389 
C -0.90776 1.563019 -0.463338 1.747105 0 1.747105 
z
" style="stroke: #000000"/>
    </defs>
    <g clip-path="url(#pd08e17aace)">
     <use xlink:href="#m2017a010ff" x="257.228911" y="369.36" style="stroke: #000000"/>
    </g>
   </g>
   <g id="PathCollection_31">
    <defs>
     <path id="m4a237852af" d="M 0 1.73199 
C 0.459329 1.73199 0.899907 1.549496 1.224702 1.224702 
C 1.549496 0.899907 1.73199 0.459329 1.73199 0 
C 1.73199 -0.459329 1.549496 -0.899907 1.224702 -1.224702 
C 0.899907 -1.549496 0.459329 -1.73199 0 -1.73199 
C -0.459329 -1.73199 -0.899907 -1.549496 -1.224702 -1.224702 
C -1.549496 -0.899907 -1.73199 -0.459329 -1.73199 0 
C -1.73199 0.459329 -1.549496 0.899907 -1.224702 1.224702 
C -0.899907 1.549496 -0.459329 1.73199 0 1.73199 
z
" style="stroke: #000000"/>
    </defs>
    <g clip-path="url(#pd08e17aace)">
     <use xlink:href="#m4a237852af" x="275.555356" y="369.36" style="stroke: #000000"/>
    </g>
   </g>
   <g id="PathCollection_32">
    <defs>
     <path id="m74743a2fa4" d="M 0 1.665108 
C 0.441592 1.665108 0.865157 1.489662 1.177409 1.177409 
C 1.489662 0.865157 1.665108 0.441592 1.665108 0 
C 1.665108 -0.441592 1.489662 -0.865157 1.177409 -1.177409 
C 0.865157 -1.489662 0.441592 -1.665108 0 -1.665108 
C -0.441592 -1.665108 -0.865157 -1.489662 -1.177409 -1.177409 
C -1.489662 -0.865157 -1.665108 -0.441592 -1.665108 0 
C -1.665108 0.441592 -1.489662 0.865157 -1.177409 1.177409 
C -0.865157 1.489662 -0.441592 1.665108 0 1.665108 
z
" style="stroke: #000000"/>
    </defs>
    <g clip-path="url(#pd08e17aace)">
     <use xlink:href="#m74743a2fa4" x="293.8818" y="369.36" style="stroke: #000000"/>
    </g>
   </g>
   <g id="PathCollection_33">
    <defs>
     <path id="m78e08cbf22" d="M 0 1.637476 
C 0.434264 1.637476 0.850799 1.464941 1.15787 1.15787 
C 1.464941 0.850799 1.637476 0.434264 1.637476 0 
C 1.637476 -0.434264 1.464941 -0.850799 1.15787 -1.15787 
C 0.850799 -1.464941 0.434264 -1.637476 0 -1.637476 
C -0.434264 -1.637476 -0.850799 -1.464941 -1.15787 -1.15787 
C -1.464941 -0.850799 -1.637476 -0.434264 -1.637476 0 
C -1.637476 0.434264 -1.464941 0.850799 -1.15787 1.15787 
C -0.850799 1.464941 -0.434264 1.637476 0 1.637476 
z
" style="stroke: #000000"/>
    </defs>
    <g clip-path="url(#pd08e17aace)">
     <use xlink:href="#m78e08cbf22" x="312.208245" y="369.36" style="stroke: #000000"/>
    </g>
   </g>
   <g id="PathCollection_34">
    <defs>
     <path id="m50b250f18d" d="M 0 1.636287 
C 0.433948 1.636287 0.850182 1.463878 1.15703 1.15703 
C 1.463878 0.850182 1.636287 0.433948 1.636287 0 
C 1.636287 -0.433948 1.463878 -0.850182 1.15703 -1.15703 
C 0.850182 -1.463878 0.433948 -1.636287 0 -1.636287 
C -0.433948 -1.636287 -0.850182 -1.463878 -1.15703 -1.15703 
C -1.463878 -0.850182 -1.636287 -0.433948 -1.636287 0 
C -1.636287 0.433948 -1.463878 0.850182 -1.15703 1.15703 
C -0.850182 1.463878 -0.433948 1.636287 0 1.636287 
z
" style="stroke: #000000"/>
    </defs>
    <g clip-path="url(#pd08e17aace)">
     <use xlink:href="#m50b250f18d" x="330.53469" y="369.36" style="stroke: #000000"/>
    </g>
   </g>
   <g id="PathCollection_35">
    <defs>
     <path id="m995c3bf54f" d="M 0 1.369306 
C 0.363144 1.369306 0.711464 1.225028 0.968246 0.968246 
C 1.225028 0.711464 1.369306 0.363144 1.369306 0 
C 1.369306 -0.363144 1.225028 -0.711464 0.968246 -0.968246 
C 0.711464 -1.225028 0.363144 -1.369306 0 -1.369306 
C -0.363144 -1.369306 -0.711464 -1.225028 -0.968246 -0.968246 
C -1.225028 -0.711464 -1.369306 -0.363144 -1.369306 0 
C -1.369306 0.363144 -1.225028 0.711464 -0.968246 0.968246 
C -0.711464 1.225028 -0.363144 1.369306 0 1.369306 
z
" style="stroke: #000000"/>
    </defs>
    <g clip-path="url(#pd08e17aace)">
     <use xlink:href="#m995c3bf54f" x="348.861134" y="369.36" style="stroke: #000000"/>
    </g>
   </g>
   <g id="PathCollection_36">
    <defs>
     <path id="m7499f62cfc" d="M 0 1.309533 
C 0.347292 1.309533 0.680407 1.171552 0.925979 0.925979 
C 1.171552 0.680407 1.309533 0.347292 1.309533 0 
C 1.309533 -0.347292 1.171552 -0.680407 0.925979 -0.925979 
C 0.680407 -1.171552 0.347292 -1.309533 0 -1.309533 
C -0.347292 -1.309533 -0.680407 -1.171552 -0.925979 -0.925979 
C -1.171552 -0.680407 -1.309533 -0.347292 -1.309533 0 
C -1.309533 0.347292 -1.171552 0.680407 -0.925979 0.925979 
C -0.680407 1.171552 -0.347292 1.309533 0 1.309533 
z
" style="stroke: #000000"/>
    </defs>
    <g clip-path="url(#pd08e17aace)">
     <use xlink:href="#m7499f62cfc" x="367.187579" y="369.36" style="stroke: #000000"/>
    </g>
   </g>
   <g id="PathCollection_37">
    <defs>
     <path id="m7152aa8f70" d="M 0 1.262552 
C 0.334833 1.262552 0.655996 1.129521 0.892759 0.892759 
C 1.129521 0.655996 1.262552 0.334833 1.262552 0 
C 1.262552 -0.334833 1.129521 -0.655996 0.892759 -0.892759 
C 0.655996 -1.129521 0.334833 -1.262552 0 -1.262552 
C -0.334833 -1.262552 -0.655996 -1.129521 -0.892759 -0.892759 
C -1.129521 -0.655996 -1.262552 -0.334833 -1.262552 0 
C -1.262552 0.334833 -1.129521 0.655996 -0.892759 0.892759 
C -0.655996 1.129521 -0.334833 1.262552 0 1.262552 
z
" style="stroke: #000000"/>
    </defs>
    <g clip-path="url(#pd08e17aace)">
     <use xlink:href="#m7152aa8f70" x="385.514024" y="369.36" style="stroke: #000000"/>
    </g>
   </g>
   <g id="PathCollection_38">
    <defs>
     <path id="m8ffccec997" d="M 0 1.213216 
C 0.321749 1.213216 0.630363 1.085384 0.857873 0.857873 
C 1.085384 0.630363 1.213216 0.321749 1.213216 0 
C 1.213216 -0.321749 1.085384 -0.630363 0.857873 -0.857873 
C 0.630363 -1.085384 0.321749 -1.213216 0 -1.213216 
C -0.321749 -1.213216 -0.630363 -1.085384 -0.857873 -0.857873 
C -1.085384 -0.630363 -1.213216 -0.321749 -1.213216 0 
C -1.213216 0.321749 -1.085384 0.630363 -0.857873 0.857873 
C -0.630363 1.085384 -0.321749 1.213216 0 1.213216 
z
" style="stroke: #000000"/>
    </defs>
    <g clip-path="url(#pd08e17aace)">
     <use xlink:href="#m8ffccec997" x="403.840469" y="369.36" style="stroke: #000000"/>
    </g>
   </g>
   <g id="PathCollection_39">
    <defs>
     <path id="mc87ddb5e2a" d="M 0 1.18531 
C 0.314348 1.18531 0.615863 1.060418 0.83814 0.83814 
C 1.060418 0.615863 1.18531 0.314348 1.18531 0 
C 1.18531 -0.314348 1.060418 -0.615863 0.83814 -0.83814 
C 0.615863 -1.060418 0.314348 -1.18531 0 -1.18531 
C -0.314348 -1.18531 -0.615863 -1.060418 -0.83814 -0.83814 
C -1.060418 -0.615863 -1.18531 -0.314348 -1.18531 0 
C -1.18531 0.314348 -1.060418 0.615863 -0.83814 0.83814 
C -0.615863 1.060418 -0.314348 1.18531 0 1.18531 
z
" style="stroke: #000000"/>
    </defs>
    <g clip-path="url(#pd08e17aace)">
     <use xlink:href="#mc87ddb5e2a" x="422.166913" y="369.36" style="stroke: #000000"/>
    </g>
   </g>
   <g id="PathCollection_40">
    <defs>
     <path id="m1c965bfe64" d="M 0 1.176001 
C 0.311879 1.176001 0.611027 1.05209 0.831558 0.831558 
C 1.05209 0.611027 1.176001 0.311879 1.176001 0 
C 1.176001 -0.311879 1.05209 -0.611027 0.831558 -0.831558 
C 0.611027 -1.05209 0.311879 -1.176001 0 -1.176001 
C -0.311879 -1.176001 -0.611027 -1.05209 -0.831558 -0.831558 
C -1.05209 -0.611027 -1.176001 -0.311879 -1.176001 0 
C -1.176001 0.311879 -1.05209 0.611027 -0.831558 0.831558 
C -0.611027 1.05209 -0.311879 1.176001 0 1.176001 
z
" style="stroke: #000000"/>
    </defs>
    <g clip-path="url(#pd08e17aace)">
     <use xlink:href="#m1c965bfe64" x="440.493358" y="369.36" style="stroke: #000000"/>
    </g>
   </g>
   <g id="PathCollection_41">
    <path d="M 283.276011 203.697888 
C 285.020288 203.697888 286.693359 203.00488 287.926749 201.771489 
C 289.160139 200.538099 289.853148 198.865028 289.853148 197.120751 
C 289.853148 195.376474 289.160139 193.703403 287.926749 192.470013 
C 286.693359 191.236623 285.020288 190.543615 283.276011 190.543615 
C 281.531734 190.543615 279.858663 191.236623 278.625273 192.470013 
C 277.391883 193.703403 276.698874 195.376474 276.698874 197.120751 
C 276.698874 198.865028 277.391883 200.538099 278.625273 201.771489 
C 279.858663 203.00488 281.531734 203.697888 283.276011 203.697888 
z
" clip-path="url(#pd08e17aace)" style="fill: #6e6e6e; stroke: #6e6e6e"/>
    <path d="M 335.716482 141.44003 
C 337.132512 141.44003 338.490736 140.877436 339.492021 139.876151 
C 340.493305 138.874867 341.0559 137.516643 341.0559 136.100612 
C 341.0559 134.684582 340.493305 133.326358 339.492021 132.325074 
C 338.490736 131.323789 337.132512 130.761194 335.716482 130.761194 
C 334.300452 130.761194 332.942228 131.323789 331.940943 132.325074 
C 330.939659 133.326358 330.377064 134.684582 330.377064 136.100612 
C 330.377064 137.516643 330.939659 138.874867 331.940943 139.876151 
C 332.942228 140.877436 334.300452 141.44003 335.716482 141.44003 
z
" clip-path="url(#pd08e17aace)" style="fill: #cc79a7; stroke: #cc79a7"/>
    <path d="M 241.187742 159.170785 
C 242.477622 159.170785 243.714846 158.65831 244.626929 157.746227 
C 245.539012 156.834144 246.051487 155.59692 246.051487 154.30704 
C 246.051487 153.01716 245.539012 151.779936 244.626929 150.867853 
C 243.714846 149.95577 242.477622 149.443295 241.187742 149.443295 
C 239.897862 149.443295 238.660638 149.95577 237.748555 150.867853 
C 236.836472 151.779936 236.323997 153.01716 236.323997 154.30704 
C 236.323997 155.59692 236.836472 156.834144 237.748555 157.746227 
C 238.660638 158.65831 239.897862 159.170785 241.187742 159.170785 
z
" clip-path="url(#pd08e17aace)" style="fill: #cc79a7; stroke: #cc79a7"/>
    <path d="M 280.11808 132.146516 
C 281.852517 132.146516 283.51615 131.457417 284.742582 130.230985 
C 285.969014 129.004553 286.658113 127.34092 286.658113 125.606483 
C 286.658113 123.872046 285.969014 122.208414 284.742582 120.981981 
C 283.51615 119.755549 281.852517 119.06645 280.11808 119.06645 
C 278.383643 119.06645 276.720011 119.755549 275.493578 120.981981 
C 274.267146 122.208414 273.578047 123.872046 273.578047 125.606483 
C 273.578047 127.34092 274.267146 129.004553 275.493578 130.230985 
C 276.720011 131.457417 278.383643 132.146516 280.11808 132.146516 
z
" clip-path="url(#pd08e17aace)" style="fill: #6e6e6e; stroke: #6e6e6e"/>
    <path d="M 315.15399 152.543157 
C 316.894509 152.543157 318.563975 151.851642 319.794707 150.62091 
C 321.02544 149.390177 321.716955 147.720711 321.716955 145.980193 
C 321.716955 144.239674 321.02544 142.570209 319.794707 141.339476 
C 318.563975 140.108744 316.894509 139.417228 315.15399 139.417228 
C 313.413472 139.417228 311.744006 140.108744 310.513274 141.339476 
C 309.282541 142.570209 308.591026 144.239674 308.591026 145.980193 
C 308.591026 147.720711 309.282541 149.390177 310.513274 150.62091 
C 311.744006 151.851642 313.413472 152.543157 315.15399 152.543157 
z
" clip-path="url(#pd08e17aace)" style="fill: #6e6e6e; stroke: #6e6e6e"/>
    <path d="M 201.800855 217.910504 
C 202.717184 217.910504 203.596107 217.546442 204.24405 216.8985 
C 204.891992 216.250557 205.256054 215.371634 205.256054 214.455305 
C 205.256054 213.538975 204.891992 212.660053 204.24405 212.01211 
C 203.596107 211.364167 202.717184 211.000106 201.800855 211.000106 
C 200.884525 211.000106 200.005603 211.364167 199.35766 212.01211 
C 198.709718 212.660053 198.345656 213.538975 198.345656 214.455305 
C 198.345656 215.371634 198.709718 216.250557 199.35766 216.8985 
C 200.005603 217.546442 200.884525 217.910504 201.800855 217.910504 
z
" clip-path="url(#pd08e17aace)" style="fill: #cc79a7; stroke: #cc79a7"/>
    <path d="M 229.961758 244.134348 
C 230.958447 244.134348 231.914448 243.738359 232.619213 243.033594 
C 233.323978 242.328829 233.719967 241.372827 233.719967 240.376139 
C 233.719967 239.37945 233.323978 238.423449 232.619213 237.718684 
C 231.914448 237.013918 230.958447 236.61793 229.961758 236.61793 
C 228.965069 236.61793 228.009068 237.013918 227.304303 237.718684 
C 226.599537 238.423449 226.203549 239.37945 226.203549 240.376139 
C 226.203549 241.372827 226.599537 242.328829 227.304303 243.033594 
C 228.009068 243.738359 228.965069 244.134348 229.961758 244.134348 
z
" clip-path="url(#pd08e17aace)" style="fill: #cc79a7; stroke: #cc79a7"/>
    <path d="M 400.489303 158.045904 
C 402.10037 158.045904 403.64567 157.40582 404.784866 156.266623 
C 405.924063 155.127427 406.564147 153.582127 406.564147 151.97106 
C 406.564147 150.359992 405.924063 148.814693 404.784866 147.675496 
C 403.64567 146.5363 402.10037 145.896216 400.489303 145.896216 
C 398.878235 145.896216 397.332936 146.5363 396.193739 147.675496 
C 395.054543 148.814693 394.414459 150.359992 394.414459 151.97106 
C 394.414459 153.582127 395.054543 155.127427 396.193739 156.266623 
C 397.332936 157.40582 398.878235 158.045904 400.489303 158.045904 
z
" clip-path="url(#pd08e17aace)" style="fill: #6e6e6e; stroke: #6e6e6e"/>
    <path d="M 356.552114 187.894324 
C 357.579124 187.894324 358.56421 187.486289 359.290416 186.760082 
C 360.016622 186.033876 360.424658 185.048791 360.424658 184.02178 
C 360.424658 182.99477 360.016622 182.009684 359.290416 181.283478 
C 358.56421 180.557272 357.579124 180.149236 356.552114 180.149236 
C 355.525103 180.149236 354.540018 180.557272 353.813812 181.283478 
C 353.087605 182.009684 352.67957 182.99477 352.67957 184.02178 
C 352.67957 185.048791 353.087605 186.033876 353.813812 186.760082 
C 354.540018 187.486289 355.525103 187.894324 356.552114 187.894324 
z
" clip-path="url(#pd08e17aace)" style="fill: #cc79a7; stroke: #cc79a7"/>
    <path d="M 435.86429 230.050295 
C 436.822718 230.050295 437.742021 229.669508 438.419733 228.991796 
C 439.097444 228.314085 439.478232 227.394782 439.478232 226.436353 
C 439.478232 225.477924 439.097444 224.558621 438.419733 223.88091 
C 437.742021 223.203199 436.822718 222.822411 435.86429 222.822411 
C 434.905861 222.822411 433.986558 223.203199 433.308846 223.88091 
C 432.631135 224.558621 432.250347 225.477924 432.250347 226.436353 
C 432.250347 227.394782 432.631135 228.314085 433.308846 228.991796 
C 433.986558 229.669508 434.905861 230.050295 435.86429 230.050295 
z
" clip-path="url(#pd08e17aace)" style="fill: #cc79a7; stroke: #cc79a7"/>
    <path d="M 337.309172 203.925645 
C 338.654448 203.925645 339.944807 203.391161 340.89606 202.439907 
C 341.847314 201.488653 342.381798 200.198295 342.381798 198.853019 
C 342.381798 197.507743 341.847314 196.217384 340.89606 195.266131 
C 339.944807 194.314877 338.654448 193.780393 337.309172 193.780393 
C 335.963896 193.780393 334.673538 194.314877 333.722284 195.266131 
C 332.77103 196.217384 332.236546 197.507743 332.236546 198.853019 
C 332.236546 200.198295 332.77103 201.488653 333.722284 202.439907 
C 334.673538 203.391161 335.963896 203.925645 337.309172 203.925645 
z
" clip-path="url(#pd08e17aace)" style="fill: #6e6e6e; stroke: #6e6e6e"/>
    <path d="M 380.989637 201.911005 
C 382.122525 201.911005 383.209166 201.460904 384.010238 200.659832 
C 384.811311 199.858759 385.261412 198.772119 385.261412 197.639231 
C 385.261412 196.506343 384.811311 195.419703 384.010238 194.61863 
C 383.209166 193.817557 382.122525 193.367456 380.989637 193.367456 
C 379.85675 193.367456 378.770109 193.817557 377.969037 194.61863 
C 377.167964 195.419703 376.717863 196.506343 376.717863 197.639231 
C 376.717863 198.772119 377.167964 199.858759 377.969037 200.659832 
C 378.770109 201.460904 379.85675 201.911005 380.989637 201.911005 
z
" clip-path="url(#pd08e17aace)" style="fill: #cc79a7; stroke: #cc79a7"/>
    <path d="M 483.999175 155.615229 
C 484.956354 155.615229 485.874457 155.234938 486.551285 154.55811 
C 487.228112 153.881283 487.608404 152.963179 487.608404 152.006 
C 487.608404 151.048821 487.228112 150.130717 486.551285 149.45389 
C 485.874457 148.777062 484.956354 148.396771 483.999175 148.396771 
C 483.041996 148.396771 482.123892 148.777062 481.447065 149.45389 
C 480.770237 150.130717 480.389946 151.048821 480.389946 152.006 
C 480.389946 152.963179 480.770237 153.881283 481.447065 154.55811 
C 482.123892 155.234938 483.041996 155.615229 483.999175 155.615229 
z
" clip-path="url(#pd08e17aace)" style="fill: #cc79a7; stroke: #cc79a7"/>
    <path d="M 388.977751 255.042373 
C 389.897389 255.042373 390.779484 254.676997 391.429766 254.026715 
C 392.080048 253.376433 392.445424 252.494338 392.445424 251.5747 
C 392.445424 250.655063 392.080048 249.772968 391.429766 249.122686 
C 390.779484 248.472404 389.897389 248.107028 388.977751 248.107028 
C 388.058114 248.107028 387.176019 248.472404 386.525737 249.122686 
C 385.875455 249.772968 385.510079 250.655063 385.510079 251.5747 
C 385.510079 252.494338 385.875455 253.376433 386.525737 254.026715 
C 387.176019 254.676997 388.058114 255.042373 388.977751 255.042373 
z
" clip-path="url(#pd08e17aace)" style="fill: #cc79a7; stroke: #cc79a7"/>
    <path d="M 314.991236 258.032617 
C 316.674949 258.032617 318.289928 257.363671 319.480493 256.173106 
C 320.671058 254.982541 321.340005 253.367561 321.340005 251.683848 
C 321.340005 250.000135 320.671058 248.385155 319.480493 247.19459 
C 318.289928 246.004025 316.674949 245.335079 314.991236 245.335079 
C 313.307522 245.335079 311.692543 246.004025 310.501978 247.19459 
C 309.311413 248.385155 308.642466 250.000135 308.642466 251.683848 
C 308.642466 253.367561 309.311413 254.982541 310.501978 256.173106 
C 311.692543 257.363671 313.307522 258.032617 314.991236 258.032617 
z
" clip-path="url(#pd08e17aace)" style="fill: #6e6e6e; stroke: #6e6e6e"/>
    <path d="M 232.633071 79.877003 
C 233.725874 79.877003 234.774067 79.442828 235.546796 78.670099 
C 236.319525 77.89737 236.7537 76.849177 236.7537 75.756374 
C 236.7537 74.66357 236.319525 73.615378 235.546796 72.842649 
C 234.774067 72.06992 233.725874 71.635744 232.633071 71.635744 
C 231.540267 71.635744 230.492075 72.06992 229.719346 72.842649 
C 228.946617 73.615378 228.512441 74.66357 228.512441 75.756374 
C 228.512441 76.849177 228.946617 77.89737 229.719346 78.670099 
C 230.492075 79.442828 231.540267 79.877003 232.633071 79.877003 
z
" clip-path="url(#pd08e17aace)" style="fill: #6e6e6e; stroke: #6e6e6e"/>
   </g>
   <g id="text_1">
    <g clip-path="url(#pd08e17aace)">
     <!-- Car semp -->
     <g transform="translate(268.920542 198.776376) scale(0.06 -0.06)">
      <defs>
       <path id="DejaVuSans-43" d="M 4122 4306 
L 4122 3641 
Q 3803 3938 3442 4084 
Q 3081 4231 2675 4231 
Q 1875 4231 1450 3742 
Q 1025 3253 1025 2328 
Q 1025 1406 1450 917 
Q 1875 428 2675 428 
Q 3081 428 3442 575 
Q 3803 722 4122 1019 
L 4122 359 
Q 3791 134 3420 21 
Q 3050 -91 2638 -91 
Q 1578 -91 968 557 
Q 359 1206 359 2328 
Q 359 3453 968 4101 
Q 1578 4750 2638 4750 
Q 3056 4750 3426 4639 
Q 3797 4528 4122 4306 
z
" transform="scale(0.015625)"/>
       <path id="DejaVuSans-61" d="M 2194 1759 
Q 1497 1759 1228 1600 
Q 959 1441 959 1056 
Q 959 750 1161 570 
Q 1363 391 1709 391 
Q 2188 391 2477 730 
Q 2766 1069 2766 1631 
L 2766 1759 
L 2194 1759 
z
M 3341 1997 
L 3341 0 
L 2766 0 
L 2766 531 
Q 2569 213 2275 61 
Q 1981 -91 1556 -91 
Q 1019 -91 701 211 
Q 384 513 384 1019 
Q 384 1609 779 1909 
Q 1175 2209 1959 2209 
L 2766 2209 
L 2766 2266 
Q 2766 2663 2505 2880 
Q 2244 3097 1772 3097 
Q 1472 3097 1187 3025 
Q 903 2953 641 2809 
L 641 3341 
Q 956 3463 1253 3523 
Q 1550 3584 1831 3584 
Q 2591 3584 2966 3190 
Q 3341 2797 3341 1997 
z
" transform="scale(0.015625)"/>
       <path id="DejaVuSans-72" d="M 2631 2963 
Q 2534 3019 2420 3045 
Q 2306 3072 2169 3072 
Q 1681 3072 1420 2755 
Q 1159 2438 1159 1844 
L 1159 0 
L 581 0 
L 581 3500 
L 1159 3500 
L 1159 2956 
Q 1341 3275 1631 3429 
Q 1922 3584 2338 3584 
Q 2397 3584 2469 3576 
Q 2541 3569 2628 3553 
L 2631 2963 
z
" transform="scale(0.015625)"/>
       <path id="DejaVuSans-20" transform="scale(0.015625)"/>
       <path id="DejaVuSans-73" d="M 2834 3397 
L 2834 2853 
Q 2591 2978 2328 3040 
Q 2066 3103 1784 3103 
Q 1356 3103 1142 2972 
Q 928 2841 928 2578 
Q 928 2378 1081 2264 
Q 1234 2150 1697 2047 
L 1894 2003 
Q 2506 1872 2764 1633 
Q 3022 1394 3022 966 
Q 3022 478 2636 193 
Q 2250 -91 1575 -91 
Q 1294 -91 989 -36 
Q 684 19 347 128 
L 347 722 
Q 666 556 975 473 
Q 1284 391 1588 391 
Q 1994 391 2212 530 
Q 2431 669 2431 922 
Q 2431 1156 2273 1281 
Q 2116 1406 1581 1522 
L 1381 1569 
Q 847 1681 609 1914 
Q 372 2147 372 2553 
Q 372 3047 722 3315 
Q 1072 3584 1716 3584 
Q 2034 3584 2315 3537 
Q 2597 3491 2834 3397 
z
" transform="scale(0.015625)"/>
       <path id="DejaVuSans-65" d="M 3597 1894 
L 3597 1613 
L 953 1613 
Q 991 1019 1311 708 
Q 1631 397 2203 397 
Q 2534 397 2845 478 
Q 3156 559 3463 722 
L 3463 178 
Q 3153 47 2828 -22 
Q 2503 -91 2169 -91 
Q 1331 -91 842 396 
Q 353 884 353 1716 
Q 353 2575 817 3079 
Q 1281 3584 2069 3584 
Q 2775 3584 3186 3129 
Q 3597 2675 3597 1894 
z
M 3022 2063 
Q 3016 2534 2758 2815 
Q 2500 3097 2075 3097 
Q 1594 3097 1305 2825 
Q 1016 2553 972 2059 
L 3022 2063 
z
" transform="scale(0.015625)"/>
       <path id="DejaVuSans-6d" d="M 3328 2828 
Q 3544 3216 3844 3400 
Q 4144 3584 4550 3584 
Q 5097 3584 5394 3201 
Q 5691 2819 5691 2113 
L 5691 0 
L 5113 0 
L 5113 2094 
Q 5113 2597 4934 2840 
Q 4756 3084 4391 3084 
Q 3944 3084 3684 2787 
Q 3425 2491 3425 1978 
L 3425 0 
L 2847 0 
L 2847 2094 
Q 2847 2600 2669 2842 
Q 2491 3084 2119 3084 
Q 1678 3084 1418 2786 
Q 1159 2488 1159 1978 
L 1159 0 
L 581 0 
L 581 3500 
L 1159 3500 
L 1159 2956 
Q 1356 3278 1631 3431 
Q 1906 3584 2284 3584 
Q 2666 3584 2933 3390 
Q 3200 3197 3328 2828 
z
" transform="scale(0.015625)"/>
       <path id="DejaVuSans-70" d="M 1159 525 
L 1159 -1331 
L 581 -1331 
L 581 3500 
L 1159 3500 
L 1159 2969 
Q 1341 3281 1617 3432 
Q 1894 3584 2278 3584 
Q 2916 3584 3314 3078 
Q 3713 2572 3713 1747 
Q 3713 922 3314 415 
Q 2916 -91 2278 -91 
Q 1894 -91 1617 61 
Q 1341 213 1159 525 
z
M 3116 1747 
Q 3116 2381 2855 2742 
Q 2594 3103 2138 3103 
Q 1681 3103 1420 2742 
Q 1159 2381 1159 1747 
Q 1159 1113 1420 752 
Q 1681 391 2138 391 
Q 2594 391 2855 752 
Q 3116 1113 3116 1747 
z
" transform="scale(0.015625)"/>
      </defs>
      <use xlink:href="#DejaVuSans-43"/>
      <use xlink:href="#DejaVuSans-61" transform="translate(69.824219 0)"/>
      <use xlink:href="#DejaVuSans-72" transform="translate(131.103516 0)"/>
      <use xlink:href="#DejaVuSans-20" transform="translate(172.216797 0)"/>
      <use xlink:href="#DejaVuSans-73" transform="translate(204.003906 0)"/>
      <use xlink:href="#DejaVuSans-65" transform="translate(256.103516 0)"/>
      <use xlink:href="#DejaVuSans-6d" transform="translate(317.626953 0)"/>
      <use xlink:href="#DejaVuSans-70" transform="translate(415.039062 0)"/>
     </g>
    </g>
   </g>
   <g id="text_2">
    <g clip-path="url(#pd08e17aace)">
     <!-- Nar stri -->
     <g transform="translate(324.641326 137.756237) scale(0.06 -0.06)">
      <defs>
       <path id="DejaVuSans-4e" d="M 628 4666 
L 1478 4666 
L 3547 763 
L 3547 4666 
L 4159 4666 
L 4159 0 
L 3309 0 
L 1241 3903 
L 1241 0 
L 628 0 
L 628 4666 
z
" transform="scale(0.015625)"/>
       <path id="DejaVuSans-74" d="M 1172 4494 
L 1172 3500 
L 2356 3500 
L 2356 3053 
L 1172 3053 
L 1172 1153 
Q 1172 725 1289 603 
Q 1406 481 1766 481 
L 2356 481 
L 2356 0 
L 1766 0 
Q 1100 0 847 248 
Q 594 497 594 1153 
L 594 3053 
L 172 3053 
L 172 3500 
L 594 3500 
L 594 4494 
L 1172 4494 
z
" transform="scale(0.015625)"/>
       <path id="DejaVuSans-69" d="M 603 3500 
L 1178 3500 
L 1178 0 
L 603 0 
L 603 3500 
z
M 603 4863 
L 1178 4863 
L 1178 4134 
L 603 4134 
L 603 4863 
z
" transform="scale(0.015625)"/>
      </defs>
      <use xlink:href="#DejaVuSans-4e"/>
      <use xlink:href="#DejaVuSans-61" transform="translate(74.804688 0)"/>
      <use xlink:href="#DejaVuSans-72" transform="translate(136.083984 0)"/>
      <use xlink:href="#DejaVuSans-20" transform="translate(177.197266 0)"/>
      <use xlink:href="#DejaVuSans-73" transform="translate(208.984375 0)"/>
      <use xlink:href="#DejaVuSans-74" transform="translate(261.083984 0)"/>
      <use xlink:href="#DejaVuSans-72" transform="translate(300.292969 0)"/>
      <use xlink:href="#DejaVuSans-69" transform="translate(341.40625 0)"/>
     </g>
    </g>
   </g>
   <g id="text_3">
    <g clip-path="url(#pd08e17aace)">
     <!-- Pla mari -->
     <g transform="translate(228.926179 155.962665) scale(0.06 -0.06)">
      <defs>
       <path id="DejaVuSans-50" d="M 1259 4147 
L 1259 2394 
L 2053 2394 
Q 2494 2394 2734 2622 
Q 2975 2850 2975 3272 
Q 2975 3691 2734 3919 
Q 2494 4147 2053 4147 
L 1259 4147 
z
M 628 4666 
L 2053 4666 
Q 2838 4666 3239 4311 
Q 3641 3956 3641 3272 
Q 3641 2581 3239 2228 
Q 2838 1875 2053 1875 
L 1259 1875 
L 1259 0 
L 628 0 
L 628 4666 
z
" transform="scale(0.015625)"/>
       <path id="DejaVuSans-6c" d="M 603 4863 
L 1178 4863 
L 1178 0 
L 603 0 
L 603 4863 
z
" transform="scale(0.015625)"/>
      </defs>
      <use xlink:href="#DejaVuSans-50"/>
      <use xlink:href="#DejaVuSans-6c" transform="translate(60.302734 0)"/>
      <use xlink:href="#DejaVuSans-61" transform="translate(88.085938 0)"/>
      <use xlink:href="#DejaVuSans-20" transform="translate(149.365234 0)"/>
      <use xlink:href="#DejaVuSans-6d" transform="translate(181.152344 0)"/>
      <use xlink:href="#DejaVuSans-61" transform="translate(278.564453 0)"/>
      <use xlink:href="#DejaVuSans-72" transform="translate(339.84375 0)"/>
      <use xlink:href="#DejaVuSans-69" transform="translate(380.957031 0)"/>
     </g>
    </g>
   </g>
   <g id="text_4">
    <g clip-path="url(#pd08e17aace)">
     <!-- Pot aure -->
     <g transform="translate(267.701361 127.262108) scale(0.06 -0.06)">
      <defs>
       <path id="DejaVuSans-6f" d="M 1959 3097 
Q 1497 3097 1228 2736 
Q 959 2375 959 1747 
Q 959 1119 1226 758 
Q 1494 397 1959 397 
Q 2419 397 2687 759 
Q 2956 1122 2956 1747 
Q 2956 2369 2687 2733 
Q 2419 3097 1959 3097 
z
M 1959 3584 
Q 2709 3584 3137 3096 
Q 3566 2609 3566 1747 
Q 3566 888 3137 398 
Q 2709 -91 1959 -91 
Q 1206 -91 779 398 
Q 353 888 353 1747 
Q 353 2609 779 3096 
Q 1206 3584 1959 3584 
z
" transform="scale(0.015625)"/>
       <path id="DejaVuSans-75" d="M 544 1381 
L 544 3500 
L 1119 3500 
L 1119 1403 
Q 1119 906 1312 657 
Q 1506 409 1894 409 
Q 2359 409 2629 706 
Q 2900 1003 2900 1516 
L 2900 3500 
L 3475 3500 
L 3475 0 
L 2900 0 
L 2900 538 
Q 2691 219 2414 64 
Q 2138 -91 1772 -91 
Q 1169 -91 856 284 
Q 544 659 544 1381 
z
M 1991 3584 
L 1991 3584 
z
" transform="scale(0.015625)"/>
      </defs>
      <use xlink:href="#DejaVuSans-50"/>
      <use xlink:href="#DejaVuSans-6f" transform="translate(56.677734 0)"/>
      <use xlink:href="#DejaVuSans-74" transform="translate(117.859375 0)"/>
      <use xlink:href="#DejaVuSans-20" transform="translate(157.068359 0)"/>
      <use xlink:href="#DejaVuSans-61" transform="translate(188.855469 0)"/>
      <use xlink:href="#DejaVuSans-75" transform="translate(250.134766 0)"/>
      <use xlink:href="#DejaVuSans-72" transform="translate(313.513672 0)"/>
      <use xlink:href="#DejaVuSans-65" transform="translate(352.376953 0)"/>
     </g>
    </g>
   </g>
   <g id="text_5">
    <g clip-path="url(#pd08e17aace)">
     <!-- Tri alpi -->
     <g transform="translate(305.334147 147.635818) scale(0.06 -0.06)">
      <defs>
       <path id="DejaVuSans-54" d="M -19 4666 
L 3928 4666 
L 3928 4134 
L 2272 4134 
L 2272 0 
L 1638 0 
L 1638 4134 
L -19 4134 
L -19 4666 
z
" transform="scale(0.015625)"/>
      </defs>
      <use xlink:href="#DejaVuSans-54"/>
      <use xlink:href="#DejaVuSans-72" transform="translate(46.333984 0)"/>
      <use xlink:href="#DejaVuSans-69" transform="translate(87.447266 0)"/>
      <use xlink:href="#DejaVuSans-20" transform="translate(115.230469 0)"/>
      <use xlink:href="#DejaVuSans-61" transform="translate(147.017578 0)"/>
      <use xlink:href="#DejaVuSans-6c" transform="translate(208.296875 0)"/>
      <use xlink:href="#DejaVuSans-70" transform="translate(236.080078 0)"/>
      <use xlink:href="#DejaVuSans-69" transform="translate(299.556641 0)"/>
     </g>
    </g>
   </g>
   <g id="text_6">
    <g clip-path="url(#pd08e17aace)">
     <!-- Agr rupe -->
     <g transform="translate(188.772417 216.11093) scale(0.06 -0.06)">
      <defs>
       <path id="DejaVuSans-41" d="M 2188 4044 
L 1331 1722 
L 3047 1722 
L 2188 4044 
z
M 1831 4666 
L 2547 4666 
L 4325 0 
L 3669 0 
L 3244 1197 
L 1141 1197 
L 716 0 
L 50 0 
L 1831 4666 
z
" transform="scale(0.015625)"/>
       <path id="DejaVuSans-67" d="M 2906 1791 
Q 2906 2416 2648 2759 
Q 2391 3103 1925 3103 
Q 1463 3103 1205 2759 
Q 947 2416 947 1791 
Q 947 1169 1205 825 
Q 1463 481 1925 481 
Q 2391 481 2648 825 
Q 2906 1169 2906 1791 
z
M 3481 434 
Q 3481 -459 3084 -895 
Q 2688 -1331 1869 -1331 
Q 1566 -1331 1297 -1286 
Q 1028 -1241 775 -1147 
L 775 -588 
Q 1028 -725 1275 -790 
Q 1522 -856 1778 -856 
Q 2344 -856 2625 -561 
Q 2906 -266 2906 331 
L 2906 616 
Q 2728 306 2450 153 
Q 2172 0 1784 0 
Q 1141 0 747 490 
Q 353 981 353 1791 
Q 353 2603 747 3093 
Q 1141 3584 1784 3584 
Q 2172 3584 2450 3431 
Q 2728 3278 2906 2969 
L 2906 3500 
L 3481 3500 
L 3481 434 
z
" transform="scale(0.015625)"/>
      </defs>
      <use xlink:href="#DejaVuSans-41"/>
      <use xlink:href="#DejaVuSans-67" transform="translate(68.408203 0)"/>
      <use xlink:href="#DejaVuSans-72" transform="translate(131.884766 0)"/>
      <use xlink:href="#DejaVuSans-20" transform="translate(172.998047 0)"/>
      <use xlink:href="#DejaVuSans-72" transform="translate(204.785156 0)"/>
      <use xlink:href="#DejaVuSans-75" transform="translate(245.898438 0)"/>
      <use xlink:href="#DejaVuSans-70" transform="translate(309.277344 0)"/>
      <use xlink:href="#DejaVuSans-65" transform="translate(372.753906 0)"/>
     </g>
    </g>
   </g>
   <g id="text_7">
    <g clip-path="url(#pd08e17aace)">
     <!-- Bis vivi -->
     <g transform="translate(219.335664 242.031764) scale(0.06 -0.06)">
      <defs>
       <path id="DejaVuSans-42" d="M 1259 2228 
L 1259 519 
L 2272 519 
Q 2781 519 3026 730 
Q 3272 941 3272 1375 
Q 3272 1813 3026 2020 
Q 2781 2228 2272 2228 
L 1259 2228 
z
M 1259 4147 
L 1259 2741 
L 2194 2741 
Q 2656 2741 2882 2914 
Q 3109 3088 3109 3444 
Q 3109 3797 2882 3972 
Q 2656 4147 2194 4147 
L 1259 4147 
z
M 628 4666 
L 2241 4666 
Q 2963 4666 3353 4366 
Q 3744 4066 3744 3513 
Q 3744 3084 3544 2831 
Q 3344 2578 2956 2516 
Q 3422 2416 3680 2098 
Q 3938 1781 3938 1306 
Q 3938 681 3513 340 
Q 3088 0 2303 0 
L 628 0 
L 628 4666 
z
" transform="scale(0.015625)"/>
       <path id="DejaVuSans-76" d="M 191 3500 
L 800 3500 
L 1894 563 
L 2988 3500 
L 3597 3500 
L 2284 0 
L 1503 0 
L 191 3500 
z
" transform="scale(0.015625)"/>
      </defs>
      <use xlink:href="#DejaVuSans-42"/>
      <use xlink:href="#DejaVuSans-69" transform="translate(68.603516 0)"/>
      <use xlink:href="#DejaVuSans-73" transform="translate(96.386719 0)"/>
      <use xlink:href="#DejaVuSans-20" transform="translate(148.486328 0)"/>
      <use xlink:href="#DejaVuSans-76" transform="translate(180.273438 0)"/>
      <use xlink:href="#DejaVuSans-69" transform="translate(239.453125 0)"/>
      <use xlink:href="#DejaVuSans-76" transform="translate(267.236328 0)"/>
      <use xlink:href="#DejaVuSans-69" transform="translate(326.416016 0)"/>
     </g>
    </g>
   </g>
   <g id="text_8">
    <g clip-path="url(#pd08e17aace)">
     <!-- Fes nigr -->
     <g transform="translate(388.694147 153.626685) scale(0.06 -0.06)">
      <defs>
       <path id="DejaVuSans-46" d="M 628 4666 
L 3309 4666 
L 3309 4134 
L 1259 4134 
L 1259 2759 
L 3109 2759 
L 3109 2228 
L 1259 2228 
L 1259 0 
L 628 0 
L 628 4666 
z
" transform="scale(0.015625)"/>
       <path id="DejaVuSans-6e" d="M 3513 2113 
L 3513 0 
L 2938 0 
L 2938 2094 
Q 2938 2591 2744 2837 
Q 2550 3084 2163 3084 
Q 1697 3084 1428 2787 
Q 1159 2491 1159 1978 
L 1159 0 
L 581 0 
L 581 3500 
L 1159 3500 
L 1159 2956 
Q 1366 3272 1645 3428 
Q 1925 3584 2291 3584 
Q 2894 3584 3203 3211 
Q 3513 2838 3513 2113 
z
" transform="scale(0.015625)"/>
      </defs>
      <use xlink:href="#DejaVuSans-46"/>
      <use xlink:href="#DejaVuSans-65" transform="translate(52.019531 0)"/>
      <use xlink:href="#DejaVuSans-73" transform="translate(113.542969 0)"/>
      <use xlink:href="#DejaVuSans-20" transform="translate(165.642578 0)"/>
      <use xlink:href="#DejaVuSans-6e" transform="translate(197.429688 0)"/>
      <use xlink:href="#DejaVuSans-69" transform="translate(260.808594 0)"/>
      <use xlink:href="#DejaVuSans-67" transform="translate(288.591797 0)"/>
      <use xlink:href="#DejaVuSans-72" transform="translate(352.068359 0)"/>
     </g>
    </g>
   </g>
   <g id="text_9">
    <g clip-path="url(#pd08e17aace)">
     <!-- Agr capi -->
     <g transform="translate(344.182739 185.677405) scale(0.06 -0.06)">
      <defs>
       <path id="DejaVuSans-63" d="M 3122 3366 
L 3122 2828 
Q 2878 2963 2633 3030 
Q 2388 3097 2138 3097 
Q 1578 3097 1268 2742 
Q 959 2388 959 1747 
Q 959 1106 1268 751 
Q 1578 397 2138 397 
Q 2388 397 2633 464 
Q 2878 531 3122 666 
L 3122 134 
Q 2881 22 2623 -34 
Q 2366 -91 2075 -91 
Q 1284 -91 818 406 
Q 353 903 353 1747 
Q 353 2603 823 3093 
Q 1294 3584 2113 3584 
Q 2378 3584 2631 3529 
Q 2884 3475 3122 3366 
z
" transform="scale(0.015625)"/>
      </defs>
      <use xlink:href="#DejaVuSans-41"/>
      <use xlink:href="#DejaVuSans-67" transform="translate(68.408203 0)"/>
      <use xlink:href="#DejaVuSans-72" transform="translate(131.884766 0)"/>
      <use xlink:href="#DejaVuSans-20" transform="translate(172.998047 0)"/>
      <use xlink:href="#DejaVuSans-63" transform="translate(204.785156 0)"/>
      <use xlink:href="#DejaVuSans-61" transform="translate(259.765625 0)"/>
      <use xlink:href="#DejaVuSans-70" transform="translate(321.044922 0)"/>
      <use xlink:href="#DejaVuSans-69" transform="translate(384.521484 0)"/>
     </g>
    </g>
   </g>
   <g id="text_10">
    <g clip-path="url(#pd08e17aace)">
     <!-- Ave flex -->
     <g transform="translate(423.954758 228.091978) scale(0.06 -0.06)">
      <defs>
       <path id="DejaVuSans-66" d="M 2375 4863 
L 2375 4384 
L 1825 4384 
Q 1516 4384 1395 4259 
Q 1275 4134 1275 3809 
L 1275 3500 
L 2222 3500 
L 2222 3053 
L 1275 3053 
L 1275 0 
L 697 0 
L 697 3053 
L 147 3053 
L 147 3500 
L 697 3500 
L 697 3744 
Q 697 4328 969 4595 
Q 1241 4863 1831 4863 
L 2375 4863 
z
" transform="scale(0.015625)"/>
       <path id="DejaVuSans-78" d="M 3513 3500 
L 2247 1797 
L 3578 0 
L 2900 0 
L 1881 1375 
L 863 0 
L 184 0 
L 1544 1831 
L 300 3500 
L 978 3500 
L 1906 2253 
L 2834 3500 
L 3513 3500 
z
" transform="scale(0.015625)"/>
      </defs>
      <use xlink:href="#DejaVuSans-41"/>
      <use xlink:href="#DejaVuSans-76" transform="translate(62.533203 0)"/>
      <use xlink:href="#DejaVuSans-65" transform="translate(121.712891 0)"/>
      <use xlink:href="#DejaVuSans-20" transform="translate(183.236328 0)"/>
      <use xlink:href="#DejaVuSans-66" transform="translate(215.023438 0)"/>
      <use xlink:href="#DejaVuSans-6c" transform="translate(250.228516 0)"/>
      <use xlink:href="#DejaVuSans-65" transform="translate(278.011719 0)"/>
      <use xlink:href="#DejaVuSans-78" transform="translate(337.785156 0)"/>
     </g>
    </g>
   </g>
   <g id="text_11">
    <g clip-path="url(#pd08e17aace)">
     <!-- Pla alpi -->
     <g transform="translate(326.46511 200.508644) scale(0.06 -0.06)">
      <use xlink:href="#DejaVuSans-50"/>
      <use xlink:href="#DejaVuSans-6c" transform="translate(60.302734 0)"/>
      <use xlink:href="#DejaVuSans-61" transform="translate(88.085938 0)"/>
      <use xlink:href="#DejaVuSans-20" transform="translate(149.365234 0)"/>
      <use xlink:href="#DejaVuSans-61" transform="translate(181.152344 0)"/>
      <use xlink:href="#DejaVuSans-6c" transform="translate(242.431641 0)"/>
      <use xlink:href="#DejaVuSans-70" transform="translate(270.214844 0)"/>
      <use xlink:href="#DejaVuSans-69" transform="translate(333.691406 0)"/>
     </g>
    </g>
   </g>
   <g id="text_12">
    <g clip-path="url(#pd08e17aace)">
     <!-- Meu atha -->
     <g transform="translate(366.946356 199.294856) scale(0.06 -0.06)">
      <defs>
       <path id="DejaVuSans-4d" d="M 628 4666 
L 1569 4666 
L 2759 1491 
L 3956 4666 
L 4897 4666 
L 4897 0 
L 4281 0 
L 4281 4097 
L 3078 897 
L 2444 897 
L 1241 4097 
L 1241 0 
L 628 0 
L 628 4666 
z
" transform="scale(0.015625)"/>
       <path id="DejaVuSans-68" d="M 3513 2113 
L 3513 0 
L 2938 0 
L 2938 2094 
Q 2938 2591 2744 2837 
Q 2550 3084 2163 3084 
Q 1697 3084 1428 2787 
Q 1159 2491 1159 1978 
L 1159 0 
L 581 0 
L 581 4863 
L 1159 4863 
L 1159 2956 
Q 1366 3272 1645 3428 
Q 1925 3584 2291 3584 
Q 2894 3584 3203 3211 
Q 3513 2838 3513 2113 
z
" transform="scale(0.015625)"/>
      </defs>
      <use xlink:href="#DejaVuSans-4d"/>
      <use xlink:href="#DejaVuSans-65" transform="translate(86.279297 0)"/>
      <use xlink:href="#DejaVuSans-75" transform="translate(147.802734 0)"/>
      <use xlink:href="#DejaVuSans-20" transform="translate(211.181641 0)"/>
      <use xlink:href="#DejaVuSans-61" transform="translate(242.96875 0)"/>
      <use xlink:href="#DejaVuSans-74" transform="translate(304.248047 0)"/>
      <use xlink:href="#DejaVuSans-68" transform="translate(343.457031 0)"/>
      <use xlink:href="#DejaVuSans-61" transform="translate(406.835938 0)"/>
     </g>
    </g>
   </g>
   <g id="text_13">
    <g clip-path="url(#pd08e17aace)">
     <!-- Pot gran -->
     <g transform="translate(471.456362 153.661625) scale(0.06 -0.06)">
      <use xlink:href="#DejaVuSans-50"/>
      <use xlink:href="#DejaVuSans-6f" transform="translate(56.677734 0)"/>
      <use xlink:href="#DejaVuSans-74" transform="translate(117.859375 0)"/>
      <use xlink:href="#DejaVuSans-20" transform="translate(157.068359 0)"/>
      <use xlink:href="#DejaVuSans-67" transform="translate(188.855469 0)"/>
      <use xlink:href="#DejaVuSans-72" transform="translate(252.332031 0)"/>
      <use xlink:href="#DejaVuSans-61" transform="translate(293.445312 0)"/>
      <use xlink:href="#DejaVuSans-6e" transform="translate(354.724609 0)"/>
     </g>
    </g>
   </g>
   <g id="text_14">
    <g clip-path="url(#pd08e17aace)">
     <!-- Car acau -->
     <g transform="translate(375.630095 253.230325) scale(0.06 -0.06)">
      <use xlink:href="#DejaVuSans-43"/>
      <use xlink:href="#DejaVuSans-61" transform="translate(69.824219 0)"/>
      <use xlink:href="#DejaVuSans-72" transform="translate(131.103516 0)"/>
      <use xlink:href="#DejaVuSans-20" transform="translate(172.216797 0)"/>
      <use xlink:href="#DejaVuSans-61" transform="translate(204.003906 0)"/>
      <use xlink:href="#DejaVuSans-63" transform="translate(265.283203 0)"/>
      <use xlink:href="#DejaVuSans-61" transform="translate(320.263672 0)"/>
      <use xlink:href="#DejaVuSans-75" transform="translate(381.542969 0)"/>
     </g>
    </g>
   </g>
   <g id="text_15">
    <g clip-path="url(#pd08e17aace)">
     <!-- Poa alpi -->
     <g transform="translate(303.253736 253.339473) scale(0.06 -0.06)">
      <use xlink:href="#DejaVuSans-50"/>
      <use xlink:href="#DejaVuSans-6f" transform="translate(56.677734 0)"/>
      <use xlink:href="#DejaVuSans-61" transform="translate(117.859375 0)"/>
      <use xlink:href="#DejaVuSans-20" transform="translate(179.138672 0)"/>
      <use xlink:href="#DejaVuSans-61" transform="translate(210.925781 0)"/>
      <use xlink:href="#DejaVuSans-6c" transform="translate(272.205078 0)"/>
      <use xlink:href="#DejaVuSans-70" transform="translate(299.988281 0)"/>
      <use xlink:href="#DejaVuSans-69" transform="translate(363.464844 0)"/>
     </g>
    </g>
   </g>
   <g id="text_16">
    <g clip-path="url(#pd08e17aace)">
     <!-- Pot cran -->
     <g transform="translate(220.345258 77.411999) scale(0.06 -0.06)">
      <use xlink:href="#DejaVuSans-50"/>
      <use xlink:href="#DejaVuSans-6f" transform="translate(56.677734 0)"/>
      <use xlink:href="#DejaVuSans-74" transform="translate(117.859375 0)"/>
      <use xlink:href="#DejaVuSans-20" transform="translate(157.068359 0)"/>
      <use xlink:href="#DejaVuSans-63" transform="translate(188.855469 0)"/>
      <use xlink:href="#DejaVuSans-72" transform="translate(243.835938 0)"/>
      <use xlink:href="#DejaVuSans-61" transform="translate(284.949219 0)"/>
      <use xlink:href="#DejaVuSans-6e" transform="translate(346.228516 0)"/>
     </g>
    </g>
   </g>
   <g id="text_17">
    <!-- L_TP -->
    <g transform="translate(281.574375 45.84) scale(0.12 -0.12)">
     <defs>
      <path id="DejaVuSans-4c" d="M 628 4666 
L 1259 4666 
L 1259 531 
L 3531 531 
L 3531 0 
L 628 0 
L 628 4666 
z
" transform="scale(0.015625)"/>
      <path id="DejaVuSans-5f" d="M 3263 -1063 
L 3263 -1509 
L -63 -1509 
L -63 -1063 
L 3263 -1063 
z
" transform="scale(0.015625)"/>
     </defs>
     <use xlink:href="#DejaVuSans-4c"/>
     <use xlink:href="#DejaVuSans-5f" transform="translate(55.712891 0)"/>
     <use xlink:href="#DejaVuSans-54" transform="translate(105.712891 0)"/>
     <use xlink:href="#DejaVuSans-50" transform="translate(166.796875 0)"/>
    </g>
   </g>
  </g>
 </g>
 <defs>
  <clipPath id="pd08e17aace">
   <rect x="72" y="51.84" width="446.4" height="332.64"/>
  </clipPath>
 </defs>
</svg>
