<?xml version="1.0" encoding="utf-8" standalone="no"?>
<!DOCTYPE svg PUBLIC "-//W3C//DTD SVG 1.1//EN"
  "http://www.w3.org/Graphics/SVG/1.1/DTD/svg11.dtd">
<svg xmlns:xlink="http://www.w3.org/1999/xlink" width="576pt" height="432pt" viewBox="0 0 576 432" xmlns="http://www.w3.org/2000/svg" version="1.1">
 <metadata>
  <rdf:RDF xmlns:dc="http://purl.org/dc/elements/1.1/" xmlns:cc="http://creativecommons.org/ns#" xmlns:rdf="http://www.w3.org/1999/02/22-rdf-syntax-ns#">
   <cc:Work>
    <dc:type rdf:resource="http://purl.org/dc/dcmitype/StillImage"/>
    <dc:date>2025-12-15T13:54:34.848642</dc:date>
    <dc:format>image/svg+xml</dc:format>
    <dc:creator>
     <cc:Agent>
      <dc:title>Matplotlib v3.10.0, https://matplotlib.org/</dc:title>
     </cc:Agent>
    </dc:creator>
   </cc:Work>
  </rdf:RDF>
 </metadata>
 <defs>
  <style type="text/css">*{stroke-linejoin: round; stroke-linecap: butt}</style>
 </defs>
 <g id="figure_1">
  <g id="patch_1">
   <path d="M 0 432 
L 576 432 
L 576 0 
L 0 0 
z
" style="fill: #ffffff"/>
  </g>
  <g id="axes_1">
   <g id="LineCollection_1">
    <path d="M 415.194363 209.671374 
L 402.4842 153.394944 
" clip-path="url(#p147d665ba3)" style="fill: none; stroke: #009e73; stroke-width: 0.765475"/>
    <path d="M 415.194363 209.671374 
L 344.545678 184.945107 
" clip-path="url(#p147d665ba3)" style="fill: none; stroke: #6e6e6e; stroke-width: 0.964606"/>
    <path d="M 415.194363 209.671374 
L 330.070097 227.349672 
" clip-path="url(#p147d665ba3)" style="fill: none; stroke: #6e6e6e; stroke-width: 0.864768"/>
    <path d="M 402.4842 153.394944 
L 431.176382 121.96168 
" clip-path="url(#p147d665ba3)" style="fill: none; stroke: #009e73; stroke-width: 0.67869"/>
    <path d="M 390.420675 182.34354 
L 330.070097 227.349672 
" clip-path="url(#p147d665ba3)" style="fill: none; stroke: #009e73; stroke-width: 1.185019"/>
    <path d="M 390.420675 182.34354 
L 299.409667 173.049807 
" clip-path="url(#p147d665ba3)" style="fill: none; stroke: #009e73; stroke-width: 1.359727"/>
    <path d="M 390.420675 182.34354 
L 431.176382 121.96168 
" clip-path="url(#p147d665ba3)" style="fill: none; stroke: #009e73; stroke-width: 0.823284"/>
    <path d="M 390.420675 182.34354 
L 352.883309 121.579657 
" clip-path="url(#p147d665ba3)" style="fill: none; stroke: #009e73; stroke-width: 1.058863"/>
    <path d="M 390.420675 182.34354 
L 280.326806 207.785389 
" clip-path="url(#p147d665ba3)" style="fill: none; stroke: #6e6e6e; stroke-width: 0.663847"/>
    <path d="M 390.420675 182.34354 
L 387.43232 227.540885 
" clip-path="url(#p147d665ba3)" style="fill: none; stroke: #6e6e6e; stroke-width: 1.01697"/>
    <path d="M 330.070097 227.349672 
L 299.409667 173.049807 
" clip-path="url(#p147d665ba3)" style="fill: none; stroke: #009e73; stroke-width: 0.901175"/>
    <path d="M 330.070097 227.349672 
L 387.43232 227.540885 
" clip-path="url(#p147d665ba3)" style="fill: none; stroke: #009e73; stroke-width: 1.045657"/>
    <path d="M 330.070097 227.349672 
L 280.326806 207.785389 
" clip-path="url(#p147d665ba3)" style="fill: none; stroke: #009e73; stroke-width: 1.045657"/>
    <path d="M 299.409667 173.049807 
L 200.435775 182.007741 
" clip-path="url(#p147d665ba3)" style="fill: none; stroke: #009e73; stroke-width: 1.084066"/>
    <path d="M 299.409667 173.049807 
L 249.524106 119.755174 
" clip-path="url(#p147d665ba3)" style="fill: none; stroke: #009e73; stroke-width: 0.785757"/>
    <path d="M 299.409667 173.049807 
L 220.428126 146.594758 
" clip-path="url(#p147d665ba3)" style="fill: none; stroke: #009e73; stroke-width: 0.914265"/>
    <path d="M 299.409667 173.049807 
L 280.326806 207.785389 
" clip-path="url(#p147d665ba3)" style="fill: none; stroke: #009e73; stroke-width: 0.914265"/>
    <path d="M 299.409667 173.049807 
L 329.922414 144.525526 
" clip-path="url(#p147d665ba3)" style="fill: none; stroke: #6e6e6e; stroke-width: 4.958019"/>
    <path d="M 200.435775 182.007741 
L 110.73719 173.503714 
" clip-path="url(#p147d665ba3)" style="fill: none; stroke: #009e73; stroke-width: 0.676011"/>
    <path d="M 389.574604 117.250036 
L 329.922414 144.525526 
" clip-path="url(#p147d665ba3)" style="fill: none; stroke: #009e73; stroke-width: 0.785757"/>
    <path d="M 329.922414 144.525526 
L 303.663482 77.621693 
" clip-path="url(#p147d665ba3)" style="fill: none; stroke: #6e6e6e; stroke-width: 1.67603"/>
    <path d="M 329.922414 144.525526 
L 387.43232 227.540885 
" clip-path="url(#p147d665ba3)" style="fill: none; stroke: #6e6e6e; stroke-width: 1.67603"/>
    <path d="M 387.43232 227.540885 
L 406.879979 290.855557 
" clip-path="url(#p147d665ba3)" style="fill: none; stroke: #009e73; stroke-width: 0.818806"/>
    <path d="M 387.43232 227.540885 
L 301.836978 265.547401 
" clip-path="url(#p147d665ba3)" style="fill: none; stroke: #009e73; stroke-width: 0.676011"/>
    <path d="M 280.326806 207.785389 
L 202.381708 246.577147 
" clip-path="url(#p147d665ba3)" style="fill: none; stroke: #009e73; stroke-width: 1.084066"/>
    <path d="M 479.66281 123.911097 
L 427.621362 182.531209 
" clip-path="url(#p147d665ba3)" style="fill: none; stroke: #6e6e6e; stroke-width: 0.668578"/>
   </g>
   <g id="PathCollection_1">
    <defs>
     <path id="m5bd81e5ee8" d="M 0 5.041235 
C 1.336951 5.041235 2.619324 4.510059 3.564691 3.564691 
C 4.510059 2.619324 5.041235 1.336951 5.041235 0 
C 5.041235 -1.336951 4.510059 -2.619324 3.564691 -3.564691 
C 2.619324 -4.510059 1.336951 -5.041235 0 -5.041235 
C -1.336951 -5.041235 -2.619324 -4.510059 -3.564691 -3.564691 
C -4.510059 -2.619324 -5.041235 -1.336951 -5.041235 0 
C -5.041235 1.336951 -4.510059 2.619324 -3.564691 3.564691 
C -2.619324 4.510059 -1.336951 5.041235 0 5.041235 
z
" style="stroke: #000000"/>
    </defs>
    <g clip-path="url(#p147d665ba3)">
     <use xlink:href="#m5bd81e5ee8" x="110.73719" y="344.359907" style="stroke: #000000"/>
    </g>
   </g>
   <g id="PathCollection_2">
    <defs>
     <path id="m93ac26f83f" d="M 0 4.811183 
C 1.275941 4.811183 2.499794 4.304246 3.40202 3.40202 
C 4.304246 2.499794 4.811183 1.275941 4.811183 0 
C 4.811183 -1.275941 4.304246 -2.499794 3.40202 -3.40202 
C 2.499794 -4.304246 1.275941 -4.811183 0 -4.811183 
C -1.275941 -4.811183 -2.499794 -4.304246 -3.40202 -3.40202 
C -4.304246 -2.499794 -4.811183 -1.275941 -4.811183 0 
C -4.811183 1.275941 -4.304246 2.499794 -3.40202 3.40202 
C -2.499794 4.304246 -1.275941 4.811183 0 4.811183 
z
" style="stroke: #000000"/>
    </defs>
    <g clip-path="url(#p147d665ba3)">
     <use xlink:href="#m93ac26f83f" x="130.99095" y="344.359907" style="stroke: #000000"/>
    </g>
   </g>
   <g id="PathCollection_3">
    <defs>
     <path id="mbabe6748a9" d="M 0 4.376733 
C 1.160723 4.376733 2.274062 3.915573 3.094818 3.094818 
C 3.915573 2.274062 4.376733 1.160723 4.376733 0 
C 4.376733 -1.160723 3.915573 -2.274062 3.094818 -3.094818 
C 2.274062 -3.915573 1.160723 -4.376733 0 -4.376733 
C -1.160723 -4.376733 -2.274062 -3.915573 -3.094818 -3.094818 
C -3.915573 -2.274062 -4.376733 -1.160723 -4.376733 0 
C -4.376733 1.160723 -3.915573 2.274062 -3.094818 3.094818 
C -2.274062 3.915573 -1.160723 4.376733 0 4.376733 
z
" style="stroke: #000000"/>
    </defs>
    <g clip-path="url(#p147d665ba3)">
     <use xlink:href="#mbabe6748a9" x="151.24471" y="344.359907" style="stroke: #000000"/>
    </g>
   </g>
   <g id="PathCollection_4">
    <defs>
     <path id="m8638964976" d="M 0 4.356373 
C 1.155324 4.356373 2.263484 3.897358 3.080421 3.080421 
C 3.897358 2.263484 4.356373 1.155324 4.356373 0 
C 4.356373 -1.155324 3.897358 -2.263484 3.080421 -3.080421 
C 2.263484 -3.897358 1.155324 -4.356373 0 -4.356373 
C -1.155324 -4.356373 -2.263484 -3.897358 -3.080421 -3.080421 
C -3.897358 -2.263484 -4.356373 -1.155324 -4.356373 0 
C -4.356373 1.155324 -3.897358 2.263484 -3.080421 3.080421 
C -2.263484 3.897358 -1.155324 4.356373 0 4.356373 
z
" style="stroke: #000000"/>
    </defs>
    <g clip-path="url(#p147d665ba3)">
     <use xlink:href="#m8638964976" x="171.498469" y="344.359907" style="stroke: #000000"/>
    </g>
   </g>
   <g id="PathCollection_5">
    <defs>
     <path id="m5f529fd007" d="M 0 4.094318 
C 1.085826 4.094318 2.127325 3.662915 2.89512 2.89512 
C 3.662915 2.127325 4.094318 1.085826 4.094318 0 
C 4.094318 -1.085826 3.662915 -2.127325 2.89512 -2.89512 
C 2.127325 -3.662915 1.085826 -4.094318 0 -4.094318 
C -1.085826 -4.094318 -2.127325 -3.662915 -2.89512 -2.89512 
C -3.662915 -2.127325 -4.094318 -1.085826 -4.094318 0 
C -4.094318 1.085826 -3.662915 2.127325 -2.89512 2.89512 
C -2.127325 3.662915 -1.085826 4.094318 0 4.094318 
z
" style="stroke: #000000"/>
    </defs>
    <g clip-path="url(#p147d665ba3)">
     <use xlink:href="#m5f529fd007" x="191.752229" y="344.359907" style="stroke: #000000"/>
    </g>
   </g>
   <g id="PathCollection_6">
    <defs>
     <path id="m96f00bd056" d="M 0 4.074184 
C 1.080486 4.074184 2.116864 3.644902 2.880883 2.880883 
C 3.644902 2.116864 4.074184 1.080486 4.074184 0 
C 4.074184 -1.080486 3.644902 -2.116864 2.880883 -2.880883 
C 2.116864 -3.644902 1.080486 -4.074184 0 -4.074184 
C -1.080486 -4.074184 -2.116864 -3.644902 -2.880883 -2.880883 
C -3.644902 -2.116864 -4.074184 -1.080486 -4.074184 0 
C -4.074184 1.080486 -3.644902 2.116864 -2.880883 2.880883 
C -2.116864 3.644902 -1.080486 4.074184 0 4.074184 
z
" style="stroke: #000000"/>
    </defs>
    <g clip-path="url(#p147d665ba3)">
     <use xlink:href="#m96f00bd056" x="212.005989" y="344.359907" style="stroke: #000000"/>
    </g>
   </g>
   <g id="PathCollection_7">
    <defs>
     <path id="m6336149d82" d="M 0 3.951177 
C 1.047864 3.951177 2.052952 3.534856 2.793904 2.793904 
C 3.534856 2.052952 3.951177 1.047864 3.951177 0 
C 3.951177 -1.047864 3.534856 -2.052952 2.793904 -2.793904 
C 2.052952 -3.534856 1.047864 -3.951177 0 -3.951177 
C -1.047864 -3.951177 -2.052952 -3.534856 -2.793904 -2.793904 
C -3.534856 -2.052952 -3.951177 -1.047864 -3.951177 0 
C -3.951177 1.047864 -3.534856 2.052952 -2.793904 2.793904 
C -2.052952 3.534856 -1.047864 3.951177 0 3.951177 
z
" style="stroke: #000000"/>
    </defs>
    <g clip-path="url(#p147d665ba3)">
     <use xlink:href="#m6336149d82" x="232.259749" y="344.359907" style="stroke: #000000"/>
    </g>
   </g>
   <g id="PathCollection_8">
    <defs>
     <path id="mec538b654d" d="M 0 3.5667 
C 0.9459 3.5667 1.853185 3.19089 2.522037 2.522037 
C 3.19089 1.853185 3.5667 0.9459 3.5667 0 
C 3.5667 -0.9459 3.19089 -1.853185 2.522037 -2.522037 
C 1.853185 -3.19089 0.9459 -3.5667 0 -3.5667 
C -0.9459 -3.5667 -1.853185 -3.19089 -2.522037 -2.522037 
C -3.19089 -1.853185 -3.5667 -0.9459 -3.5667 0 
C -3.5667 0.9459 -3.19089 1.853185 -2.522037 2.522037 
C -1.853185 3.19089 -0.9459 3.5667 0 3.5667 
z
" style="stroke: #000000"/>
    </defs>
    <g clip-path="url(#p147d665ba3)">
     <use xlink:href="#mec538b654d" x="252.513508" y="344.359907" style="stroke: #000000"/>
    </g>
   </g>
   <g id="PathCollection_9">
    <defs>
     <path id="m1e48522a84" d="M 0 3.415958 
C 0.905923 3.415958 1.774863 3.056031 2.415447 2.415447 
C 3.056031 1.774863 3.415958 0.905923 3.415958 0 
C 3.415958 -0.905923 3.056031 -1.774863 2.415447 -2.415447 
C 1.774863 -3.056031 0.905923 -3.415958 0 -3.415958 
C -0.905923 -3.415958 -1.774863 -3.056031 -2.415447 -2.415447 
C -3.056031 -1.774863 -3.415958 -0.905923 -3.415958 0 
C -3.415958 0.905923 -3.056031 1.774863 -2.415447 2.415447 
C -1.774863 3.056031 -0.905923 3.415958 0 3.415958 
z
" style="stroke: #000000"/>
    </defs>
    <g clip-path="url(#p147d665ba3)">
     <use xlink:href="#m1e48522a84" x="272.767268" y="344.359907" style="stroke: #000000"/>
    </g>
   </g>
   <g id="PathCollection_10">
    <defs>
     <path id="m02fcd91439" d="M 0 3.237104 
C 0.85849 3.237104 1.681934 2.896022 2.288978 2.288978 
C 2.896022 1.681934 3.237104 0.85849 3.237104 0 
C 3.237104 -0.85849 2.896022 -1.681934 2.288978 -2.288978 
C 1.681934 -2.896022 0.85849 -3.237104 0 -3.237104 
C -0.85849 -3.237104 -1.681934 -2.896022 -2.288978 -2.288978 
C -2.896022 -1.681934 -3.237104 -0.85849 -3.237104 0 
C -3.237104 0.85849 -2.896022 1.681934 -2.288978 2.288978 
C -1.681934 2.896022 -0.85849 3.237104 0 3.237104 
z
" style="stroke: #000000"/>
    </defs>
    <g clip-path="url(#p147d665ba3)">
     <use xlink:href="#m02fcd91439" x="293.021028" y="344.359907" style="stroke: #000000"/>
    </g>
   </g>
   <g id="PathCollection_11">
    <defs>
     <path id="m63117ec042" d="M 0 3.209877 
C 0.851269 3.209877 1.667788 2.871664 2.269726 2.269726 
C 2.871664 1.667788 3.209877 0.851269 3.209877 0 
C 3.209877 -0.851269 2.871664 -1.667788 2.269726 -2.269726 
C 1.667788 -2.871664 0.851269 -3.209877 0 -3.209877 
C -0.851269 -3.209877 -1.667788 -2.871664 -2.269726 -2.269726 
C -2.871664 -1.667788 -3.209877 -0.851269 -3.209877 0 
C -3.209877 0.851269 -2.871664 1.667788 -2.269726 2.269726 
C -1.667788 2.871664 -0.851269 3.209877 0 3.209877 
z
" style="stroke: #000000"/>
    </defs>
    <g clip-path="url(#p147d665ba3)">
     <use xlink:href="#m63117ec042" x="313.274788" y="344.359907" style="stroke: #000000"/>
    </g>
   </g>
   <g id="PathCollection_12">
    <defs>
     <path id="m6de8cc6b18" d="M 0 3.202133 
C 0.849216 3.202133 1.663764 2.864736 2.26425 2.26425 
C 2.864736 1.663764 3.202133 0.849216 3.202133 0 
C 3.202133 -0.849216 2.864736 -1.663764 2.26425 -2.26425 
C 1.663764 -2.864736 0.849216 -3.202133 0 -3.202133 
C -0.849216 -3.202133 -1.663764 -2.864736 -2.26425 -2.26425 
C -2.864736 -1.663764 -3.202133 -0.849216 -3.202133 0 
C -3.202133 0.849216 -2.864736 1.663764 -2.26425 2.26425 
C -1.663764 2.864736 -0.849216 3.202133 0 3.202133 
z
" style="stroke: #000000"/>
    </defs>
    <g clip-path="url(#p147d665ba3)">
     <use xlink:href="#m6de8cc6b18" x="333.528547" y="344.359907" style="stroke: #000000"/>
    </g>
   </g>
   <g id="PathCollection_13">
    <defs>
     <path id="m7dde54e2b8" d="M 0 3.066845 
C 0.813337 3.066845 1.593471 2.743703 2.168587 2.168587 
C 2.743703 1.593471 3.066845 0.813337 3.066845 0 
C 3.066845 -0.813337 2.743703 -1.593471 2.168587 -2.168587 
C 1.593471 -2.743703 0.813337 -3.066845 0 -3.066845 
C -0.813337 -3.066845 -1.593471 -2.743703 -2.168587 -2.168587 
C -2.743703 -1.593471 -3.066845 -0.813337 -3.066845 0 
C -3.066845 0.813337 -2.743703 1.593471 -2.168587 2.168587 
C -1.593471 2.743703 -0.813337 3.066845 0 3.066845 
z
" style="stroke: #000000"/>
    </defs>
    <g clip-path="url(#p147d665ba3)">
     <use xlink:href="#m7dde54e2b8" x="353.782307" y="344.359907" style="stroke: #000000"/>
    </g>
   </g>
   <g id="PathCollection_14">
    <defs>
     <path id="m5454cb753d" d="M 0 2.834742 
C 0.751782 2.834742 1.472875 2.536056 2.004466 2.004466 
C 2.536056 1.472875 2.834742 0.751782 2.834742 0 
C 2.834742 -0.751782 2.536056 -1.472875 2.004466 -2.004466 
C 1.472875 -2.536056 0.751782 -2.834742 0 -2.834742 
C -0.751782 -2.834742 -1.472875 -2.536056 -2.004466 -2.004466 
C -2.536056 -1.472875 -2.834742 -0.751782 -2.834742 0 
C -2.834742 0.751782 -2.536056 1.472875 -2.004466 2.004466 
C -1.472875 2.536056 -0.751782 2.834742 0 2.834742 
z
" style="stroke: #000000"/>
    </defs>
    <g clip-path="url(#p147d665ba3)">
     <use xlink:href="#m5454cb753d" x="374.036067" y="344.359907" style="stroke: #000000"/>
    </g>
   </g>
   <g id="PathCollection_15">
    <defs>
     <path id="mb26c931a7b" d="M 0 2.809735 
C 0.74515 2.809735 1.459882 2.513683 1.986782 1.986782 
C 2.513683 1.459882 2.809735 0.74515 2.809735 0 
C 2.809735 -0.74515 2.513683 -1.459882 1.986782 -1.986782 
C 1.459882 -2.513683 0.74515 -2.809735 0 -2.809735 
C -0.74515 -2.809735 -1.459882 -2.513683 -1.986782 -1.986782 
C -2.513683 -1.459882 -2.809735 -0.74515 -2.809735 0 
C -2.809735 0.74515 -2.513683 1.459882 -1.986782 1.986782 
C -1.459882 2.513683 -0.74515 2.809735 0 2.809735 
z
" style="stroke: #000000"/>
    </defs>
    <g clip-path="url(#p147d665ba3)">
     <use xlink:href="#mb26c931a7b" x="394.289827" y="344.359907" style="stroke: #000000"/>
    </g>
   </g>
   <g id="PathCollection_16">
    <defs>
     <path id="m90b7c14d63" d="M 0 2.784489 
C 0.738455 2.784489 1.446764 2.491097 1.968931 1.968931 
C 2.491097 1.446764 2.784489 0.738455 2.784489 0 
C 2.784489 -0.738455 2.491097 -1.446764 1.968931 -1.968931 
C 1.446764 -2.491097 0.738455 -2.784489 0 -2.784489 
C -0.738455 -2.784489 -1.446764 -2.491097 -1.968931 -1.968931 
C -2.491097 -1.446764 -2.784489 -0.738455 -2.784489 0 
C -2.784489 0.738455 -2.491097 1.446764 -1.968931 1.968931 
C -1.446764 2.491097 -0.738455 2.784489 0 2.784489 
z
" style="stroke: #000000"/>
    </defs>
    <g clip-path="url(#p147d665ba3)">
     <use xlink:href="#m90b7c14d63" x="414.543586" y="344.359907" style="stroke: #000000"/>
    </g>
   </g>
   <g id="PathCollection_17">
    <defs>
     <path id="m30cfa73428" d="M 0 2.775397 
C 0.736044 2.775397 1.44204 2.482963 1.962502 1.962502 
C 2.482963 1.44204 2.775397 0.736044 2.775397 0 
C 2.775397 -0.736044 2.482963 -1.44204 1.962502 -1.962502 
C 1.44204 -2.482963 0.736044 -2.775397 0 -2.775397 
C -0.736044 -2.775397 -1.44204 -2.482963 -1.962502 -1.962502 
C -2.482963 -1.44204 -2.775397 -0.736044 -2.775397 0 
C -2.775397 0.736044 -2.482963 1.44204 -1.962502 1.962502 
C -1.44204 2.482963 -0.736044 2.775397 0 2.775397 
z
" style="stroke: #000000"/>
    </defs>
    <g clip-path="url(#p147d665ba3)">
     <use xlink:href="#m30cfa73428" x="434.797346" y="344.359907" style="stroke: #000000"/>
    </g>
   </g>
   <g id="PathCollection_18">
    <defs>
     <path id="m8a2906b845" d="M 0 2.554146 
C 0.677367 2.554146 1.327083 2.285025 1.806054 1.806054 
C 2.285025 1.327083 2.554146 0.677367 2.554146 0 
C 2.554146 -0.677367 2.285025 -1.327083 1.806054 -1.806054 
C 1.327083 -2.285025 0.677367 -2.554146 0 -2.554146 
C -0.677367 -2.554146 -1.327083 -2.285025 -1.806054 -1.806054 
C -2.285025 -1.327083 -2.554146 -0.677367 -2.554146 0 
C -2.554146 0.677367 -2.285025 1.327083 -1.806054 1.806054 
C -1.327083 2.285025 -0.677367 2.554146 0 2.554146 
z
" style="stroke: #000000"/>
    </defs>
    <g clip-path="url(#p147d665ba3)">
     <use xlink:href="#m8a2906b845" x="455.051106" y="344.359907" style="stroke: #000000"/>
    </g>
   </g>
   <g id="PathCollection_19">
    <defs>
     <path id="md557f5c25c" d="M 0 2.358849 
C 0.625574 2.358849 1.22561 2.110306 1.667958 1.667958 
C 2.110306 1.22561 2.358849 0.625574 2.358849 0 
C 2.358849 -0.625574 2.110306 -1.22561 1.667958 -1.667958 
C 1.22561 -2.110306 0.625574 -2.358849 0 -2.358849 
C -0.625574 -2.358849 -1.22561 -2.110306 -1.667958 -1.667958 
C -2.110306 -1.22561 -2.358849 -0.625574 -2.358849 0 
C -2.358849 0.625574 -2.110306 1.22561 -1.667958 1.667958 
C -1.22561 2.110306 -0.625574 2.358849 0 2.358849 
z
" style="stroke: #000000"/>
    </defs>
    <g clip-path="url(#p147d665ba3)">
     <use xlink:href="#md557f5c25c" x="475.304866" y="344.359907" style="stroke: #000000"/>
    </g>
   </g>
   <g id="PathCollection_20">
    <defs>
     <path id="m63b4adeb2b" d="M 0 2.307978 
C 0.612083 2.307978 1.199179 2.064795 1.631987 1.631987 
C 2.064795 1.199179 2.307978 0.612083 2.307978 0 
C 2.307978 -0.612083 2.064795 -1.199179 1.631987 -1.631987 
C 1.199179 -2.064795 0.612083 -2.307978 0 -2.307978 
C -0.612083 -2.307978 -1.199179 -2.064795 -1.631987 -1.631987 
C -2.064795 -1.199179 -2.307978 -0.612083 -2.307978 0 
C -2.307978 0.612083 -2.064795 1.199179 -1.631987 1.631987 
C -1.199179 2.064795 -0.612083 2.307978 0 2.307978 
z
" style="stroke: #000000"/>
    </defs>
    <g clip-path="url(#p147d665ba3)">
     <use xlink:href="#m63b4adeb2b" x="495.558625" y="344.359907" style="stroke: #000000"/>
    </g>
   </g>
   <g id="PathCollection_21">
    <defs>
     <path id="mf587e11c8e" d="M 0 2.294342 
C 0.608467 2.294342 1.192094 2.052595 1.622345 1.622345 
C 2.052595 1.192094 2.294342 0.608467 2.294342 0 
C 2.294342 -0.608467 2.052595 -1.192094 1.622345 -1.622345 
C 1.192094 -2.052595 0.608467 -2.294342 0 -2.294342 
C -0.608467 -2.294342 -1.192094 -2.052595 -1.622345 -1.622345 
C -2.052595 -1.192094 -2.294342 -0.608467 -2.294342 0 
C -2.294342 0.608467 -2.052595 1.192094 -1.622345 1.622345 
C -1.192094 2.052595 -0.608467 2.294342 0 2.294342 
z
" style="stroke: #000000"/>
    </defs>
    <g clip-path="url(#p147d665ba3)">
     <use xlink:href="#mf587e11c8e" x="110.73719" y="356.859954" style="stroke: #000000"/>
    </g>
   </g>
   <g id="PathCollection_22">
    <defs>
     <path id="m9f6275d020" d="M 0 2.288392 
C 0.606889 2.288392 1.189002 2.047273 1.618137 1.618137 
C 2.047273 1.189002 2.288392 0.606889 2.288392 0 
C 2.288392 -0.606889 2.047273 -1.189002 1.618137 -1.618137 
C 1.189002 -2.047273 0.606889 -2.288392 0 -2.288392 
C -0.606889 -2.288392 -1.189002 -2.047273 -1.618137 -1.618137 
C -2.047273 -1.189002 -2.288392 -0.606889 -2.288392 0 
C -2.288392 0.606889 -2.047273 1.189002 -1.618137 1.618137 
C -1.189002 2.047273 -0.606889 2.288392 0 2.288392 
z
" style="stroke: #000000"/>
    </defs>
    <g clip-path="url(#p147d665ba3)">
     <use xlink:href="#m9f6275d020" x="130.99095" y="356.859954" style="stroke: #000000"/>
    </g>
   </g>
   <g id="PathCollection_23">
    <defs>
     <path id="mcce67df263" d="M 0 2.276497 
C 0.603734 2.276497 1.182822 2.036631 1.609726 1.609726 
C 2.036631 1.182822 2.276497 0.603734 2.276497 0 
C 2.276497 -0.603734 2.036631 -1.182822 1.609726 -1.609726 
C 1.182822 -2.036631 0.603734 -2.276497 0 -2.276497 
C -0.603734 -2.276497 -1.182822 -2.036631 -1.609726 -1.609726 
C -2.036631 -1.182822 -2.276497 -0.603734 -2.276497 0 
C -2.276497 0.603734 -2.036631 1.182822 -1.609726 1.609726 
C -1.182822 2.036631 -0.603734 2.276497 0 2.276497 
z
" style="stroke: #000000"/>
    </defs>
    <g clip-path="url(#p147d665ba3)">
     <use xlink:href="#mcce67df263" x="151.24471" y="356.859954" style="stroke: #000000"/>
    </g>
   </g>
   <g id="PathCollection_24">
    <defs>
     <path id="m7bf5a3711e" d="M 0 2.267867 
C 0.601445 2.267867 1.178338 2.02891 1.603624 1.603624 
C 2.02891 1.178338 2.267867 0.601445 2.267867 0 
C 2.267867 -0.601445 2.02891 -1.178338 1.603624 -1.603624 
C 1.178338 -2.02891 0.601445 -2.267867 0 -2.267867 
C -0.601445 -2.267867 -1.178338 -2.02891 -1.603624 -1.603624 
C -2.02891 -1.178338 -2.267867 -0.601445 -2.267867 0 
C -2.267867 0.601445 -2.02891 1.178338 -1.603624 1.603624 
C -1.178338 2.02891 -0.601445 2.267867 0 2.267867 
z
" style="stroke: #000000"/>
    </defs>
    <g clip-path="url(#p147d665ba3)">
     <use xlink:href="#m7bf5a3711e" x="171.498469" y="356.859954" style="stroke: #000000"/>
    </g>
   </g>
   <g id="PathCollection_25">
    <defs>
     <path id="m1d2c81d680" d="M 0 2.032194 
C 0.538944 2.032194 1.055887 1.818069 1.436978 1.436978 
C 1.818069 1.055887 2.032194 0.538944 2.032194 0 
C 2.032194 -0.538944 1.818069 -1.055887 1.436978 -1.436978 
C 1.055887 -1.818069 0.538944 -2.032194 0 -2.032194 
C -0.538944 -2.032194 -1.055887 -1.818069 -1.436978 -1.436978 
C -1.818069 -1.055887 -2.032194 -0.538944 -2.032194 0 
C -2.032194 0.538944 -1.818069 1.055887 -1.436978 1.436978 
C -1.055887 1.818069 -0.538944 2.032194 0 2.032194 
z
" style="stroke: #000000"/>
    </defs>
    <g clip-path="url(#p147d665ba3)">
     <use xlink:href="#m1d2c81d680" x="191.752229" y="356.859954" style="stroke: #000000"/>
    </g>
   </g>
   <g id="PathCollection_26">
    <defs>
     <path id="m01b6066d05" d="M 0 2.008733 
C 0.532722 2.008733 1.043697 1.79708 1.420389 1.420389 
C 1.79708 1.043697 2.008733 0.532722 2.008733 0 
C 2.008733 -0.532722 1.79708 -1.043697 1.420389 -1.420389 
C 1.043697 -1.79708 0.532722 -2.008733 0 -2.008733 
C -0.532722 -2.008733 -1.043697 -1.79708 -1.420389 -1.420389 
C -1.79708 -1.043697 -2.008733 -0.532722 -2.008733 0 
C -2.008733 0.532722 -1.79708 1.043697 -1.420389 1.420389 
C -1.043697 1.79708 -0.532722 2.008733 0 2.008733 
z
" style="stroke: #000000"/>
    </defs>
    <g clip-path="url(#p147d665ba3)">
     <use xlink:href="#m01b6066d05" x="212.005989" y="356.859954" style="stroke: #000000"/>
    </g>
   </g>
   <g id="PathCollection_27">
    <defs>
     <path id="m4440dd08cc" d="M 0 2.002198 
C 0.530989 2.002198 1.040302 1.791234 1.415768 1.415768 
C 1.791234 1.040302 2.002198 0.530989 2.002198 0 
C 2.002198 -0.530989 1.791234 -1.040302 1.415768 -1.415768 
C 1.040302 -1.791234 0.530989 -2.002198 0 -2.002198 
C -0.530989 -2.002198 -1.040302 -1.791234 -1.415768 -1.415768 
C -1.791234 -1.040302 -2.002198 -0.530989 -2.002198 0 
C -2.002198 0.530989 -1.791234 1.040302 -1.415768 1.415768 
C -1.040302 1.791234 -0.530989 2.002198 0 2.002198 
z
" style="stroke: #000000"/>
    </defs>
    <g clip-path="url(#p147d665ba3)">
     <use xlink:href="#m4440dd08cc" x="232.259749" y="356.859954" style="stroke: #000000"/>
    </g>
   </g>
   <g id="PathCollection_28">
    <defs>
     <path id="m82b99bbd2d" d="M 0 1.994785 
C 0.529023 1.994785 1.03645 1.784601 1.410526 1.410526 
C 1.784601 1.03645 1.994785 0.529023 1.994785 0 
C 1.994785 -0.529023 1.784601 -1.03645 1.410526 -1.410526 
C 1.03645 -1.784601 0.529023 -1.994785 0 -1.994785 
C -0.529023 -1.994785 -1.03645 -1.784601 -1.410526 -1.410526 
C -1.784601 -1.03645 -1.994785 -0.529023 -1.994785 0 
C -1.994785 0.529023 -1.784601 1.03645 -1.410526 1.410526 
C -1.03645 1.784601 -0.529023 1.994785 0 1.994785 
z
" style="stroke: #000000"/>
    </defs>
    <g clip-path="url(#p147d665ba3)">
     <use xlink:href="#m82b99bbd2d" x="252.513508" y="356.859954" style="stroke: #000000"/>
    </g>
   </g>
   <g id="PathCollection_29">
    <defs>
     <path id="m3b4cb43d62" d="M 0 1.967174 
C 0.521701 1.967174 1.022104 1.7599 1.391002 1.391002 
C 1.7599 1.022104 1.967174 0.521701 1.967174 0 
C 1.967174 -0.521701 1.7599 -1.022104 1.391002 -1.391002 
C 1.022104 -1.7599 0.521701 -1.967174 0 -1.967174 
C -0.521701 -1.967174 -1.022104 -1.7599 -1.391002 -1.391002 
C -1.7599 -1.022104 -1.967174 -0.521701 -1.967174 0 
C -1.967174 0.521701 -1.7599 1.022104 -1.391002 1.391002 
C -1.022104 1.7599 -0.521701 1.967174 0 1.967174 
z
" style="stroke: #000000"/>
    </defs>
    <g clip-path="url(#p147d665ba3)">
     <use xlink:href="#m3b4cb43d62" x="272.767268" y="356.859954" style="stroke: #000000"/>
    </g>
   </g>
   <g id="PathCollection_30">
    <defs>
     <path id="m58f9dc6dc6" d="M 0 1.92914 
C 0.511614 1.92914 1.002342 1.725873 1.364108 1.364108 
C 1.725873 1.002342 1.92914 0.511614 1.92914 0 
C 1.92914 -0.511614 1.725873 -1.002342 1.364108 -1.364108 
C 1.002342 -1.725873 0.511614 -1.92914 0 -1.92914 
C -0.511614 -1.92914 -1.002342 -1.725873 -1.364108 -1.364108 
C -1.725873 -1.002342 -1.92914 -0.511614 -1.92914 0 
C -1.92914 0.511614 -1.725873 1.002342 -1.364108 1.364108 
C -1.002342 1.725873 -0.511614 1.92914 0 1.92914 
z
" style="stroke: #000000"/>
    </defs>
    <g clip-path="url(#p147d665ba3)">
     <use xlink:href="#m58f9dc6dc6" x="293.021028" y="356.859954" style="stroke: #000000"/>
    </g>
   </g>
   <g id="PathCollection_31">
    <defs>
     <path id="m6aa54b0099" d="M 0 1.758328 
C 0.466314 1.758328 0.913592 1.573059 1.243325 1.243325 
C 1.573059 0.913592 1.758328 0.466314 1.758328 0 
C 1.758328 -0.466314 1.573059 -0.913592 1.243325 -1.243325 
C 0.913592 -1.573059 0.466314 -1.758328 0 -1.758328 
C -0.466314 -1.758328 -0.913592 -1.573059 -1.243325 -1.243325 
C -1.573059 -0.913592 -1.758328 -0.466314 -1.758328 0 
C -1.758328 0.466314 -1.573059 0.913592 -1.243325 1.243325 
C -0.913592 1.573059 -0.466314 1.758328 0 1.758328 
z
" style="stroke: #000000"/>
    </defs>
    <g clip-path="url(#p147d665ba3)">
     <use xlink:href="#m6aa54b0099" x="313.274788" y="356.859954" style="stroke: #000000"/>
    </g>
   </g>
   <g id="PathCollection_32">
    <defs>
     <path id="m09b879be01" d="M 0 1.684744 
C 0.446799 1.684744 0.875359 1.507229 1.191294 1.191294 
C 1.507229 0.875359 1.684744 0.446799 1.684744 0 
C 1.684744 -0.446799 1.507229 -0.875359 1.191294 -1.191294 
C 0.875359 -1.507229 0.446799 -1.684744 0 -1.684744 
C -0.446799 -1.684744 -0.875359 -1.507229 -1.191294 -1.191294 
C -1.507229 -0.875359 -1.684744 -0.446799 -1.684744 0 
C -1.684744 0.446799 -1.507229 0.875359 -1.191294 1.191294 
C -0.875359 1.507229 -0.446799 1.684744 0 1.684744 
z
" style="stroke: #000000"/>
    </defs>
    <g clip-path="url(#p147d665ba3)">
     <use xlink:href="#m09b879be01" x="333.528547" y="356.859954" style="stroke: #000000"/>
    </g>
   </g>
   <g id="PathCollection_33">
    <defs>
     <path id="m428e113683" d="M 0 1.655766 
C 0.439114 1.655766 0.860303 1.481304 1.170804 1.170804 
C 1.481304 0.860303 1.655766 0.439114 1.655766 0 
C 1.655766 -0.439114 1.481304 -0.860303 1.170804 -1.170804 
C 0.860303 -1.481304 0.439114 -1.655766 0 -1.655766 
C -0.439114 -1.655766 -0.860303 -1.481304 -1.170804 -1.170804 
C -1.481304 -0.860303 -1.655766 -0.439114 -1.655766 0 
C -1.655766 0.439114 -1.481304 0.860303 -1.170804 1.170804 
C -0.860303 1.481304 -0.439114 1.655766 0 1.655766 
z
" style="stroke: #000000"/>
    </defs>
    <g clip-path="url(#p147d665ba3)">
     <use xlink:href="#m428e113683" x="353.782307" y="356.859954" style="stroke: #000000"/>
    </g>
   </g>
   <g id="PathCollection_34">
    <defs>
     <path id="m316fabe141" d="M 0 1.646777 
C 0.43673 1.646777 0.855632 1.473262 1.164447 1.164447 
C 1.473262 0.855632 1.646777 0.43673 1.646777 0 
C 1.646777 -0.43673 1.473262 -0.855632 1.164447 -1.164447 
C 0.855632 -1.473262 0.43673 -1.646777 0 -1.646777 
C -0.43673 -1.646777 -0.855632 -1.473262 -1.164447 -1.164447 
C -1.473262 -0.855632 -1.646777 -0.43673 -1.646777 0 
C -1.646777 0.43673 -1.473262 0.855632 -1.164447 1.164447 
C -0.855632 1.473262 -0.43673 1.646777 0 1.646777 
z
" style="stroke: #000000"/>
    </defs>
    <g clip-path="url(#p147d665ba3)">
     <use xlink:href="#m316fabe141" x="374.036067" y="356.859954" style="stroke: #000000"/>
    </g>
   </g>
   <g id="PathCollection_35">
    <defs>
     <path id="m28e42ff1b9" d="M 0 1.638097 
C 0.434429 1.638097 0.851122 1.465497 1.15831 1.15831 
C 1.465497 0.851122 1.638097 0.434429 1.638097 0 
C 1.638097 -0.434429 1.465497 -0.851122 1.15831 -1.15831 
C 0.851122 -1.465497 0.434429 -1.638097 0 -1.638097 
C -0.434429 -1.638097 -0.851122 -1.465497 -1.15831 -1.15831 
C -1.465497 -0.851122 -1.638097 -0.434429 -1.638097 0 
C -1.638097 0.434429 -1.465497 0.851122 -1.15831 1.15831 
C -0.851122 1.465497 -0.434429 1.638097 0 1.638097 
z
" style="stroke: #000000"/>
    </defs>
    <g clip-path="url(#p147d665ba3)">
     <use xlink:href="#m28e42ff1b9" x="394.289827" y="356.859954" style="stroke: #000000"/>
    </g>
   </g>
   <g id="PathCollection_36">
    <defs>
     <path id="m2cf04672ed" d="M 0 1.629009 
C 0.432018 1.629009 0.8464 1.457366 1.151883 1.151883 
C 1.457366 0.8464 1.629009 0.432018 1.629009 0 
C 1.629009 -0.432018 1.457366 -0.8464 1.151883 -1.151883 
C 0.8464 -1.457366 0.432018 -1.629009 0 -1.629009 
C -0.432018 -1.629009 -0.8464 -1.457366 -1.151883 -1.151883 
C -1.457366 -0.8464 -1.629009 -0.432018 -1.629009 0 
C -1.629009 0.432018 -1.457366 0.8464 -1.151883 1.151883 
C -0.8464 1.457366 -0.432018 1.629009 0 1.629009 
z
" style="stroke: #000000"/>
    </defs>
    <g clip-path="url(#p147d665ba3)">
     <use xlink:href="#m2cf04672ed" x="414.543586" y="356.859954" style="stroke: #000000"/>
    </g>
   </g>
   <g id="PathCollection_37">
    <defs>
     <path id="m82a69f6c8d" d="M 0 1.3099 
C 0.34739 1.3099 0.680598 1.171881 0.926239 0.926239 
C 1.171881 0.680598 1.3099 0.34739 1.3099 0 
C 1.3099 -0.34739 1.171881 -0.680598 0.926239 -0.926239 
C 0.680598 -1.171881 0.34739 -1.3099 0 -1.3099 
C -0.34739 -1.3099 -0.680598 -1.171881 -0.926239 -0.926239 
C -1.171881 -0.680598 -1.3099 -0.34739 -1.3099 0 
C -1.3099 0.34739 -1.171881 0.680598 -0.926239 0.926239 
C -0.680598 1.171881 -0.34739 1.3099 0 1.3099 
z
" style="stroke: #000000"/>
    </defs>
    <g clip-path="url(#p147d665ba3)">
     <use xlink:href="#m82a69f6c8d" x="434.797346" y="356.859954" style="stroke: #000000"/>
    </g>
   </g>
   <g id="PathCollection_38">
    <defs>
     <path id="m6b708b1387" d="M 0 1.298479 
C 0.344361 1.298479 0.674663 1.161663 0.918163 0.918163 
C 1.161663 0.674663 1.298479 0.344361 1.298479 0 
C 1.298479 -0.344361 1.161663 -0.674663 0.918163 -0.918163 
C 0.674663 -1.161663 0.344361 -1.298479 0 -1.298479 
C -0.344361 -1.298479 -0.674663 -1.161663 -0.918163 -0.918163 
C -1.161663 -0.674663 -1.298479 -0.344361 -1.298479 0 
C -1.298479 0.344361 -1.161663 0.674663 -0.918163 0.918163 
C -0.674663 1.161663 -0.344361 1.298479 0 1.298479 
z
" style="stroke: #000000"/>
    </defs>
    <g clip-path="url(#p147d665ba3)">
     <use xlink:href="#m6b708b1387" x="455.051106" y="356.859954" style="stroke: #000000"/>
    </g>
   </g>
   <g id="PathCollection_39">
    <defs>
     <path id="m5b48fd3f94" d="M 0 1.261312 
C 0.334504 1.261312 0.655353 1.128413 0.891883 0.891883 
C 1.128413 0.655353 1.261312 0.334504 1.261312 0 
C 1.261312 -0.334504 1.128413 -0.655353 0.891883 -0.891883 
C 0.655353 -1.128413 0.334504 -1.261312 0 -1.261312 
C -0.334504 -1.261312 -0.655353 -1.128413 -0.891883 -0.891883 
C -1.128413 -0.655353 -1.261312 -0.334504 -1.261312 0 
C -1.261312 0.334504 -1.128413 0.655353 -0.891883 0.891883 
C -0.655353 1.128413 -0.334504 1.261312 0 1.261312 
z
" style="stroke: #000000"/>
    </defs>
    <g clip-path="url(#p147d665ba3)">
     <use xlink:href="#m5b48fd3f94" x="475.304866" y="356.859954" style="stroke: #000000"/>
    </g>
   </g>
   <g id="PathCollection_40">
    <defs>
     <path id="m919019cc33" d="M 0 1.221769 
C 0.324017 1.221769 0.634806 1.093035 0.863921 0.863921 
C 1.093035 0.634806 1.221769 0.324017 1.221769 0 
C 1.221769 -0.324017 1.093035 -0.634806 0.863921 -0.863921 
C 0.634806 -1.093035 0.324017 -1.221769 0 -1.221769 
C -0.324017 -1.221769 -0.634806 -1.093035 -0.863921 -0.863921 
C -1.093035 -0.634806 -1.221769 -0.324017 -1.221769 0 
C -1.221769 0.324017 -1.093035 0.634806 -0.863921 0.863921 
C -0.634806 1.093035 -0.324017 1.221769 0 1.221769 
z
" style="stroke: #000000"/>
    </defs>
    <g clip-path="url(#p147d665ba3)">
     <use xlink:href="#m919019cc33" x="495.558625" y="356.859954" style="stroke: #000000"/>
    </g>
   </g>
   <g id="PathCollection_41">
    <g clip-path="url(#p147d665ba3)">
     <use xlink:href="#m919019cc33" x="110.73719" y="369.36" style="stroke: #000000"/>
    </g>
   </g>
   <g id="PathCollection_42">
    <defs>
     <path id="ma52cef394c" d="M 0 1.17105 
C 0.310566 1.17105 0.608454 1.047661 0.828058 0.828058 
C 1.047661 0.608454 1.17105 0.310566 1.17105 0 
C 1.17105 -0.310566 1.047661 -0.608454 0.828058 -0.828058 
C 0.608454 -1.047661 0.310566 -1.17105 0 -1.17105 
C -0.310566 -1.17105 -0.608454 -1.047661 -0.828058 -0.828058 
C -1.047661 -0.608454 -1.17105 -0.310566 -1.17105 0 
C -1.17105 0.310566 -1.047661 0.608454 -0.828058 0.828058 
C -0.608454 1.047661 -0.310566 1.17105 0 1.17105 
z
" style="stroke: #000000"/>
    </defs>
    <g clip-path="url(#p147d665ba3)">
     <use xlink:href="#ma52cef394c" x="130.99095" y="369.36" style="stroke: #000000"/>
    </g>
   </g>
   <g id="PathCollection_43">
    <defs>
     <path id="med742e45f5" d="M 0 1.167601 
C 0.309652 1.167601 0.606662 1.044576 0.825619 0.825619 
C 1.044576 0.606662 1.167601 0.309652 1.167601 0 
C 1.167601 -0.309652 1.044576 -0.606662 0.825619 -0.825619 
C 0.606662 -1.044576 0.309652 -1.167601 0 -1.167601 
C -0.309652 -1.167601 -0.606662 -1.044576 -0.825619 -0.825619 
C -1.044576 -0.606662 -1.167601 -0.309652 -1.167601 0 
C -1.167601 0.309652 -1.044576 0.606662 -0.825619 0.825619 
C -0.606662 1.044576 -0.309652 1.167601 0 1.167601 
z
" style="stroke: #000000"/>
    </defs>
    <g clip-path="url(#p147d665ba3)">
     <use xlink:href="#med742e45f5" x="151.24471" y="369.36" style="stroke: #000000"/>
    </g>
   </g>
   <g id="PathCollection_44">
    <defs>
     <path id="mc44758032b" d="M 0 1.163317 
C 0.308515 1.163317 0.604436 1.040742 0.822589 0.822589 
C 1.040742 0.604436 1.163317 0.308515 1.163317 0 
C 1.163317 -0.308515 1.040742 -0.604436 0.822589 -0.822589 
C 0.604436 -1.040742 0.308515 -1.163317 0 -1.163317 
C -0.308515 -1.163317 -0.604436 -1.040742 -0.822589 -0.822589 
C -1.040742 -0.604436 -1.163317 -0.308515 -1.163317 0 
C -1.163317 0.308515 -1.040742 0.604436 -0.822589 0.822589 
C -0.604436 1.040742 -0.308515 1.163317 0 1.163317 
z
" style="stroke: #000000"/>
    </defs>
    <g clip-path="url(#p147d665ba3)">
     <use xlink:href="#mc44758032b" x="171.498469" y="369.36" style="stroke: #000000"/>
    </g>
   </g>
   <g id="PathCollection_45">
    <path d="M 415.194363 215.502288 
C 416.740739 215.502288 418.223988 214.887906 419.317442 213.794453 
C 420.410895 212.700999 421.025277 211.21775 421.025277 209.671374 
C 421.025277 208.124997 420.410895 206.641748 419.317442 205.548295 
C 418.223988 204.454841 416.740739 203.84046 415.194363 203.84046 
C 413.647986 203.84046 412.164737 204.454841 411.071284 205.548295 
C 409.97783 206.641748 409.363448 208.124997 409.363448 209.671374 
C 409.363448 211.21775 409.97783 212.700999 411.071284 213.794453 
C 412.164737 214.887906 413.647986 215.502288 415.194363 215.502288 
z
" clip-path="url(#p147d665ba3)" style="fill: #6e6e6e; stroke: #6e6e6e"/>
    <path d="M 402.4842 158.704022 
C 403.892184 158.704022 405.24269 158.144624 406.238285 157.149029 
C 407.23388 156.153434 407.793278 154.802928 407.793278 153.394944 
C 407.793278 151.98696 407.23388 150.636454 406.238285 149.640859 
C 405.24269 148.645264 403.892184 148.085866 402.4842 148.085866 
C 401.076216 148.085866 399.72571 148.645264 398.730115 149.640859 
C 397.73452 150.636454 397.175122 151.98696 397.175122 153.394944 
C 397.175122 154.802928 397.73452 156.153434 398.730115 157.149029 
C 399.72571 158.144624 401.076216 158.704022 402.4842 158.704022 
z
" clip-path="url(#p147d665ba3)" style="fill: #6e6e6e; stroke: #6e6e6e"/>
    <path d="M 390.420675 188.665155 
C 392.097187 188.665155 393.705259 187.99907 394.890731 186.813597 
C 396.076204 185.628124 396.742289 184.020052 396.742289 182.34354 
C 396.742289 180.667029 396.076204 179.058957 394.890731 177.873484 
C 393.705259 176.688011 392.097187 176.021926 390.420675 176.021926 
C 388.744163 176.021926 387.136091 176.688011 385.950619 177.873484 
C 384.765146 179.058957 384.099061 180.667029 384.099061 182.34354 
C 384.099061 184.020052 384.765146 185.628124 385.950619 186.813597 
C 387.136091 187.99907 388.744163 188.665155 390.420675 188.665155 
z
" clip-path="url(#p147d665ba3)" style="fill: #6e6e6e; stroke: #6e6e6e"/>
    <path d="M 330.070097 233.898268 
C 331.806805 233.898268 333.472615 233.208267 334.700654 231.980229 
C 335.928692 230.752191 336.618693 229.08638 336.618693 227.349672 
C 336.618693 225.612964 335.928692 223.947153 334.700654 222.719115 
C 333.472615 221.491077 331.806805 220.801076 330.070097 220.801076 
C 328.333389 220.801076 326.667578 221.491077 325.43954 222.719115 
C 324.211502 223.947153 323.5215 225.612964 323.5215 227.349672 
C 323.5215 229.08638 324.211502 230.752191 325.43954 231.980229 
C 326.667578 233.208267 328.333389 233.898268 330.070097 233.898268 
z
" clip-path="url(#p147d665ba3)" style="fill: #6e6e6e; stroke: #6e6e6e"/>
    <path d="M 299.409667 179.591834 
C 301.144633 179.591834 302.808772 178.902525 304.035578 177.675719 
C 305.262384 176.448913 305.951694 174.784773 305.951694 173.049807 
C 305.951694 171.314841 305.262384 169.650702 304.035578 168.423896 
C 302.808772 167.19709 301.144633 166.50778 299.409667 166.50778 
C 297.674701 166.50778 296.010561 167.19709 294.783755 168.423896 
C 293.556949 169.650702 292.86764 171.314841 292.86764 173.049807 
C 292.86764 174.784773 293.556949 176.448913 294.783755 177.675719 
C 296.010561 178.902525 297.674701 179.591834 299.409667 179.591834 
z
" clip-path="url(#p147d665ba3)" style="fill: #6e6e6e; stroke: #6e6e6e"/>
    <path d="M 200.435775 188.234154 
C 202.087039 188.234154 203.670894 187.5781 204.838514 186.41048 
C 206.006133 185.24286 206.662188 183.659005 206.662188 182.007741 
C 206.662188 180.356477 206.006133 178.772623 204.838514 177.605003 
C 203.670894 176.437383 202.087039 175.781329 200.435775 175.781329 
C 198.784511 175.781329 197.200656 176.437383 196.033036 177.605003 
C 194.865417 178.772623 194.209362 180.356477 194.209362 182.007741 
C 194.209362 183.659005 194.865417 185.24286 196.033036 186.41048 
C 197.200656 187.5781 198.784511 188.234154 200.435775 188.234154 
z
" clip-path="url(#p147d665ba3)" style="fill: #009e73; stroke: #009e73"/>
    <path d="M 431.176382 125.552398 
C 432.128651 125.552398 433.042047 125.174057 433.715403 124.500701 
C 434.388759 123.827345 434.7671 122.91395 434.7671 121.96168 
C 434.7671 121.009411 434.388759 120.096016 433.715403 119.422659 
C 433.042047 118.749303 432.128651 118.370963 431.176382 118.370963 
C 430.224112 118.370963 429.310717 118.749303 428.637361 119.422659 
C 427.964005 120.096016 427.585664 121.009411 427.585664 121.96168 
C 427.585664 122.91395 427.964005 123.827345 428.637361 124.500701 
C 429.310717 125.174057 430.224112 125.552398 431.176382 125.552398 
z
" clip-path="url(#p147d665ba3)" style="fill: #009e73; stroke: #009e73"/>
    <path d="M 389.574604 122.093954 
C 390.859226 122.093954 392.091407 121.583569 392.999772 120.675204 
C 393.908137 119.766838 394.418523 118.534658 394.418523 117.250036 
C 394.418523 115.965414 393.908137 114.733233 392.999772 113.824868 
C 392.091407 112.916503 390.859226 112.406117 389.574604 112.406117 
C 388.289982 112.406117 387.057801 112.916503 386.149436 113.824868 
C 385.241071 114.733233 384.730685 115.965414 384.730685 117.250036 
C 384.730685 118.534658 385.241071 119.766838 386.149436 120.675204 
C 387.057801 121.583569 388.289982 122.093954 389.574604 122.093954 
z
" clip-path="url(#p147d665ba3)" style="fill: #6e6e6e; stroke: #6e6e6e"/>
    <path d="M 329.922414 151.126746 
C 331.673078 151.126746 333.352275 150.4312 334.590181 149.193293 
C 335.828088 147.955387 336.523634 146.27619 336.523634 144.525526 
C 336.523634 142.774862 335.828088 141.095665 334.590181 139.857758 
C 333.352275 138.619852 331.673078 137.924306 329.922414 137.924306 
C 328.17175 137.924306 326.492553 138.619852 325.254646 139.857758 
C 324.01674 141.095665 323.321193 142.774862 323.321193 144.525526 
C 323.321193 146.27619 324.01674 147.955387 325.254646 149.193293 
C 326.492553 150.4312 328.17175 151.126746 329.922414 151.126746 
z
" clip-path="url(#p147d665ba3)" style="fill: #6e6e6e; stroke: #6e6e6e"/>
    <path d="M 249.524106 122.57191 
C 250.271113 122.57191 250.987625 122.275121 251.515839 121.746907 
C 252.044053 121.218693 252.340842 120.502181 252.340842 119.755174 
C 252.340842 119.008167 252.044053 118.291654 251.515839 117.763441 
C 250.987625 117.235227 250.271113 116.938438 249.524106 116.938438 
C 248.777099 116.938438 248.060587 117.235227 247.532373 117.763441 
C 247.004159 118.291654 246.70737 119.008167 246.70737 119.755174 
C 246.70737 120.502181 247.004159 121.218693 247.532373 121.746907 
C 248.060587 122.275121 248.777099 122.57191 249.524106 122.57191 
z
" clip-path="url(#p147d665ba3)" style="fill: #009e73; stroke: #009e73"/>
    <path d="M 352.883309 124.166985 
C 353.569476 124.166985 354.227632 123.894368 354.712826 123.409174 
C 355.19802 122.92398 355.470637 122.265824 355.470637 121.579657 
C 355.470637 120.893489 355.19802 120.235333 354.712826 119.75014 
C 354.227632 119.264946 353.569476 118.992329 352.883309 118.992329 
C 352.197142 118.992329 351.538986 119.264946 351.053792 119.75014 
C 350.568598 120.235333 350.295981 120.893489 350.295981 121.579657 
C 350.295981 122.265824 350.568598 122.92398 351.053792 123.409174 
C 351.538986 123.894368 352.197142 124.166985 352.883309 124.166985 
z
" clip-path="url(#p147d665ba3)" style="fill: #009e73; stroke: #009e73"/>
    <path d="M 387.43232 233.00376 
C 388.881091 233.00376 390.27072 232.428157 391.295156 231.403721 
C 392.319592 230.379285 392.895195 228.989656 392.895195 227.540885 
C 392.895195 226.092113 392.319592 224.702485 391.295156 223.678049 
C 390.27072 222.653613 388.881091 222.07801 387.43232 222.07801 
C 385.983549 222.07801 384.59392 222.653613 383.569484 223.678049 
C 382.545048 224.702485 381.969445 226.092113 381.969445 227.540885 
C 381.969445 228.989656 382.545048 230.379285 383.569484 231.403721 
C 384.59392 232.428157 385.983549 233.00376 387.43232 233.00376 
z
" clip-path="url(#p147d665ba3)" style="fill: #6e6e6e; stroke: #6e6e6e"/>
    <path d="M 220.428126 150.825599 
C 221.550158 150.825599 222.626386 150.379811 223.419783 149.586414 
C 224.21318 148.793018 224.658968 147.71679 224.658968 146.594758 
C 224.658968 145.472725 224.21318 144.396498 223.419783 143.603101 
C 222.626386 142.809704 221.550158 142.363916 220.428126 142.363916 
C 219.306094 142.363916 218.229866 142.809704 217.436469 143.603101 
C 216.643073 144.396498 216.197285 145.472725 216.197285 146.594758 
C 216.197285 147.71679 216.643073 148.793018 217.436469 149.586414 
C 218.229866 150.379811 219.306094 150.825599 220.428126 150.825599 
z
" clip-path="url(#p147d665ba3)" style="fill: #009e73; stroke: #009e73"/>
    <path d="M 280.326806 212.739682 
C 281.6407 212.739682 282.900957 212.217666 283.83002 211.288603 
C 284.759083 210.35954 285.281099 209.099283 285.281099 207.785389 
C 285.281099 206.471495 284.759083 205.211238 283.83002 204.282174 
C 282.900957 203.353111 281.6407 202.831095 280.326806 202.831095 
C 279.012912 202.831095 277.752655 203.353111 276.823591 204.282174 
C 275.894528 205.211238 275.372512 206.471495 275.372512 207.785389 
C 275.372512 209.099283 275.894528 210.35954 276.823591 211.288603 
C 277.752655 212.217666 279.012912 212.739682 280.326806 212.739682 
z
" clip-path="url(#p147d665ba3)" style="fill: #6e6e6e; stroke: #6e6e6e"/>
    <path d="M 406.879979 296.283951 
C 408.319606 296.283951 409.700463 295.711981 410.718433 294.694011 
C 411.736403 293.676041 412.308373 292.295184 412.308373 290.855557 
C 412.308373 289.415931 411.736403 288.035073 410.718433 287.017104 
C 409.700463 285.999134 408.319606 285.427164 406.879979 285.427164 
C 405.440353 285.427164 404.059496 285.999134 403.041526 287.017104 
C 402.023556 288.035073 401.451586 289.415931 401.451586 290.855557 
C 401.451586 292.295184 402.023556 293.676041 403.041526 294.694011 
C 404.059496 295.711981 405.440353 296.283951 406.879979 296.283951 
z
" clip-path="url(#p147d665ba3)" style="fill: #009e73; stroke: #009e73"/>
    <path d="M 301.836978 270.717064 
C 303.207988 270.717064 304.52303 270.172356 305.492481 269.202905 
C 306.461932 268.233454 307.00664 266.918412 307.00664 265.547401 
C 307.00664 264.176391 306.461932 262.861349 305.492481 261.891898 
C 304.52303 260.922447 303.207988 260.377738 301.836978 260.377738 
C 300.465967 260.377738 299.150925 260.922447 298.181474 261.891898 
C 297.212023 262.861349 296.667315 264.176391 296.667315 265.547401 
C 296.667315 266.918412 297.212023 268.233454 298.181474 269.202905 
C 299.150925 270.172356 300.465967 270.717064 301.836978 270.717064 
z
" clip-path="url(#p147d665ba3)" style="fill: #6e6e6e; stroke: #6e6e6e"/>
    <path d="M 110.73719 177.882928 
C 111.898571 177.882928 113.012542 177.421506 113.833762 176.600286 
C 114.654983 175.779065 115.116405 174.665095 115.116405 173.503714 
C 115.116405 172.342332 114.654983 171.228362 113.833762 170.407141 
C 113.012542 169.585921 111.898571 169.124499 110.73719 169.124499 
C 109.575809 169.124499 108.461838 169.585921 107.640618 170.407141 
C 106.819397 171.228362 106.357976 172.342332 106.357976 173.503714 
C 106.357976 174.665095 106.819397 175.779065 107.640618 176.600286 
C 108.461838 177.421506 109.575809 177.882928 110.73719 177.882928 
z
" clip-path="url(#p147d665ba3)" style="fill: #009e73; stroke: #009e73"/>
    <path d="M 202.381708 250.420095 
C 203.40087 250.420095 204.378427 250.015178 205.099083 249.294521 
C 205.819739 248.573865 206.224656 247.596308 206.224656 246.577147 
C 206.224656 245.557985 205.819739 244.580428 205.099083 243.859772 
C 204.378427 243.139116 203.40087 242.734198 202.381708 242.734198 
C 201.362546 242.734198 200.38499 243.139116 199.664333 243.859772 
C 198.943677 244.580428 198.53876 245.557985 198.53876 246.577147 
C 198.53876 247.596308 198.943677 248.573865 199.664333 249.294521 
C 200.38499 250.015178 201.362546 250.420095 202.381708 250.420095 
z
" clip-path="url(#p147d665ba3)" style="fill: #009e73; stroke: #009e73"/>
    <path d="M 344.545678 189.104989 
C 345.648891 189.104989 346.707069 188.666678 347.487158 187.886588 
C 348.267248 187.106498 348.70556 186.048321 348.70556 184.945107 
C 348.70556 183.841893 348.267248 182.783716 347.487158 182.003626 
C 346.707069 181.223536 345.648891 180.785225 344.545678 180.785225 
C 343.442464 180.785225 342.384287 181.223536 341.604197 182.003626 
C 340.824107 182.783716 340.385795 183.841893 340.385795 184.945107 
C 340.385795 186.048321 340.824107 187.106498 341.604197 187.886588 
C 342.384287 188.666678 343.442464 189.104989 344.545678 189.104989 
z
" clip-path="url(#p147d665ba3)" style="fill: #6e6e6e; stroke: #6e6e6e"/>
    <path d="M 479.66281 128.998326 
C 481.011959 128.998326 482.306031 128.462303 483.260023 127.508311 
C 484.214016 126.554319 484.750038 125.260246 484.750038 123.911097 
C 484.750038 122.561949 484.214016 121.267876 483.260023 120.313884 
C 482.306031 119.359892 481.011959 118.823869 479.66281 118.823869 
C 478.313661 118.823869 477.019589 119.359892 476.065596 120.313884 
C 475.111604 121.267876 474.575582 122.561949 474.575582 123.911097 
C 474.575582 125.260246 475.111604 126.554319 476.065596 127.508311 
C 477.019589 128.462303 478.313661 128.998326 479.66281 128.998326 
z
" clip-path="url(#p147d665ba3)" style="fill: #6e6e6e; stroke: #6e6e6e"/>
    <path d="M 427.621362 188.468943 
C 429.196067 188.468943 430.706489 187.843306 431.819974 186.729821 
C 432.933459 185.616336 433.559096 184.105914 433.559096 182.531209 
C 433.559096 180.956503 432.933459 179.446082 431.819974 178.332597 
C 430.706489 177.219112 429.196067 176.593475 427.621362 176.593475 
C 426.046656 176.593475 424.536235 177.219112 423.42275 178.332597 
C 422.309265 179.446082 421.683628 180.956503 421.683628 182.531209 
C 421.683628 184.105914 422.309265 185.616336 423.42275 186.729821 
C 424.536235 187.843306 426.046656 188.468943 427.621362 188.468943 
z
" clip-path="url(#p147d665ba3)" style="fill: #6e6e6e; stroke: #6e6e6e"/>
    <path d="M 303.663482 82.556621 
C 304.97224 82.556621 306.227571 82.036646 307.153003 81.111214 
C 308.078435 80.185782 308.59841 78.930451 308.59841 77.621693 
C 308.59841 76.312935 308.078435 75.057604 307.153003 74.132172 
C 306.227571 73.20674 304.97224 72.686765 303.663482 72.686765 
C 302.354724 72.686765 301.099393 73.20674 300.173961 74.132172 
C 299.248529 75.057604 298.728554 76.312935 298.728554 77.621693 
C 298.728554 78.930451 299.248529 80.185782 300.173961 81.111214 
C 301.099393 82.036646 302.354724 82.556621 303.663482 82.556621 
z
" clip-path="url(#p147d665ba3)" style="fill: #6e6e6e; stroke: #6e6e6e"/>
   </g>
   <g id="text_1">
    <g clip-path="url(#p147d665ba3)">
     <!-- Alo gera -->
     <g transform="translate(402.697488 211.326999) scale(0.06 -0.06)">
      <defs>
       <path id="DejaVuSans-41" d="M 2188 4044 
L 1331 1722 
L 3047 1722 
L 2188 4044 
z
M 1831 4666 
L 2547 4666 
L 4325 0 
L 3669 0 
L 3244 1197 
L 1141 1197 
L 716 0 
L 50 0 
L 1831 4666 
z
" transform="scale(0.015625)"/>
       <path id="DejaVuSans-6c" d="M 603 4863 
L 1178 4863 
L 1178 0 
L 603 0 
L 603 4863 
z
" transform="scale(0.015625)"/>
       <path id="DejaVuSans-6f" d="M 1959 3097 
Q 1497 3097 1228 2736 
Q 959 2375 959 1747 
Q 959 1119 1226 758 
Q 1494 397 1959 397 
Q 2419 397 2687 759 
Q 2956 1122 2956 1747 
Q 2956 2369 2687 2733 
Q 2419 3097 1959 3097 
z
M 1959 3584 
Q 2709 3584 3137 3096 
Q 3566 2609 3566 1747 
Q 3566 888 3137 398 
Q 2709 -91 1959 -91 
Q 1206 -91 779 398 
Q 353 888 353 1747 
Q 353 2609 779 3096 
Q 1206 3584 1959 3584 
z
" transform="scale(0.015625)"/>
       <path id="DejaVuSans-20" transform="scale(0.015625)"/>
       <path id="DejaVuSans-67" d="M 2906 1791 
Q 2906 2416 2648 2759 
Q 2391 3103 1925 3103 
Q 1463 3103 1205 2759 
Q 947 2416 947 1791 
Q 947 1169 1205 825 
Q 1463 481 1925 481 
Q 2391 481 2648 825 
Q 2906 1169 2906 1791 
z
M 3481 434 
Q 3481 -459 3084 -895 
Q 2688 -1331 1869 -1331 
Q 1566 -1331 1297 -1286 
Q 1028 -1241 775 -1147 
L 775 -588 
Q 1028 -725 1275 -790 
Q 1522 -856 1778 -856 
Q 2344 -856 2625 -561 
Q 2906 -266 2906 331 
L 2906 616 
Q 2728 306 2450 153 
Q 2172 0 1784 0 
Q 1141 0 747 490 
Q 353 981 353 1791 
Q 353 2603 747 3093 
Q 1141 3584 1784 3584 
Q 2172 3584 2450 3431 
Q 2728 3278 2906 2969 
L 2906 3500 
L 3481 3500 
L 3481 434 
z
" transform="scale(0.015625)"/>
       <path id="DejaVuSans-65" d="M 3597 1894 
L 3597 1613 
L 953 1613 
Q 991 1019 1311 708 
Q 1631 397 2203 397 
Q 2534 397 2845 478 
Q 3156 559 3463 722 
L 3463 178 
Q 3153 47 2828 -22 
Q 2503 -91 2169 -91 
Q 1331 -91 842 396 
Q 353 884 353 1716 
Q 353 2575 817 3079 
Q 1281 3584 2069 3584 
Q 2775 3584 3186 3129 
Q 3597 2675 3597 1894 
z
M 3022 2063 
Q 3016 2534 2758 2815 
Q 2500 3097 2075 3097 
Q 1594 3097 1305 2825 
Q 1016 2553 972 2059 
L 3022 2063 
z
" transform="scale(0.015625)"/>
       <path id="DejaVuSans-72" d="M 2631 2963 
Q 2534 3019 2420 3045 
Q 2306 3072 2169 3072 
Q 1681 3072 1420 2755 
Q 1159 2438 1159 1844 
L 1159 0 
L 581 0 
L 581 3500 
L 1159 3500 
L 1159 2956 
Q 1341 3275 1631 3429 
Q 1922 3584 2338 3584 
Q 2397 3584 2469 3576 
Q 2541 3569 2628 3553 
L 2631 2963 
z
" transform="scale(0.015625)"/>
       <path id="DejaVuSans-61" d="M 2194 1759 
Q 1497 1759 1228 1600 
Q 959 1441 959 1056 
Q 959 750 1161 570 
Q 1363 391 1709 391 
Q 2188 391 2477 730 
Q 2766 1069 2766 1631 
L 2766 1759 
L 2194 1759 
z
M 3341 1997 
L 3341 0 
L 2766 0 
L 2766 531 
Q 2569 213 2275 61 
Q 1981 -91 1556 -91 
Q 1019 -91 701 211 
Q 384 513 384 1019 
Q 384 1609 779 1909 
Q 1175 2209 1959 2209 
L 2766 2209 
L 2766 2266 
Q 2766 2663 2505 2880 
Q 2244 3097 1772 3097 
Q 1472 3097 1187 3025 
Q 903 2953 641 2809 
L 641 3341 
Q 956 3463 1253 3523 
Q 1550 3584 1831 3584 
Q 2591 3584 2966 3190 
Q 3341 2797 3341 1997 
z
" transform="scale(0.015625)"/>
      </defs>
      <use xlink:href="#DejaVuSans-41"/>
      <use xlink:href="#DejaVuSans-6c" transform="translate(68.408203 0)"/>
      <use xlink:href="#DejaVuSans-6f" transform="translate(96.191406 0)"/>
      <use xlink:href="#DejaVuSans-20" transform="translate(157.373047 0)"/>
      <use xlink:href="#DejaVuSans-67" transform="translate(189.160156 0)"/>
      <use xlink:href="#DejaVuSans-65" transform="translate(252.636719 0)"/>
      <use xlink:href="#DejaVuSans-72" transform="translate(314.160156 0)"/>
      <use xlink:href="#DejaVuSans-61" transform="translate(355.273438 0)"/>
     </g>
    </g>
   </g>
   <g id="text_2">
    <g clip-path="url(#p147d665ba3)">
     <!-- Nar stri -->
     <g transform="translate(391.409044 155.050569) scale(0.06 -0.06)">
      <defs>
       <path id="DejaVuSans-4e" d="M 628 4666 
L 1478 4666 
L 3547 763 
L 3547 4666 
L 4159 4666 
L 4159 0 
L 3309 0 
L 1241 3903 
L 1241 0 
L 628 0 
L 628 4666 
z
" transform="scale(0.015625)"/>
       <path id="DejaVuSans-73" d="M 2834 3397 
L 2834 2853 
Q 2591 2978 2328 3040 
Q 2066 3103 1784 3103 
Q 1356 3103 1142 2972 
Q 928 2841 928 2578 
Q 928 2378 1081 2264 
Q 1234 2150 1697 2047 
L 1894 2003 
Q 2506 1872 2764 1633 
Q 3022 1394 3022 966 
Q 3022 478 2636 193 
Q 2250 -91 1575 -91 
Q 1294 -91 989 -36 
Q 684 19 347 128 
L 347 722 
Q 666 556 975 473 
Q 1284 391 1588 391 
Q 1994 391 2212 530 
Q 2431 669 2431 922 
Q 2431 1156 2273 1281 
Q 2116 1406 1581 1522 
L 1381 1569 
Q 847 1681 609 1914 
Q 372 2147 372 2553 
Q 372 3047 722 3315 
Q 1072 3584 1716 3584 
Q 2034 3584 2315 3537 
Q 2597 3491 2834 3397 
z
" transform="scale(0.015625)"/>
       <path id="DejaVuSans-74" d="M 1172 4494 
L 1172 3500 
L 2356 3500 
L 2356 3053 
L 1172 3053 
L 1172 1153 
Q 1172 725 1289 603 
Q 1406 481 1766 481 
L 2356 481 
L 2356 0 
L 1766 0 
Q 1100 0 847 248 
Q 594 497 594 1153 
L 594 3053 
L 172 3053 
L 172 3500 
L 594 3500 
L 594 4494 
L 1172 4494 
z
" transform="scale(0.015625)"/>
       <path id="DejaVuSans-69" d="M 603 3500 
L 1178 3500 
L 1178 0 
L 603 0 
L 603 3500 
z
M 603 4863 
L 1178 4863 
L 1178 4134 
L 603 4134 
L 603 4863 
z
" transform="scale(0.015625)"/>
      </defs>
      <use xlink:href="#DejaVuSans-4e"/>
      <use xlink:href="#DejaVuSans-61" transform="translate(74.804688 0)"/>
      <use xlink:href="#DejaVuSans-72" transform="translate(136.083984 0)"/>
      <use xlink:href="#DejaVuSans-20" transform="translate(177.197266 0)"/>
      <use xlink:href="#DejaVuSans-73" transform="translate(208.984375 0)"/>
      <use xlink:href="#DejaVuSans-74" transform="translate(261.083984 0)"/>
      <use xlink:href="#DejaVuSans-72" transform="translate(300.292969 0)"/>
      <use xlink:href="#DejaVuSans-69" transform="translate(341.40625 0)"/>
     </g>
    </g>
   </g>
   <g id="text_3">
    <g clip-path="url(#p147d665ba3)">
     <!-- Car semp -->
     <g transform="translate(376.065206 183.999165) scale(0.06 -0.06)">
      <defs>
       <path id="DejaVuSans-43" d="M 4122 4306 
L 4122 3641 
Q 3803 3938 3442 4084 
Q 3081 4231 2675 4231 
Q 1875 4231 1450 3742 
Q 1025 3253 1025 2328 
Q 1025 1406 1450 917 
Q 1875 428 2675 428 
Q 3081 428 3442 575 
Q 3803 722 4122 1019 
L 4122 359 
Q 3791 134 3420 21 
Q 3050 -91 2638 -91 
Q 1578 -91 968 557 
Q 359 1206 359 2328 
Q 359 3453 968 4101 
Q 1578 4750 2638 4750 
Q 3056 4750 3426 4639 
Q 3797 4528 4122 4306 
z
" transform="scale(0.015625)"/>
       <path id="DejaVuSans-6d" d="M 3328 2828 
Q 3544 3216 3844 3400 
Q 4144 3584 4550 3584 
Q 5097 3584 5394 3201 
Q 5691 2819 5691 2113 
L 5691 0 
L 5113 0 
L 5113 2094 
Q 5113 2597 4934 2840 
Q 4756 3084 4391 3084 
Q 3944 3084 3684 2787 
Q 3425 2491 3425 1978 
L 3425 0 
L 2847 0 
L 2847 2094 
Q 2847 2600 2669 2842 
Q 2491 3084 2119 3084 
Q 1678 3084 1418 2786 
Q 1159 2488 1159 1978 
L 1159 0 
L 581 0 
L 581 3500 
L 1159 3500 
L 1159 2956 
Q 1356 3278 1631 3431 
Q 1906 3584 2284 3584 
Q 2666 3584 2933 3390 
Q 3200 3197 3328 2828 
z
" transform="scale(0.015625)"/>
       <path id="DejaVuSans-70" d="M 1159 525 
L 1159 -1331 
L 581 -1331 
L 581 3500 
L 1159 3500 
L 1159 2969 
Q 1341 3281 1617 3432 
Q 1894 3584 2278 3584 
Q 2916 3584 3314 3078 
Q 3713 2572 3713 1747 
Q 3713 922 3314 415 
Q 2916 -91 2278 -91 
Q 1894 -91 1617 61 
Q 1341 213 1159 525 
z
M 3116 1747 
Q 3116 2381 2855 2742 
Q 2594 3103 2138 3103 
Q 1681 3103 1420 2742 
Q 1159 2381 1159 1747 
Q 1159 1113 1420 752 
Q 1681 391 2138 391 
Q 2594 391 2855 752 
Q 3116 1113 3116 1747 
z
" transform="scale(0.015625)"/>
      </defs>
      <use xlink:href="#DejaVuSans-43"/>
      <use xlink:href="#DejaVuSans-61" transform="translate(69.824219 0)"/>
      <use xlink:href="#DejaVuSans-72" transform="translate(131.103516 0)"/>
      <use xlink:href="#DejaVuSans-20" transform="translate(172.216797 0)"/>
      <use xlink:href="#DejaVuSans-73" transform="translate(204.003906 0)"/>
      <use xlink:href="#DejaVuSans-65" transform="translate(256.103516 0)"/>
      <use xlink:href="#DejaVuSans-6d" transform="translate(317.626953 0)"/>
      <use xlink:href="#DejaVuSans-70" transform="translate(415.039062 0)"/>
     </g>
    </g>
   </g>
   <g id="text_4">
    <g clip-path="url(#p147d665ba3)">
     <!-- Poa alpi -->
     <g transform="translate(318.332597 229.005297) scale(0.06 -0.06)">
      <defs>
       <path id="DejaVuSans-50" d="M 1259 4147 
L 1259 2394 
L 2053 2394 
Q 2494 2394 2734 2622 
Q 2975 2850 2975 3272 
Q 2975 3691 2734 3919 
Q 2494 4147 2053 4147 
L 1259 4147 
z
M 628 4666 
L 2053 4666 
Q 2838 4666 3239 4311 
Q 3641 3956 3641 3272 
Q 3641 2581 3239 2228 
Q 2838 1875 2053 1875 
L 1259 1875 
L 1259 0 
L 628 0 
L 628 4666 
z
" transform="scale(0.015625)"/>
      </defs>
      <use xlink:href="#DejaVuSans-50"/>
      <use xlink:href="#DejaVuSans-6f" transform="translate(56.677734 0)"/>
      <use xlink:href="#DejaVuSans-61" transform="translate(117.859375 0)"/>
      <use xlink:href="#DejaVuSans-20" transform="translate(179.138672 0)"/>
      <use xlink:href="#DejaVuSans-61" transform="translate(210.925781 0)"/>
      <use xlink:href="#DejaVuSans-6c" transform="translate(272.205078 0)"/>
      <use xlink:href="#DejaVuSans-70" transform="translate(299.988281 0)"/>
      <use xlink:href="#DejaVuSans-69" transform="translate(363.464844 0)"/>
     </g>
    </g>
   </g>
   <g id="text_5">
    <g clip-path="url(#p147d665ba3)">
     <!-- Tri alpi -->
     <g transform="translate(289.589823 174.705432) scale(0.06 -0.06)">
      <defs>
       <path id="DejaVuSans-54" d="M -19 4666 
L 3928 4666 
L 3928 4134 
L 2272 4134 
L 2272 0 
L 1638 0 
L 1638 4134 
L -19 4134 
L -19 4666 
z
" transform="scale(0.015625)"/>
      </defs>
      <use xlink:href="#DejaVuSans-54"/>
      <use xlink:href="#DejaVuSans-72" transform="translate(46.333984 0)"/>
      <use xlink:href="#DejaVuSans-69" transform="translate(87.447266 0)"/>
      <use xlink:href="#DejaVuSans-20" transform="translate(115.230469 0)"/>
      <use xlink:href="#DejaVuSans-61" transform="translate(147.017578 0)"/>
      <use xlink:href="#DejaVuSans-6c" transform="translate(208.296875 0)"/>
      <use xlink:href="#DejaVuSans-70" transform="translate(236.080078 0)"/>
      <use xlink:href="#DejaVuSans-69" transform="translate(299.556641 0)"/>
     </g>
    </g>
   </g>
   <g id="text_6">
    <g clip-path="url(#p147d665ba3)">
     <!-- Sco pyre -->
     <g transform="translate(187.400775 183.663366) scale(0.06 -0.06)">
      <defs>
       <path id="DejaVuSans-53" d="M 3425 4513 
L 3425 3897 
Q 3066 4069 2747 4153 
Q 2428 4238 2131 4238 
Q 1616 4238 1336 4038 
Q 1056 3838 1056 3469 
Q 1056 3159 1242 3001 
Q 1428 2844 1947 2747 
L 2328 2669 
Q 3034 2534 3370 2195 
Q 3706 1856 3706 1288 
Q 3706 609 3251 259 
Q 2797 -91 1919 -91 
Q 1588 -91 1214 -16 
Q 841 59 441 206 
L 441 856 
Q 825 641 1194 531 
Q 1563 422 1919 422 
Q 2459 422 2753 634 
Q 3047 847 3047 1241 
Q 3047 1584 2836 1778 
Q 2625 1972 2144 2069 
L 1759 2144 
Q 1053 2284 737 2584 
Q 422 2884 422 3419 
Q 422 4038 858 4394 
Q 1294 4750 2059 4750 
Q 2388 4750 2728 4690 
Q 3069 4631 3425 4513 
z
" transform="scale(0.015625)"/>
       <path id="DejaVuSans-63" d="M 3122 3366 
L 3122 2828 
Q 2878 2963 2633 3030 
Q 2388 3097 2138 3097 
Q 1578 3097 1268 2742 
Q 959 2388 959 1747 
Q 959 1106 1268 751 
Q 1578 397 2138 397 
Q 2388 397 2633 464 
Q 2878 531 3122 666 
L 3122 134 
Q 2881 22 2623 -34 
Q 2366 -91 2075 -91 
Q 1284 -91 818 406 
Q 353 903 353 1747 
Q 353 2603 823 3093 
Q 1294 3584 2113 3584 
Q 2378 3584 2631 3529 
Q 2884 3475 3122 3366 
z
" transform="scale(0.015625)"/>
       <path id="DejaVuSans-79" d="M 2059 -325 
Q 1816 -950 1584 -1140 
Q 1353 -1331 966 -1331 
L 506 -1331 
L 506 -850 
L 844 -850 
Q 1081 -850 1212 -737 
Q 1344 -625 1503 -206 
L 1606 56 
L 191 3500 
L 800 3500 
L 1894 763 
L 2988 3500 
L 3597 3500 
L 2059 -325 
z
" transform="scale(0.015625)"/>
      </defs>
      <use xlink:href="#DejaVuSans-53"/>
      <use xlink:href="#DejaVuSans-63" transform="translate(63.476562 0)"/>
      <use xlink:href="#DejaVuSans-6f" transform="translate(118.457031 0)"/>
      <use xlink:href="#DejaVuSans-20" transform="translate(179.638672 0)"/>
      <use xlink:href="#DejaVuSans-70" transform="translate(211.425781 0)"/>
      <use xlink:href="#DejaVuSans-79" transform="translate(274.902344 0)"/>
      <use xlink:href="#DejaVuSans-72" transform="translate(334.082031 0)"/>
      <use xlink:href="#DejaVuSans-65" transform="translate(372.945312 0)"/>
     </g>
    </g>
   </g>
   <g id="text_7">
    <g clip-path="url(#p147d665ba3)">
     <!-- Fes viol -->
     <g transform="translate(419.975601 123.617305) scale(0.06 -0.06)">
      <defs>
       <path id="DejaVuSans-46" d="M 628 4666 
L 3309 4666 
L 3309 4134 
L 1259 4134 
L 1259 2759 
L 3109 2759 
L 3109 2228 
L 1259 2228 
L 1259 0 
L 628 0 
L 628 4666 
z
" transform="scale(0.015625)"/>
       <path id="DejaVuSans-76" d="M 191 3500 
L 800 3500 
L 1894 563 
L 2988 3500 
L 3597 3500 
L 2284 0 
L 1503 0 
L 191 3500 
z
" transform="scale(0.015625)"/>
      </defs>
      <use xlink:href="#DejaVuSans-46"/>
      <use xlink:href="#DejaVuSans-65" transform="translate(52.019531 0)"/>
      <use xlink:href="#DejaVuSans-73" transform="translate(113.542969 0)"/>
      <use xlink:href="#DejaVuSans-20" transform="translate(165.642578 0)"/>
      <use xlink:href="#DejaVuSans-76" transform="translate(197.429688 0)"/>
      <use xlink:href="#DejaVuSans-69" transform="translate(256.609375 0)"/>
      <use xlink:href="#DejaVuSans-6f" transform="translate(284.392578 0)"/>
      <use xlink:href="#DejaVuSans-6c" transform="translate(345.574219 0)"/>
     </g>
    </g>
   </g>
   <g id="text_8">
    <g clip-path="url(#p147d665ba3)">
     <!-- Bis vivi -->
     <g transform="translate(378.94851 118.905661) scale(0.06 -0.06)">
      <defs>
       <path id="DejaVuSans-42" d="M 1259 2228 
L 1259 519 
L 2272 519 
Q 2781 519 3026 730 
Q 3272 941 3272 1375 
Q 3272 1813 3026 2020 
Q 2781 2228 2272 2228 
L 1259 2228 
z
M 1259 4147 
L 1259 2741 
L 2194 2741 
Q 2656 2741 2882 2914 
Q 3109 3088 3109 3444 
Q 3109 3797 2882 3972 
Q 2656 4147 2194 4147 
L 1259 4147 
z
M 628 4666 
L 2241 4666 
Q 2963 4666 3353 4366 
Q 3744 4066 3744 3513 
Q 3744 3084 3544 2831 
Q 3344 2578 2956 2516 
Q 3422 2416 3680 2098 
Q 3938 1781 3938 1306 
Q 3938 681 3513 340 
Q 3088 0 2303 0 
L 628 0 
L 628 4666 
z
" transform="scale(0.015625)"/>
      </defs>
      <use xlink:href="#DejaVuSans-42"/>
      <use xlink:href="#DejaVuSans-69" transform="translate(68.603516 0)"/>
      <use xlink:href="#DejaVuSans-73" transform="translate(96.386719 0)"/>
      <use xlink:href="#DejaVuSans-20" transform="translate(148.486328 0)"/>
      <use xlink:href="#DejaVuSans-76" transform="translate(180.273438 0)"/>
      <use xlink:href="#DejaVuSans-69" transform="translate(239.453125 0)"/>
      <use xlink:href="#DejaVuSans-76" transform="translate(267.236328 0)"/>
      <use xlink:href="#DejaVuSans-69" transform="translate(326.416016 0)"/>
     </g>
    </g>
   </g>
   <g id="text_9">
    <g clip-path="url(#p147d665ba3)">
     <!-- Pot aure -->
     <g transform="translate(317.505695 146.181151) scale(0.06 -0.06)">
      <defs>
       <path id="DejaVuSans-75" d="M 544 1381 
L 544 3500 
L 1119 3500 
L 1119 1403 
Q 1119 906 1312 657 
Q 1506 409 1894 409 
Q 2359 409 2629 706 
Q 2900 1003 2900 1516 
L 2900 3500 
L 3475 3500 
L 3475 0 
L 2900 0 
L 2900 538 
Q 2691 219 2414 64 
Q 2138 -91 1772 -91 
Q 1169 -91 856 284 
Q 544 659 544 1381 
z
M 1991 3584 
L 1991 3584 
z
" transform="scale(0.015625)"/>
      </defs>
      <use xlink:href="#DejaVuSans-50"/>
      <use xlink:href="#DejaVuSans-6f" transform="translate(56.677734 0)"/>
      <use xlink:href="#DejaVuSans-74" transform="translate(117.859375 0)"/>
      <use xlink:href="#DejaVuSans-20" transform="translate(157.068359 0)"/>
      <use xlink:href="#DejaVuSans-61" transform="translate(188.855469 0)"/>
      <use xlink:href="#DejaVuSans-75" transform="translate(250.134766 0)"/>
      <use xlink:href="#DejaVuSans-72" transform="translate(313.513672 0)"/>
      <use xlink:href="#DejaVuSans-65" transform="translate(352.376953 0)"/>
     </g>
    </g>
   </g>
   <g id="text_10">
    <g clip-path="url(#p147d665ba3)">
     <!-- Alc pent -->
     <g transform="translate(237.2077 121.410799) scale(0.06 -0.06)">
      <defs>
       <path id="DejaVuSans-6e" d="M 3513 2113 
L 3513 0 
L 2938 0 
L 2938 2094 
Q 2938 2591 2744 2837 
Q 2550 3084 2163 3084 
Q 1697 3084 1428 2787 
Q 1159 2491 1159 1978 
L 1159 0 
L 581 0 
L 581 3500 
L 1159 3500 
L 1159 2956 
Q 1366 3272 1645 3428 
Q 1925 3584 2291 3584 
Q 2894 3584 3203 3211 
Q 3513 2838 3513 2113 
z
" transform="scale(0.015625)"/>
      </defs>
      <use xlink:href="#DejaVuSans-41"/>
      <use xlink:href="#DejaVuSans-6c" transform="translate(68.408203 0)"/>
      <use xlink:href="#DejaVuSans-63" transform="translate(96.191406 0)"/>
      <use xlink:href="#DejaVuSans-20" transform="translate(151.171875 0)"/>
      <use xlink:href="#DejaVuSans-70" transform="translate(182.958984 0)"/>
      <use xlink:href="#DejaVuSans-65" transform="translate(246.435547 0)"/>
      <use xlink:href="#DejaVuSans-6e" transform="translate(307.958984 0)"/>
      <use xlink:href="#DejaVuSans-74" transform="translate(371.337891 0)"/>
     </g>
    </g>
   </g>
   <g id="text_11">
    <g clip-path="url(#p147d665ba3)">
     <!-- Sal herb -->
     <g transform="translate(340.468465 123.235282) scale(0.06 -0.06)">
      <defs>
       <path id="DejaVuSans-68" d="M 3513 2113 
L 3513 0 
L 2938 0 
L 2938 2094 
Q 2938 2591 2744 2837 
Q 2550 3084 2163 3084 
Q 1697 3084 1428 2787 
Q 1159 2491 1159 1978 
L 1159 0 
L 581 0 
L 581 4863 
L 1159 4863 
L 1159 2956 
Q 1366 3272 1645 3428 
Q 1925 3584 2291 3584 
Q 2894 3584 3203 3211 
Q 3513 2838 3513 2113 
z
" transform="scale(0.015625)"/>
       <path id="DejaVuSans-62" d="M 3116 1747 
Q 3116 2381 2855 2742 
Q 2594 3103 2138 3103 
Q 1681 3103 1420 2742 
Q 1159 2381 1159 1747 
Q 1159 1113 1420 752 
Q 1681 391 2138 391 
Q 2594 391 2855 752 
Q 3116 1113 3116 1747 
z
M 1159 2969 
Q 1341 3281 1617 3432 
Q 1894 3584 2278 3584 
Q 2916 3584 3314 3078 
Q 3713 2572 3713 1747 
Q 3713 922 3314 415 
Q 2916 -91 2278 -91 
Q 1894 -91 1617 61 
Q 1341 213 1159 525 
L 1159 0 
L 581 0 
L 581 4863 
L 1159 4863 
L 1159 2969 
z
" transform="scale(0.015625)"/>
      </defs>
      <use xlink:href="#DejaVuSans-53"/>
      <use xlink:href="#DejaVuSans-61" transform="translate(63.476562 0)"/>
      <use xlink:href="#DejaVuSans-6c" transform="translate(124.755859 0)"/>
      <use xlink:href="#DejaVuSans-20" transform="translate(152.539062 0)"/>
      <use xlink:href="#DejaVuSans-68" transform="translate(184.326172 0)"/>
      <use xlink:href="#DejaVuSans-65" transform="translate(247.705078 0)"/>
      <use xlink:href="#DejaVuSans-72" transform="translate(309.228516 0)"/>
      <use xlink:href="#DejaVuSans-62" transform="translate(350.341797 0)"/>
     </g>
    </g>
   </g>
   <g id="text_12">
    <g clip-path="url(#p147d665ba3)">
     <!-- Pla alpi -->
     <g transform="translate(376.588258 229.19651) scale(0.06 -0.06)">
      <use xlink:href="#DejaVuSans-50"/>
      <use xlink:href="#DejaVuSans-6c" transform="translate(60.302734 0)"/>
      <use xlink:href="#DejaVuSans-61" transform="translate(88.085938 0)"/>
      <use xlink:href="#DejaVuSans-20" transform="translate(149.365234 0)"/>
      <use xlink:href="#DejaVuSans-61" transform="translate(181.152344 0)"/>
      <use xlink:href="#DejaVuSans-6c" transform="translate(242.431641 0)"/>
      <use xlink:href="#DejaVuSans-70" transform="translate(270.214844 0)"/>
      <use xlink:href="#DejaVuSans-69" transform="translate(333.691406 0)"/>
     </g>
    </g>
   </g>
   <g id="text_13">
    <g clip-path="url(#p147d665ba3)">
     <!-- Alc fiss -->
     <g transform="translate(209.924376 148.250383) scale(0.06 -0.06)">
      <defs>
       <path id="DejaVuSans-66" d="M 2375 4863 
L 2375 4384 
L 1825 4384 
Q 1516 4384 1395 4259 
Q 1275 4134 1275 3809 
L 1275 3500 
L 2222 3500 
L 2222 3053 
L 1275 3053 
L 1275 0 
L 697 0 
L 697 3053 
L 147 3053 
L 147 3500 
L 697 3500 
L 697 3744 
Q 697 4328 969 4595 
Q 1241 4863 1831 4863 
L 2375 4863 
z
" transform="scale(0.015625)"/>
      </defs>
      <use xlink:href="#DejaVuSans-41"/>
      <use xlink:href="#DejaVuSans-6c" transform="translate(68.408203 0)"/>
      <use xlink:href="#DejaVuSans-63" transform="translate(96.191406 0)"/>
      <use xlink:href="#DejaVuSans-20" transform="translate(151.171875 0)"/>
      <use xlink:href="#DejaVuSans-66" transform="translate(182.958984 0)"/>
      <use xlink:href="#DejaVuSans-69" transform="translate(218.164062 0)"/>
      <use xlink:href="#DejaVuSans-73" transform="translate(245.947266 0)"/>
      <use xlink:href="#DejaVuSans-73" transform="translate(298.046875 0)"/>
     </g>
    </g>
   </g>
   <g id="text_14">
    <g clip-path="url(#p147d665ba3)">
     <!-- Hel vers -->
     <g transform="translate(268.020243 209.441014) scale(0.06 -0.06)">
      <defs>
       <path id="DejaVuSans-48" d="M 628 4666 
L 1259 4666 
L 1259 2753 
L 3553 2753 
L 3553 4666 
L 4184 4666 
L 4184 0 
L 3553 0 
L 3553 2222 
L 1259 2222 
L 1259 0 
L 628 0 
L 628 4666 
z
" transform="scale(0.015625)"/>
      </defs>
      <use xlink:href="#DejaVuSans-48"/>
      <use xlink:href="#DejaVuSans-65" transform="translate(75.195312 0)"/>
      <use xlink:href="#DejaVuSans-6c" transform="translate(136.71875 0)"/>
      <use xlink:href="#DejaVuSans-20" transform="translate(164.501953 0)"/>
      <use xlink:href="#DejaVuSans-76" transform="translate(196.289062 0)"/>
      <use xlink:href="#DejaVuSans-65" transform="translate(255.46875 0)"/>
      <use xlink:href="#DejaVuSans-72" transform="translate(316.992188 0)"/>
      <use xlink:href="#DejaVuSans-73" transform="translate(358.105469 0)"/>
     </g>
    </g>
   </g>
   <g id="text_15">
    <g clip-path="url(#p147d665ba3)">
     <!-- Leo hisp -->
     <g transform="translate(394.423886 292.511182) scale(0.06 -0.06)">
      <defs>
       <path id="DejaVuSans-4c" d="M 628 4666 
L 1259 4666 
L 1259 531 
L 3531 531 
L 3531 0 
L 628 0 
L 628 4666 
z
" transform="scale(0.015625)"/>
      </defs>
      <use xlink:href="#DejaVuSans-4c"/>
      <use xlink:href="#DejaVuSans-65" transform="translate(53.962891 0)"/>
      <use xlink:href="#DejaVuSans-6f" transform="translate(115.486328 0)"/>
      <use xlink:href="#DejaVuSans-20" transform="translate(176.667969 0)"/>
      <use xlink:href="#DejaVuSans-68" transform="translate(208.455078 0)"/>
      <use xlink:href="#DejaVuSans-69" transform="translate(271.833984 0)"/>
      <use xlink:href="#DejaVuSans-73" transform="translate(299.617188 0)"/>
      <use xlink:href="#DejaVuSans-70" transform="translate(351.716797 0)"/>
     </g>
    </g>
   </g>
   <g id="text_16">
    <g clip-path="url(#p147d665ba3)">
     <!-- Vio calc -->
     <g transform="translate(290.258853 267.203026) scale(0.06 -0.06)">
      <defs>
       <path id="DejaVuSans-56" d="M 1831 0 
L 50 4666 
L 709 4666 
L 2188 738 
L 3669 4666 
L 4325 4666 
L 2547 0 
L 1831 0 
z
" transform="scale(0.015625)"/>
      </defs>
      <use xlink:href="#DejaVuSans-56"/>
      <use xlink:href="#DejaVuSans-69" transform="translate(66.158203 0)"/>
      <use xlink:href="#DejaVuSans-6f" transform="translate(93.941406 0)"/>
      <use xlink:href="#DejaVuSans-20" transform="translate(155.123047 0)"/>
      <use xlink:href="#DejaVuSans-63" transform="translate(186.910156 0)"/>
      <use xlink:href="#DejaVuSans-61" transform="translate(241.890625 0)"/>
      <use xlink:href="#DejaVuSans-6c" transform="translate(303.169922 0)"/>
      <use xlink:href="#DejaVuSans-63" transform="translate(330.953125 0)"/>
     </g>
    </g>
   </g>
   <g id="text_17">
    <g clip-path="url(#p147d665ba3)">
     <!-- Cen unif -->
     <g transform="translate(98.24969 175.159339) scale(0.06 -0.06)">
      <use xlink:href="#DejaVuSans-43"/>
      <use xlink:href="#DejaVuSans-65" transform="translate(69.824219 0)"/>
      <use xlink:href="#DejaVuSans-6e" transform="translate(131.347656 0)"/>
      <use xlink:href="#DejaVuSans-20" transform="translate(194.726562 0)"/>
      <use xlink:href="#DejaVuSans-75" transform="translate(226.513672 0)"/>
      <use xlink:href="#DejaVuSans-6e" transform="translate(289.892578 0)"/>
      <use xlink:href="#DejaVuSans-69" transform="translate(353.271484 0)"/>
      <use xlink:href="#DejaVuSans-66" transform="translate(381.054688 0)"/>
     </g>
    </g>
   </g>
   <g id="text_18">
    <g clip-path="url(#p147d665ba3)">
     <!-- Sag glab -->
     <g transform="translate(189.299833 248.232772) scale(0.06 -0.06)">
      <use xlink:href="#DejaVuSans-53"/>
      <use xlink:href="#DejaVuSans-61" transform="translate(63.476562 0)"/>
      <use xlink:href="#DejaVuSans-67" transform="translate(124.755859 0)"/>
      <use xlink:href="#DejaVuSans-20" transform="translate(188.232422 0)"/>
      <use xlink:href="#DejaVuSans-67" transform="translate(220.019531 0)"/>
      <use xlink:href="#DejaVuSans-6c" transform="translate(283.496094 0)"/>
      <use xlink:href="#DejaVuSans-61" transform="translate(311.279297 0)"/>
      <use xlink:href="#DejaVuSans-62" transform="translate(372.558594 0)"/>
     </g>
    </g>
   </g>
   <g id="text_19">
    <g clip-path="url(#p147d665ba3)">
     <!-- Pla mari -->
     <g transform="translate(332.284115 186.600732) scale(0.06 -0.06)">
      <use xlink:href="#DejaVuSans-50"/>
      <use xlink:href="#DejaVuSans-6c" transform="translate(60.302734 0)"/>
      <use xlink:href="#DejaVuSans-61" transform="translate(88.085938 0)"/>
      <use xlink:href="#DejaVuSans-20" transform="translate(149.365234 0)"/>
      <use xlink:href="#DejaVuSans-6d" transform="translate(181.152344 0)"/>
      <use xlink:href="#DejaVuSans-61" transform="translate(278.564453 0)"/>
      <use xlink:href="#DejaVuSans-72" transform="translate(339.84375 0)"/>
      <use xlink:href="#DejaVuSans-69" transform="translate(380.957031 0)"/>
     </g>
    </g>
   </g>
   <g id="text_20">
    <g clip-path="url(#p147d665ba3)">
     <!-- Fes hall -->
     <g transform="translate(468.333591 125.566722) scale(0.06 -0.06)">
      <use xlink:href="#DejaVuSans-46"/>
      <use xlink:href="#DejaVuSans-65" transform="translate(52.019531 0)"/>
      <use xlink:href="#DejaVuSans-73" transform="translate(113.542969 0)"/>
      <use xlink:href="#DejaVuSans-20" transform="translate(165.642578 0)"/>
      <use xlink:href="#DejaVuSans-68" transform="translate(197.429688 0)"/>
      <use xlink:href="#DejaVuSans-61" transform="translate(260.808594 0)"/>
      <use xlink:href="#DejaVuSans-6c" transform="translate(322.087891 0)"/>
      <use xlink:href="#DejaVuSans-6c" transform="translate(349.871094 0)"/>
     </g>
    </g>
   </g>
   <g id="text_21">
    <g clip-path="url(#p147d665ba3)">
     <!-- Fes nigr -->
     <g transform="translate(415.826206 184.186834) scale(0.06 -0.06)">
      <use xlink:href="#DejaVuSans-46"/>
      <use xlink:href="#DejaVuSans-65" transform="translate(52.019531 0)"/>
      <use xlink:href="#DejaVuSans-73" transform="translate(113.542969 0)"/>
      <use xlink:href="#DejaVuSans-20" transform="translate(165.642578 0)"/>
      <use xlink:href="#DejaVuSans-6e" transform="translate(197.429688 0)"/>
      <use xlink:href="#DejaVuSans-69" transform="translate(260.808594 0)"/>
      <use xlink:href="#DejaVuSans-67" transform="translate(288.591797 0)"/>
      <use xlink:href="#DejaVuSans-72" transform="translate(352.068359 0)"/>
     </g>
    </g>
   </g>
   <g id="text_22">
    <g clip-path="url(#p147d665ba3)">
     <!-- Pot cran -->
     <g transform="translate(291.37567 79.277318) scale(0.06 -0.06)">
      <use xlink:href="#DejaVuSans-50"/>
      <use xlink:href="#DejaVuSans-6f" transform="translate(56.677734 0)"/>
      <use xlink:href="#DejaVuSans-74" transform="translate(117.859375 0)"/>
      <use xlink:href="#DejaVuSans-20" transform="translate(157.068359 0)"/>
      <use xlink:href="#DejaVuSans-63" transform="translate(188.855469 0)"/>
      <use xlink:href="#DejaVuSans-72" transform="translate(243.835938 0)"/>
      <use xlink:href="#DejaVuSans-61" transform="translate(284.949219 0)"/>
      <use xlink:href="#DejaVuSans-6e" transform="translate(346.228516 0)"/>
     </g>
    </g>
   </g>
   <g id="text_23">
    <!-- G_CP -->
    <g transform="translate(279.743437 45.84) scale(0.12 -0.12)">
     <defs>
      <path id="DejaVuSans-47" d="M 3809 666 
L 3809 1919 
L 2778 1919 
L 2778 2438 
L 4434 2438 
L 4434 434 
Q 4069 175 3628 42 
Q 3188 -91 2688 -91 
Q 1594 -91 976 548 
Q 359 1188 359 2328 
Q 359 3472 976 4111 
Q 1594 4750 2688 4750 
Q 3144 4750 3555 4637 
Q 3966 4525 4313 4306 
L 4313 3634 
Q 3963 3931 3569 4081 
Q 3175 4231 2741 4231 
Q 1884 4231 1454 3753 
Q 1025 3275 1025 2328 
Q 1025 1384 1454 906 
Q 1884 428 2741 428 
Q 3075 428 3337 486 
Q 3600 544 3809 666 
z
" transform="scale(0.015625)"/>
      <path id="DejaVuSans-5f" d="M 3263 -1063 
L 3263 -1509 
L -63 -1509 
L -63 -1063 
L 3263 -1063 
z
" transform="scale(0.015625)"/>
     </defs>
     <use xlink:href="#DejaVuSans-47"/>
     <use xlink:href="#DejaVuSans-5f" transform="translate(77.490234 0)"/>
     <use xlink:href="#DejaVuSans-43" transform="translate(127.490234 0)"/>
     <use xlink:href="#DejaVuSans-50" transform="translate(197.314453 0)"/>
    </g>
   </g>
  </g>
 </g>
 <defs>
  <clipPath id="p147d665ba3">
   <rect x="72" y="51.84" width="446.4" height="332.64"/>
  </clipPath>
 </defs>
</svg>
