<?xml version="1.0" encoding="utf-8" standalone="no"?>
<!DOCTYPE svg PUBLIC "-//W3C//DTD SVG 1.1//EN"
  "http://www.w3.org/Graphics/SVG/1.1/DTD/svg11.dtd">
<svg xmlns:xlink="http://www.w3.org/1999/xlink" width="576pt" height="432pt" viewBox="0 0 576 432" xmlns="http://www.w3.org/2000/svg" version="1.1">
 <metadata>
  <rdf:RDF xmlns:dc="http://purl.org/dc/elements/1.1/" xmlns:cc="http://creativecommons.org/ns#" xmlns:rdf="http://www.w3.org/1999/02/22-rdf-syntax-ns#">
   <cc:Work>
    <dc:type rdf:resource="http://purl.org/dc/dcmitype/StillImage"/>
    <dc:date>2025-12-15T13:58:18.741216</dc:date>
    <dc:format>image/svg+xml</dc:format>
    <dc:creator>
     <cc:Agent>
      <dc:title>Matplotlib v3.10.0, https://matplotlib.org/</dc:title>
     </cc:Agent>
    </dc:creator>
   </cc:Work>
  </rdf:RDF>
 </metadata>
 <defs>
  <style type="text/css">*{stroke-linejoin: round; stroke-linecap: butt}</style>
 </defs>
 <g id="figure_1">
  <g id="patch_1">
   <path d="M 0 432 
L 576 432 
L 576 0 
L 0 0 
z
" style="fill: #ffffff"/>
  </g>
  <g id="axes_1">
   <g id="LineCollection_1">
    <path d="M 242.250343 141.70046 
L 371.531191 109.173909 
" clip-path="url(#pa2abd4ca43)" style="fill: none; stroke: #ff0000; stroke-width: 0.77869"/>
    <path d="M 242.250343 141.70046 
L 191.723671 245.009729 
" clip-path="url(#pa2abd4ca43)" style="fill: none; stroke: #ff0000; stroke-width: 4.648946"/>
    <path d="M 242.250343 141.70046 
L 147.330058 75.438559 
" clip-path="url(#pa2abd4ca43)" style="fill: none; stroke: #ff0000; stroke-width: 0.794653"/>
    <path d="M 371.531191 109.173909 
L 481.405327 81.520389 
" clip-path="url(#pa2abd4ca43)" style="fill: none; stroke: #ff0000; stroke-width: 4.559721"/>
   </g>
   <g id="PathCollection_1">
    <defs>
     <path id="ma22bf472f4" d="M 0 6.311457 
C 1.673818 6.311457 3.279306 5.646442 4.462874 4.462874 
C 5.646442 3.279306 6.311457 1.673818 6.311457 0 
C 6.311457 -1.673818 5.646442 -3.279306 4.462874 -4.462874 
C 3.279306 -5.646442 1.673818 -6.311457 0 -6.311457 
C -1.673818 -6.311457 -3.279306 -5.646442 -4.462874 -4.462874 
C -5.646442 -3.279306 -6.311457 -1.673818 -6.311457 0 
C -6.311457 1.673818 -5.646442 3.279306 -4.462874 4.462874 
C -3.279306 5.646442 -1.673818 6.311457 0 6.311457 
z
" style="stroke: #000000"/>
    </defs>
    <g clip-path="url(#pa2abd4ca43)">
     <use xlink:href="#ma22bf472f4" x="92.290909" y="323.142311" style="stroke: #000000"/>
    </g>
   </g>
   <g id="PathCollection_2">
    <defs>
     <path id="m4869b56496" d="M 0 6.240202 
C 1.654921 6.240202 3.242283 5.582695 4.412489 4.412489 
C 5.582695 3.242283 6.240202 1.654921 6.240202 0 
C 6.240202 -1.654921 5.582695 -3.242283 4.412489 -4.412489 
C 3.242283 -5.582695 1.654921 -6.240202 0 -6.240202 
C -1.654921 -6.240202 -3.242283 -5.582695 -4.412489 -4.412489 
C -5.582695 -3.242283 -6.240202 -1.654921 -6.240202 0 
C -6.240202 1.654921 -5.582695 3.242283 -4.412489 4.412489 
C -3.242283 5.582695 -1.654921 6.240202 0 6.240202 
z
" style="stroke: #000000"/>
    </defs>
    <g clip-path="url(#pa2abd4ca43)">
     <use xlink:href="#m4869b56496" x="107.855486" y="323.142311" style="stroke: #000000"/>
    </g>
   </g>
   <g id="PathCollection_3">
    <defs>
     <path id="mab8b15fabc" d="M 0 6.232035 
C 1.652755 6.232035 3.23804 5.575388 4.406714 4.406714 
C 5.575388 3.23804 6.232035 1.652755 6.232035 0 
C 6.232035 -1.652755 5.575388 -3.23804 4.406714 -4.406714 
C 3.23804 -5.575388 1.652755 -6.232035 0 -6.232035 
C -1.652755 -6.232035 -3.23804 -5.575388 -4.406714 -4.406714 
C -5.575388 -3.23804 -6.232035 -1.652755 -6.232035 0 
C -6.232035 1.652755 -5.575388 3.23804 -4.406714 4.406714 
C -3.23804 5.575388 -1.652755 6.232035 0 6.232035 
z
" style="stroke: #000000"/>
    </defs>
    <g clip-path="url(#pa2abd4ca43)">
     <use xlink:href="#mab8b15fabc" x="123.420063" y="323.142311" style="stroke: #000000"/>
    </g>
   </g>
   <g id="PathCollection_4">
    <defs>
     <path id="mb1f640e7d8" d="M 0 6.141101 
C 1.628639 6.141101 3.190793 5.494036 4.342414 4.342414 
C 5.494036 3.190793 6.141101 1.628639 6.141101 0 
C 6.141101 -1.628639 5.494036 -3.190793 4.342414 -4.342414 
C 3.190793 -5.494036 1.628639 -6.141101 0 -6.141101 
C -1.628639 -6.141101 -3.190793 -5.494036 -4.342414 -4.342414 
C -5.494036 -3.190793 -6.141101 -1.628639 -6.141101 0 
C -6.141101 1.628639 -5.494036 3.190793 -4.342414 4.342414 
C -3.190793 5.494036 -1.628639 6.141101 0 6.141101 
z
" style="stroke: #000000"/>
    </defs>
    <g clip-path="url(#pa2abd4ca43)">
     <use xlink:href="#mb1f640e7d8" x="138.984639" y="323.142311" style="stroke: #000000"/>
    </g>
   </g>
   <g id="PathCollection_5">
    <defs>
     <path id="mcf6ee59880" d="M 0 6.081516 
C 1.612837 6.081516 3.159833 5.440729 4.300281 4.300281 
C 5.440729 3.159833 6.081516 1.612837 6.081516 0 
C 6.081516 -1.612837 5.440729 -3.159833 4.300281 -4.300281 
C 3.159833 -5.440729 1.612837 -6.081516 0 -6.081516 
C -1.612837 -6.081516 -3.159833 -5.440729 -4.300281 -4.300281 
C -5.440729 -3.159833 -6.081516 -1.612837 -6.081516 0 
C -6.081516 1.612837 -5.440729 3.159833 -4.300281 4.300281 
C -3.159833 5.440729 -1.612837 6.081516 0 6.081516 
z
" style="stroke: #000000"/>
    </defs>
    <g clip-path="url(#pa2abd4ca43)">
     <use xlink:href="#mcf6ee59880" x="154.549216" y="323.142311" style="stroke: #000000"/>
    </g>
   </g>
   <g id="PathCollection_6">
    <defs>
     <path id="m775ea39174" d="M 0 6.071931 
C 1.610295 6.071931 3.154853 5.432154 4.293504 4.293504 
C 5.432154 3.154853 6.071931 1.610295 6.071931 0 
C 6.071931 -1.610295 5.432154 -3.154853 4.293504 -4.293504 
C 3.154853 -5.432154 1.610295 -6.071931 0 -6.071931 
C -1.610295 -6.071931 -3.154853 -5.432154 -4.293504 -4.293504 
C -5.432154 -3.154853 -6.071931 -1.610295 -6.071931 0 
C -6.071931 1.610295 -5.432154 3.154853 -4.293504 4.293504 
C -3.154853 5.432154 -1.610295 6.071931 0 6.071931 
z
" style="stroke: #000000"/>
    </defs>
    <g clip-path="url(#pa2abd4ca43)">
     <use xlink:href="#m775ea39174" x="170.113793" y="323.142311" style="stroke: #000000"/>
    </g>
   </g>
   <g id="PathCollection_7">
    <defs>
     <path id="m429c281fd7" d="M 0 5.867319 
C 1.556031 5.867319 3.048541 5.249101 4.148821 4.148821 
C 5.249101 3.048541 5.867319 1.556031 5.867319 0 
C 5.867319 -1.556031 5.249101 -3.048541 4.148821 -4.148821 
C 3.048541 -5.249101 1.556031 -5.867319 0 -5.867319 
C -1.556031 -5.867319 -3.048541 -5.249101 -4.148821 -4.148821 
C -5.249101 -3.048541 -5.867319 -1.556031 -5.867319 0 
C -5.867319 1.556031 -5.249101 3.048541 -4.148821 4.148821 
C -3.048541 5.249101 -1.556031 5.867319 0 5.867319 
z
" style="stroke: #000000"/>
    </defs>
    <g clip-path="url(#pa2abd4ca43)">
     <use xlink:href="#m429c281fd7" x="185.678369" y="323.142311" style="stroke: #000000"/>
    </g>
   </g>
   <g id="PathCollection_8">
    <defs>
     <path id="m37f0dd0515" d="M 0 5.403748 
C 1.433091 5.403748 2.807678 4.834375 3.821027 3.821027 
C 4.834375 2.807678 5.403748 1.433091 5.403748 0 
C 5.403748 -1.433091 4.834375 -2.807678 3.821027 -3.821027 
C 2.807678 -4.834375 1.433091 -5.403748 0 -5.403748 
C -1.433091 -5.403748 -2.807678 -4.834375 -3.821027 -3.821027 
C -4.834375 -2.807678 -5.403748 -1.433091 -5.403748 0 
C -5.403748 1.433091 -4.834375 2.807678 -3.821027 3.821027 
C -2.807678 4.834375 -1.433091 5.403748 0 5.403748 
z
" style="stroke: #000000"/>
    </defs>
    <g clip-path="url(#pa2abd4ca43)">
     <use xlink:href="#m37f0dd0515" x="201.242946" y="323.142311" style="stroke: #000000"/>
    </g>
   </g>
   <g id="PathCollection_9">
    <defs>
     <path id="md959f753aa" d="M 0 5.397696 
C 1.431486 5.397696 2.804534 4.828961 3.816748 3.816748 
C 4.828961 2.804534 5.397696 1.431486 5.397696 0 
C 5.397696 -1.431486 4.828961 -2.804534 3.816748 -3.816748 
C 2.804534 -4.828961 1.431486 -5.397696 0 -5.397696 
C -1.431486 -5.397696 -2.804534 -4.828961 -3.816748 -3.816748 
C -4.828961 -2.804534 -5.397696 -1.431486 -5.397696 0 
C -5.397696 1.431486 -4.828961 2.804534 -3.816748 3.816748 
C -2.804534 4.828961 -1.431486 5.397696 0 5.397696 
z
" style="stroke: #000000"/>
    </defs>
    <g clip-path="url(#pa2abd4ca43)">
     <use xlink:href="#md959f753aa" x="216.807523" y="323.142311" style="stroke: #000000"/>
    </g>
   </g>
   <g id="PathCollection_10">
    <defs>
     <path id="m7b5c51790d" d="M 0 5.288221 
C 1.402453 5.288221 2.747653 4.731021 3.739337 3.739337 
C 4.731021 2.747653 5.288221 1.402453 5.288221 0 
C 5.288221 -1.402453 4.731021 -2.747653 3.739337 -3.739337 
C 2.747653 -4.731021 1.402453 -5.288221 0 -5.288221 
C -1.402453 -5.288221 -2.747653 -4.731021 -3.739337 -3.739337 
C -4.731021 -2.747653 -5.288221 -1.402453 -5.288221 0 
C -5.288221 1.402453 -4.731021 2.747653 -3.739337 3.739337 
C -2.747653 4.731021 -1.402453 5.288221 0 5.288221 
z
" style="stroke: #000000"/>
    </defs>
    <g clip-path="url(#pa2abd4ca43)">
     <use xlink:href="#m7b5c51790d" x="232.3721" y="323.142311" style="stroke: #000000"/>
    </g>
   </g>
   <g id="PathCollection_11">
    <defs>
     <path id="m1e9d28151e" d="M 0 5.229766 
C 1.38695 5.229766 2.717281 4.678725 3.698003 3.698003 
C 4.678725 2.717281 5.229766 1.38695 5.229766 0 
C 5.229766 -1.38695 4.678725 -2.717281 3.698003 -3.698003 
C 2.717281 -4.678725 1.38695 -5.229766 0 -5.229766 
C -1.38695 -5.229766 -2.717281 -4.678725 -3.698003 -3.698003 
C -4.678725 -2.717281 -5.229766 -1.38695 -5.229766 0 
C -5.229766 1.38695 -4.678725 2.717281 -3.698003 3.698003 
C -2.717281 4.678725 -1.38695 5.229766 0 5.229766 
z
" style="stroke: #000000"/>
    </defs>
    <g clip-path="url(#pa2abd4ca43)">
     <use xlink:href="#m1e9d28151e" x="247.936676" y="323.142311" style="stroke: #000000"/>
    </g>
   </g>
   <g id="PathCollection_12">
    <defs>
     <path id="mf3d0752ac1" d="M 0 5.155328 
C 1.367209 5.155328 2.678605 4.61213 3.645367 3.645367 
C 4.61213 2.678605 5.155328 1.367209 5.155328 0 
C 5.155328 -1.367209 4.61213 -2.678605 3.645367 -3.645367 
C 2.678605 -4.61213 1.367209 -5.155328 0 -5.155328 
C -1.367209 -5.155328 -2.678605 -4.61213 -3.645367 -3.645367 
C -4.61213 -2.678605 -5.155328 -1.367209 -5.155328 0 
C -5.155328 1.367209 -4.61213 2.678605 -3.645367 3.645367 
C -2.678605 4.61213 -1.367209 5.155328 0 5.155328 
z
" style="stroke: #000000"/>
    </defs>
    <g clip-path="url(#pa2abd4ca43)">
     <use xlink:href="#mf3d0752ac1" x="263.501253" y="323.142311" style="stroke: #000000"/>
    </g>
   </g>
   <g id="PathCollection_13">
    <defs>
     <path id="m9f4e364f3f" d="M 0 5.041197 
C 1.336941 5.041197 2.619304 4.510025 3.564664 3.564664 
C 4.510025 2.619304 5.041197 1.336941 5.041197 0 
C 5.041197 -1.336941 4.510025 -2.619304 3.564664 -3.564664 
C 2.619304 -4.510025 1.336941 -5.041197 0 -5.041197 
C -1.336941 -5.041197 -2.619304 -4.510025 -3.564664 -3.564664 
C -4.510025 -2.619304 -5.041197 -1.336941 -5.041197 0 
C -5.041197 1.336941 -4.510025 2.619304 -3.564664 3.564664 
C -2.619304 4.510025 -1.336941 5.041197 0 5.041197 
z
" style="stroke: #000000"/>
    </defs>
    <g clip-path="url(#pa2abd4ca43)">
     <use xlink:href="#m9f4e364f3f" x="279.06583" y="323.142311" style="stroke: #000000"/>
    </g>
   </g>
   <g id="PathCollection_14">
    <defs>
     <path id="m258fc9d235" d="M 0 4.984011 
C 1.321775 4.984011 2.589592 4.458864 3.524228 3.524228 
C 4.458864 2.589592 4.984011 1.321775 4.984011 0 
C 4.984011 -1.321775 4.458864 -2.589592 3.524228 -3.524228 
C 2.589592 -4.458864 1.321775 -4.984011 0 -4.984011 
C -1.321775 -4.984011 -2.589592 -4.458864 -3.524228 -3.524228 
C -4.458864 -2.589592 -4.984011 -1.321775 -4.984011 0 
C -4.984011 1.321775 -4.458864 2.589592 -3.524228 3.524228 
C -2.589592 4.458864 -1.321775 4.984011 0 4.984011 
z
" style="stroke: #000000"/>
    </defs>
    <g clip-path="url(#pa2abd4ca43)">
     <use xlink:href="#m258fc9d235" x="294.630407" y="323.142311" style="stroke: #000000"/>
    </g>
   </g>
   <g id="PathCollection_15">
    <defs>
     <path id="m8af9d34a19" d="M 0 4.807976 
C 1.27509 4.807976 2.498127 4.301377 3.399752 3.399752 
C 4.301377 2.498127 4.807976 1.27509 4.807976 0 
C 4.807976 -1.27509 4.301377 -2.498127 3.399752 -3.399752 
C 2.498127 -4.301377 1.27509 -4.807976 0 -4.807976 
C -1.27509 -4.807976 -2.498127 -4.301377 -3.399752 -3.399752 
C -4.301377 -2.498127 -4.807976 -1.27509 -4.807976 0 
C -4.807976 1.27509 -4.301377 2.498127 -3.399752 3.399752 
C -2.498127 4.301377 -1.27509 4.807976 0 4.807976 
z
" style="stroke: #000000"/>
    </defs>
    <g clip-path="url(#pa2abd4ca43)">
     <use xlink:href="#m8af9d34a19" x="310.194983" y="323.142311" style="stroke: #000000"/>
    </g>
   </g>
   <g id="PathCollection_16">
    <defs>
     <path id="mbcef940140" d="M 0 4.770733 
C 1.265213 4.770733 2.478777 4.268059 3.373418 3.373418 
C 4.268059 2.478777 4.770733 1.265213 4.770733 0 
C 4.770733 -1.265213 4.268059 -2.478777 3.373418 -3.373418 
C 2.478777 -4.268059 1.265213 -4.770733 0 -4.770733 
C -1.265213 -4.770733 -2.478777 -4.268059 -3.373418 -3.373418 
C -4.268059 -2.478777 -4.770733 -1.265213 -4.770733 0 
C -4.770733 1.265213 -4.268059 2.478777 -3.373418 3.373418 
C -2.478777 4.268059 -1.265213 4.770733 0 4.770733 
z
" style="stroke: #000000"/>
    </defs>
    <g clip-path="url(#pa2abd4ca43)">
     <use xlink:href="#mbcef940140" x="325.75956" y="323.142311" style="stroke: #000000"/>
    </g>
   </g>
   <g id="PathCollection_17">
    <defs>
     <path id="m1af773fad4" d="M 0 4.565165 
C 1.210696 4.565165 2.371968 4.084151 3.228059 3.228059 
C 4.084151 2.371968 4.565165 1.210696 4.565165 0 
C 4.565165 -1.210696 4.084151 -2.371968 3.228059 -3.228059 
C 2.371968 -4.084151 1.210696 -4.565165 0 -4.565165 
C -1.210696 -4.565165 -2.371968 -4.084151 -3.228059 -3.228059 
C -4.084151 -2.371968 -4.565165 -1.210696 -4.565165 0 
C -4.565165 1.210696 -4.084151 2.371968 -3.228059 3.228059 
C -2.371968 4.084151 -1.210696 4.565165 0 4.565165 
z
" style="stroke: #000000"/>
    </defs>
    <g clip-path="url(#pa2abd4ca43)">
     <use xlink:href="#m1af773fad4" x="341.324137" y="323.142311" style="stroke: #000000"/>
    </g>
   </g>
   <g id="PathCollection_18">
    <defs>
     <path id="mf3b7521475" d="M 0 4.545238 
C 1.205411 4.545238 2.361614 4.066323 3.213969 3.213969 
C 4.066323 2.361614 4.545238 1.205411 4.545238 0 
C 4.545238 -1.205411 4.066323 -2.361614 3.213969 -3.213969 
C 2.361614 -4.066323 1.205411 -4.545238 0 -4.545238 
C -1.205411 -4.545238 -2.361614 -4.066323 -3.213969 -3.213969 
C -4.066323 -2.361614 -4.545238 -1.205411 -4.545238 0 
C -4.545238 1.205411 -4.066323 2.361614 -3.213969 3.213969 
C -2.361614 4.066323 -1.205411 4.545238 0 4.545238 
z
" style="stroke: #000000"/>
    </defs>
    <g clip-path="url(#pa2abd4ca43)">
     <use xlink:href="#mf3b7521475" x="356.888714" y="323.142311" style="stroke: #000000"/>
    </g>
   </g>
   <g id="PathCollection_19">
    <defs>
     <path id="m6422246e23" d="M 0 4.510736 
C 1.196261 4.510736 2.343687 4.035456 3.189572 3.189572 
C 4.035456 2.343687 4.510736 1.196261 4.510736 0 
C 4.510736 -1.196261 4.035456 -2.343687 3.189572 -3.189572 
C 2.343687 -4.035456 1.196261 -4.510736 0 -4.510736 
C -1.196261 -4.510736 -2.343687 -4.035456 -3.189572 -3.189572 
C -4.035456 -2.343687 -4.510736 -1.196261 -4.510736 0 
C -4.510736 1.196261 -4.035456 2.343687 -3.189572 3.189572 
C -2.343687 4.035456 -1.196261 4.510736 0 4.510736 
z
" style="stroke: #000000"/>
    </defs>
    <g clip-path="url(#pa2abd4ca43)">
     <use xlink:href="#m6422246e23" x="372.45329" y="323.142311" style="stroke: #000000"/>
    </g>
   </g>
   <g id="PathCollection_20">
    <defs>
     <path id="m6e788815ce" d="M 0 4.499805 
C 1.193362 4.499805 2.338008 4.025678 3.181843 3.181843 
C 4.025678 2.338008 4.499805 1.193362 4.499805 0 
C 4.499805 -1.193362 4.025678 -2.338008 3.181843 -3.181843 
C 2.338008 -4.025678 1.193362 -4.499805 0 -4.499805 
C -1.193362 -4.499805 -2.338008 -4.025678 -3.181843 -3.181843 
C -4.025678 -2.338008 -4.499805 -1.193362 -4.499805 0 
C -4.499805 1.193362 -4.025678 2.338008 -3.181843 3.181843 
C -2.338008 4.025678 -1.193362 4.499805 0 4.499805 
z
" style="stroke: #000000"/>
    </defs>
    <g clip-path="url(#pa2abd4ca43)">
     <use xlink:href="#m6e788815ce" x="388.017867" y="323.142311" style="stroke: #000000"/>
    </g>
   </g>
   <g id="PathCollection_21">
    <defs>
     <path id="m1d4f5a2846" d="M 0 4.359219 
C 1.156078 4.359219 2.264962 3.899904 3.082433 3.082433 
C 3.899904 2.264962 4.359219 1.156078 4.359219 0 
C 4.359219 -1.156078 3.899904 -2.264962 3.082433 -3.082433 
C 2.264962 -3.899904 1.156078 -4.359219 0 -4.359219 
C -1.156078 -4.359219 -2.264962 -3.899904 -3.082433 -3.082433 
C -3.899904 -2.264962 -4.359219 -1.156078 -4.359219 0 
C -4.359219 1.156078 -3.899904 2.264962 -3.082433 3.082433 
C -2.264962 3.899904 -1.156078 4.359219 0 4.359219 
z
" style="stroke: #000000"/>
    </defs>
    <g clip-path="url(#pa2abd4ca43)">
     <use xlink:href="#m1d4f5a2846" x="92.290909" y="338.548208" style="stroke: #000000"/>
    </g>
   </g>
   <g id="PathCollection_22">
    <defs>
     <path id="m0430dab08e" d="M 0 4.341086 
C 1.151269 4.341086 2.255541 3.883682 3.069611 3.069611 
C 3.883682 2.255541 4.341086 1.151269 4.341086 0 
C 4.341086 -1.151269 3.883682 -2.255541 3.069611 -3.069611 
C 2.255541 -3.883682 1.151269 -4.341086 0 -4.341086 
C -1.151269 -4.341086 -2.255541 -3.883682 -3.069611 -3.069611 
C -3.883682 -2.255541 -4.341086 -1.151269 -4.341086 0 
C -4.341086 1.151269 -3.883682 2.255541 -3.069611 3.069611 
C -2.255541 3.883682 -1.151269 4.341086 0 4.341086 
z
" style="stroke: #000000"/>
    </defs>
    <g clip-path="url(#pa2abd4ca43)">
     <use xlink:href="#m0430dab08e" x="107.855486" y="338.548208" style="stroke: #000000"/>
    </g>
   </g>
   <g id="PathCollection_23">
    <defs>
     <path id="m7eca26a7bd" d="M 0 4.152047 
C 1.101136 4.152047 2.15732 3.714561 2.935941 2.935941 
C 3.714561 2.15732 4.152047 1.101136 4.152047 0 
C 4.152047 -1.101136 3.714561 -2.15732 2.935941 -2.935941 
C 2.15732 -3.714561 1.101136 -4.152047 0 -4.152047 
C -1.101136 -4.152047 -2.15732 -3.714561 -2.935941 -2.935941 
C -3.714561 -2.15732 -4.152047 -1.101136 -4.152047 0 
C -4.152047 1.101136 -3.714561 2.15732 -2.935941 2.935941 
C -2.15732 3.714561 -1.101136 4.152047 0 4.152047 
z
" style="stroke: #000000"/>
    </defs>
    <g clip-path="url(#pa2abd4ca43)">
     <use xlink:href="#m7eca26a7bd" x="123.420063" y="338.548208" style="stroke: #000000"/>
    </g>
   </g>
   <g id="PathCollection_24">
    <defs>
     <path id="m3defaa0ab1" d="M 0 4.073193 
C 1.080223 4.073193 2.116349 3.644015 2.880182 2.880182 
C 3.644015 2.116349 4.073193 1.080223 4.073193 0 
C 4.073193 -1.080223 3.644015 -2.116349 2.880182 -2.880182 
C 2.116349 -3.644015 1.080223 -4.073193 0 -4.073193 
C -1.080223 -4.073193 -2.116349 -3.644015 -2.880182 -2.880182 
C -3.644015 -2.116349 -4.073193 -1.080223 -4.073193 0 
C -4.073193 1.080223 -3.644015 2.116349 -2.880182 2.880182 
C -2.116349 3.644015 -1.080223 4.073193 0 4.073193 
z
" style="stroke: #000000"/>
    </defs>
    <g clip-path="url(#pa2abd4ca43)">
     <use xlink:href="#m3defaa0ab1" x="138.984639" y="338.548208" style="stroke: #000000"/>
    </g>
   </g>
   <g id="PathCollection_25">
    <defs>
     <path id="m213f494d6c" d="M 0 4.071891 
C 1.079878 4.071891 2.115673 3.642851 2.879262 2.879262 
C 3.642851 2.115673 4.071891 1.079878 4.071891 0 
C 4.071891 -1.079878 3.642851 -2.115673 2.879262 -2.879262 
C 2.115673 -3.642851 1.079878 -4.071891 0 -4.071891 
C -1.079878 -4.071891 -2.115673 -3.642851 -2.879262 -2.879262 
C -3.642851 -2.115673 -4.071891 -1.079878 -4.071891 0 
C -4.071891 1.079878 -3.642851 2.115673 -2.879262 2.879262 
C -2.115673 3.642851 -1.079878 4.071891 0 4.071891 
z
" style="stroke: #000000"/>
    </defs>
    <g clip-path="url(#pa2abd4ca43)">
     <use xlink:href="#m213f494d6c" x="154.549216" y="338.548208" style="stroke: #000000"/>
    </g>
   </g>
   <g id="PathCollection_26">
    <defs>
     <path id="mee483bf49d" d="M 0 3.925257 
C 1.04099 3.925257 2.039485 3.511667 2.775576 2.775576 
C 3.511667 2.039485 3.925257 1.04099 3.925257 0 
C 3.925257 -1.04099 3.511667 -2.039485 2.775576 -2.775576 
C 2.039485 -3.511667 1.04099 -3.925257 0 -3.925257 
C -1.04099 -3.925257 -2.039485 -3.511667 -2.775576 -2.775576 
C -3.511667 -2.039485 -3.925257 -1.04099 -3.925257 0 
C -3.925257 1.04099 -3.511667 2.039485 -2.775576 2.775576 
C -2.039485 3.511667 -1.04099 3.925257 0 3.925257 
z
" style="stroke: #000000"/>
    </defs>
    <g clip-path="url(#pa2abd4ca43)">
     <use xlink:href="#mee483bf49d" x="170.113793" y="338.548208" style="stroke: #000000"/>
    </g>
   </g>
   <g id="PathCollection_27">
    <defs>
     <path id="meb6833ce05" d="M 0 3.913501 
C 1.037873 3.913501 2.033376 3.50115 2.767263 2.767263 
C 3.50115 2.033376 3.913501 1.037873 3.913501 0 
C 3.913501 -1.037873 3.50115 -2.033376 2.767263 -2.767263 
C 2.033376 -3.50115 1.037873 -3.913501 0 -3.913501 
C -1.037873 -3.913501 -2.033376 -3.50115 -2.767263 -2.767263 
C -3.50115 -2.033376 -3.913501 -1.037873 -3.913501 0 
C -3.913501 1.037873 -3.50115 2.033376 -2.767263 2.767263 
C -2.033376 3.50115 -1.037873 3.913501 0 3.913501 
z
" style="stroke: #000000"/>
    </defs>
    <g clip-path="url(#pa2abd4ca43)">
     <use xlink:href="#meb6833ce05" x="185.678369" y="338.548208" style="stroke: #000000"/>
    </g>
   </g>
   <g id="PathCollection_28">
    <defs>
     <path id="m69ddff557c" d="M 0 3.912452 
C 1.037594 3.912452 2.032831 3.500211 2.766521 2.766521 
C 3.500211 2.032831 3.912452 1.037594 3.912452 0 
C 3.912452 -1.037594 3.500211 -2.032831 2.766521 -2.766521 
C 2.032831 -3.500211 1.037594 -3.912452 0 -3.912452 
C -1.037594 -3.912452 -2.032831 -3.500211 -2.766521 -2.766521 
C -3.500211 -2.032831 -3.912452 -1.037594 -3.912452 0 
C -3.912452 1.037594 -3.500211 2.032831 -2.766521 2.766521 
C -2.032831 3.500211 -1.037594 3.912452 0 3.912452 
z
" style="stroke: #000000"/>
    </defs>
    <g clip-path="url(#pa2abd4ca43)">
     <use xlink:href="#m69ddff557c" x="201.242946" y="338.548208" style="stroke: #000000"/>
    </g>
   </g>
   <g id="PathCollection_29">
    <defs>
     <path id="m98eb6e5046" d="M 0 3.766577 
C 0.998908 3.766577 1.957038 3.369707 2.663372 2.663372 
C 3.369707 1.957038 3.766577 0.998908 3.766577 0 
C 3.766577 -0.998908 3.369707 -1.957038 2.663372 -2.663372 
C 1.957038 -3.369707 0.998908 -3.766577 0 -3.766577 
C -0.998908 -3.766577 -1.957038 -3.369707 -2.663372 -2.663372 
C -3.369707 -1.957038 -3.766577 -0.998908 -3.766577 0 
C -3.766577 0.998908 -3.369707 1.957038 -2.663372 2.663372 
C -1.957038 3.369707 -0.998908 3.766577 0 3.766577 
z
" style="stroke: #000000"/>
    </defs>
    <g clip-path="url(#pa2abd4ca43)">
     <use xlink:href="#m98eb6e5046" x="216.807523" y="338.548208" style="stroke: #000000"/>
    </g>
   </g>
   <g id="PathCollection_30">
    <defs>
     <path id="m07b0437254" d="M 0 3.736419 
C 0.99091 3.736419 1.941368 3.342726 2.642047 2.642047 
C 3.342726 1.941368 3.736419 0.99091 3.736419 0 
C 3.736419 -0.99091 3.342726 -1.941368 2.642047 -2.642047 
C 1.941368 -3.342726 0.99091 -3.736419 0 -3.736419 
C -0.99091 -3.736419 -1.941368 -3.342726 -2.642047 -2.642047 
C -3.342726 -1.941368 -3.736419 -0.99091 -3.736419 0 
C -3.736419 0.99091 -3.342726 1.941368 -2.642047 2.642047 
C -1.941368 3.342726 -0.99091 3.736419 0 3.736419 
z
" style="stroke: #000000"/>
    </defs>
    <g clip-path="url(#pa2abd4ca43)">
     <use xlink:href="#m07b0437254" x="232.3721" y="338.548208" style="stroke: #000000"/>
    </g>
   </g>
   <g id="PathCollection_31">
    <defs>
     <path id="m2fe4e78965" d="M 0 3.731787 
C 0.989681 3.731787 1.938961 3.338582 2.638772 2.638772 
C 3.338582 1.938961 3.731787 0.989681 3.731787 0 
C 3.731787 -0.989681 3.338582 -1.938961 2.638772 -2.638772 
C 1.938961 -3.338582 0.989681 -3.731787 0 -3.731787 
C -0.989681 -3.731787 -1.938961 -3.338582 -2.638772 -2.638772 
C -3.338582 -1.938961 -3.731787 -0.989681 -3.731787 0 
C -3.731787 0.989681 -3.338582 1.938961 -2.638772 2.638772 
C -1.938961 3.338582 -0.989681 3.731787 0 3.731787 
z
" style="stroke: #000000"/>
    </defs>
    <g clip-path="url(#pa2abd4ca43)">
     <use xlink:href="#m2fe4e78965" x="247.936676" y="338.548208" style="stroke: #000000"/>
    </g>
   </g>
   <g id="PathCollection_32">
    <defs>
     <path id="m1407106396" d="M 0 3.59229 
C 0.952686 3.59229 1.866481 3.213783 2.540132 2.540132 
C 3.213783 1.866481 3.59229 0.952686 3.59229 0 
C 3.59229 -0.952686 3.213783 -1.866481 2.540132 -2.540132 
C 1.866481 -3.213783 0.952686 -3.59229 0 -3.59229 
C -0.952686 -3.59229 -1.866481 -3.213783 -2.540132 -2.540132 
C -3.213783 -1.866481 -3.59229 -0.952686 -3.59229 0 
C -3.59229 0.952686 -3.213783 1.866481 -2.540132 2.540132 
C -1.866481 3.213783 -0.952686 3.59229 0 3.59229 
z
" style="stroke: #000000"/>
    </defs>
    <g clip-path="url(#pa2abd4ca43)">
     <use xlink:href="#m1407106396" x="263.501253" y="338.548208" style="stroke: #000000"/>
    </g>
   </g>
   <g id="PathCollection_33">
    <defs>
     <path id="m4d4aab6824" d="M 0 3.583514 
C 0.950359 3.583514 1.861922 3.205932 2.533927 2.533927 
C 3.205932 1.861922 3.583514 0.950359 3.583514 0 
C 3.583514 -0.950359 3.205932 -1.861922 2.533927 -2.533927 
C 1.861922 -3.205932 0.950359 -3.583514 0 -3.583514 
C -0.950359 -3.583514 -1.861922 -3.205932 -2.533927 -2.533927 
C -3.205932 -1.861922 -3.583514 -0.950359 -3.583514 0 
C -3.583514 0.950359 -3.205932 1.861922 -2.533927 2.533927 
C -1.861922 3.205932 -0.950359 3.583514 0 3.583514 
z
" style="stroke: #000000"/>
    </defs>
    <g clip-path="url(#pa2abd4ca43)">
     <use xlink:href="#m4d4aab6824" x="279.06583" y="338.548208" style="stroke: #000000"/>
    </g>
   </g>
   <g id="PathCollection_34">
    <defs>
     <path id="m67700670ac" d="M 0 3.562908 
C 0.944894 3.562908 1.851215 3.187498 2.519357 2.519357 
C 3.187498 1.851215 3.562908 0.944894 3.562908 0 
C 3.562908 -0.944894 3.187498 -1.851215 2.519357 -2.519357 
C 1.851215 -3.187498 0.944894 -3.562908 0 -3.562908 
C -0.944894 -3.562908 -1.851215 -3.187498 -2.519357 -2.519357 
C -3.187498 -1.851215 -3.562908 -0.944894 -3.562908 0 
C -3.562908 0.944894 -3.187498 1.851215 -2.519357 2.519357 
C -1.851215 3.187498 -0.944894 3.562908 0 3.562908 
z
" style="stroke: #000000"/>
    </defs>
    <g clip-path="url(#pa2abd4ca43)">
     <use xlink:href="#m67700670ac" x="294.630407" y="338.548208" style="stroke: #000000"/>
    </g>
   </g>
   <g id="PathCollection_35">
    <defs>
     <path id="mfe0c37dd96" d="M 0 3.408198 
C 0.903865 3.408198 1.770831 3.049089 2.40996 2.40996 
C 3.049089 1.770831 3.408198 0.903865 3.408198 0 
C 3.408198 -0.903865 3.049089 -1.770831 2.40996 -2.40996 
C 1.770831 -3.049089 0.903865 -3.408198 0 -3.408198 
C -0.903865 -3.408198 -1.770831 -3.049089 -2.40996 -2.40996 
C -3.049089 -1.770831 -3.408198 -0.903865 -3.408198 0 
C -3.408198 0.903865 -3.049089 1.770831 -2.40996 2.40996 
C -1.770831 3.049089 -0.903865 3.408198 0 3.408198 
z
" style="stroke: #000000"/>
    </defs>
    <g clip-path="url(#pa2abd4ca43)">
     <use xlink:href="#mfe0c37dd96" x="310.194983" y="338.548208" style="stroke: #000000"/>
    </g>
   </g>
   <g id="PathCollection_36">
    <defs>
     <path id="m4266beb9e3" d="M 0 3.238615 
C 0.858891 3.238615 1.682719 2.897374 2.290047 2.290047 
C 2.897374 1.682719 3.238615 0.858891 3.238615 0 
C 3.238615 -0.858891 2.897374 -1.682719 2.290047 -2.290047 
C 1.682719 -2.897374 0.858891 -3.238615 0 -3.238615 
C -0.858891 -3.238615 -1.682719 -2.897374 -2.290047 -2.290047 
C -2.897374 -1.682719 -3.238615 -0.858891 -3.238615 0 
C -3.238615 0.858891 -2.897374 1.682719 -2.290047 2.290047 
C -1.682719 2.897374 -0.858891 3.238615 0 3.238615 
z
" style="stroke: #000000"/>
    </defs>
    <g clip-path="url(#pa2abd4ca43)">
     <use xlink:href="#m4266beb9e3" x="325.75956" y="338.548208" style="stroke: #000000"/>
    </g>
   </g>
   <g id="PathCollection_37">
    <defs>
     <path id="mad5db94a99" d="M 0 3.223671 
C 0.854928 3.223671 1.674955 2.884005 2.27948 2.27948 
C 2.884005 1.674955 3.223671 0.854928 3.223671 0 
C 3.223671 -0.854928 2.884005 -1.674955 2.27948 -2.27948 
C 1.674955 -2.884005 0.854928 -3.223671 0 -3.223671 
C -0.854928 -3.223671 -1.674955 -2.884005 -2.27948 -2.27948 
C -2.884005 -1.674955 -3.223671 -0.854928 -3.223671 0 
C -3.223671 0.854928 -2.884005 1.674955 -2.27948 2.27948 
C -1.674955 2.884005 -0.854928 3.223671 0 3.223671 
z
" style="stroke: #000000"/>
    </defs>
    <g clip-path="url(#pa2abd4ca43)">
     <use xlink:href="#mad5db94a99" x="341.324137" y="338.548208" style="stroke: #000000"/>
    </g>
   </g>
   <g id="PathCollection_38">
    <defs>
     <path id="m95331ef85b" d="M 0 3.218638 
C 0.853593 3.218638 1.672339 2.879502 2.275921 2.275921 
C 2.879502 1.672339 3.218638 0.853593 3.218638 0 
C 3.218638 -0.853593 2.879502 -1.672339 2.275921 -2.275921 
C 1.672339 -2.879502 0.853593 -3.218638 0 -3.218638 
C -0.853593 -3.218638 -1.672339 -2.879502 -2.275921 -2.275921 
C -2.879502 -1.672339 -3.218638 -0.853593 -3.218638 0 
C -3.218638 0.853593 -2.879502 1.672339 -2.275921 2.275921 
C -1.672339 2.879502 -0.853593 3.218638 0 3.218638 
z
" style="stroke: #000000"/>
    </defs>
    <g clip-path="url(#pa2abd4ca43)">
     <use xlink:href="#m95331ef85b" x="356.888714" y="338.548208" style="stroke: #000000"/>
    </g>
   </g>
   <g id="PathCollection_39">
    <defs>
     <path id="m2571cfa556" d="M 0 3.203044 
C 0.849457 3.203044 1.664237 2.865551 2.264894 2.264894 
C 2.865551 1.664237 3.203044 0.849457 3.203044 0 
C 3.203044 -0.849457 2.865551 -1.664237 2.264894 -2.264894 
C 1.664237 -2.865551 0.849457 -3.203044 0 -3.203044 
C -0.849457 -3.203044 -1.664237 -2.865551 -2.264894 -2.264894 
C -2.865551 -1.664237 -3.203044 -0.849457 -3.203044 0 
C -3.203044 0.849457 -2.865551 1.664237 -2.264894 2.264894 
C -1.664237 2.865551 -0.849457 3.203044 0 3.203044 
z
" style="stroke: #000000"/>
    </defs>
    <g clip-path="url(#pa2abd4ca43)">
     <use xlink:href="#m2571cfa556" x="372.45329" y="338.548208" style="stroke: #000000"/>
    </g>
   </g>
   <g id="PathCollection_40">
    <defs>
     <path id="m6df514a9c5" d="M 0 3.198078 
C 0.84814 3.198078 1.661657 2.861109 2.261383 2.261383 
C 2.861109 1.661657 3.198078 0.84814 3.198078 0 
C 3.198078 -0.84814 2.861109 -1.661657 2.261383 -2.261383 
C 1.661657 -2.861109 0.84814 -3.198078 0 -3.198078 
C -0.84814 -3.198078 -1.661657 -2.861109 -2.261383 -2.261383 
C -2.861109 -1.661657 -3.198078 -0.84814 -3.198078 0 
C -3.198078 0.84814 -2.861109 1.661657 -2.261383 2.261383 
C -1.661657 2.861109 -0.84814 3.198078 0 3.198078 
z
" style="stroke: #000000"/>
    </defs>
    <g clip-path="url(#pa2abd4ca43)">
     <use xlink:href="#m6df514a9c5" x="388.017867" y="338.548208" style="stroke: #000000"/>
    </g>
   </g>
   <g id="PathCollection_41">
    <defs>
     <path id="m76dc89f055" d="M 0 2.992803 
C 0.793701 2.992803 1.555 2.677463 2.116232 2.116232 
C 2.677463 1.555 2.992803 0.793701 2.992803 0 
C 2.992803 -0.793701 2.677463 -1.555 2.116232 -2.116232 
C 1.555 -2.677463 0.793701 -2.992803 0 -2.992803 
C -0.793701 -2.992803 -1.555 -2.677463 -2.116232 -2.116232 
C -2.677463 -1.555 -2.992803 -0.793701 -2.992803 0 
C -2.992803 0.793701 -2.677463 1.555 -2.116232 2.116232 
C -1.555 2.677463 -0.793701 2.992803 0 2.992803 
z
" style="stroke: #000000"/>
    </defs>
    <g clip-path="url(#pa2abd4ca43)">
     <use xlink:href="#m76dc89f055" x="92.290909" y="353.954104" style="stroke: #000000"/>
    </g>
   </g>
   <g id="PathCollection_42">
    <defs>
     <path id="med0432c72b" d="M 0 2.831546 
C 0.750935 2.831546 1.471214 2.533196 2.002205 2.002205 
C 2.533196 1.471214 2.831546 0.750935 2.831546 0 
C 2.831546 -0.750935 2.533196 -1.471214 2.002205 -2.002205 
C 1.471214 -2.533196 0.750935 -2.831546 0 -2.831546 
C -0.750935 -2.831546 -1.471214 -2.533196 -2.002205 -2.002205 
C -2.533196 -1.471214 -2.831546 -0.750935 -2.831546 0 
C -2.831546 0.750935 -2.533196 1.471214 -2.002205 2.002205 
C -1.471214 2.533196 -0.750935 2.831546 0 2.831546 
z
" style="stroke: #000000"/>
    </defs>
    <g clip-path="url(#pa2abd4ca43)">
     <use xlink:href="#med0432c72b" x="107.855486" y="353.954104" style="stroke: #000000"/>
    </g>
   </g>
   <g id="PathCollection_43">
    <defs>
     <path id="ma0896613da" d="M 0 2.810399 
C 0.745327 2.810399 1.460227 2.514278 1.987252 1.987252 
C 2.514278 1.460227 2.810399 0.745327 2.810399 0 
C 2.810399 -0.745327 2.514278 -1.460227 1.987252 -1.987252 
C 1.460227 -2.514278 0.745327 -2.810399 0 -2.810399 
C -0.745327 -2.810399 -1.460227 -2.514278 -1.987252 -1.987252 
C -2.514278 -1.460227 -2.810399 -0.745327 -2.810399 0 
C -2.810399 0.745327 -2.514278 1.460227 -1.987252 1.987252 
C -1.460227 2.514278 -0.745327 2.810399 0 2.810399 
z
" style="stroke: #000000"/>
    </defs>
    <g clip-path="url(#pa2abd4ca43)">
     <use xlink:href="#ma0896613da" x="123.420063" y="353.954104" style="stroke: #000000"/>
    </g>
   </g>
   <g id="PathCollection_44">
    <defs>
     <path id="m828f4f0b78" d="M 0 2.786794 
C 0.739066 2.786794 1.447962 2.49316 1.970561 1.970561 
C 2.49316 1.447962 2.786794 0.739066 2.786794 0 
C 2.786794 -0.739066 2.49316 -1.447962 1.970561 -1.970561 
C 1.447962 -2.49316 0.739066 -2.786794 0 -2.786794 
C -0.739066 -2.786794 -1.447962 -2.49316 -1.970561 -1.970561 
C -2.49316 -1.447962 -2.786794 -0.739066 -2.786794 0 
C -2.786794 0.739066 -2.49316 1.447962 -1.970561 1.970561 
C -1.447962 2.49316 -0.739066 2.786794 0 2.786794 
z
" style="stroke: #000000"/>
    </defs>
    <g clip-path="url(#pa2abd4ca43)">
     <use xlink:href="#m828f4f0b78" x="138.984639" y="353.954104" style="stroke: #000000"/>
    </g>
   </g>
   <g id="PathCollection_45">
    <defs>
     <path id="mbe70a0d52c" d="M 0 2.786729 
C 0.739049 2.786729 1.447928 2.493102 1.970515 1.970515 
C 2.493102 1.447928 2.786729 0.739049 2.786729 0 
C 2.786729 -0.739049 2.493102 -1.447928 1.970515 -1.970515 
C 1.447928 -2.493102 0.739049 -2.786729 0 -2.786729 
C -0.739049 -2.786729 -1.447928 -2.493102 -1.970515 -1.970515 
C -2.493102 -1.447928 -2.786729 -0.739049 -2.786729 0 
C -2.786729 0.739049 -2.493102 1.447928 -1.970515 1.970515 
C -1.447928 2.493102 -0.739049 2.786729 0 2.786729 
z
" style="stroke: #000000"/>
    </defs>
    <g clip-path="url(#pa2abd4ca43)">
     <use xlink:href="#mbe70a0d52c" x="154.549216" y="353.954104" style="stroke: #000000"/>
    </g>
   </g>
   <g id="PathCollection_46">
    <defs>
     <path id="m2cc000c868" d="M 0 2.763532 
C 0.732897 2.763532 1.435876 2.472349 1.954112 1.954112 
C 2.472349 1.435876 2.763532 0.732897 2.763532 0 
C 2.763532 -0.732897 2.472349 -1.435876 1.954112 -1.954112 
C 1.435876 -2.472349 0.732897 -2.763532 0 -2.763532 
C -0.732897 -2.763532 -1.435876 -2.472349 -1.954112 -1.954112 
C -2.472349 -1.435876 -2.763532 -0.732897 -2.763532 0 
C -2.763532 0.732897 -2.472349 1.435876 -1.954112 1.954112 
C -1.435876 2.472349 -0.732897 2.763532 0 2.763532 
z
" style="stroke: #000000"/>
    </defs>
    <g clip-path="url(#pa2abd4ca43)">
     <use xlink:href="#m2cc000c868" x="170.113793" y="353.954104" style="stroke: #000000"/>
    </g>
   </g>
   <g id="PathCollection_47">
    <defs>
     <path id="m366df58ea2" d="M 0 2.567248 
C 0.680842 2.567248 1.33389 2.296747 1.815319 1.815319 
C 2.296747 1.33389 2.567248 0.680842 2.567248 0 
C 2.567248 -0.680842 2.296747 -1.33389 1.815319 -1.815319 
C 1.33389 -2.296747 0.680842 -2.567248 0 -2.567248 
C -0.680842 -2.567248 -1.33389 -2.296747 -1.815319 -1.815319 
C -2.296747 -1.33389 -2.567248 -0.680842 -2.567248 0 
C -2.567248 0.680842 -2.296747 1.33389 -1.815319 1.815319 
C -1.33389 2.296747 -0.680842 2.567248 0 2.567248 
z
" style="stroke: #000000"/>
    </defs>
    <g clip-path="url(#pa2abd4ca43)">
     <use xlink:href="#m366df58ea2" x="185.678369" y="353.954104" style="stroke: #000000"/>
    </g>
   </g>
   <g id="PathCollection_48">
    <defs>
     <path id="ma8b3793214" d="M 0 2.566029 
C 0.680519 2.566029 1.333257 2.295656 1.814457 1.814457 
C 2.295656 1.333257 2.566029 0.680519 2.566029 0 
C 2.566029 -0.680519 2.295656 -1.333257 1.814457 -1.814457 
C 1.333257 -2.295656 0.680519 -2.566029 0 -2.566029 
C -0.680519 -2.566029 -1.333257 -2.295656 -1.814457 -1.814457 
C -2.295656 -1.333257 -2.566029 -0.680519 -2.566029 0 
C -2.566029 0.680519 -2.295656 1.333257 -1.814457 1.814457 
C -1.333257 2.295656 -0.680519 2.566029 0 2.566029 
z
" style="stroke: #000000"/>
    </defs>
    <g clip-path="url(#pa2abd4ca43)">
     <use xlink:href="#ma8b3793214" x="201.242946" y="353.954104" style="stroke: #000000"/>
    </g>
   </g>
   <g id="PathCollection_49">
    <defs>
     <path id="m737919bde3" d="M 0 2.560886 
C 0.679155 2.560886 1.330585 2.291055 1.81082 1.81082 
C 2.291055 1.330585 2.560886 0.679155 2.560886 0 
C 2.560886 -0.679155 2.291055 -1.330585 1.81082 -1.81082 
C 1.330585 -2.291055 0.679155 -2.560886 0 -2.560886 
C -0.679155 -2.560886 -1.330585 -2.291055 -1.81082 -1.81082 
C -2.291055 -1.330585 -2.560886 -0.679155 -2.560886 0 
C -2.560886 0.679155 -2.291055 1.330585 -1.81082 1.81082 
C -1.330585 2.291055 -0.679155 2.560886 0 2.560886 
z
" style="stroke: #000000"/>
    </defs>
    <g clip-path="url(#pa2abd4ca43)">
     <use xlink:href="#m737919bde3" x="216.807523" y="353.954104" style="stroke: #000000"/>
    </g>
   </g>
   <g id="PathCollection_50">
    <defs>
     <path id="mbd023ae6f9" d="M 0 2.523424 
C 0.66922 2.523424 1.311121 2.257541 1.784331 1.784331 
C 2.257541 1.311121 2.523424 0.66922 2.523424 0 
C 2.523424 -0.66922 2.257541 -1.311121 1.784331 -1.784331 
C 1.311121 -2.257541 0.66922 -2.523424 0 -2.523424 
C -0.66922 -2.523424 -1.311121 -2.257541 -1.784331 -1.784331 
C -2.257541 -1.311121 -2.523424 -0.66922 -2.523424 0 
C -2.523424 0.66922 -2.257541 1.311121 -1.784331 1.784331 
C -1.311121 2.257541 -0.66922 2.523424 0 2.523424 
z
" style="stroke: #000000"/>
    </defs>
    <g clip-path="url(#pa2abd4ca43)">
     <use xlink:href="#mbd023ae6f9" x="232.3721" y="353.954104" style="stroke: #000000"/>
    </g>
   </g>
   <g id="PathCollection_51">
    <defs>
     <path id="m7a3410d828" d="M 0 2.314505 
C 0.613814 2.314505 1.20257 2.070634 1.636602 1.636602 
C 2.070634 1.20257 2.314505 0.613814 2.314505 0 
C 2.314505 -0.613814 2.070634 -1.20257 1.636602 -1.636602 
C 1.20257 -2.070634 0.613814 -2.314505 0 -2.314505 
C -0.613814 -2.314505 -1.20257 -2.070634 -1.636602 -1.636602 
C -2.070634 -1.20257 -2.314505 -0.613814 -2.314505 0 
C -2.314505 0.613814 -2.070634 1.20257 -1.636602 1.636602 
C -1.20257 2.070634 -0.613814 2.314505 0 2.314505 
z
" style="stroke: #000000"/>
    </defs>
    <g clip-path="url(#pa2abd4ca43)">
     <use xlink:href="#m7a3410d828" x="247.936676" y="353.954104" style="stroke: #000000"/>
    </g>
   </g>
   <g id="PathCollection_52">
    <defs>
     <path id="mb52123eba2" d="M 0 2.291365 
C 0.607677 2.291365 1.190547 2.049932 1.62024 1.62024 
C 2.049932 1.190547 2.291365 0.607677 2.291365 0 
C 2.291365 -0.607677 2.049932 -1.190547 1.62024 -1.62024 
C 1.190547 -2.049932 0.607677 -2.291365 0 -2.291365 
C -0.607677 -2.291365 -1.190547 -2.049932 -1.62024 -1.62024 
C -2.049932 -1.190547 -2.291365 -0.607677 -2.291365 0 
C -2.291365 0.607677 -2.049932 1.190547 -1.62024 1.62024 
C -1.190547 2.049932 -0.607677 2.291365 0 2.291365 
z
" style="stroke: #000000"/>
    </defs>
    <g clip-path="url(#pa2abd4ca43)">
     <use xlink:href="#mb52123eba2" x="263.501253" y="353.954104" style="stroke: #000000"/>
    </g>
   </g>
   <g id="PathCollection_53">
    <defs>
     <path id="m02255885ab" d="M 0 1.800335 
C 0.477455 1.800335 0.935418 1.610641 1.273029 1.273029 
C 1.610641 0.935418 1.800335 0.477455 1.800335 0 
C 1.800335 -0.477455 1.610641 -0.935418 1.273029 -1.273029 
C 0.935418 -1.610641 0.477455 -1.800335 0 -1.800335 
C -0.477455 -1.800335 -0.935418 -1.610641 -1.273029 -1.273029 
C -1.610641 -0.935418 -1.800335 -0.477455 -1.800335 0 
C -1.800335 0.477455 -1.610641 0.935418 -1.273029 1.273029 
C -0.935418 1.610641 -0.477455 1.800335 0 1.800335 
z
" style="stroke: #000000"/>
    </defs>
    <g clip-path="url(#pa2abd4ca43)">
     <use xlink:href="#m02255885ab" x="279.06583" y="353.954104" style="stroke: #000000"/>
    </g>
   </g>
   <g id="PathCollection_54">
    <defs>
     <path id="m56956fc896" d="M 0 1.694963 
C 0.449509 1.694963 0.880669 1.516371 1.19852 1.19852 
C 1.516371 0.880669 1.694963 0.449509 1.694963 0 
C 1.694963 -0.449509 1.516371 -0.880669 1.19852 -1.19852 
C 0.880669 -1.516371 0.449509 -1.694963 0 -1.694963 
C -0.449509 -1.694963 -0.880669 -1.516371 -1.19852 -1.19852 
C -1.516371 -0.880669 -1.694963 -0.449509 -1.694963 0 
C -1.694963 0.449509 -1.516371 0.880669 -1.19852 1.19852 
C -0.880669 1.516371 -0.449509 1.694963 0 1.694963 
z
" style="stroke: #000000"/>
    </defs>
    <g clip-path="url(#pa2abd4ca43)">
     <use xlink:href="#m56956fc896" x="294.630407" y="353.954104" style="stroke: #000000"/>
    </g>
   </g>
   <g id="PathCollection_55">
    <defs>
     <path id="m947b204b82" d="M 0 1.642866 
C 0.435693 1.642866 0.8536 1.469763 1.161681 1.161681 
C 1.469763 0.8536 1.642866 0.435693 1.642866 0 
C 1.642866 -0.435693 1.469763 -0.8536 1.161681 -1.161681 
C 0.8536 -1.469763 0.435693 -1.642866 0 -1.642866 
C -0.435693 -1.642866 -0.8536 -1.469763 -1.161681 -1.161681 
C -1.469763 -0.8536 -1.642866 -0.435693 -1.642866 0 
C -1.642866 0.435693 -1.469763 0.8536 -1.161681 1.161681 
C -0.8536 1.469763 -0.435693 1.642866 0 1.642866 
z
" style="stroke: #000000"/>
    </defs>
    <g clip-path="url(#pa2abd4ca43)">
     <use xlink:href="#m947b204b82" x="310.194983" y="353.954104" style="stroke: #000000"/>
    </g>
   </g>
   <g id="PathCollection_56">
    <defs>
     <path id="m39f1e2ab9b" d="M 0 1.633016 
C 0.433081 1.633016 0.848482 1.460951 1.154717 1.154717 
C 1.460951 0.848482 1.633016 0.433081 1.633016 0 
C 1.633016 -0.433081 1.460951 -0.848482 1.154717 -1.154717 
C 0.848482 -1.460951 0.433081 -1.633016 0 -1.633016 
C -0.433081 -1.633016 -0.848482 -1.460951 -1.154717 -1.154717 
C -1.460951 -0.848482 -1.633016 -0.433081 -1.633016 0 
C -1.633016 0.433081 -1.460951 0.848482 -1.154717 1.154717 
C -0.848482 1.460951 -0.433081 1.633016 0 1.633016 
z
" style="stroke: #000000"/>
    </defs>
    <g clip-path="url(#pa2abd4ca43)">
     <use xlink:href="#m39f1e2ab9b" x="325.75956" y="353.954104" style="stroke: #000000"/>
    </g>
   </g>
   <g id="PathCollection_57">
    <defs>
     <path id="md5c62def2c" d="M 0 1.631853 
C 0.432772 1.631853 0.847878 1.459911 1.153894 1.153894 
C 1.459911 0.847878 1.631853 0.432772 1.631853 0 
C 1.631853 -0.432772 1.459911 -0.847878 1.153894 -1.153894 
C 0.847878 -1.459911 0.432772 -1.631853 0 -1.631853 
C -0.432772 -1.631853 -0.847878 -1.459911 -1.153894 -1.153894 
C -1.459911 -0.847878 -1.631853 -0.432772 -1.631853 0 
C -1.631853 0.432772 -1.459911 0.847878 -1.153894 1.153894 
C -0.847878 1.459911 -0.432772 1.631853 0 1.631853 
z
" style="stroke: #000000"/>
    </defs>
    <g clip-path="url(#pa2abd4ca43)">
     <use xlink:href="#md5c62def2c" x="341.324137" y="353.954104" style="stroke: #000000"/>
    </g>
   </g>
   <g id="PathCollection_58">
    <defs>
     <path id="m1b974f9420" d="M 0 1.629877 
C 0.432248 1.629877 0.846851 1.458143 1.152497 1.152497 
C 1.458143 0.846851 1.629877 0.432248 1.629877 0 
C 1.629877 -0.432248 1.458143 -0.846851 1.152497 -1.152497 
C 0.846851 -1.458143 0.432248 -1.629877 0 -1.629877 
C -0.432248 -1.629877 -0.846851 -1.458143 -1.152497 -1.152497 
C -1.458143 -0.846851 -1.629877 -0.432248 -1.629877 0 
C -1.629877 0.432248 -1.458143 0.846851 -1.152497 1.152497 
C -0.846851 1.458143 -0.432248 1.629877 0 1.629877 
z
" style="stroke: #000000"/>
    </defs>
    <g clip-path="url(#pa2abd4ca43)">
     <use xlink:href="#m1b974f9420" x="356.888714" y="353.954104" style="stroke: #000000"/>
    </g>
   </g>
   <g id="PathCollection_59">
    <defs>
     <path id="m88351d3c42" d="M 0 1.618145 
C 0.429137 1.618145 0.840755 1.447647 1.144201 1.144201 
C 1.447647 0.840755 1.618145 0.429137 1.618145 0 
C 1.618145 -0.429137 1.447647 -0.840755 1.144201 -1.144201 
C 0.840755 -1.447647 0.429137 -1.618145 0 -1.618145 
C -0.429137 -1.618145 -0.840755 -1.447647 -1.144201 -1.144201 
C -1.447647 -0.840755 -1.618145 -0.429137 -1.618145 0 
C -1.618145 0.429137 -1.447647 0.840755 -1.144201 1.144201 
C -0.840755 1.447647 -0.429137 1.618145 0 1.618145 
z
" style="stroke: #000000"/>
    </defs>
    <g clip-path="url(#pa2abd4ca43)">
     <use xlink:href="#m88351d3c42" x="372.45329" y="353.954104" style="stroke: #000000"/>
    </g>
   </g>
   <g id="PathCollection_60">
    <defs>
     <path id="m9c44646cf8" d="M 0 1.282473 
C 0.340116 1.282473 0.666347 1.147344 0.906845 0.906845 
C 1.147344 0.666347 1.282473 0.340116 1.282473 0 
C 1.282473 -0.340116 1.147344 -0.666347 0.906845 -0.906845 
C 0.666347 -1.147344 0.340116 -1.282473 0 -1.282473 
C -0.340116 -1.282473 -0.666347 -1.147344 -0.906845 -0.906845 
C -1.147344 -0.666347 -1.282473 -0.340116 -1.282473 0 
C -1.282473 0.340116 -1.147344 0.666347 -0.906845 0.906845 
C -0.666347 1.147344 -0.340116 1.282473 0 1.282473 
z
" style="stroke: #000000"/>
    </defs>
    <g clip-path="url(#pa2abd4ca43)">
     <use xlink:href="#m9c44646cf8" x="388.017867" y="353.954104" style="stroke: #000000"/>
    </g>
   </g>
   <g id="PathCollection_61">
    <defs>
     <path id="mcf473169b6" d="M 0 1.280869 
C 0.33969 1.280869 0.665514 1.145908 0.905711 0.905711 
C 1.145908 0.665514 1.280869 0.33969 1.280869 0 
C 1.280869 -0.33969 1.145908 -0.665514 0.905711 -0.905711 
C 0.665514 -1.145908 0.33969 -1.280869 0 -1.280869 
C -0.33969 -1.280869 -0.665514 -1.145908 -0.905711 -0.905711 
C -1.145908 -0.665514 -1.280869 -0.33969 -1.280869 0 
C -1.280869 0.33969 -1.145908 0.665514 -0.905711 0.905711 
C -0.665514 1.145908 -0.33969 1.280869 0 1.280869 
z
" style="stroke: #000000"/>
    </defs>
    <g clip-path="url(#pa2abd4ca43)">
     <use xlink:href="#mcf473169b6" x="92.290909" y="369.36" style="stroke: #000000"/>
    </g>
   </g>
   <g id="PathCollection_62">
    <defs>
     <path id="m602c340164" d="M 0 1.237295 
C 0.328134 1.237295 0.642874 1.106926 0.8749 0.8749 
C 1.106926 0.642874 1.237295 0.328134 1.237295 0 
C 1.237295 -0.328134 1.106926 -0.642874 0.8749 -0.8749 
C 0.642874 -1.106926 0.328134 -1.237295 0 -1.237295 
C -0.328134 -1.237295 -0.642874 -1.106926 -0.8749 -0.8749 
C -1.106926 -0.642874 -1.237295 -0.328134 -1.237295 0 
C -1.237295 0.328134 -1.106926 0.642874 -0.8749 0.8749 
C -0.642874 1.106926 -0.328134 1.237295 0 1.237295 
z
" style="stroke: #000000"/>
    </defs>
    <g clip-path="url(#pa2abd4ca43)">
     <use xlink:href="#m602c340164" x="107.855486" y="369.36" style="stroke: #000000"/>
    </g>
   </g>
   <g id="PathCollection_63">
    <defs>
     <path id="m06f1a1a94d" d="M 0 1.210585 
C 0.321051 1.210585 0.628996 1.083031 0.856013 0.856013 
C 1.083031 0.628996 1.210585 0.321051 1.210585 0 
C 1.210585 -0.321051 1.083031 -0.628996 0.856013 -0.856013 
C 0.628996 -1.083031 0.321051 -1.210585 0 -1.210585 
C -0.321051 -1.210585 -0.628996 -1.083031 -0.856013 -0.856013 
C -1.083031 -0.628996 -1.210585 -0.321051 -1.210585 0 
C -1.210585 0.321051 -1.083031 0.628996 -0.856013 0.856013 
C -0.628996 1.083031 -0.321051 1.210585 0 1.210585 
z
" style="stroke: #000000"/>
    </defs>
    <g clip-path="url(#pa2abd4ca43)">
     <use xlink:href="#m06f1a1a94d" x="123.420063" y="369.36" style="stroke: #000000"/>
    </g>
   </g>
   <g id="PathCollection_64">
    <defs>
     <path id="m1eea478fab" d="M 0 1.207615 
C 0.320263 1.207615 0.627452 1.080373 0.853913 0.853913 
C 1.080373 0.627452 1.207615 0.320263 1.207615 0 
C 1.207615 -0.320263 1.080373 -0.627452 0.853913 -0.853913 
C 0.627452 -1.080373 0.320263 -1.207615 0 -1.207615 
C -0.320263 -1.207615 -0.627452 -1.080373 -0.853913 -0.853913 
C -1.080373 -0.627452 -1.207615 -0.320263 -1.207615 0 
C -1.207615 0.320263 -1.080373 0.627452 -0.853913 0.853913 
C -0.627452 1.080373 -0.320263 1.207615 0 1.207615 
z
" style="stroke: #000000"/>
    </defs>
    <g clip-path="url(#pa2abd4ca43)">
     <use xlink:href="#m1eea478fab" x="138.984639" y="369.36" style="stroke: #000000"/>
    </g>
   </g>
   <g id="PathCollection_65">
    <defs>
     <path id="m0f54cbde4a" d="M 0 1.194875 
C 0.316884 1.194875 0.620833 1.068975 0.844904 0.844904 
C 1.068975 0.620833 1.194875 0.316884 1.194875 0 
C 1.194875 -0.316884 1.068975 -0.620833 0.844904 -0.844904 
C 0.620833 -1.068975 0.316884 -1.194875 0 -1.194875 
C -0.316884 -1.194875 -0.620833 -1.068975 -0.844904 -0.844904 
C -1.068975 -0.620833 -1.194875 -0.316884 -1.194875 0 
C -1.194875 0.316884 -1.068975 0.620833 -0.844904 0.844904 
C -0.620833 1.068975 -0.316884 1.194875 0 1.194875 
z
" style="stroke: #000000"/>
    </defs>
    <g clip-path="url(#pa2abd4ca43)">
     <use xlink:href="#m0f54cbde4a" x="154.549216" y="369.36" style="stroke: #000000"/>
    </g>
   </g>
   <g id="PathCollection_66">
    <defs>
     <path id="mf27de7e5a4" d="M 0 1.17105 
C 0.310566 1.17105 0.608454 1.047661 0.828058 0.828058 
C 1.047661 0.608454 1.17105 0.310566 1.17105 0 
C 1.17105 -0.310566 1.047661 -0.608454 0.828058 -0.828058 
C 0.608454 -1.047661 0.310566 -1.17105 0 -1.17105 
C -0.310566 -1.17105 -0.608454 -1.047661 -0.828058 -0.828058 
C -1.047661 -0.608454 -1.17105 -0.310566 -1.17105 0 
C -1.17105 0.310566 -1.047661 0.608454 -0.828058 0.828058 
C -0.608454 1.047661 -0.310566 1.17105 0 1.17105 
z
" style="stroke: #000000"/>
    </defs>
    <g clip-path="url(#pa2abd4ca43)">
     <use xlink:href="#mf27de7e5a4" x="170.113793" y="369.36" style="stroke: #000000"/>
    </g>
   </g>
   <g id="PathCollection_67">
    <defs>
     <path id="mc9be199ab4" d="M 0 1.164063 
C 0.308713 1.164063 0.604824 1.04141 0.823117 0.823117 
C 1.04141 0.604824 1.164063 0.308713 1.164063 0 
C 1.164063 -0.308713 1.04141 -0.604824 0.823117 -0.823117 
C 0.604824 -1.04141 0.308713 -1.164063 0 -1.164063 
C -0.308713 -1.164063 -0.604824 -1.04141 -0.823117 -0.823117 
C -1.04141 -0.604824 -1.164063 -0.308713 -1.164063 0 
C -1.164063 0.308713 -1.04141 0.604824 -0.823117 0.823117 
C -0.604824 1.04141 -0.308713 1.164063 0 1.164063 
z
" style="stroke: #000000"/>
    </defs>
    <g clip-path="url(#pa2abd4ca43)">
     <use xlink:href="#mc9be199ab4" x="185.678369" y="369.36" style="stroke: #000000"/>
    </g>
   </g>
   <g id="PathCollection_68">
    <path d="M 242.250343 148.133313 
C 243.956356 148.133313 245.592724 147.455507 246.799057 146.249174 
C 248.005391 145.042841 248.683197 143.406473 248.683197 141.70046 
C 248.683197 139.994447 248.005391 138.358079 246.799057 137.151746 
C 245.592724 135.945412 243.956356 135.267606 242.250343 135.267606 
C 240.54433 135.267606 238.907962 135.945412 237.701629 137.151746 
C 236.495295 138.358079 235.817489 139.994447 235.817489 141.70046 
C 235.817489 143.406473 236.495295 145.042841 237.701629 146.249174 
C 238.907962 147.455507 240.54433 148.133313 242.250343 148.133313 
z
" clip-path="url(#pa2abd4ca43)" style="fill: #808080; stroke: #808080"/>
    <path d="M 371.531191 115.364576 
C 373.172975 115.364576 374.747737 114.712288 375.908654 113.551372 
C 377.069571 112.390455 377.721858 110.815693 377.721858 109.173909 
C 377.721858 107.532125 377.069571 105.957363 375.908654 104.796446 
C 374.747737 103.63553 373.172975 102.983242 371.531191 102.983242 
C 369.889407 102.983242 368.314645 103.63553 367.153729 104.796446 
C 365.992812 105.957363 365.340524 107.532125 365.340524 109.173909 
C 365.340524 110.815693 365.992812 112.390455 367.153729 113.551372 
C 368.314645 114.712288 369.889407 115.364576 371.531191 115.364576 
z
" clip-path="url(#pa2abd4ca43)" style="fill: #808080; stroke: #808080"/>
    <path d="M 191.723671 251.648727 
C 193.484354 251.648727 195.173161 250.949201 196.418152 249.70421 
C 197.663143 248.459219 198.36267 246.770412 198.36267 245.009729 
C 198.36267 243.249046 197.663143 241.560239 196.418152 240.315248 
C 195.173161 239.070257 193.484354 238.370731 191.723671 238.370731 
C 189.962988 238.370731 188.274181 239.070257 187.02919 240.315248 
C 185.7842 241.560239 185.084673 243.249046 185.084673 245.009729 
C 185.084673 246.770412 185.7842 248.459219 187.02919 249.70421 
C 188.274181 250.949201 189.962988 251.648727 191.723671 251.648727 
z
" clip-path="url(#pa2abd4ca43)" style="fill: #808080; stroke: #808080"/>
    <path d="M 147.330058 81.720291 
C 148.995993 81.720291 150.59392 81.058408 151.771914 79.880414 
C 152.949907 78.70242 153.61179 77.104493 153.61179 75.438559 
C 153.61179 73.772624 152.949907 72.174697 151.771914 70.996703 
C 150.59392 69.818709 148.995993 69.156826 147.330058 69.156826 
C 145.664124 69.156826 144.066197 69.818709 142.888203 70.996703 
C 141.710209 72.174697 141.048326 73.772624 141.048326 75.438559 
C 141.048326 77.104493 141.710209 78.70242 142.888203 79.880414 
C 144.066197 81.058408 145.664124 81.720291 147.330058 81.720291 
z
" clip-path="url(#pa2abd4ca43)" style="fill: #808080; stroke: #808080"/>
    <path d="M 481.405327 87.986006 
C 483.120029 87.986006 484.764731 87.304747 485.977209 86.09227 
C 487.189686 84.879793 487.870944 83.235091 487.870944 81.520389 
C 487.870944 79.805688 487.189686 78.160985 485.977209 76.948508 
C 484.764731 75.736031 483.120029 75.054773 481.405327 75.054773 
C 479.690626 75.054773 478.045923 75.736031 476.833446 76.948508 
C 475.620969 78.160985 474.939711 79.805688 474.939711 81.520389 
C 474.939711 83.235091 475.620969 84.879793 476.833446 86.09227 
C 478.045923 87.304747 479.690626 87.986006 481.405327 87.986006 
z
" clip-path="url(#pa2abd4ca43)" style="fill: #808080; stroke: #808080"/>
   </g>
   <g id="text_1">
    <g clip-path="url(#pa2abd4ca43)">
     <!-- Car semp -->
     <g transform="translate(227.894874 143.356085) scale(0.06 -0.06)">
      <defs>
       <path id="DejaVuSans-43" d="M 4122 4306 
L 4122 3641 
Q 3803 3938 3442 4084 
Q 3081 4231 2675 4231 
Q 1875 4231 1450 3742 
Q 1025 3253 1025 2328 
Q 1025 1406 1450 917 
Q 1875 428 2675 428 
Q 3081 428 3442 575 
Q 3803 722 4122 1019 
L 4122 359 
Q 3791 134 3420 21 
Q 3050 -91 2638 -91 
Q 1578 -91 968 557 
Q 359 1206 359 2328 
Q 359 3453 968 4101 
Q 1578 4750 2638 4750 
Q 3056 4750 3426 4639 
Q 3797 4528 4122 4306 
z
" transform="scale(0.015625)"/>
       <path id="DejaVuSans-61" d="M 2194 1759 
Q 1497 1759 1228 1600 
Q 959 1441 959 1056 
Q 959 750 1161 570 
Q 1363 391 1709 391 
Q 2188 391 2477 730 
Q 2766 1069 2766 1631 
L 2766 1759 
L 2194 1759 
z
M 3341 1997 
L 3341 0 
L 2766 0 
L 2766 531 
Q 2569 213 2275 61 
Q 1981 -91 1556 -91 
Q 1019 -91 701 211 
Q 384 513 384 1019 
Q 384 1609 779 1909 
Q 1175 2209 1959 2209 
L 2766 2209 
L 2766 2266 
Q 2766 2663 2505 2880 
Q 2244 3097 1772 3097 
Q 1472 3097 1187 3025 
Q 903 2953 641 2809 
L 641 3341 
Q 956 3463 1253 3523 
Q 1550 3584 1831 3584 
Q 2591 3584 2966 3190 
Q 3341 2797 3341 1997 
z
" transform="scale(0.015625)"/>
       <path id="DejaVuSans-72" d="M 2631 2963 
Q 2534 3019 2420 3045 
Q 2306 3072 2169 3072 
Q 1681 3072 1420 2755 
Q 1159 2438 1159 1844 
L 1159 0 
L 581 0 
L 581 3500 
L 1159 3500 
L 1159 2956 
Q 1341 3275 1631 3429 
Q 1922 3584 2338 3584 
Q 2397 3584 2469 3576 
Q 2541 3569 2628 3553 
L 2631 2963 
z
" transform="scale(0.015625)"/>
       <path id="DejaVuSans-20" transform="scale(0.015625)"/>
       <path id="DejaVuSans-73" d="M 2834 3397 
L 2834 2853 
Q 2591 2978 2328 3040 
Q 2066 3103 1784 3103 
Q 1356 3103 1142 2972 
Q 928 2841 928 2578 
Q 928 2378 1081 2264 
Q 1234 2150 1697 2047 
L 1894 2003 
Q 2506 1872 2764 1633 
Q 3022 1394 3022 966 
Q 3022 478 2636 193 
Q 2250 -91 1575 -91 
Q 1294 -91 989 -36 
Q 684 19 347 128 
L 347 722 
Q 666 556 975 473 
Q 1284 391 1588 391 
Q 1994 391 2212 530 
Q 2431 669 2431 922 
Q 2431 1156 2273 1281 
Q 2116 1406 1581 1522 
L 1381 1569 
Q 847 1681 609 1914 
Q 372 2147 372 2553 
Q 372 3047 722 3315 
Q 1072 3584 1716 3584 
Q 2034 3584 2315 3537 
Q 2597 3491 2834 3397 
z
" transform="scale(0.015625)"/>
       <path id="DejaVuSans-65" d="M 3597 1894 
L 3597 1613 
L 953 1613 
Q 991 1019 1311 708 
Q 1631 397 2203 397 
Q 2534 397 2845 478 
Q 3156 559 3463 722 
L 3463 178 
Q 3153 47 2828 -22 
Q 2503 -91 2169 -91 
Q 1331 -91 842 396 
Q 353 884 353 1716 
Q 353 2575 817 3079 
Q 1281 3584 2069 3584 
Q 2775 3584 3186 3129 
Q 3597 2675 3597 1894 
z
M 3022 2063 
Q 3016 2534 2758 2815 
Q 2500 3097 2075 3097 
Q 1594 3097 1305 2825 
Q 1016 2553 972 2059 
L 3022 2063 
z
" transform="scale(0.015625)"/>
       <path id="DejaVuSans-6d" d="M 3328 2828 
Q 3544 3216 3844 3400 
Q 4144 3584 4550 3584 
Q 5097 3584 5394 3201 
Q 5691 2819 5691 2113 
L 5691 0 
L 5113 0 
L 5113 2094 
Q 5113 2597 4934 2840 
Q 4756 3084 4391 3084 
Q 3944 3084 3684 2787 
Q 3425 2491 3425 1978 
L 3425 0 
L 2847 0 
L 2847 2094 
Q 2847 2600 2669 2842 
Q 2491 3084 2119 3084 
Q 1678 3084 1418 2786 
Q 1159 2488 1159 1978 
L 1159 0 
L 581 0 
L 581 3500 
L 1159 3500 
L 1159 2956 
Q 1356 3278 1631 3431 
Q 1906 3584 2284 3584 
Q 2666 3584 2933 3390 
Q 3200 3197 3328 2828 
z
" transform="scale(0.015625)"/>
       <path id="DejaVuSans-70" d="M 1159 525 
L 1159 -1331 
L 581 -1331 
L 581 3500 
L 1159 3500 
L 1159 2969 
Q 1341 3281 1617 3432 
Q 1894 3584 2278 3584 
Q 2916 3584 3314 3078 
Q 3713 2572 3713 1747 
Q 3713 922 3314 415 
Q 2916 -91 2278 -91 
Q 1894 -91 1617 61 
Q 1341 213 1159 525 
z
M 3116 1747 
Q 3116 2381 2855 2742 
Q 2594 3103 2138 3103 
Q 1681 3103 1420 2742 
Q 1159 2381 1159 1747 
Q 1159 1113 1420 752 
Q 1681 391 2138 391 
Q 2594 391 2855 752 
Q 3116 1113 3116 1747 
z
" transform="scale(0.015625)"/>
      </defs>
      <use xlink:href="#DejaVuSans-43"/>
      <use xlink:href="#DejaVuSans-61" transform="translate(69.824219 0)"/>
      <use xlink:href="#DejaVuSans-72" transform="translate(131.103516 0)"/>
      <use xlink:href="#DejaVuSans-20" transform="translate(172.216797 0)"/>
      <use xlink:href="#DejaVuSans-73" transform="translate(204.003906 0)"/>
      <use xlink:href="#DejaVuSans-65" transform="translate(256.103516 0)"/>
      <use xlink:href="#DejaVuSans-6d" transform="translate(317.626953 0)"/>
      <use xlink:href="#DejaVuSans-70" transform="translate(415.039062 0)"/>
     </g>
    </g>
   </g>
   <g id="text_2">
    <g clip-path="url(#pa2abd4ca43)">
     <!-- Fes laev -->
     <g transform="translate(359.315098 110.829534) scale(0.06 -0.06)">
      <defs>
       <path id="DejaVuSans-46" d="M 628 4666 
L 3309 4666 
L 3309 4134 
L 1259 4134 
L 1259 2759 
L 3109 2759 
L 3109 2228 
L 1259 2228 
L 1259 0 
L 628 0 
L 628 4666 
z
" transform="scale(0.015625)"/>
       <path id="DejaVuSans-6c" d="M 603 4863 
L 1178 4863 
L 1178 0 
L 603 0 
L 603 4863 
z
" transform="scale(0.015625)"/>
       <path id="DejaVuSans-76" d="M 191 3500 
L 800 3500 
L 1894 563 
L 2988 3500 
L 3597 3500 
L 2284 0 
L 1503 0 
L 191 3500 
z
" transform="scale(0.015625)"/>
      </defs>
      <use xlink:href="#DejaVuSans-46"/>
      <use xlink:href="#DejaVuSans-65" transform="translate(52.019531 0)"/>
      <use xlink:href="#DejaVuSans-73" transform="translate(113.542969 0)"/>
      <use xlink:href="#DejaVuSans-20" transform="translate(165.642578 0)"/>
      <use xlink:href="#DejaVuSans-6c" transform="translate(197.429688 0)"/>
      <use xlink:href="#DejaVuSans-61" transform="translate(225.212891 0)"/>
      <use xlink:href="#DejaVuSans-65" transform="translate(286.492188 0)"/>
      <use xlink:href="#DejaVuSans-76" transform="translate(348.015625 0)"/>
     </g>
    </g>
   </g>
   <g id="text_3">
    <g clip-path="url(#pa2abd4ca43)">
     <!-- Pat pani -->
     <g transform="translate(179.60414 246.665354) scale(0.06 -0.06)">
      <defs>
       <path id="DejaVuSans-50" d="M 1259 4147 
L 1259 2394 
L 2053 2394 
Q 2494 2394 2734 2622 
Q 2975 2850 2975 3272 
Q 2975 3691 2734 3919 
Q 2494 4147 2053 4147 
L 1259 4147 
z
M 628 4666 
L 2053 4666 
Q 2838 4666 3239 4311 
Q 3641 3956 3641 3272 
Q 3641 2581 3239 2228 
Q 2838 1875 2053 1875 
L 1259 1875 
L 1259 0 
L 628 0 
L 628 4666 
z
" transform="scale(0.015625)"/>
       <path id="DejaVuSans-74" d="M 1172 4494 
L 1172 3500 
L 2356 3500 
L 2356 3053 
L 1172 3053 
L 1172 1153 
Q 1172 725 1289 603 
Q 1406 481 1766 481 
L 2356 481 
L 2356 0 
L 1766 0 
Q 1100 0 847 248 
Q 594 497 594 1153 
L 594 3053 
L 172 3053 
L 172 3500 
L 594 3500 
L 594 4494 
L 1172 4494 
z
" transform="scale(0.015625)"/>
       <path id="DejaVuSans-6e" d="M 3513 2113 
L 3513 0 
L 2938 0 
L 2938 2094 
Q 2938 2591 2744 2837 
Q 2550 3084 2163 3084 
Q 1697 3084 1428 2787 
Q 1159 2491 1159 1978 
L 1159 0 
L 581 0 
L 581 3500 
L 1159 3500 
L 1159 2956 
Q 1366 3272 1645 3428 
Q 1925 3584 2291 3584 
Q 2894 3584 3203 3211 
Q 3513 2838 3513 2113 
z
" transform="scale(0.015625)"/>
       <path id="DejaVuSans-69" d="M 603 3500 
L 1178 3500 
L 1178 0 
L 603 0 
L 603 3500 
z
M 603 4863 
L 1178 4863 
L 1178 4134 
L 603 4134 
L 603 4863 
z
" transform="scale(0.015625)"/>
      </defs>
      <use xlink:href="#DejaVuSans-50"/>
      <use xlink:href="#DejaVuSans-61" transform="translate(55.802734 0)"/>
      <use xlink:href="#DejaVuSans-74" transform="translate(117.082031 0)"/>
      <use xlink:href="#DejaVuSans-20" transform="translate(156.291016 0)"/>
      <use xlink:href="#DejaVuSans-70" transform="translate(188.078125 0)"/>
      <use xlink:href="#DejaVuSans-61" transform="translate(251.554688 0)"/>
      <use xlink:href="#DejaVuSans-6e" transform="translate(312.833984 0)"/>
      <use xlink:href="#DejaVuSans-69" transform="translate(376.212891 0)"/>
     </g>
    </g>
   </g>
   <g id="text_4">
    <g clip-path="url(#pa2abd4ca43)">
     <!-- Pla mari -->
     <g transform="translate(135.068496 77.094184) scale(0.06 -0.06)">
      <use xlink:href="#DejaVuSans-50"/>
      <use xlink:href="#DejaVuSans-6c" transform="translate(60.302734 0)"/>
      <use xlink:href="#DejaVuSans-61" transform="translate(88.085938 0)"/>
      <use xlink:href="#DejaVuSans-20" transform="translate(149.365234 0)"/>
      <use xlink:href="#DejaVuSans-6d" transform="translate(181.152344 0)"/>
      <use xlink:href="#DejaVuSans-61" transform="translate(278.564453 0)"/>
      <use xlink:href="#DejaVuSans-72" transform="translate(339.84375 0)"/>
      <use xlink:href="#DejaVuSans-69" transform="translate(380.957031 0)"/>
     </g>
    </g>
   </g>
   <g id="text_5">
    <g clip-path="url(#pa2abd4ca43)">
     <!-- Fes nigr -->
     <g transform="translate(469.610171 83.176014) scale(0.06 -0.06)">
      <defs>
       <path id="DejaVuSans-67" d="M 2906 1791 
Q 2906 2416 2648 2759 
Q 2391 3103 1925 3103 
Q 1463 3103 1205 2759 
Q 947 2416 947 1791 
Q 947 1169 1205 825 
Q 1463 481 1925 481 
Q 2391 481 2648 825 
Q 2906 1169 2906 1791 
z
M 3481 434 
Q 3481 -459 3084 -895 
Q 2688 -1331 1869 -1331 
Q 1566 -1331 1297 -1286 
Q 1028 -1241 775 -1147 
L 775 -588 
Q 1028 -725 1275 -790 
Q 1522 -856 1778 -856 
Q 2344 -856 2625 -561 
Q 2906 -266 2906 331 
L 2906 616 
Q 2728 306 2450 153 
Q 2172 0 1784 0 
Q 1141 0 747 490 
Q 353 981 353 1791 
Q 353 2603 747 3093 
Q 1141 3584 1784 3584 
Q 2172 3584 2450 3431 
Q 2728 3278 2906 2969 
L 2906 3500 
L 3481 3500 
L 3481 434 
z
" transform="scale(0.015625)"/>
      </defs>
      <use xlink:href="#DejaVuSans-46"/>
      <use xlink:href="#DejaVuSans-65" transform="translate(52.019531 0)"/>
      <use xlink:href="#DejaVuSans-73" transform="translate(113.542969 0)"/>
      <use xlink:href="#DejaVuSans-20" transform="translate(165.642578 0)"/>
      <use xlink:href="#DejaVuSans-6e" transform="translate(197.429688 0)"/>
      <use xlink:href="#DejaVuSans-69" transform="translate(260.808594 0)"/>
      <use xlink:href="#DejaVuSans-67" transform="translate(288.591797 0)"/>
      <use xlink:href="#DejaVuSans-72" transform="translate(352.068359 0)"/>
     </g>
    </g>
   </g>
   <g id="text_6">
    <!-- L_CP -->
    <g transform="translate(281.049375 45.84) scale(0.12 -0.12)">
     <defs>
      <path id="DejaVuSans-4c" d="M 628 4666 
L 1259 4666 
L 1259 531 
L 3531 531 
L 3531 0 
L 628 0 
L 628 4666 
z
" transform="scale(0.015625)"/>
      <path id="DejaVuSans-5f" d="M 3263 -1063 
L 3263 -1509 
L -63 -1509 
L -63 -1063 
L 3263 -1063 
z
" transform="scale(0.015625)"/>
     </defs>
     <use xlink:href="#DejaVuSans-4c"/>
     <use xlink:href="#DejaVuSans-5f" transform="translate(55.712891 0)"/>
     <use xlink:href="#DejaVuSans-43" transform="translate(105.712891 0)"/>
     <use xlink:href="#DejaVuSans-50" transform="translate(175.537109 0)"/>
    </g>
   </g>
  </g>
 </g>
 <defs>
  <clipPath id="pa2abd4ca43">
   <rect x="72" y="51.84" width="446.4" height="332.64"/>
  </clipPath>
 </defs>
</svg>
