<?xml version="1.0" encoding="utf-8" standalone="no"?>
<!DOCTYPE svg PUBLIC "-//W3C//DTD SVG 1.1//EN"
  "http://www.w3.org/Graphics/SVG/1.1/DTD/svg11.dtd">
<svg xmlns:xlink="http://www.w3.org/1999/xlink" width="576pt" height="432pt" viewBox="0 0 576 432" xmlns="http://www.w3.org/2000/svg" version="1.1">
 <metadata>
  <rdf:RDF xmlns:dc="http://purl.org/dc/elements/1.1/" xmlns:cc="http://creativecommons.org/ns#" xmlns:rdf="http://www.w3.org/1999/02/22-rdf-syntax-ns#">
   <cc:Work>
    <dc:type rdf:resource="http://purl.org/dc/dcmitype/StillImage"/>
    <dc:date>2025-12-15T13:54:35.239255</dc:date>
    <dc:format>image/svg+xml</dc:format>
    <dc:creator>
     <cc:Agent>
      <dc:title>Matplotlib v3.10.0, https://matplotlib.org/</dc:title>
     </cc:Agent>
    </dc:creator>
   </cc:Work>
  </rdf:RDF>
 </metadata>
 <defs>
  <style type="text/css">*{stroke-linejoin: round; stroke-linecap: butt}</style>
 </defs>
 <g id="figure_1">
  <g id="patch_1">
   <path d="M 0 432 
L 576 432 
L 576 0 
L 0 0 
z
" style="fill: #ffffff"/>
  </g>
  <g id="axes_1">
   <g id="LineCollection_1">
    <path d="M 368.790518 215.46851 
L 346.291738 186.896178 
" clip-path="url(#p06fdc8adcc)" style="fill: none; stroke: #cc79a7; stroke-width: 0.781844"/>
    <path d="M 368.790518 215.46851 
L 343.577796 234.151791 
" clip-path="url(#p06fdc8adcc)" style="fill: none; stroke: #cc79a7; stroke-width: 0.849151"/>
    <path d="M 368.790518 215.46851 
L 304.62933 189.616219 
" clip-path="url(#p06fdc8adcc)" style="fill: none; stroke: #6e6e6e; stroke-width: 0.678"/>
    <path d="M 368.790518 215.46851 
L 291.483007 233.951871 
" clip-path="url(#p06fdc8adcc)" style="fill: none; stroke: #6e6e6e; stroke-width: 1.667867"/>
    <path d="M 346.291738 186.896178 
L 357.247499 156.629274 
" clip-path="url(#p06fdc8adcc)" style="fill: none; stroke: #cc79a7; stroke-width: 1.133293"/>
    <path d="M 346.291738 186.896178 
L 304.62933 189.616219 
" clip-path="url(#p06fdc8adcc)" style="fill: none; stroke: #cc79a7; stroke-width: 1.133293"/>
    <path d="M 346.291738 186.896178 
L 360.023588 258.257355 
" clip-path="url(#p06fdc8adcc)" style="fill: none; stroke: #cc79a7; stroke-width: 1.133293"/>
    <path d="M 346.291738 186.896178 
L 345.523359 118.838341 
" clip-path="url(#p06fdc8adcc)" style="fill: none; stroke: #cc79a7; stroke-width: 1.133293"/>
    <path d="M 346.291738 186.896178 
L 380.076376 187.092393 
" clip-path="url(#p06fdc8adcc)" style="fill: none; stroke: #cc79a7; stroke-width: 1.038323"/>
    <path d="M 346.291738 186.896178 
L 308.287295 212.305369 
" clip-path="url(#p06fdc8adcc)" style="fill: none; stroke: #cc79a7; stroke-width: 2.529836"/>
    <path d="M 346.291738 186.896178 
L 408.202698 227.611582 
" clip-path="url(#p06fdc8adcc)" style="fill: none; stroke: #cc79a7; stroke-width: 1.361957"/>
    <path d="M 346.291738 186.896178 
L 443.849878 216.116733 
" clip-path="url(#p06fdc8adcc)" style="fill: none; stroke: #cc79a7; stroke-width: 0.864768"/>
    <path d="M 346.291738 186.896178 
L 437.569284 178.303918 
" clip-path="url(#p06fdc8adcc)" style="fill: none; stroke: #cc79a7; stroke-width: 0.933411"/>
    <path d="M 346.291738 186.896178 
L 429.777866 150.964243 
" clip-path="url(#p06fdc8adcc)" style="fill: none; stroke: #cc79a7; stroke-width: 0.793048"/>
    <path d="M 346.291738 186.896178 
L 343.577796 234.151791 
" clip-path="url(#p06fdc8adcc)" style="fill: none; stroke: #6e6e6e; stroke-width: 2.68839"/>
    <path d="M 346.291738 186.896178 
L 246.307522 213.496638 
" clip-path="url(#p06fdc8adcc)" style="fill: none; stroke: #6e6e6e; stroke-width: 0.850287"/>
    <path d="M 357.247499 156.629274 
L 427.338984 125.802744 
" clip-path="url(#p06fdc8adcc)" style="fill: none; stroke: #cc79a7; stroke-width: 0.781844"/>
    <path d="M 357.247499 156.629274 
L 304.62933 189.616219 
" clip-path="url(#p06fdc8adcc)" style="fill: none; stroke: #cc79a7; stroke-width: 0.712347"/>
    <path d="M 357.247499 156.629274 
L 291.348885 147.355946 
" clip-path="url(#p06fdc8adcc)" style="fill: none; stroke: #cc79a7; stroke-width: 2.240292"/>
    <path d="M 357.247499 156.629274 
L 380.076376 187.092393 
" clip-path="url(#p06fdc8adcc)" style="fill: none; stroke: #cc79a7; stroke-width: 2.529836"/>
    <path d="M 357.247499 156.629274 
L 308.287295 212.305369 
" clip-path="url(#p06fdc8adcc)" style="fill: none; stroke: #cc79a7; stroke-width: 0.816864"/>
    <path d="M 304.62933 189.616219 
L 263.63805 177.179212 
" clip-path="url(#p06fdc8adcc)" style="fill: none; stroke: #cc79a7; stroke-width: 1.148226"/>
    <path d="M 304.62933 189.616219 
L 343.577796 234.151791 
" clip-path="url(#p06fdc8adcc)" style="fill: none; stroke: #cc79a7; stroke-width: 1.038323"/>
    <path d="M 427.338984 125.802744 
L 380.076376 187.092393 
" clip-path="url(#p06fdc8adcc)" style="fill: none; stroke: #6e6e6e; stroke-width: 1.045657"/>
    <path d="M 291.348885 147.355946 
L 263.63805 177.179212 
" clip-path="url(#p06fdc8adcc)" style="fill: none; stroke: #6e6e6e; stroke-width: 7.454965"/>
    <path d="M 291.348885 147.355946 
L 343.577796 234.151791 
" clip-path="url(#p06fdc8adcc)" style="fill: none; stroke: #6e6e6e; stroke-width: 1.850964"/>
    <path d="M 291.348885 147.355946 
L 267.501247 77.405339 
" clip-path="url(#p06fdc8adcc)" style="fill: none; stroke: #6e6e6e; stroke-width: 1.084066"/>
    <path d="M 263.63805 177.179212 
L 380.076376 187.092393 
" clip-path="url(#p06fdc8adcc)" style="fill: none; stroke: #cc79a7; stroke-width: 1.133293"/>
    <path d="M 263.63805 177.179212 
L 308.287295 212.305369 
" clip-path="url(#p06fdc8adcc)" style="fill: none; stroke: #cc79a7; stroke-width: 1.133293"/>
    <path d="M 360.023588 258.257355 
L 291.483007 233.951871 
" clip-path="url(#p06fdc8adcc)" style="fill: none; stroke: #cc79a7; stroke-width: 0.694868"/>
    <path d="M 291.483007 233.951871 
L 265.842466 273.88911 
" clip-path="url(#p06fdc8adcc)" style="fill: none; stroke: #cc79a7; stroke-width: 0.781844"/>
    <path d="M 291.483007 233.951871 
L 289.103997 286.31212 
" clip-path="url(#p06fdc8adcc)" style="fill: none; stroke: #0000ff; stroke-width: 0.696607"/>
    <path d="M 380.076376 187.092393 
L 308.287295 212.305369 
" clip-path="url(#p06fdc8adcc)" style="fill: none; stroke: #cc79a7; stroke-width: 1.638112"/>
    <path d="M 380.076376 187.092393 
L 408.202698 227.611582 
" clip-path="url(#p06fdc8adcc)" style="fill: none; stroke: #cc79a7; stroke-width: 1.133293"/>
    <path d="M 380.076376 187.092393 
L 343.577796 234.151791 
" clip-path="url(#p06fdc8adcc)" style="fill: none; stroke: #cc79a7; stroke-width: 1.133293"/>
    <path d="M 380.076376 187.092393 
L 486.11854 193.099254 
" clip-path="url(#p06fdc8adcc)" style="fill: none; stroke: #cc79a7; stroke-width: 1.351655"/>
    <path d="M 380.076376 187.092393 
L 437.569284 178.303918 
" clip-path="url(#p06fdc8adcc)" style="fill: none; stroke: #cc79a7; stroke-width: 0.668578"/>
    <path d="M 308.287295 212.305369 
L 343.577796 234.151791 
" clip-path="url(#p06fdc8adcc)" style="fill: none; stroke: #cc79a7; stroke-width: 0.803758"/>
    <path d="M 308.287295 212.305369 
L 289.103997 286.31212 
" clip-path="url(#p06fdc8adcc)" style="fill: none; stroke: #0000ff; stroke-width: 1.481759"/>
    <path d="M 343.577796 234.151791 
L 417.574883 283.206271 
" clip-path="url(#p06fdc8adcc)" style="fill: none; stroke: #cc79a7; stroke-width: 1.133293"/>
    <path d="M 343.577796 234.151791 
L 408.202698 227.611582 
" clip-path="url(#p06fdc8adcc)" style="fill: none; stroke: #cc79a7; stroke-width: 1.130431"/>
   </g>
   <g id="PathCollection_1">
    <defs>
     <path id="mf823d73d91" d="M 0 5.56069 
C 1.474712 5.56069 2.889223 4.974781 3.932002 3.932002 
C 4.974781 2.889223 5.56069 1.474712 5.56069 0 
C 5.56069 -1.474712 4.974781 -2.889223 3.932002 -3.932002 
C 2.889223 -4.974781 1.474712 -5.56069 0 -5.56069 
C -1.474712 -5.56069 -2.889223 -4.974781 -3.932002 -3.932002 
C -4.974781 -2.889223 -5.56069 -1.474712 -5.56069 0 
C -5.56069 1.474712 -4.974781 2.889223 -3.932002 3.932002 
C -2.889223 4.974781 -1.474712 5.56069 0 5.56069 
z
" style="stroke: #000000"/>
    </defs>
    <g clip-path="url(#p06fdc8adcc)">
     <use xlink:href="#mf823d73d91" x="92.290909" y="356.290707" style="stroke: #000000"/>
    </g>
   </g>
   <g id="PathCollection_2">
    <defs>
     <path id="m19de05444c" d="M 0 4.808433 
C 1.275211 4.808433 2.498365 4.301786 3.400076 3.400076 
C 4.301786 2.498365 4.808433 1.275211 4.808433 0 
C 4.808433 -1.275211 4.301786 -2.498365 3.400076 -3.400076 
C 2.498365 -4.301786 1.275211 -4.808433 0 -4.808433 
C -1.275211 -4.808433 -2.498365 -4.301786 -3.400076 -3.400076 
C -4.301786 -2.498365 -4.808433 -1.275211 -4.808433 0 
C -4.808433 1.275211 -4.301786 2.498365 -3.400076 3.400076 
C -2.498365 4.301786 -1.275211 4.808433 0 4.808433 
z
" style="stroke: #000000"/>
    </defs>
    <g clip-path="url(#p06fdc8adcc)">
     <use xlink:href="#m19de05444c" x="110.684815" y="356.290707" style="stroke: #000000"/>
    </g>
   </g>
   <g id="PathCollection_3">
    <defs>
     <path id="ma5ae111749" d="M 0 4.080021 
C 1.082034 4.080021 2.119897 3.650124 2.88501 2.88501 
C 3.650124 2.119897 4.080021 1.082034 4.080021 0 
C 4.080021 -1.082034 3.650124 -2.119897 2.88501 -2.88501 
C 2.119897 -3.650124 1.082034 -4.080021 0 -4.080021 
C -1.082034 -4.080021 -2.119897 -3.650124 -2.88501 -2.88501 
C -3.650124 -2.119897 -4.080021 -1.082034 -4.080021 0 
C -4.080021 1.082034 -3.650124 2.119897 -2.88501 2.88501 
C -2.119897 3.650124 -1.082034 4.080021 0 4.080021 
z
" style="stroke: #000000"/>
    </defs>
    <g clip-path="url(#p06fdc8adcc)">
     <use xlink:href="#ma5ae111749" x="129.078721" y="356.290707" style="stroke: #000000"/>
    </g>
   </g>
   <g id="PathCollection_4">
    <defs>
     <path id="m0ba635d46c" d="M 0 3.571719 
C 0.947231 3.571719 1.855793 3.19538 2.525586 2.525586 
C 3.19538 1.855793 3.571719 0.947231 3.571719 0 
C 3.571719 -0.947231 3.19538 -1.855793 2.525586 -2.525586 
C 1.855793 -3.19538 0.947231 -3.571719 0 -3.571719 
C -0.947231 -3.571719 -1.855793 -3.19538 -2.525586 -2.525586 
C -3.19538 -1.855793 -3.571719 -0.947231 -3.571719 0 
C -3.571719 0.947231 -3.19538 1.855793 -2.525586 2.525586 
C -1.855793 3.19538 -0.947231 3.571719 0 3.571719 
z
" style="stroke: #000000"/>
    </defs>
    <g clip-path="url(#p06fdc8adcc)">
     <use xlink:href="#m0ba635d46c" x="147.472627" y="356.290707" style="stroke: #000000"/>
    </g>
   </g>
   <g id="PathCollection_5">
    <defs>
     <path id="m8bd7464307" d="M 0 3.220242 
C 0.854018 3.220242 1.673173 2.880937 2.277055 2.277055 
C 2.880937 1.673173 3.220242 0.854018 3.220242 0 
C 3.220242 -0.854018 2.880937 -1.673173 2.277055 -2.277055 
C 1.673173 -2.880937 0.854018 -3.220242 0 -3.220242 
C -0.854018 -3.220242 -1.673173 -2.880937 -2.277055 -2.277055 
C -2.880937 -1.673173 -3.220242 -0.854018 -3.220242 0 
C -3.220242 0.854018 -2.880937 1.673173 -2.277055 2.277055 
C -1.673173 2.880937 -0.854018 3.220242 0 3.220242 
z
" style="stroke: #000000"/>
    </defs>
    <g clip-path="url(#p06fdc8adcc)">
     <use xlink:href="#m8bd7464307" x="165.866533" y="356.290707" style="stroke: #000000"/>
    </g>
   </g>
   <g id="PathCollection_6">
    <defs>
     <path id="mc5790d5b2c" d="M 0 3.125954 
C 0.829013 3.125954 1.624183 2.796584 2.210383 2.210383 
C 2.796584 1.624183 3.125954 0.829013 3.125954 0 
C 3.125954 -0.829013 2.796584 -1.624183 2.210383 -2.210383 
C 1.624183 -2.796584 0.829013 -3.125954 0 -3.125954 
C -0.829013 -3.125954 -1.624183 -2.796584 -2.210383 -2.210383 
C -2.796584 -1.624183 -3.125954 -0.829013 -3.125954 0 
C -3.125954 0.829013 -2.796584 1.624183 -2.210383 2.210383 
C -1.624183 2.796584 -0.829013 3.125954 0 3.125954 
z
" style="stroke: #000000"/>
    </defs>
    <g clip-path="url(#p06fdc8adcc)">
     <use xlink:href="#mc5790d5b2c" x="184.26044" y="356.290707" style="stroke: #000000"/>
    </g>
   </g>
   <g id="PathCollection_7">
    <defs>
     <path id="m0bb9bab4b5" d="M 0 3.034235 
C 0.804688 3.034235 1.576527 2.714529 2.145528 2.145528 
C 2.714529 1.576527 3.034235 0.804688 3.034235 0 
C 3.034235 -0.804688 2.714529 -1.576527 2.145528 -2.145528 
C 1.576527 -2.714529 0.804688 -3.034235 0 -3.034235 
C -0.804688 -3.034235 -1.576527 -2.714529 -2.145528 -2.145528 
C -2.714529 -1.576527 -3.034235 -0.804688 -3.034235 0 
C -3.034235 0.804688 -2.714529 1.576527 -2.145528 2.145528 
C -1.576527 2.714529 -0.804688 3.034235 0 3.034235 
z
" style="stroke: #000000"/>
    </defs>
    <g clip-path="url(#p06fdc8adcc)">
     <use xlink:href="#m0bb9bab4b5" x="202.654346" y="356.290707" style="stroke: #000000"/>
    </g>
   </g>
   <g id="PathCollection_8">
    <defs>
     <path id="m38990e17ee" d="M 0 2.611643 
C 0.692616 2.611643 1.356957 2.336464 1.846711 1.846711 
C 2.336464 1.356957 2.611643 0.692616 2.611643 0 
C 2.611643 -0.692616 2.336464 -1.356957 1.846711 -1.846711 
C 1.356957 -2.336464 0.692616 -2.611643 0 -2.611643 
C -0.692616 -2.611643 -1.356957 -2.336464 -1.846711 -1.846711 
C -2.336464 -1.356957 -2.611643 -0.692616 -2.611643 0 
C -2.611643 0.692616 -2.336464 1.356957 -1.846711 1.846711 
C -1.356957 2.336464 -0.692616 2.611643 0 2.611643 
z
" style="stroke: #000000"/>
    </defs>
    <g clip-path="url(#p06fdc8adcc)">
     <use xlink:href="#m38990e17ee" x="221.048252" y="356.290707" style="stroke: #000000"/>
    </g>
   </g>
   <g id="PathCollection_9">
    <defs>
     <path id="me527968786" d="M 0 2.57899 
C 0.683956 2.57899 1.339991 2.307251 1.823621 1.823621 
C 2.307251 1.339991 2.57899 0.683956 2.57899 0 
C 2.57899 -0.683956 2.307251 -1.339991 1.823621 -1.823621 
C 1.339991 -2.307251 0.683956 -2.57899 0 -2.57899 
C -0.683956 -2.57899 -1.339991 -2.307251 -1.823621 -1.823621 
C -2.307251 -1.339991 -2.57899 -0.683956 -2.57899 0 
C -2.57899 0.683956 -2.307251 1.339991 -1.823621 1.823621 
C -1.339991 2.307251 -0.683956 2.57899 0 2.57899 
z
" style="stroke: #000000"/>
    </defs>
    <g clip-path="url(#p06fdc8adcc)">
     <use xlink:href="#me527968786" x="239.442158" y="356.290707" style="stroke: #000000"/>
    </g>
   </g>
   <g id="PathCollection_10">
    <defs>
     <path id="m172b4f2221" d="M 0 2.573071 
C 0.682386 2.573071 1.336916 2.301956 1.819436 1.819436 
C 2.301956 1.336916 2.573071 0.682386 2.573071 0 
C 2.573071 -0.682386 2.301956 -1.336916 1.819436 -1.819436 
C 1.336916 -2.301956 0.682386 -2.573071 0 -2.573071 
C -0.682386 -2.573071 -1.336916 -2.301956 -1.819436 -1.819436 
C -2.301956 -1.336916 -2.573071 -0.682386 -2.573071 0 
C -2.573071 0.682386 -2.301956 1.336916 -1.819436 1.819436 
C -1.336916 2.301956 -0.682386 2.573071 0 2.573071 
z
" style="stroke: #000000"/>
    </defs>
    <g clip-path="url(#p06fdc8adcc)">
     <use xlink:href="#m172b4f2221" x="257.836064" y="356.290707" style="stroke: #000000"/>
    </g>
   </g>
   <g id="PathCollection_11">
    <defs>
     <path id="mf7b38ed6f3" d="M 0 2.55212 
C 0.67683 2.55212 1.32603 2.283213 1.804622 1.804622 
C 2.283213 1.32603 2.55212 0.67683 2.55212 0 
C 2.55212 -0.67683 2.283213 -1.32603 1.804622 -1.804622 
C 1.32603 -2.283213 0.67683 -2.55212 0 -2.55212 
C -0.67683 -2.55212 -1.32603 -2.283213 -1.804622 -1.804622 
C -2.283213 -1.32603 -2.55212 -0.67683 -2.55212 0 
C -2.55212 0.67683 -2.283213 1.32603 -1.804622 1.804622 
C -1.32603 2.283213 -0.67683 2.55212 0 2.55212 
z
" style="stroke: #000000"/>
    </defs>
    <g clip-path="url(#p06fdc8adcc)">
     <use xlink:href="#mf7b38ed6f3" x="276.22997" y="356.290707" style="stroke: #000000"/>
    </g>
   </g>
   <g id="PathCollection_12">
    <defs>
     <path id="m13cb848dff" d="M 0 2.336062 
C 0.619531 2.336062 1.213771 2.089919 1.651845 1.651845 
C 2.089919 1.213771 2.336062 0.619531 2.336062 0 
C 2.336062 -0.619531 2.089919 -1.213771 1.651845 -1.651845 
C 1.213771 -2.089919 0.619531 -2.336062 0 -2.336062 
C -0.619531 -2.336062 -1.213771 -2.089919 -1.651845 -1.651845 
C -2.089919 -1.213771 -2.336062 -0.619531 -2.336062 0 
C -2.336062 0.619531 -2.089919 1.213771 -1.651845 1.651845 
C -1.213771 2.089919 -0.619531 2.336062 0 2.336062 
z
" style="stroke: #000000"/>
    </defs>
    <g clip-path="url(#p06fdc8adcc)">
     <use xlink:href="#m13cb848dff" x="294.623876" y="356.290707" style="stroke: #000000"/>
    </g>
   </g>
   <g id="PathCollection_13">
    <defs>
     <path id="m2828797136" d="M 0 2.333615 
C 0.618882 2.333615 1.212499 2.08773 1.650115 1.650115 
C 2.08773 1.212499 2.333615 0.618882 2.333615 0 
C 2.333615 -0.618882 2.08773 -1.212499 1.650115 -1.650115 
C 1.212499 -2.08773 0.618882 -2.333615 0 -2.333615 
C -0.618882 -2.333615 -1.212499 -2.08773 -1.650115 -1.650115 
C -2.08773 -1.212499 -2.333615 -0.618882 -2.333615 0 
C -2.333615 0.618882 -2.08773 1.212499 -1.650115 1.650115 
C -1.212499 2.08773 -0.618882 2.333615 0 2.333615 
z
" style="stroke: #000000"/>
    </defs>
    <g clip-path="url(#p06fdc8adcc)">
     <use xlink:href="#m2828797136" x="313.017782" y="356.290707" style="stroke: #000000"/>
    </g>
   </g>
   <g id="PathCollection_14">
    <defs>
     <path id="mfa47a8439f" d="M 0 2.30954 
C 0.612497 2.30954 1.199991 2.066192 1.633092 1.633092 
C 2.066192 1.199991 2.30954 0.612497 2.30954 0 
C 2.30954 -0.612497 2.066192 -1.199991 1.633092 -1.633092 
C 1.199991 -2.066192 0.612497 -2.30954 0 -2.30954 
C -0.612497 -2.30954 -1.199991 -2.066192 -1.633092 -1.633092 
C -2.066192 -1.199991 -2.30954 -0.612497 -2.30954 0 
C -2.30954 0.612497 -2.066192 1.199991 -1.633092 1.633092 
C -1.199991 2.066192 -0.612497 2.30954 0 2.30954 
z
" style="stroke: #000000"/>
    </defs>
    <g clip-path="url(#p06fdc8adcc)">
     <use xlink:href="#mfa47a8439f" x="331.411688" y="356.290707" style="stroke: #000000"/>
    </g>
   </g>
   <g id="PathCollection_15">
    <defs>
     <path id="m08cd3e8455" d="M 0 2.302896 
C 0.610735 2.302896 1.196538 2.060248 1.628393 1.628393 
C 2.060248 1.196538 2.302896 0.610735 2.302896 0 
C 2.302896 -0.610735 2.060248 -1.196538 1.628393 -1.628393 
C 1.196538 -2.060248 0.610735 -2.302896 0 -2.302896 
C -0.610735 -2.302896 -1.196538 -2.060248 -1.628393 -1.628393 
C -2.060248 -1.196538 -2.302896 -0.610735 -2.302896 0 
C -2.302896 0.610735 -2.060248 1.196538 -1.628393 1.628393 
C -1.196538 2.060248 -0.610735 2.302896 0 2.302896 
z
" style="stroke: #000000"/>
    </defs>
    <g clip-path="url(#p06fdc8adcc)">
     <use xlink:href="#m08cd3e8455" x="349.805595" y="356.290707" style="stroke: #000000"/>
    </g>
   </g>
   <g id="PathCollection_16">
    <defs>
     <path id="m98696558c4" d="M 0 2.300393 
C 0.610071 2.300393 1.195238 2.058009 1.626623 1.626623 
C 2.058009 1.195238 2.300393 0.610071 2.300393 0 
C 2.300393 -0.610071 2.058009 -1.195238 1.626623 -1.626623 
C 1.195238 -2.058009 0.610071 -2.300393 0 -2.300393 
C -0.610071 -2.300393 -1.195238 -2.058009 -1.626623 -1.626623 
C -2.058009 -1.195238 -2.300393 -0.610071 -2.300393 0 
C -2.300393 0.610071 -2.058009 1.195238 -1.626623 1.626623 
C -1.195238 2.058009 -0.610071 2.300393 0 2.300393 
z
" style="stroke: #000000"/>
    </defs>
    <g clip-path="url(#p06fdc8adcc)">
     <use xlink:href="#m98696558c4" x="368.199501" y="356.290707" style="stroke: #000000"/>
    </g>
   </g>
   <g id="PathCollection_17">
    <defs>
     <path id="m000a6cbd56" d="M 0 2.021958 
C 0.536229 2.021958 1.050569 1.808912 1.42974 1.42974 
C 1.808912 1.050569 2.021958 0.536229 2.021958 0 
C 2.021958 -0.536229 1.808912 -1.050569 1.42974 -1.42974 
C 1.050569 -1.808912 0.536229 -2.021958 0 -2.021958 
C -0.536229 -2.021958 -1.050569 -1.808912 -1.42974 -1.42974 
C -1.808912 -1.050569 -2.021958 -0.536229 -2.021958 0 
C -2.021958 0.536229 -1.808912 1.050569 -1.42974 1.42974 
C -1.050569 1.808912 -0.536229 2.021958 0 2.021958 
z
" style="stroke: #000000"/>
    </defs>
    <g clip-path="url(#p06fdc8adcc)">
     <use xlink:href="#m000a6cbd56" x="386.593407" y="356.290707" style="stroke: #000000"/>
    </g>
   </g>
   <g id="PathCollection_18">
    <defs>
     <path id="mdbaf683d50" d="M 0 2.011492 
C 0.533454 2.011492 1.045131 1.799548 1.422339 1.422339 
C 1.799548 1.045131 2.011492 0.533454 2.011492 0 
C 2.011492 -0.533454 1.799548 -1.045131 1.422339 -1.422339 
C 1.045131 -1.799548 0.533454 -2.011492 0 -2.011492 
C -0.533454 -2.011492 -1.045131 -1.799548 -1.422339 -1.422339 
C -1.799548 -1.045131 -2.011492 -0.533454 -2.011492 0 
C -2.011492 0.533454 -1.799548 1.045131 -1.422339 1.422339 
C -1.045131 1.799548 -0.533454 2.011492 0 2.011492 
z
" style="stroke: #000000"/>
    </defs>
    <g clip-path="url(#p06fdc8adcc)">
     <use xlink:href="#mdbaf683d50" x="404.987313" y="356.290707" style="stroke: #000000"/>
    </g>
   </g>
   <g id="PathCollection_19">
    <defs>
     <path id="m960c6f2f2f" d="M 0 2.009184 
C 0.532842 2.009184 1.043932 1.797484 1.420708 1.420708 
C 1.797484 1.043932 2.009184 0.532842 2.009184 0 
C 2.009184 -0.532842 1.797484 -1.043932 1.420708 -1.420708 
C 1.043932 -1.797484 0.532842 -2.009184 0 -2.009184 
C -0.532842 -2.009184 -1.043932 -1.797484 -1.420708 -1.420708 
C -1.797484 -1.043932 -2.009184 -0.532842 -2.009184 0 
C -2.009184 0.532842 -1.797484 1.043932 -1.420708 1.420708 
C -1.043932 1.797484 -0.532842 2.009184 0 2.009184 
z
" style="stroke: #000000"/>
    </defs>
    <g clip-path="url(#p06fdc8adcc)">
     <use xlink:href="#m960c6f2f2f" x="423.381219" y="356.290707" style="stroke: #000000"/>
    </g>
   </g>
   <g id="PathCollection_20">
    <defs>
     <path id="mb87d314294" d="M 0 1.99623 
C 0.529406 1.99623 1.037201 1.785895 1.411548 1.411548 
C 1.785895 1.037201 1.99623 0.529406 1.99623 0 
C 1.99623 -0.529406 1.785895 -1.037201 1.411548 -1.411548 
C 1.037201 -1.785895 0.529406 -1.99623 0 -1.99623 
C -0.529406 -1.99623 -1.037201 -1.785895 -1.411548 -1.411548 
C -1.785895 -1.037201 -1.99623 -0.529406 -1.99623 0 
C -1.99623 0.529406 -1.785895 1.037201 -1.411548 1.411548 
C -1.037201 1.785895 -0.529406 1.99623 0 1.99623 
z
" style="stroke: #000000"/>
    </defs>
    <g clip-path="url(#p06fdc8adcc)">
     <use xlink:href="#mb87d314294" x="441.775125" y="356.290707" style="stroke: #000000"/>
    </g>
   </g>
   <g id="PathCollection_21">
    <defs>
     <path id="mab99cce789" d="M 0 1.987389 
C 0.527062 1.987389 1.032607 1.777985 1.405296 1.405296 
C 1.777985 1.032607 1.987389 0.527062 1.987389 0 
C 1.987389 -0.527062 1.777985 -1.032607 1.405296 -1.405296 
C 1.032607 -1.777985 0.527062 -1.987389 0 -1.987389 
C -0.527062 -1.987389 -1.032607 -1.777985 -1.405296 -1.405296 
C -1.777985 -1.032607 -1.987389 -0.527062 -1.987389 0 
C -1.987389 0.527062 -1.777985 1.032607 -1.405296 1.405296 
C -1.032607 1.777985 -0.527062 1.987389 0 1.987389 
z
" style="stroke: #000000"/>
    </defs>
    <g clip-path="url(#p06fdc8adcc)">
     <use xlink:href="#mab99cce789" x="92.290909" y="369.36" style="stroke: #000000"/>
    </g>
   </g>
   <g id="PathCollection_22">
    <defs>
     <path id="m93a9747859" d="M 0 1.98357 
C 0.526049 1.98357 1.030623 1.774569 1.402596 1.402596 
C 1.774569 1.030623 1.98357 0.526049 1.98357 0 
C 1.98357 -0.526049 1.774569 -1.030623 1.402596 -1.402596 
C 1.030623 -1.774569 0.526049 -1.98357 0 -1.98357 
C -0.526049 -1.98357 -1.030623 -1.774569 -1.402596 -1.402596 
C -1.774569 -1.030623 -1.98357 -0.526049 -1.98357 0 
C -1.98357 0.526049 -1.774569 1.030623 -1.402596 1.402596 
C -1.030623 1.774569 -0.526049 1.98357 0 1.98357 
z
" style="stroke: #000000"/>
    </defs>
    <g clip-path="url(#p06fdc8adcc)">
     <use xlink:href="#m93a9747859" x="110.684815" y="369.36" style="stroke: #000000"/>
    </g>
   </g>
   <g id="PathCollection_23">
    <defs>
     <path id="m941e6c90d4" d="M 0 1.747105 
C 0.463338 1.747105 0.90776 1.563019 1.235389 1.235389 
C 1.563019 0.90776 1.747105 0.463338 1.747105 0 
C 1.747105 -0.463338 1.563019 -0.90776 1.235389 -1.235389 
C 0.90776 -1.563019 0.463338 -1.747105 0 -1.747105 
C -0.463338 -1.747105 -0.90776 -1.563019 -1.235389 -1.235389 
C -1.563019 -0.90776 -1.747105 -0.463338 -1.747105 0 
C -1.747105 0.463338 -1.563019 0.90776 -1.235389 1.235389 
C -0.90776 1.563019 -0.463338 1.747105 0 1.747105 
z
" style="stroke: #000000"/>
    </defs>
    <g clip-path="url(#p06fdc8adcc)">
     <use xlink:href="#m941e6c90d4" x="129.078721" y="369.36" style="stroke: #000000"/>
    </g>
   </g>
   <g id="PathCollection_24">
    <defs>
     <path id="mcbb3926b2e" d="M 0 1.73199 
C 0.459329 1.73199 0.899907 1.549496 1.224702 1.224702 
C 1.549496 0.899907 1.73199 0.459329 1.73199 0 
C 1.73199 -0.459329 1.549496 -0.899907 1.224702 -1.224702 
C 0.899907 -1.549496 0.459329 -1.73199 0 -1.73199 
C -0.459329 -1.73199 -0.899907 -1.549496 -1.224702 -1.224702 
C -1.549496 -0.899907 -1.73199 -0.459329 -1.73199 0 
C -1.73199 0.459329 -1.549496 0.899907 -1.224702 1.224702 
C -0.899907 1.549496 -0.459329 1.73199 0 1.73199 
z
" style="stroke: #000000"/>
    </defs>
    <g clip-path="url(#p06fdc8adcc)">
     <use xlink:href="#mcbb3926b2e" x="147.472627" y="369.36" style="stroke: #000000"/>
    </g>
   </g>
   <g id="PathCollection_25">
    <defs>
     <path id="mbff1d1d04d" d="M 0 1.665108 
C 0.441592 1.665108 0.865157 1.489662 1.177409 1.177409 
C 1.489662 0.865157 1.665108 0.441592 1.665108 0 
C 1.665108 -0.441592 1.489662 -0.865157 1.177409 -1.177409 
C 0.865157 -1.489662 0.441592 -1.665108 0 -1.665108 
C -0.441592 -1.665108 -0.865157 -1.489662 -1.177409 -1.177409 
C -1.489662 -0.865157 -1.665108 -0.441592 -1.665108 0 
C -1.665108 0.441592 -1.489662 0.865157 -1.177409 1.177409 
C -0.865157 1.489662 -0.441592 1.665108 0 1.665108 
z
" style="stroke: #000000"/>
    </defs>
    <g clip-path="url(#p06fdc8adcc)">
     <use xlink:href="#mbff1d1d04d" x="165.866533" y="369.36" style="stroke: #000000"/>
    </g>
   </g>
   <g id="PathCollection_26">
    <defs>
     <path id="mbc956fdcd8" d="M 0 1.637476 
C 0.434264 1.637476 0.850799 1.464941 1.15787 1.15787 
C 1.464941 0.850799 1.637476 0.434264 1.637476 0 
C 1.637476 -0.434264 1.464941 -0.850799 1.15787 -1.15787 
C 0.850799 -1.464941 0.434264 -1.637476 0 -1.637476 
C -0.434264 -1.637476 -0.850799 -1.464941 -1.15787 -1.15787 
C -1.464941 -0.850799 -1.637476 -0.434264 -1.637476 0 
C -1.637476 0.434264 -1.464941 0.850799 -1.15787 1.15787 
C -0.850799 1.464941 -0.434264 1.637476 0 1.637476 
z
" style="stroke: #000000"/>
    </defs>
    <g clip-path="url(#p06fdc8adcc)">
     <use xlink:href="#mbc956fdcd8" x="184.26044" y="369.36" style="stroke: #000000"/>
    </g>
   </g>
   <g id="PathCollection_27">
    <defs>
     <path id="m47104c416c" d="M 0 1.636287 
C 0.433948 1.636287 0.850182 1.463878 1.15703 1.15703 
C 1.463878 0.850182 1.636287 0.433948 1.636287 0 
C 1.636287 -0.433948 1.463878 -0.850182 1.15703 -1.15703 
C 0.850182 -1.463878 0.433948 -1.636287 0 -1.636287 
C -0.433948 -1.636287 -0.850182 -1.463878 -1.15703 -1.15703 
C -1.463878 -0.850182 -1.636287 -0.433948 -1.636287 0 
C -1.636287 0.433948 -1.463878 0.850182 -1.15703 1.15703 
C -0.850182 1.463878 -0.433948 1.636287 0 1.636287 
z
" style="stroke: #000000"/>
    </defs>
    <g clip-path="url(#p06fdc8adcc)">
     <use xlink:href="#m47104c416c" x="202.654346" y="369.36" style="stroke: #000000"/>
    </g>
   </g>
   <g id="PathCollection_28">
    <defs>
     <path id="ma6a8c206a8" d="M 0 1.369306 
C 0.363144 1.369306 0.711464 1.225028 0.968246 0.968246 
C 1.225028 0.711464 1.369306 0.363144 1.369306 0 
C 1.369306 -0.363144 1.225028 -0.711464 0.968246 -0.968246 
C 0.711464 -1.225028 0.363144 -1.369306 0 -1.369306 
C -0.363144 -1.369306 -0.711464 -1.225028 -0.968246 -0.968246 
C -1.225028 -0.711464 -1.369306 -0.363144 -1.369306 0 
C -1.369306 0.363144 -1.225028 0.711464 -0.968246 0.968246 
C -0.711464 1.225028 -0.363144 1.369306 0 1.369306 
z
" style="stroke: #000000"/>
    </defs>
    <g clip-path="url(#p06fdc8adcc)">
     <use xlink:href="#ma6a8c206a8" x="221.048252" y="369.36" style="stroke: #000000"/>
    </g>
   </g>
   <g id="PathCollection_29">
    <defs>
     <path id="m637e6e1098" d="M 0 1.309533 
C 0.347292 1.309533 0.680407 1.171552 0.925979 0.925979 
C 1.171552 0.680407 1.309533 0.347292 1.309533 0 
C 1.309533 -0.347292 1.171552 -0.680407 0.925979 -0.925979 
C 0.680407 -1.171552 0.347292 -1.309533 0 -1.309533 
C -0.347292 -1.309533 -0.680407 -1.171552 -0.925979 -0.925979 
C -1.171552 -0.680407 -1.309533 -0.347292 -1.309533 0 
C -1.309533 0.347292 -1.171552 0.680407 -0.925979 0.925979 
C -0.680407 1.171552 -0.347292 1.309533 0 1.309533 
z
" style="stroke: #000000"/>
    </defs>
    <g clip-path="url(#p06fdc8adcc)">
     <use xlink:href="#m637e6e1098" x="239.442158" y="369.36" style="stroke: #000000"/>
    </g>
   </g>
   <g id="PathCollection_30">
    <defs>
     <path id="m0ddf184c33" d="M 0 1.262552 
C 0.334833 1.262552 0.655996 1.129521 0.892759 0.892759 
C 1.129521 0.655996 1.262552 0.334833 1.262552 0 
C 1.262552 -0.334833 1.129521 -0.655996 0.892759 -0.892759 
C 0.655996 -1.129521 0.334833 -1.262552 0 -1.262552 
C -0.334833 -1.262552 -0.655996 -1.129521 -0.892759 -0.892759 
C -1.129521 -0.655996 -1.262552 -0.334833 -1.262552 0 
C -1.262552 0.334833 -1.129521 0.655996 -0.892759 0.892759 
C -0.655996 1.129521 -0.334833 1.262552 0 1.262552 
z
" style="stroke: #000000"/>
    </defs>
    <g clip-path="url(#p06fdc8adcc)">
     <use xlink:href="#m0ddf184c33" x="257.836064" y="369.36" style="stroke: #000000"/>
    </g>
   </g>
   <g id="PathCollection_31">
    <defs>
     <path id="m934a915c58" d="M 0 1.213216 
C 0.321749 1.213216 0.630363 1.085384 0.857873 0.857873 
C 1.085384 0.630363 1.213216 0.321749 1.213216 0 
C 1.213216 -0.321749 1.085384 -0.630363 0.857873 -0.857873 
C 0.630363 -1.085384 0.321749 -1.213216 0 -1.213216 
C -0.321749 -1.213216 -0.630363 -1.085384 -0.857873 -0.857873 
C -1.085384 -0.630363 -1.213216 -0.321749 -1.213216 0 
C -1.213216 0.321749 -1.085384 0.630363 -0.857873 0.857873 
C -0.630363 1.085384 -0.321749 1.213216 0 1.213216 
z
" style="stroke: #000000"/>
    </defs>
    <g clip-path="url(#p06fdc8adcc)">
     <use xlink:href="#m934a915c58" x="276.22997" y="369.36" style="stroke: #000000"/>
    </g>
   </g>
   <g id="PathCollection_32">
    <defs>
     <path id="md6552d9b2f" d="M 0 1.18531 
C 0.314348 1.18531 0.615863 1.060418 0.83814 0.83814 
C 1.060418 0.615863 1.18531 0.314348 1.18531 0 
C 1.18531 -0.314348 1.060418 -0.615863 0.83814 -0.83814 
C 0.615863 -1.060418 0.314348 -1.18531 0 -1.18531 
C -0.314348 -1.18531 -0.615863 -1.060418 -0.83814 -0.83814 
C -1.060418 -0.615863 -1.18531 -0.314348 -1.18531 0 
C -1.18531 0.314348 -1.060418 0.615863 -0.83814 0.83814 
C -0.615863 1.060418 -0.314348 1.18531 0 1.18531 
z
" style="stroke: #000000"/>
    </defs>
    <g clip-path="url(#p06fdc8adcc)">
     <use xlink:href="#md6552d9b2f" x="294.623876" y="369.36" style="stroke: #000000"/>
    </g>
   </g>
   <g id="PathCollection_33">
    <defs>
     <path id="m53b7fbb8c3" d="M 0 1.176001 
C 0.311879 1.176001 0.611027 1.05209 0.831558 0.831558 
C 1.05209 0.611027 1.176001 0.311879 1.176001 0 
C 1.176001 -0.311879 1.05209 -0.611027 0.831558 -0.831558 
C 0.611027 -1.05209 0.311879 -1.176001 0 -1.176001 
C -0.311879 -1.176001 -0.611027 -1.05209 -0.831558 -0.831558 
C -1.05209 -0.611027 -1.176001 -0.311879 -1.176001 0 
C -1.176001 0.311879 -1.05209 0.611027 -0.831558 0.831558 
C -0.611027 1.05209 -0.311879 1.176001 0 1.176001 
z
" style="stroke: #000000"/>
    </defs>
    <g clip-path="url(#p06fdc8adcc)">
     <use xlink:href="#m53b7fbb8c3" x="313.017782" y="369.36" style="stroke: #000000"/>
    </g>
   </g>
   <g id="PathCollection_34">
    <path d="M 368.790518 221.425119 
C 370.370229 221.425119 371.885452 220.797493 373.002476 219.680468 
C 374.1195 218.563444 374.747126 217.048221 374.747126 215.46851 
C 374.747126 213.888799 374.1195 212.373576 373.002476 211.256552 
C 371.885452 210.139527 370.370229 209.511901 368.790518 209.511901 
C 367.210807 209.511901 365.695584 210.139527 364.578559 211.256552 
C 363.461535 212.373576 362.833909 213.888799 362.833909 215.46851 
C 362.833909 217.048221 363.461535 218.563444 364.578559 219.680468 
C 365.695584 220.797493 367.210807 221.425119 368.790518 221.425119 
z
" clip-path="url(#p06fdc8adcc)" style="fill: #6e6e6e; stroke: #6e6e6e"/>
    <path d="M 346.291738 193.473315 
C 348.036015 193.473315 349.709086 192.780306 350.942476 191.546916 
C 352.175866 190.313526 352.868874 188.640455 352.868874 186.896178 
C 352.868874 185.151901 352.175866 183.47883 350.942476 182.24544 
C 349.709086 181.01205 348.036015 180.319041 346.291738 180.319041 
C 344.547461 180.319041 342.87439 181.01205 341.641 182.24544 
C 340.407609 183.47883 339.714601 185.151901 339.714601 186.896178 
C 339.714601 188.640455 340.407609 190.313526 341.641 191.546916 
C 342.87439 192.780306 344.547461 193.473315 346.291738 193.473315 
z
" clip-path="url(#p06fdc8adcc)" style="fill: #6e6e6e; stroke: #6e6e6e"/>
    <path d="M 357.247499 161.968692 
C 358.663529 161.968692 360.021753 161.406097 361.023037 160.404812 
C 362.024322 159.403528 362.586917 158.045304 362.586917 156.629274 
C 362.586917 155.213243 362.024322 153.855019 361.023037 152.853735 
C 360.021753 151.85245 358.663529 151.289856 357.247499 151.289856 
C 355.831468 151.289856 354.473244 151.85245 353.47196 152.853735 
C 352.470675 153.855019 351.90808 155.213243 351.90808 156.629274 
C 351.90808 158.045304 352.470675 159.403528 353.47196 160.404812 
C 354.473244 161.406097 355.831468 161.968692 357.247499 161.968692 
z
" clip-path="url(#p06fdc8adcc)" style="fill: #6e6e6e; stroke: #6e6e6e"/>
    <path d="M 304.62933 194.479964 
C 305.91921 194.479964 307.156434 193.967489 308.068517 193.055406 
C 308.9806 192.143323 309.493075 190.906099 309.493075 189.616219 
C 309.493075 188.326339 308.9806 187.089115 308.068517 186.177032 
C 307.156434 185.264949 305.91921 184.752474 304.62933 184.752474 
C 303.33945 184.752474 302.102226 185.264949 301.190143 186.177032 
C 300.27806 187.089115 299.765585 188.326339 299.765585 189.616219 
C 299.765585 190.906099 300.27806 192.143323 301.190143 193.055406 
C 302.102226 193.967489 303.33945 194.479964 304.62933 194.479964 
z
" clip-path="url(#p06fdc8adcc)" style="fill: #6e6e6e; stroke: #6e6e6e"/>
    <path d="M 427.338984 130.915141 
C 428.694807 130.915141 429.995282 130.376467 430.953994 129.417755 
C 431.912706 128.459043 432.451381 127.158568 432.451381 125.802744 
C 432.451381 124.446921 431.912706 123.146446 430.953994 122.187734 
C 429.995282 121.229022 428.694807 120.690348 427.338984 120.690348 
C 425.98316 120.690348 424.682685 121.229022 423.723973 122.187734 
C 422.765261 123.146446 422.226587 124.446921 422.226587 125.802744 
C 422.226587 127.158568 422.765261 128.459043 423.723973 129.417755 
C 424.682685 130.376467 425.98316 130.915141 427.338984 130.915141 
z
" clip-path="url(#p06fdc8adcc)" style="fill: #6e6e6e; stroke: #6e6e6e"/>
    <path d="M 291.348885 153.895979 
C 293.083322 153.895979 294.746954 153.20688 295.973387 151.980448 
C 297.199819 150.754015 297.888918 149.090383 297.888918 147.355946 
C 297.888918 145.621509 297.199819 143.957876 295.973387 142.731444 
C 294.746954 141.505012 293.083322 140.815913 291.348885 140.815913 
C 289.614448 140.815913 287.950815 141.505012 286.724383 142.731444 
C 285.497951 143.957876 284.808852 145.621509 284.808852 147.355946 
C 284.808852 149.090383 285.497951 150.754015 286.724383 151.980448 
C 287.950815 153.20688 289.614448 153.895979 291.348885 153.895979 
z
" clip-path="url(#p06fdc8adcc)" style="fill: #6e6e6e; stroke: #6e6e6e"/>
    <path d="M 263.63805 183.742176 
C 265.378568 183.742176 267.048034 183.050661 268.278766 181.819928 
C 269.509499 180.589196 270.201014 178.91973 270.201014 177.179212 
C 270.201014 175.438693 269.509499 173.769227 268.278766 172.538495 
C 267.048034 171.307763 265.378568 170.616247 263.63805 170.616247 
C 261.897531 170.616247 260.228065 171.307763 258.997333 172.538495 
C 257.766601 173.769227 257.075085 175.438693 257.075085 177.179212 
C 257.075085 178.91973 257.766601 180.589196 258.997333 181.819928 
C 260.228065 183.050661 261.897531 183.742176 263.63805 183.742176 
z
" clip-path="url(#p06fdc8adcc)" style="fill: #6e6e6e; stroke: #6e6e6e"/>
    <path d="M 360.023588 261.712554 
C 360.939918 261.712554 361.81884 261.348493 362.466783 260.70055 
C 363.114726 260.052607 363.478787 259.173685 363.478787 258.257355 
C 363.478787 257.341026 363.114726 256.462103 362.466783 255.81416 
C 361.81884 255.166218 360.939918 254.802156 360.023588 254.802156 
C 359.107259 254.802156 358.228336 255.166218 357.580394 255.81416 
C 356.932451 256.462103 356.568389 257.341026 356.568389 258.257355 
C 356.568389 259.173685 356.932451 260.052607 357.580394 260.70055 
C 358.228336 261.348493 359.107259 261.712554 360.023588 261.712554 
z
" clip-path="url(#p06fdc8adcc)" style="fill: #cc79a7; stroke: #cc79a7"/>
    <path d="M 291.483007 240.30064 
C 293.16672 240.30064 294.781699 239.631694 295.972264 238.441129 
C 297.162829 237.250564 297.831776 235.635584 297.831776 233.951871 
C 297.831776 232.268158 297.162829 230.653178 295.972264 229.462613 
C 294.781699 228.272048 293.16672 227.603102 291.483007 227.603102 
C 289.799293 227.603102 288.184314 228.272048 286.993749 229.462613 
C 285.803184 230.653178 285.134237 232.268158 285.134237 233.951871 
C 285.134237 235.635584 285.803184 237.250564 286.993749 238.441129 
C 288.184314 239.631694 289.799293 240.30064 291.483007 240.30064 
z
" clip-path="url(#p06fdc8adcc)" style="fill: #6e6e6e; stroke: #6e6e6e"/>
    <path d="M 345.523359 122.59655 
C 346.520048 122.59655 347.476049 122.200561 348.180814 121.495796 
C 348.88558 120.791031 349.281568 119.83503 349.281568 118.838341 
C 349.281568 117.841652 348.88558 116.885651 348.180814 116.180886 
C 347.476049 115.47612 346.520048 115.080132 345.523359 115.080132 
C 344.526671 115.080132 343.57067 115.47612 342.865904 116.180886 
C 342.161139 116.885651 341.76515 117.841652 341.76515 118.838341 
C 341.76515 119.83503 342.161139 120.791031 342.865904 121.495796 
C 343.57067 122.200561 344.526671 122.59655 345.523359 122.59655 
z
" clip-path="url(#p06fdc8adcc)" style="fill: #6e6e6e; stroke: #6e6e6e"/>
    <path d="M 380.076376 193.167237 
C 381.687443 193.167237 383.232742 192.527153 384.371939 191.387956 
C 385.511136 190.248759 386.15122 188.70346 386.15122 187.092393 
C 386.15122 185.481325 385.511136 183.936026 384.371939 182.796829 
C 383.232742 181.657633 381.687443 181.017549 380.076376 181.017549 
C 378.465308 181.017549 376.920009 181.657633 375.780812 182.796829 
C 374.641616 183.936026 374.001532 185.481325 374.001532 187.092393 
C 374.001532 188.70346 374.641616 190.248759 375.780812 191.387956 
C 376.920009 192.527153 378.465308 193.167237 380.076376 193.167237 
z
" clip-path="url(#p06fdc8adcc)" style="fill: #6e6e6e; stroke: #6e6e6e"/>
    <path d="M 265.842466 279.330434 
C 267.285523 279.330434 268.669669 278.757102 269.690064 277.736707 
C 270.710459 276.716312 271.283791 275.332166 271.283791 273.88911 
C 271.283791 272.446054 270.710459 271.061907 269.690064 270.041512 
C 268.669669 269.021118 267.285523 268.447785 265.842466 268.447785 
C 264.39941 268.447785 263.015264 269.021118 261.994869 270.041512 
C 260.974474 271.061907 260.401142 272.446054 260.401142 273.88911 
C 260.401142 275.332166 260.974474 276.716312 261.994869 277.736707 
C 263.015264 278.757102 264.39941 279.330434 265.842466 279.330434 
z
" clip-path="url(#p06fdc8adcc)" style="fill: #6e6e6e; stroke: #6e6e6e"/>
    <path d="M 308.287295 216.177913 
C 309.314306 216.177913 310.299391 215.769878 311.025598 215.043672 
C 311.751804 214.317465 312.159839 213.33238 312.159839 212.305369 
C 312.159839 211.278359 311.751804 210.293273 311.025598 209.567067 
C 310.299391 208.840861 309.314306 208.432825 308.287295 208.432825 
C 307.260285 208.432825 306.275199 208.840861 305.548993 209.567067 
C 304.822787 210.293273 304.414751 211.278359 304.414751 212.305369 
C 304.414751 213.33238 304.822787 214.317465 305.548993 215.043672 
C 306.275199 215.769878 307.260285 216.177913 308.287295 216.177913 
z
" clip-path="url(#p06fdc8adcc)" style="fill: #cc79a7; stroke: #cc79a7"/>
    <path d="M 343.577796 239.224417 
C 344.923072 239.224417 346.21343 238.689933 347.164684 237.73868 
C 348.115938 236.787426 348.650422 235.497068 348.650422 234.151791 
C 348.650422 232.806515 348.115938 231.516157 347.164684 230.564903 
C 346.21343 229.613649 344.923072 229.079166 343.577796 229.079166 
C 342.23252 229.079166 340.942162 229.613649 339.990908 230.564903 
C 339.039654 231.516157 338.50517 232.806515 338.50517 234.151791 
C 338.50517 235.497068 339.039654 236.787426 339.990908 237.73868 
C 340.942162 238.689933 342.23252 239.224417 343.577796 239.224417 
z
" clip-path="url(#p06fdc8adcc)" style="fill: #6e6e6e; stroke: #6e6e6e"/>
    <path d="M 417.574883 286.820214 
C 418.533312 286.820214 419.452615 286.439426 420.130326 285.761714 
C 420.808037 285.084003 421.188825 284.1647 421.188825 283.206271 
C 421.188825 282.247843 420.808037 281.32854 420.130326 280.650828 
C 419.452615 279.973117 418.533312 279.592329 417.574883 279.592329 
C 416.616454 279.592329 415.697151 279.973117 415.01944 280.650828 
C 414.341728 281.32854 413.960941 282.247843 413.960941 283.206271 
C 413.960941 284.1647 414.341728 285.084003 415.01944 285.761714 
C 415.697151 286.439426 416.616454 286.820214 417.574883 286.820214 
z
" clip-path="url(#p06fdc8adcc)" style="fill: #cc79a7; stroke: #cc79a7"/>
    <path d="M 408.202698 231.883357 
C 409.335586 231.883357 410.422226 231.433256 411.223299 230.632183 
C 412.024372 229.83111 412.474473 228.74447 412.474473 227.611582 
C 412.474473 226.478694 412.024372 225.392054 411.223299 224.590981 
C 410.422226 223.789908 409.335586 223.339807 408.202698 223.339807 
C 407.06981 223.339807 405.98317 223.789908 405.182097 224.590981 
C 404.381024 225.392054 403.930923 226.478694 403.930923 227.611582 
C 403.930923 228.74447 404.381024 229.83111 405.182097 230.632183 
C 405.98317 231.433256 407.06981 231.883357 408.202698 231.883357 
z
" clip-path="url(#p06fdc8adcc)" style="fill: #cc79a7; stroke: #cc79a7"/>
    <path d="M 486.11854 196.708482 
C 487.075719 196.708482 487.993823 196.328191 488.67065 195.651364 
C 489.347478 194.974536 489.727769 194.056432 489.727769 193.099254 
C 489.727769 192.142075 489.347478 191.223971 488.67065 190.547144 
C 487.993823 189.870316 487.075719 189.490025 486.11854 189.490025 
C 485.161361 189.490025 484.243257 189.870316 483.56643 190.547144 
C 482.889602 191.223971 482.509311 192.142075 482.509311 193.099254 
C 482.509311 194.056432 482.889602 194.974536 483.56643 195.651364 
C 484.243257 196.328191 485.161361 196.708482 486.11854 196.708482 
z
" clip-path="url(#p06fdc8adcc)" style="fill: #cc79a7; stroke: #cc79a7"/>
    <path d="M 443.849878 219.166539 
C 444.658695 219.166539 445.434495 218.845192 446.006415 218.273271 
C 446.578336 217.701351 446.899683 216.925551 446.899683 216.116733 
C 446.899683 215.307916 446.578336 214.532116 446.006415 213.960196 
C 445.434495 213.388275 444.658695 213.066928 443.849878 213.066928 
C 443.04106 213.066928 442.26526 213.388275 441.69334 213.960196 
C 441.121419 214.532116 440.800072 215.307916 440.800072 216.116733 
C 440.800072 216.925551 441.121419 217.701351 441.69334 218.273271 
C 442.26526 218.845192 443.04106 219.166539 443.849878 219.166539 
z
" clip-path="url(#p06fdc8adcc)" style="fill: #cc79a7; stroke: #cc79a7"/>
    <path d="M 437.569284 181.113627 
C 438.314428 181.113627 439.029152 180.817578 439.556048 180.290682 
C 440.082944 179.763786 440.378993 179.049062 440.378993 178.303918 
C 440.378993 177.558774 440.082944 176.84405 439.556048 176.317154 
C 439.029152 175.790258 438.314428 175.494209 437.569284 175.494209 
C 436.82414 175.494209 436.109416 175.790258 435.58252 176.317154 
C 435.055624 176.84405 434.759575 177.558774 434.759575 178.303918 
C 434.759575 179.049062 435.055624 179.763786 435.58252 180.290682 
C 436.109416 180.817578 436.82414 181.113627 437.569284 181.113627 
z
" clip-path="url(#p06fdc8adcc)" style="fill: #cc79a7; stroke: #cc79a7"/>
    <path d="M 429.777866 153.771389 
C 430.522329 153.771389 431.236402 153.475611 431.762817 152.949195 
C 432.289233 152.42278 432.585011 151.708707 432.585011 150.964243 
C 432.585011 150.21978 432.289233 149.505707 431.762817 148.979292 
C 431.236402 148.452876 430.522329 148.157098 429.777866 148.157098 
C 429.033402 148.157098 428.319329 148.452876 427.792914 148.979292 
C 427.266498 149.505707 426.97072 150.21978 426.97072 150.964243 
C 426.97072 151.708707 427.266498 152.42278 427.792914 152.949195 
C 428.319329 153.475611 429.033402 153.771389 429.777866 153.771389 
z
" clip-path="url(#p06fdc8adcc)" style="fill: #cc79a7; stroke: #cc79a7"/>
    <path d="M 289.103997 289.779792 
C 290.023635 289.779792 290.90573 289.414416 291.556012 288.764135 
C 292.206294 288.113853 292.571669 287.231758 292.571669 286.31212 
C 292.571669 285.392483 292.206294 284.510388 291.556012 283.860106 
C 290.90573 283.209824 290.023635 282.844448 289.103997 282.844448 
C 288.18436 282.844448 287.302265 283.209824 286.651983 283.860106 
C 286.001701 284.510388 285.636325 285.392483 285.636325 286.31212 
C 285.636325 287.231758 286.001701 288.113853 286.651983 288.764135 
C 287.302265 289.414416 288.18436 289.779792 289.103997 289.779792 
z
" clip-path="url(#p06fdc8adcc)" style="fill: #cc79a7; stroke: #cc79a7"/>
    <path d="M 267.501247 81.525968 
C 268.594051 81.525968 269.642244 81.091793 270.414972 80.319064 
C 271.187701 79.546335 271.621877 78.498143 271.621877 77.405339 
C 271.621877 76.312535 271.187701 75.264343 270.414972 74.491614 
C 269.642244 73.718885 268.594051 73.28471 267.501247 73.28471 
C 266.408444 73.28471 265.360251 73.718885 264.587522 74.491614 
C 263.814794 75.264343 263.380618 76.312535 263.380618 77.405339 
C 263.380618 78.498143 263.814794 79.546335 264.587522 80.319064 
C 265.360251 81.091793 266.408444 81.525968 267.501247 81.525968 
z
" clip-path="url(#p06fdc8adcc)" style="fill: #6e6e6e; stroke: #6e6e6e"/>
    <path d="M 246.307522 218.766001 
C 247.704973 218.766001 249.045377 218.210788 250.033524 217.22264 
C 251.021671 216.234493 251.576885 214.894089 251.576885 213.496638 
C 251.576885 212.099186 251.021671 210.758783 250.033524 209.770635 
C 249.045377 208.782488 247.704973 208.227275 246.307522 208.227275 
C 244.91007 208.227275 243.569666 208.782488 242.581519 209.770635 
C 241.593372 210.758783 241.038158 212.099186 241.038158 213.496638 
C 241.038158 214.894089 241.593372 216.234493 242.581519 217.22264 
C 243.569666 218.210788 244.91007 218.766001 246.307522 218.766001 
z
" clip-path="url(#p06fdc8adcc)" style="fill: #6e6e6e; stroke: #6e6e6e"/>
   </g>
   <g id="text_1">
    <g clip-path="url(#p06fdc8adcc)">
     <!-- Alo gera -->
     <g transform="translate(356.293643 217.124135) scale(0.06 -0.06)">
      <defs>
       <path id="DejaVuSans-41" d="M 2188 4044 
L 1331 1722 
L 3047 1722 
L 2188 4044 
z
M 1831 4666 
L 2547 4666 
L 4325 0 
L 3669 0 
L 3244 1197 
L 1141 1197 
L 716 0 
L 50 0 
L 1831 4666 
z
" transform="scale(0.015625)"/>
       <path id="DejaVuSans-6c" d="M 603 4863 
L 1178 4863 
L 1178 0 
L 603 0 
L 603 4863 
z
" transform="scale(0.015625)"/>
       <path id="DejaVuSans-6f" d="M 1959 3097 
Q 1497 3097 1228 2736 
Q 959 2375 959 1747 
Q 959 1119 1226 758 
Q 1494 397 1959 397 
Q 2419 397 2687 759 
Q 2956 1122 2956 1747 
Q 2956 2369 2687 2733 
Q 2419 3097 1959 3097 
z
M 1959 3584 
Q 2709 3584 3137 3096 
Q 3566 2609 3566 1747 
Q 3566 888 3137 398 
Q 2709 -91 1959 -91 
Q 1206 -91 779 398 
Q 353 888 353 1747 
Q 353 2609 779 3096 
Q 1206 3584 1959 3584 
z
" transform="scale(0.015625)"/>
       <path id="DejaVuSans-20" transform="scale(0.015625)"/>
       <path id="DejaVuSans-67" d="M 2906 1791 
Q 2906 2416 2648 2759 
Q 2391 3103 1925 3103 
Q 1463 3103 1205 2759 
Q 947 2416 947 1791 
Q 947 1169 1205 825 
Q 1463 481 1925 481 
Q 2391 481 2648 825 
Q 2906 1169 2906 1791 
z
M 3481 434 
Q 3481 -459 3084 -895 
Q 2688 -1331 1869 -1331 
Q 1566 -1331 1297 -1286 
Q 1028 -1241 775 -1147 
L 775 -588 
Q 1028 -725 1275 -790 
Q 1522 -856 1778 -856 
Q 2344 -856 2625 -561 
Q 2906 -266 2906 331 
L 2906 616 
Q 2728 306 2450 153 
Q 2172 0 1784 0 
Q 1141 0 747 490 
Q 353 981 353 1791 
Q 353 2603 747 3093 
Q 1141 3584 1784 3584 
Q 2172 3584 2450 3431 
Q 2728 3278 2906 2969 
L 2906 3500 
L 3481 3500 
L 3481 434 
z
" transform="scale(0.015625)"/>
       <path id="DejaVuSans-65" d="M 3597 1894 
L 3597 1613 
L 953 1613 
Q 991 1019 1311 708 
Q 1631 397 2203 397 
Q 2534 397 2845 478 
Q 3156 559 3463 722 
L 3463 178 
Q 3153 47 2828 -22 
Q 2503 -91 2169 -91 
Q 1331 -91 842 396 
Q 353 884 353 1716 
Q 353 2575 817 3079 
Q 1281 3584 2069 3584 
Q 2775 3584 3186 3129 
Q 3597 2675 3597 1894 
z
M 3022 2063 
Q 3016 2534 2758 2815 
Q 2500 3097 2075 3097 
Q 1594 3097 1305 2825 
Q 1016 2553 972 2059 
L 3022 2063 
z
" transform="scale(0.015625)"/>
       <path id="DejaVuSans-72" d="M 2631 2963 
Q 2534 3019 2420 3045 
Q 2306 3072 2169 3072 
Q 1681 3072 1420 2755 
Q 1159 2438 1159 1844 
L 1159 0 
L 581 0 
L 581 3500 
L 1159 3500 
L 1159 2956 
Q 1341 3275 1631 3429 
Q 1922 3584 2338 3584 
Q 2397 3584 2469 3576 
Q 2541 3569 2628 3553 
L 2631 2963 
z
" transform="scale(0.015625)"/>
       <path id="DejaVuSans-61" d="M 2194 1759 
Q 1497 1759 1228 1600 
Q 959 1441 959 1056 
Q 959 750 1161 570 
Q 1363 391 1709 391 
Q 2188 391 2477 730 
Q 2766 1069 2766 1631 
L 2766 1759 
L 2194 1759 
z
M 3341 1997 
L 3341 0 
L 2766 0 
L 2766 531 
Q 2569 213 2275 61 
Q 1981 -91 1556 -91 
Q 1019 -91 701 211 
Q 384 513 384 1019 
Q 384 1609 779 1909 
Q 1175 2209 1959 2209 
L 2766 2209 
L 2766 2266 
Q 2766 2663 2505 2880 
Q 2244 3097 1772 3097 
Q 1472 3097 1187 3025 
Q 903 2953 641 2809 
L 641 3341 
Q 956 3463 1253 3523 
Q 1550 3584 1831 3584 
Q 2591 3584 2966 3190 
Q 3341 2797 3341 1997 
z
" transform="scale(0.015625)"/>
      </defs>
      <use xlink:href="#DejaVuSans-41"/>
      <use xlink:href="#DejaVuSans-6c" transform="translate(68.408203 0)"/>
      <use xlink:href="#DejaVuSans-6f" transform="translate(96.191406 0)"/>
      <use xlink:href="#DejaVuSans-20" transform="translate(157.373047 0)"/>
      <use xlink:href="#DejaVuSans-67" transform="translate(189.160156 0)"/>
      <use xlink:href="#DejaVuSans-65" transform="translate(252.636719 0)"/>
      <use xlink:href="#DejaVuSans-72" transform="translate(314.160156 0)"/>
      <use xlink:href="#DejaVuSans-61" transform="translate(355.273438 0)"/>
     </g>
    </g>
   </g>
   <g id="text_2">
    <g clip-path="url(#p06fdc8adcc)">
     <!-- Car semp -->
     <g transform="translate(331.936269 188.551803) scale(0.06 -0.06)">
      <defs>
       <path id="DejaVuSans-43" d="M 4122 4306 
L 4122 3641 
Q 3803 3938 3442 4084 
Q 3081 4231 2675 4231 
Q 1875 4231 1450 3742 
Q 1025 3253 1025 2328 
Q 1025 1406 1450 917 
Q 1875 428 2675 428 
Q 3081 428 3442 575 
Q 3803 722 4122 1019 
L 4122 359 
Q 3791 134 3420 21 
Q 3050 -91 2638 -91 
Q 1578 -91 968 557 
Q 359 1206 359 2328 
Q 359 3453 968 4101 
Q 1578 4750 2638 4750 
Q 3056 4750 3426 4639 
Q 3797 4528 4122 4306 
z
" transform="scale(0.015625)"/>
       <path id="DejaVuSans-73" d="M 2834 3397 
L 2834 2853 
Q 2591 2978 2328 3040 
Q 2066 3103 1784 3103 
Q 1356 3103 1142 2972 
Q 928 2841 928 2578 
Q 928 2378 1081 2264 
Q 1234 2150 1697 2047 
L 1894 2003 
Q 2506 1872 2764 1633 
Q 3022 1394 3022 966 
Q 3022 478 2636 193 
Q 2250 -91 1575 -91 
Q 1294 -91 989 -36 
Q 684 19 347 128 
L 347 722 
Q 666 556 975 473 
Q 1284 391 1588 391 
Q 1994 391 2212 530 
Q 2431 669 2431 922 
Q 2431 1156 2273 1281 
Q 2116 1406 1581 1522 
L 1381 1569 
Q 847 1681 609 1914 
Q 372 2147 372 2553 
Q 372 3047 722 3315 
Q 1072 3584 1716 3584 
Q 2034 3584 2315 3537 
Q 2597 3491 2834 3397 
z
" transform="scale(0.015625)"/>
       <path id="DejaVuSans-6d" d="M 3328 2828 
Q 3544 3216 3844 3400 
Q 4144 3584 4550 3584 
Q 5097 3584 5394 3201 
Q 5691 2819 5691 2113 
L 5691 0 
L 5113 0 
L 5113 2094 
Q 5113 2597 4934 2840 
Q 4756 3084 4391 3084 
Q 3944 3084 3684 2787 
Q 3425 2491 3425 1978 
L 3425 0 
L 2847 0 
L 2847 2094 
Q 2847 2600 2669 2842 
Q 2491 3084 2119 3084 
Q 1678 3084 1418 2786 
Q 1159 2488 1159 1978 
L 1159 0 
L 581 0 
L 581 3500 
L 1159 3500 
L 1159 2956 
Q 1356 3278 1631 3431 
Q 1906 3584 2284 3584 
Q 2666 3584 2933 3390 
Q 3200 3197 3328 2828 
z
" transform="scale(0.015625)"/>
       <path id="DejaVuSans-70" d="M 1159 525 
L 1159 -1331 
L 581 -1331 
L 581 3500 
L 1159 3500 
L 1159 2969 
Q 1341 3281 1617 3432 
Q 1894 3584 2278 3584 
Q 2916 3584 3314 3078 
Q 3713 2572 3713 1747 
Q 3713 922 3314 415 
Q 2916 -91 2278 -91 
Q 1894 -91 1617 61 
Q 1341 213 1159 525 
z
M 3116 1747 
Q 3116 2381 2855 2742 
Q 2594 3103 2138 3103 
Q 1681 3103 1420 2742 
Q 1159 2381 1159 1747 
Q 1159 1113 1420 752 
Q 1681 391 2138 391 
Q 2594 391 2855 752 
Q 3116 1113 3116 1747 
z
" transform="scale(0.015625)"/>
      </defs>
      <use xlink:href="#DejaVuSans-43"/>
      <use xlink:href="#DejaVuSans-61" transform="translate(69.824219 0)"/>
      <use xlink:href="#DejaVuSans-72" transform="translate(131.103516 0)"/>
      <use xlink:href="#DejaVuSans-20" transform="translate(172.216797 0)"/>
      <use xlink:href="#DejaVuSans-73" transform="translate(204.003906 0)"/>
      <use xlink:href="#DejaVuSans-65" transform="translate(256.103516 0)"/>
      <use xlink:href="#DejaVuSans-6d" transform="translate(317.626953 0)"/>
      <use xlink:href="#DejaVuSans-70" transform="translate(415.039062 0)"/>
     </g>
    </g>
   </g>
   <g id="text_3">
    <g clip-path="url(#p06fdc8adcc)">
     <!-- Nar stri -->
     <g transform="translate(346.172342 158.284899) scale(0.06 -0.06)">
      <defs>
       <path id="DejaVuSans-4e" d="M 628 4666 
L 1478 4666 
L 3547 763 
L 3547 4666 
L 4159 4666 
L 4159 0 
L 3309 0 
L 1241 3903 
L 1241 0 
L 628 0 
L 628 4666 
z
" transform="scale(0.015625)"/>
       <path id="DejaVuSans-74" d="M 1172 4494 
L 1172 3500 
L 2356 3500 
L 2356 3053 
L 1172 3053 
L 1172 1153 
Q 1172 725 1289 603 
Q 1406 481 1766 481 
L 2356 481 
L 2356 0 
L 1766 0 
Q 1100 0 847 248 
Q 594 497 594 1153 
L 594 3053 
L 172 3053 
L 172 3500 
L 594 3500 
L 594 4494 
L 1172 4494 
z
" transform="scale(0.015625)"/>
       <path id="DejaVuSans-69" d="M 603 3500 
L 1178 3500 
L 1178 0 
L 603 0 
L 603 3500 
z
M 603 4863 
L 1178 4863 
L 1178 4134 
L 603 4134 
L 603 4863 
z
" transform="scale(0.015625)"/>
      </defs>
      <use xlink:href="#DejaVuSans-4e"/>
      <use xlink:href="#DejaVuSans-61" transform="translate(74.804688 0)"/>
      <use xlink:href="#DejaVuSans-72" transform="translate(136.083984 0)"/>
      <use xlink:href="#DejaVuSans-20" transform="translate(177.197266 0)"/>
      <use xlink:href="#DejaVuSans-73" transform="translate(208.984375 0)"/>
      <use xlink:href="#DejaVuSans-74" transform="translate(261.083984 0)"/>
      <use xlink:href="#DejaVuSans-72" transform="translate(300.292969 0)"/>
      <use xlink:href="#DejaVuSans-69" transform="translate(341.40625 0)"/>
     </g>
    </g>
   </g>
   <g id="text_4">
    <g clip-path="url(#p06fdc8adcc)">
     <!-- Pla mari -->
     <g transform="translate(292.367767 191.271844) scale(0.06 -0.06)">
      <defs>
       <path id="DejaVuSans-50" d="M 1259 4147 
L 1259 2394 
L 2053 2394 
Q 2494 2394 2734 2622 
Q 2975 2850 2975 3272 
Q 2975 3691 2734 3919 
Q 2494 4147 2053 4147 
L 1259 4147 
z
M 628 4666 
L 2053 4666 
Q 2838 4666 3239 4311 
Q 3641 3956 3641 3272 
Q 3641 2581 3239 2228 
Q 2838 1875 2053 1875 
L 1259 1875 
L 1259 0 
L 628 0 
L 628 4666 
z
" transform="scale(0.015625)"/>
      </defs>
      <use xlink:href="#DejaVuSans-50"/>
      <use xlink:href="#DejaVuSans-6c" transform="translate(60.302734 0)"/>
      <use xlink:href="#DejaVuSans-61" transform="translate(88.085938 0)"/>
      <use xlink:href="#DejaVuSans-20" transform="translate(149.365234 0)"/>
      <use xlink:href="#DejaVuSans-6d" transform="translate(181.152344 0)"/>
      <use xlink:href="#DejaVuSans-61" transform="translate(278.564453 0)"/>
      <use xlink:href="#DejaVuSans-72" transform="translate(339.84375 0)"/>
      <use xlink:href="#DejaVuSans-69" transform="translate(380.957031 0)"/>
     </g>
    </g>
   </g>
   <g id="text_5">
    <g clip-path="url(#p06fdc8adcc)">
     <!-- Fes hall -->
     <g transform="translate(416.009765 127.458369) scale(0.06 -0.06)">
      <defs>
       <path id="DejaVuSans-46" d="M 628 4666 
L 3309 4666 
L 3309 4134 
L 1259 4134 
L 1259 2759 
L 3109 2759 
L 3109 2228 
L 1259 2228 
L 1259 0 
L 628 0 
L 628 4666 
z
" transform="scale(0.015625)"/>
       <path id="DejaVuSans-68" d="M 3513 2113 
L 3513 0 
L 2938 0 
L 2938 2094 
Q 2938 2591 2744 2837 
Q 2550 3084 2163 3084 
Q 1697 3084 1428 2787 
Q 1159 2491 1159 1978 
L 1159 0 
L 581 0 
L 581 4863 
L 1159 4863 
L 1159 2956 
Q 1366 3272 1645 3428 
Q 1925 3584 2291 3584 
Q 2894 3584 3203 3211 
Q 3513 2838 3513 2113 
z
" transform="scale(0.015625)"/>
      </defs>
      <use xlink:href="#DejaVuSans-46"/>
      <use xlink:href="#DejaVuSans-65" transform="translate(52.019531 0)"/>
      <use xlink:href="#DejaVuSans-73" transform="translate(113.542969 0)"/>
      <use xlink:href="#DejaVuSans-20" transform="translate(165.642578 0)"/>
      <use xlink:href="#DejaVuSans-68" transform="translate(197.429688 0)"/>
      <use xlink:href="#DejaVuSans-61" transform="translate(260.808594 0)"/>
      <use xlink:href="#DejaVuSans-6c" transform="translate(322.087891 0)"/>
      <use xlink:href="#DejaVuSans-6c" transform="translate(349.871094 0)"/>
     </g>
    </g>
   </g>
   <g id="text_6">
    <g clip-path="url(#p06fdc8adcc)">
     <!-- Pot aure -->
     <g transform="translate(278.932166 149.011571) scale(0.06 -0.06)">
      <defs>
       <path id="DejaVuSans-75" d="M 544 1381 
L 544 3500 
L 1119 3500 
L 1119 1403 
Q 1119 906 1312 657 
Q 1506 409 1894 409 
Q 2359 409 2629 706 
Q 2900 1003 2900 1516 
L 2900 3500 
L 3475 3500 
L 3475 0 
L 2900 0 
L 2900 538 
Q 2691 219 2414 64 
Q 2138 -91 1772 -91 
Q 1169 -91 856 284 
Q 544 659 544 1381 
z
M 1991 3584 
L 1991 3584 
z
" transform="scale(0.015625)"/>
      </defs>
      <use xlink:href="#DejaVuSans-50"/>
      <use xlink:href="#DejaVuSans-6f" transform="translate(56.677734 0)"/>
      <use xlink:href="#DejaVuSans-74" transform="translate(117.859375 0)"/>
      <use xlink:href="#DejaVuSans-20" transform="translate(157.068359 0)"/>
      <use xlink:href="#DejaVuSans-61" transform="translate(188.855469 0)"/>
      <use xlink:href="#DejaVuSans-75" transform="translate(250.134766 0)"/>
      <use xlink:href="#DejaVuSans-72" transform="translate(313.513672 0)"/>
      <use xlink:href="#DejaVuSans-65" transform="translate(352.376953 0)"/>
     </g>
    </g>
   </g>
   <g id="text_7">
    <g clip-path="url(#p06fdc8adcc)">
     <!-- Tri alpi -->
     <g transform="translate(253.818206 178.834837) scale(0.06 -0.06)">
      <defs>
       <path id="DejaVuSans-54" d="M -19 4666 
L 3928 4666 
L 3928 4134 
L 2272 4134 
L 2272 0 
L 1638 0 
L 1638 4134 
L -19 4134 
L -19 4666 
z
" transform="scale(0.015625)"/>
      </defs>
      <use xlink:href="#DejaVuSans-54"/>
      <use xlink:href="#DejaVuSans-72" transform="translate(46.333984 0)"/>
      <use xlink:href="#DejaVuSans-69" transform="translate(87.447266 0)"/>
      <use xlink:href="#DejaVuSans-20" transform="translate(115.230469 0)"/>
      <use xlink:href="#DejaVuSans-61" transform="translate(147.017578 0)"/>
      <use xlink:href="#DejaVuSans-6c" transform="translate(208.296875 0)"/>
      <use xlink:href="#DejaVuSans-70" transform="translate(236.080078 0)"/>
      <use xlink:href="#DejaVuSans-69" transform="translate(299.556641 0)"/>
     </g>
    </g>
   </g>
   <g id="text_8">
    <g clip-path="url(#p06fdc8adcc)">
     <!-- Agr rupe -->
     <g transform="translate(346.995151 259.91298) scale(0.06 -0.06)">
      <use xlink:href="#DejaVuSans-41"/>
      <use xlink:href="#DejaVuSans-67" transform="translate(68.408203 0)"/>
      <use xlink:href="#DejaVuSans-72" transform="translate(131.884766 0)"/>
      <use xlink:href="#DejaVuSans-20" transform="translate(172.998047 0)"/>
      <use xlink:href="#DejaVuSans-72" transform="translate(204.785156 0)"/>
      <use xlink:href="#DejaVuSans-75" transform="translate(245.898438 0)"/>
      <use xlink:href="#DejaVuSans-70" transform="translate(309.277344 0)"/>
      <use xlink:href="#DejaVuSans-65" transform="translate(372.753906 0)"/>
     </g>
    </g>
   </g>
   <g id="text_9">
    <g clip-path="url(#p06fdc8adcc)">
     <!-- Poa alpi -->
     <g transform="translate(279.745507 235.607496) scale(0.06 -0.06)">
      <use xlink:href="#DejaVuSans-50"/>
      <use xlink:href="#DejaVuSans-6f" transform="translate(56.677734 0)"/>
      <use xlink:href="#DejaVuSans-61" transform="translate(117.859375 0)"/>
      <use xlink:href="#DejaVuSans-20" transform="translate(179.138672 0)"/>
      <use xlink:href="#DejaVuSans-61" transform="translate(210.925781 0)"/>
      <use xlink:href="#DejaVuSans-6c" transform="translate(272.205078 0)"/>
      <use xlink:href="#DejaVuSans-70" transform="translate(299.988281 0)"/>
      <use xlink:href="#DejaVuSans-69" transform="translate(363.464844 0)"/>
     </g>
    </g>
   </g>
   <g id="text_10">
    <g clip-path="url(#p06fdc8adcc)">
     <!-- Bis vivi -->
     <g transform="translate(334.897266 120.493966) scale(0.06 -0.06)">
      <defs>
       <path id="DejaVuSans-42" d="M 1259 2228 
L 1259 519 
L 2272 519 
Q 2781 519 3026 730 
Q 3272 941 3272 1375 
Q 3272 1813 3026 2020 
Q 2781 2228 2272 2228 
L 1259 2228 
z
M 1259 4147 
L 1259 2741 
L 2194 2741 
Q 2656 2741 2882 2914 
Q 3109 3088 3109 3444 
Q 3109 3797 2882 3972 
Q 2656 4147 2194 4147 
L 1259 4147 
z
M 628 4666 
L 2241 4666 
Q 2963 4666 3353 4366 
Q 3744 4066 3744 3513 
Q 3744 3084 3544 2831 
Q 3344 2578 2956 2516 
Q 3422 2416 3680 2098 
Q 3938 1781 3938 1306 
Q 3938 681 3513 340 
Q 3088 0 2303 0 
L 628 0 
L 628 4666 
z
" transform="scale(0.015625)"/>
       <path id="DejaVuSans-76" d="M 191 3500 
L 800 3500 
L 1894 563 
L 2988 3500 
L 3597 3500 
L 2284 0 
L 1503 0 
L 191 3500 
z
" transform="scale(0.015625)"/>
      </defs>
      <use xlink:href="#DejaVuSans-42"/>
      <use xlink:href="#DejaVuSans-69" transform="translate(68.603516 0)"/>
      <use xlink:href="#DejaVuSans-73" transform="translate(96.386719 0)"/>
      <use xlink:href="#DejaVuSans-20" transform="translate(148.486328 0)"/>
      <use xlink:href="#DejaVuSans-76" transform="translate(180.273438 0)"/>
      <use xlink:href="#DejaVuSans-69" transform="translate(239.453125 0)"/>
      <use xlink:href="#DejaVuSans-76" transform="translate(267.236328 0)"/>
      <use xlink:href="#DejaVuSans-69" transform="translate(326.416016 0)"/>
     </g>
    </g>
   </g>
   <g id="text_11">
    <g clip-path="url(#p06fdc8adcc)">
     <!-- Fes nigr -->
     <g transform="translate(368.281219 188.748018) scale(0.06 -0.06)">
      <defs>
       <path id="DejaVuSans-6e" d="M 3513 2113 
L 3513 0 
L 2938 0 
L 2938 2094 
Q 2938 2591 2744 2837 
Q 2550 3084 2163 3084 
Q 1697 3084 1428 2787 
Q 1159 2491 1159 1978 
L 1159 0 
L 581 0 
L 581 3500 
L 1159 3500 
L 1159 2956 
Q 1366 3272 1645 3428 
Q 1925 3584 2291 3584 
Q 2894 3584 3203 3211 
Q 3513 2838 3513 2113 
z
" transform="scale(0.015625)"/>
      </defs>
      <use xlink:href="#DejaVuSans-46"/>
      <use xlink:href="#DejaVuSans-65" transform="translate(52.019531 0)"/>
      <use xlink:href="#DejaVuSans-73" transform="translate(113.542969 0)"/>
      <use xlink:href="#DejaVuSans-20" transform="translate(165.642578 0)"/>
      <use xlink:href="#DejaVuSans-6e" transform="translate(197.429688 0)"/>
      <use xlink:href="#DejaVuSans-69" transform="translate(260.808594 0)"/>
      <use xlink:href="#DejaVuSans-67" transform="translate(288.591797 0)"/>
      <use xlink:href="#DejaVuSans-72" transform="translate(352.068359 0)"/>
     </g>
    </g>
   </g>
   <g id="text_12">
    <g clip-path="url(#p06fdc8adcc)">
     <!-- Vio calc -->
     <g transform="translate(254.264341 275.544735) scale(0.06 -0.06)">
      <defs>
       <path id="DejaVuSans-56" d="M 1831 0 
L 50 4666 
L 709 4666 
L 2188 738 
L 3669 4666 
L 4325 4666 
L 2547 0 
L 1831 0 
z
" transform="scale(0.015625)"/>
       <path id="DejaVuSans-63" d="M 3122 3366 
L 3122 2828 
Q 2878 2963 2633 3030 
Q 2388 3097 2138 3097 
Q 1578 3097 1268 2742 
Q 959 2388 959 1747 
Q 959 1106 1268 751 
Q 1578 397 2138 397 
Q 2388 397 2633 464 
Q 2878 531 3122 666 
L 3122 134 
Q 2881 22 2623 -34 
Q 2366 -91 2075 -91 
Q 1284 -91 818 406 
Q 353 903 353 1747 
Q 353 2603 823 3093 
Q 1294 3584 2113 3584 
Q 2378 3584 2631 3529 
Q 2884 3475 3122 3366 
z
" transform="scale(0.015625)"/>
      </defs>
      <use xlink:href="#DejaVuSans-56"/>
      <use xlink:href="#DejaVuSans-69" transform="translate(66.158203 0)"/>
      <use xlink:href="#DejaVuSans-6f" transform="translate(93.941406 0)"/>
      <use xlink:href="#DejaVuSans-20" transform="translate(155.123047 0)"/>
      <use xlink:href="#DejaVuSans-63" transform="translate(186.910156 0)"/>
      <use xlink:href="#DejaVuSans-61" transform="translate(241.890625 0)"/>
      <use xlink:href="#DejaVuSans-6c" transform="translate(303.169922 0)"/>
      <use xlink:href="#DejaVuSans-63" transform="translate(330.953125 0)"/>
     </g>
    </g>
   </g>
   <g id="text_13">
    <g clip-path="url(#p06fdc8adcc)">
     <!-- Agr capi -->
     <g transform="translate(295.91792 213.960994) scale(0.06 -0.06)">
      <use xlink:href="#DejaVuSans-41"/>
      <use xlink:href="#DejaVuSans-67" transform="translate(68.408203 0)"/>
      <use xlink:href="#DejaVuSans-72" transform="translate(131.884766 0)"/>
      <use xlink:href="#DejaVuSans-20" transform="translate(172.998047 0)"/>
      <use xlink:href="#DejaVuSans-63" transform="translate(204.785156 0)"/>
      <use xlink:href="#DejaVuSans-61" transform="translate(259.765625 0)"/>
      <use xlink:href="#DejaVuSans-70" transform="translate(321.044922 0)"/>
      <use xlink:href="#DejaVuSans-69" transform="translate(384.521484 0)"/>
     </g>
    </g>
   </g>
   <g id="text_14">
    <g clip-path="url(#p06fdc8adcc)">
     <!-- Pla alpi -->
     <g transform="translate(332.733734 235.807416) scale(0.06 -0.06)">
      <use xlink:href="#DejaVuSans-50"/>
      <use xlink:href="#DejaVuSans-6c" transform="translate(60.302734 0)"/>
      <use xlink:href="#DejaVuSans-61" transform="translate(88.085938 0)"/>
      <use xlink:href="#DejaVuSans-20" transform="translate(149.365234 0)"/>
      <use xlink:href="#DejaVuSans-61" transform="translate(181.152344 0)"/>
      <use xlink:href="#DejaVuSans-6c" transform="translate(242.431641 0)"/>
      <use xlink:href="#DejaVuSans-70" transform="translate(270.214844 0)"/>
      <use xlink:href="#DejaVuSans-69" transform="translate(333.691406 0)"/>
     </g>
    </g>
   </g>
   <g id="text_15">
    <g clip-path="url(#p06fdc8adcc)">
     <!-- Ave flex -->
     <g transform="translate(405.665352 284.861896) scale(0.06 -0.06)">
      <defs>
       <path id="DejaVuSans-66" d="M 2375 4863 
L 2375 4384 
L 1825 4384 
Q 1516 4384 1395 4259 
Q 1275 4134 1275 3809 
L 1275 3500 
L 2222 3500 
L 2222 3053 
L 1275 3053 
L 1275 0 
L 697 0 
L 697 3053 
L 147 3053 
L 147 3500 
L 697 3500 
L 697 3744 
Q 697 4328 969 4595 
Q 1241 4863 1831 4863 
L 2375 4863 
z
" transform="scale(0.015625)"/>
       <path id="DejaVuSans-78" d="M 3513 3500 
L 2247 1797 
L 3578 0 
L 2900 0 
L 1881 1375 
L 863 0 
L 184 0 
L 1544 1831 
L 300 3500 
L 978 3500 
L 1906 2253 
L 2834 3500 
L 3513 3500 
z
" transform="scale(0.015625)"/>
      </defs>
      <use xlink:href="#DejaVuSans-41"/>
      <use xlink:href="#DejaVuSans-76" transform="translate(62.533203 0)"/>
      <use xlink:href="#DejaVuSans-65" transform="translate(121.712891 0)"/>
      <use xlink:href="#DejaVuSans-20" transform="translate(183.236328 0)"/>
      <use xlink:href="#DejaVuSans-66" transform="translate(215.023438 0)"/>
      <use xlink:href="#DejaVuSans-6c" transform="translate(250.228516 0)"/>
      <use xlink:href="#DejaVuSans-65" transform="translate(278.011719 0)"/>
      <use xlink:href="#DejaVuSans-78" transform="translate(337.785156 0)"/>
     </g>
    </g>
   </g>
   <g id="text_16">
    <g clip-path="url(#p06fdc8adcc)">
     <!-- Meu atha -->
     <g transform="translate(394.159417 229.267207) scale(0.06 -0.06)">
      <defs>
       <path id="DejaVuSans-4d" d="M 628 4666 
L 1569 4666 
L 2759 1491 
L 3956 4666 
L 4897 4666 
L 4897 0 
L 4281 0 
L 4281 4097 
L 3078 897 
L 2444 897 
L 1241 4097 
L 1241 0 
L 628 0 
L 628 4666 
z
" transform="scale(0.015625)"/>
      </defs>
      <use xlink:href="#DejaVuSans-4d"/>
      <use xlink:href="#DejaVuSans-65" transform="translate(86.279297 0)"/>
      <use xlink:href="#DejaVuSans-75" transform="translate(147.802734 0)"/>
      <use xlink:href="#DejaVuSans-20" transform="translate(211.181641 0)"/>
      <use xlink:href="#DejaVuSans-61" transform="translate(242.96875 0)"/>
      <use xlink:href="#DejaVuSans-74" transform="translate(304.248047 0)"/>
      <use xlink:href="#DejaVuSans-68" transform="translate(343.457031 0)"/>
      <use xlink:href="#DejaVuSans-61" transform="translate(406.835938 0)"/>
     </g>
    </g>
   </g>
   <g id="text_17">
    <g clip-path="url(#p06fdc8adcc)">
     <!-- Pot gran -->
     <g transform="translate(473.575727 194.754879) scale(0.06 -0.06)">
      <use xlink:href="#DejaVuSans-50"/>
      <use xlink:href="#DejaVuSans-6f" transform="translate(56.677734 0)"/>
      <use xlink:href="#DejaVuSans-74" transform="translate(117.859375 0)"/>
      <use xlink:href="#DejaVuSans-20" transform="translate(157.068359 0)"/>
      <use xlink:href="#DejaVuSans-67" transform="translate(188.855469 0)"/>
      <use xlink:href="#DejaVuSans-72" transform="translate(252.332031 0)"/>
      <use xlink:href="#DejaVuSans-61" transform="translate(293.445312 0)"/>
      <use xlink:href="#DejaVuSans-6e" transform="translate(354.724609 0)"/>
     </g>
    </g>
   </g>
   <g id="text_18">
    <g clip-path="url(#p06fdc8adcc)">
     <!-- Hyp macu -->
     <g transform="translate(428.648784 217.772358) scale(0.06 -0.06)">
      <defs>
       <path id="DejaVuSans-48" d="M 628 4666 
L 1259 4666 
L 1259 2753 
L 3553 2753 
L 3553 4666 
L 4184 4666 
L 4184 0 
L 3553 0 
L 3553 2222 
L 1259 2222 
L 1259 0 
L 628 0 
L 628 4666 
z
" transform="scale(0.015625)"/>
       <path id="DejaVuSans-79" d="M 2059 -325 
Q 1816 -950 1584 -1140 
Q 1353 -1331 966 -1331 
L 506 -1331 
L 506 -850 
L 844 -850 
Q 1081 -850 1212 -737 
Q 1344 -625 1503 -206 
L 1606 56 
L 191 3500 
L 800 3500 
L 1894 763 
L 2988 3500 
L 3597 3500 
L 2059 -325 
z
" transform="scale(0.015625)"/>
      </defs>
      <use xlink:href="#DejaVuSans-48"/>
      <use xlink:href="#DejaVuSans-79" transform="translate(75.195312 0)"/>
      <use xlink:href="#DejaVuSans-70" transform="translate(134.375 0)"/>
      <use xlink:href="#DejaVuSans-20" transform="translate(197.851562 0)"/>
      <use xlink:href="#DejaVuSans-6d" transform="translate(229.638672 0)"/>
      <use xlink:href="#DejaVuSans-61" transform="translate(327.050781 0)"/>
      <use xlink:href="#DejaVuSans-63" transform="translate(388.330078 0)"/>
      <use xlink:href="#DejaVuSans-75" transform="translate(443.310547 0)"/>
     </g>
    </g>
   </g>
   <g id="text_19">
    <g clip-path="url(#p06fdc8adcc)">
     <!-- Lot corn -->
     <g transform="translate(425.417878 179.959543) scale(0.06 -0.06)">
      <defs>
       <path id="DejaVuSans-4c" d="M 628 4666 
L 1259 4666 
L 1259 531 
L 3531 531 
L 3531 0 
L 628 0 
L 628 4666 
z
" transform="scale(0.015625)"/>
      </defs>
      <use xlink:href="#DejaVuSans-4c"/>
      <use xlink:href="#DejaVuSans-6f" transform="translate(53.962891 0)"/>
      <use xlink:href="#DejaVuSans-74" transform="translate(115.144531 0)"/>
      <use xlink:href="#DejaVuSans-20" transform="translate(154.353516 0)"/>
      <use xlink:href="#DejaVuSans-63" transform="translate(186.140625 0)"/>
      <use xlink:href="#DejaVuSans-6f" transform="translate(241.121094 0)"/>
      <use xlink:href="#DejaVuSans-72" transform="translate(302.302734 0)"/>
      <use xlink:href="#DejaVuSans-6e" transform="translate(341.666016 0)"/>
     </g>
    </g>
   </g>
   <g id="text_20">
    <g clip-path="url(#p06fdc8adcc)">
     <!-- Thy pule -->
     <g transform="translate(416.830053 152.619868) scale(0.06 -0.06)">
      <use xlink:href="#DejaVuSans-54"/>
      <use xlink:href="#DejaVuSans-68" transform="translate(61.083984 0)"/>
      <use xlink:href="#DejaVuSans-79" transform="translate(124.462891 0)"/>
      <use xlink:href="#DejaVuSans-20" transform="translate(183.642578 0)"/>
      <use xlink:href="#DejaVuSans-70" transform="translate(215.429688 0)"/>
      <use xlink:href="#DejaVuSans-75" transform="translate(278.90625 0)"/>
      <use xlink:href="#DejaVuSans-6c" transform="translate(342.285156 0)"/>
      <use xlink:href="#DejaVuSans-65" transform="translate(370.068359 0)"/>
     </g>
    </g>
   </g>
   <g id="text_21">
    <g clip-path="url(#p06fdc8adcc)">
     <!-- Car acau -->
     <g transform="translate(275.756341 287.967745) scale(0.06 -0.06)">
      <use xlink:href="#DejaVuSans-43"/>
      <use xlink:href="#DejaVuSans-61" transform="translate(69.824219 0)"/>
      <use xlink:href="#DejaVuSans-72" transform="translate(131.103516 0)"/>
      <use xlink:href="#DejaVuSans-20" transform="translate(172.216797 0)"/>
      <use xlink:href="#DejaVuSans-61" transform="translate(204.003906 0)"/>
      <use xlink:href="#DejaVuSans-63" transform="translate(265.283203 0)"/>
      <use xlink:href="#DejaVuSans-61" transform="translate(320.263672 0)"/>
      <use xlink:href="#DejaVuSans-75" transform="translate(381.542969 0)"/>
     </g>
    </g>
   </g>
   <g id="text_22">
    <g clip-path="url(#p06fdc8adcc)">
     <!-- Pot cran -->
     <g transform="translate(255.213435 79.060964) scale(0.06 -0.06)">
      <use xlink:href="#DejaVuSans-50"/>
      <use xlink:href="#DejaVuSans-6f" transform="translate(56.677734 0)"/>
      <use xlink:href="#DejaVuSans-74" transform="translate(117.859375 0)"/>
      <use xlink:href="#DejaVuSans-20" transform="translate(157.068359 0)"/>
      <use xlink:href="#DejaVuSans-63" transform="translate(188.855469 0)"/>
      <use xlink:href="#DejaVuSans-72" transform="translate(243.835938 0)"/>
      <use xlink:href="#DejaVuSans-61" transform="translate(284.949219 0)"/>
      <use xlink:href="#DejaVuSans-6e" transform="translate(346.228516 0)"/>
     </g>
    </g>
   </g>
   <g id="text_23">
    <g clip-path="url(#p06fdc8adcc)">
     <!-- Hel vers -->
     <g transform="translate(234.000959 215.152263) scale(0.06 -0.06)">
      <use xlink:href="#DejaVuSans-48"/>
      <use xlink:href="#DejaVuSans-65" transform="translate(75.195312 0)"/>
      <use xlink:href="#DejaVuSans-6c" transform="translate(136.71875 0)"/>
      <use xlink:href="#DejaVuSans-20" transform="translate(164.501953 0)"/>
      <use xlink:href="#DejaVuSans-76" transform="translate(196.289062 0)"/>
      <use xlink:href="#DejaVuSans-65" transform="translate(255.46875 0)"/>
      <use xlink:href="#DejaVuSans-72" transform="translate(316.992188 0)"/>
      <use xlink:href="#DejaVuSans-73" transform="translate(358.105469 0)"/>
     </g>
    </g>
   </g>
   <g id="text_24">
    <!-- L_TP -->
    <g transform="translate(281.574375 45.84) scale(0.12 -0.12)">
     <defs>
      <path id="DejaVuSans-5f" d="M 3263 -1063 
L 3263 -1509 
L -63 -1509 
L -63 -1063 
L 3263 -1063 
z
" transform="scale(0.015625)"/>
     </defs>
     <use xlink:href="#DejaVuSans-4c"/>
     <use xlink:href="#DejaVuSans-5f" transform="translate(55.712891 0)"/>
     <use xlink:href="#DejaVuSans-54" transform="translate(105.712891 0)"/>
     <use xlink:href="#DejaVuSans-50" transform="translate(166.796875 0)"/>
    </g>
   </g>
  </g>
 </g>
 <defs>
  <clipPath id="p06fdc8adcc">
   <rect x="72" y="51.84" width="446.4" height="332.64"/>
  </clipPath>
 </defs>
</svg>
