<?xml version="1.0" encoding="utf-8" standalone="no"?>
<!DOCTYPE svg PUBLIC "-//W3C//DTD SVG 1.1//EN"
  "http://www.w3.org/Graphics/SVG/1.1/DTD/svg11.dtd">
<svg xmlns:xlink="http://www.w3.org/1999/xlink" width="576pt" height="432pt" viewBox="0 0 576 432" xmlns="http://www.w3.org/2000/svg" version="1.1">
 <metadata>
  <rdf:RDF xmlns:dc="http://purl.org/dc/elements/1.1/" xmlns:cc="http://creativecommons.org/ns#" xmlns:rdf="http://www.w3.org/1999/02/22-rdf-syntax-ns#">
   <cc:Work>
    <dc:type rdf:resource="http://purl.org/dc/dcmitype/StillImage"/>
    <dc:date>2025-07-08T11:23:31.591495</dc:date>
    <dc:format>image/svg+xml</dc:format>
    <dc:creator>
     <cc:Agent>
      <dc:title>Matplotlib v3.10.0, https://matplotlib.org/</dc:title>
     </cc:Agent>
    </dc:creator>
   </cc:Work>
  </rdf:RDF>
 </metadata>
 <defs>
  <style type="text/css">*{stroke-linejoin: round; stroke-linecap: butt}</style>
 </defs>
 <g id="figure_1">
  <g id="patch_1">
   <path d="M 0 432 
L 576 432 
L 576 0 
L 0 0 
z
" style="fill: #ffffff"/>
  </g>
  <g id="axes_1">
   <g id="LineCollection_1">
    <path d="M 441.213711 73.89135 
L 369.6264 155.637429 
" clip-path="url(#p1172862e41)" style="fill: none; stroke: #ff0000; stroke-width: 0.836819"/>
    <path d="M 369.6264 155.637429 
L 231.727852 155.098123 
" clip-path="url(#p1172862e41)" style="fill: none; stroke: #ff0000; stroke-width: 1.155354"/>
    <path d="M 369.6264 155.637429 
L 291.338593 212.518346 
" clip-path="url(#p1172862e41)" style="fill: none; stroke: #ff0000; stroke-width: 5.02561"/>
    <path d="M 369.6264 155.637429 
L 479.66281 204.886054 
" clip-path="url(#p1172862e41)" style="fill: none; stroke: #ff0000; stroke-width: 1.171316"/>
    <path d="M 231.727852 155.098123 
L 110.73719 138.235551 
" clip-path="url(#p1172862e41)" style="fill: none; stroke: #ff0000; stroke-width: 4.936385"/>
    <path d="M 231.727852 155.098123 
L 291.338593 212.518346 
" clip-path="url(#p1172862e41)" style="fill: none; stroke: #ff0000; stroke-width: 0.836819"/>
   </g>
   <g id="PathCollection_1">
    <defs>
     <path id="m97813b686d" d="M 0 6.311457 
C 1.673818 6.311457 3.279306 5.646442 4.462874 4.462874 
C 5.646442 3.279306 6.311457 1.673818 6.311457 0 
C 6.311457 -1.673818 5.646442 -3.279306 4.462874 -4.462874 
C 3.279306 -5.646442 1.673818 -6.311457 0 -6.311457 
C -1.673818 -6.311457 -3.279306 -5.646442 -4.462874 -4.462874 
C -5.646442 -3.279306 -6.311457 -1.673818 -6.311457 0 
C -6.311457 1.673818 -5.646442 3.279306 -4.462874 4.462874 
C -3.279306 5.646442 -1.673818 6.311457 0 6.311457 
z
" style="stroke: #808080"/>
    </defs>
    <g clip-path="url(#p1172862e41)">
     <use xlink:href="#m97813b686d" x="110.73719" y="328.202157" style="fill: #808080; stroke: #808080"/>
    </g>
   </g>
   <g id="PathCollection_2">
    <defs>
     <path id="mad1096069c" d="M 0 6.240202 
C 1.654921 6.240202 3.242283 5.582695 4.412489 4.412489 
C 5.582695 3.242283 6.240202 1.654921 6.240202 0 
C 6.240202 -1.654921 5.582695 -3.242283 4.412489 -4.412489 
C 3.242283 -5.582695 1.654921 -6.240202 0 -6.240202 
C -1.654921 -6.240202 -3.242283 -5.582695 -4.412489 -4.412489 
C -5.582695 -3.242283 -6.240202 -1.654921 -6.240202 0 
C -6.240202 1.654921 -5.582695 3.242283 -4.412489 4.412489 
C -3.242283 5.582695 -1.654921 6.240202 0 6.240202 
z
" style="stroke: #808080"/>
    </defs>
    <g clip-path="url(#p1172862e41)">
     <use xlink:href="#mad1096069c" x="127.535636" y="328.202157" style="fill: #808080; stroke: #808080"/>
    </g>
   </g>
   <g id="PathCollection_3">
    <defs>
     <path id="m67460e8d88" d="M 0 6.232035 
C 1.652755 6.232035 3.23804 5.575388 4.406714 4.406714 
C 5.575388 3.23804 6.232035 1.652755 6.232035 0 
C 6.232035 -1.652755 5.575388 -3.23804 4.406714 -4.406714 
C 3.23804 -5.575388 1.652755 -6.232035 0 -6.232035 
C -1.652755 -6.232035 -3.23804 -5.575388 -4.406714 -4.406714 
C -5.575388 -3.23804 -6.232035 -1.652755 -6.232035 0 
C -6.232035 1.652755 -5.575388 3.23804 -4.406714 4.406714 
C -3.23804 5.575388 -1.652755 6.232035 0 6.232035 
z
" style="stroke: #808080"/>
    </defs>
    <g clip-path="url(#p1172862e41)">
     <use xlink:href="#m67460e8d88" x="144.334081" y="328.202157" style="fill: #808080; stroke: #808080"/>
    </g>
   </g>
   <g id="PathCollection_4">
    <defs>
     <path id="meb42d23390" d="M 0 6.141101 
C 1.628639 6.141101 3.190793 5.494036 4.342414 4.342414 
C 5.494036 3.190793 6.141101 1.628639 6.141101 0 
C 6.141101 -1.628639 5.494036 -3.190793 4.342414 -4.342414 
C 3.190793 -5.494036 1.628639 -6.141101 0 -6.141101 
C -1.628639 -6.141101 -3.190793 -5.494036 -4.342414 -4.342414 
C -5.494036 -3.190793 -6.141101 -1.628639 -6.141101 0 
C -6.141101 1.628639 -5.494036 3.190793 -4.342414 4.342414 
C -3.190793 5.494036 -1.628639 6.141101 0 6.141101 
z
" style="stroke: #808080"/>
    </defs>
    <g clip-path="url(#p1172862e41)">
     <use xlink:href="#meb42d23390" x="161.132527" y="328.202157" style="fill: #808080; stroke: #808080"/>
    </g>
   </g>
   <g id="PathCollection_5">
    <defs>
     <path id="m4afd8f30e1" d="M 0 6.081516 
C 1.612837 6.081516 3.159833 5.440729 4.300281 4.300281 
C 5.440729 3.159833 6.081516 1.612837 6.081516 0 
C 6.081516 -1.612837 5.440729 -3.159833 4.300281 -4.300281 
C 3.159833 -5.440729 1.612837 -6.081516 0 -6.081516 
C -1.612837 -6.081516 -3.159833 -5.440729 -4.300281 -4.300281 
C -5.440729 -3.159833 -6.081516 -1.612837 -6.081516 0 
C -6.081516 1.612837 -5.440729 3.159833 -4.300281 4.300281 
C -3.159833 5.440729 -1.612837 6.081516 0 6.081516 
z
" style="stroke: #808080"/>
    </defs>
    <g clip-path="url(#p1172862e41)">
     <use xlink:href="#m4afd8f30e1" x="177.930972" y="328.202157" style="fill: #808080; stroke: #808080"/>
    </g>
   </g>
   <g id="PathCollection_6">
    <defs>
     <path id="m822fc74b67" d="M 0 5.867319 
C 1.556031 5.867319 3.048541 5.249101 4.148821 4.148821 
C 5.249101 3.048541 5.867319 1.556031 5.867319 0 
C 5.867319 -1.556031 5.249101 -3.048541 4.148821 -4.148821 
C 3.048541 -5.249101 1.556031 -5.867319 0 -5.867319 
C -1.556031 -5.867319 -3.048541 -5.249101 -4.148821 -4.148821 
C -5.249101 -3.048541 -5.867319 -1.556031 -5.867319 0 
C -5.867319 1.556031 -5.249101 3.048541 -4.148821 4.148821 
C -3.048541 5.249101 -1.556031 5.867319 0 5.867319 
z
" style="stroke: #808080"/>
    </defs>
    <g clip-path="url(#p1172862e41)">
     <use xlink:href="#m822fc74b67" x="194.729418" y="328.202157" style="fill: #808080; stroke: #808080"/>
    </g>
   </g>
   <g id="PathCollection_7">
    <defs>
     <path id="mcc6f76fd53" d="M 0 5.403748 
C 1.433091 5.403748 2.807678 4.834375 3.821027 3.821027 
C 4.834375 2.807678 5.403748 1.433091 5.403748 0 
C 5.403748 -1.433091 4.834375 -2.807678 3.821027 -3.821027 
C 2.807678 -4.834375 1.433091 -5.403748 0 -5.403748 
C -1.433091 -5.403748 -2.807678 -4.834375 -3.821027 -3.821027 
C -4.834375 -2.807678 -5.403748 -1.433091 -5.403748 0 
C -5.403748 1.433091 -4.834375 2.807678 -3.821027 3.821027 
C -2.807678 4.834375 -1.433091 5.403748 0 5.403748 
z
" style="stroke: #808080"/>
    </defs>
    <g clip-path="url(#p1172862e41)">
     <use xlink:href="#mcc6f76fd53" x="211.527863" y="328.202157" style="fill: #808080; stroke: #808080"/>
    </g>
   </g>
   <g id="PathCollection_8">
    <defs>
     <path id="md574e098e0" d="M 0 5.397696 
C 1.431486 5.397696 2.804534 4.828961 3.816748 3.816748 
C 4.828961 2.804534 5.397696 1.431486 5.397696 0 
C 5.397696 -1.431486 4.828961 -2.804534 3.816748 -3.816748 
C 2.804534 -4.828961 1.431486 -5.397696 0 -5.397696 
C -1.431486 -5.397696 -2.804534 -4.828961 -3.816748 -3.816748 
C -4.828961 -2.804534 -5.397696 -1.431486 -5.397696 0 
C -5.397696 1.431486 -4.828961 2.804534 -3.816748 3.816748 
C -2.804534 4.828961 -1.431486 5.397696 0 5.397696 
z
" style="stroke: #808080"/>
    </defs>
    <g clip-path="url(#p1172862e41)">
     <use xlink:href="#md574e098e0" x="228.326309" y="328.202157" style="fill: #808080; stroke: #808080"/>
    </g>
   </g>
   <g id="PathCollection_9">
    <defs>
     <path id="m6938fc5e22" d="M 0 5.288221 
C 1.402453 5.288221 2.747653 4.731021 3.739337 3.739337 
C 4.731021 2.747653 5.288221 1.402453 5.288221 0 
C 5.288221 -1.402453 4.731021 -2.747653 3.739337 -3.739337 
C 2.747653 -4.731021 1.402453 -5.288221 0 -5.288221 
C -1.402453 -5.288221 -2.747653 -4.731021 -3.739337 -3.739337 
C -4.731021 -2.747653 -5.288221 -1.402453 -5.288221 0 
C -5.288221 1.402453 -4.731021 2.747653 -3.739337 3.739337 
C -2.747653 4.731021 -1.402453 5.288221 0 5.288221 
z
" style="stroke: #808080"/>
    </defs>
    <g clip-path="url(#p1172862e41)">
     <use xlink:href="#m6938fc5e22" x="245.124754" y="328.202157" style="fill: #808080; stroke: #808080"/>
    </g>
   </g>
   <g id="PathCollection_10">
    <defs>
     <path id="md41d5f37c9" d="M 0 5.229766 
C 1.38695 5.229766 2.717281 4.678725 3.698003 3.698003 
C 4.678725 2.717281 5.229766 1.38695 5.229766 0 
C 5.229766 -1.38695 4.678725 -2.717281 3.698003 -3.698003 
C 2.717281 -4.678725 1.38695 -5.229766 0 -5.229766 
C -1.38695 -5.229766 -2.717281 -4.678725 -3.698003 -3.698003 
C -4.678725 -2.717281 -5.229766 -1.38695 -5.229766 0 
C -5.229766 1.38695 -4.678725 2.717281 -3.698003 3.698003 
C -2.717281 4.678725 -1.38695 5.229766 0 5.229766 
z
" style="stroke: #808080"/>
    </defs>
    <g clip-path="url(#p1172862e41)">
     <use xlink:href="#md41d5f37c9" x="261.9232" y="328.202157" style="fill: #808080; stroke: #808080"/>
    </g>
   </g>
   <g id="PathCollection_11">
    <defs>
     <path id="m8e91472146" d="M 0 5.155328 
C 1.367209 5.155328 2.678605 4.61213 3.645367 3.645367 
C 4.61213 2.678605 5.155328 1.367209 5.155328 0 
C 5.155328 -1.367209 4.61213 -2.678605 3.645367 -3.645367 
C 2.678605 -4.61213 1.367209 -5.155328 0 -5.155328 
C -1.367209 -5.155328 -2.678605 -4.61213 -3.645367 -3.645367 
C -4.61213 -2.678605 -5.155328 -1.367209 -5.155328 0 
C -5.155328 1.367209 -4.61213 2.678605 -3.645367 3.645367 
C -2.678605 4.61213 -1.367209 5.155328 0 5.155328 
z
" style="stroke: #808080"/>
    </defs>
    <g clip-path="url(#p1172862e41)">
     <use xlink:href="#m8e91472146" x="278.721645" y="328.202157" style="fill: #808080; stroke: #808080"/>
    </g>
   </g>
   <g id="PathCollection_12">
    <defs>
     <path id="m9ba2af16d3" d="M 0 5.041197 
C 1.336941 5.041197 2.619304 4.510025 3.564664 3.564664 
C 4.510025 2.619304 5.041197 1.336941 5.041197 0 
C 5.041197 -1.336941 4.510025 -2.619304 3.564664 -3.564664 
C 2.619304 -4.510025 1.336941 -5.041197 0 -5.041197 
C -1.336941 -5.041197 -2.619304 -4.510025 -3.564664 -3.564664 
C -4.510025 -2.619304 -5.041197 -1.336941 -5.041197 0 
C -5.041197 1.336941 -4.510025 2.619304 -3.564664 3.564664 
C -2.619304 4.510025 -1.336941 5.041197 0 5.041197 
z
" style="stroke: #808080"/>
    </defs>
    <g clip-path="url(#p1172862e41)">
     <use xlink:href="#m9ba2af16d3" x="295.520091" y="328.202157" style="fill: #808080; stroke: #808080"/>
    </g>
   </g>
   <g id="PathCollection_13">
    <defs>
     <path id="m19847c2565" d="M 0 4.984011 
C 1.321775 4.984011 2.589592 4.458864 3.524228 3.524228 
C 4.458864 2.589592 4.984011 1.321775 4.984011 0 
C 4.984011 -1.321775 4.458864 -2.589592 3.524228 -3.524228 
C 2.589592 -4.458864 1.321775 -4.984011 0 -4.984011 
C -1.321775 -4.984011 -2.589592 -4.458864 -3.524228 -3.524228 
C -4.458864 -2.589592 -4.984011 -1.321775 -4.984011 0 
C -4.984011 1.321775 -4.458864 2.589592 -3.524228 3.524228 
C -2.589592 4.458864 -1.321775 4.984011 0 4.984011 
z
" style="stroke: #808080"/>
    </defs>
    <g clip-path="url(#p1172862e41)">
     <use xlink:href="#m19847c2565" x="312.318536" y="328.202157" style="fill: #808080; stroke: #808080"/>
    </g>
   </g>
   <g id="PathCollection_14">
    <defs>
     <path id="mf23eb5c14b" d="M 0 4.807976 
C 1.27509 4.807976 2.498127 4.301377 3.399752 3.399752 
C 4.301377 2.498127 4.807976 1.27509 4.807976 0 
C 4.807976 -1.27509 4.301377 -2.498127 3.399752 -3.399752 
C 2.498127 -4.301377 1.27509 -4.807976 0 -4.807976 
C -1.27509 -4.807976 -2.498127 -4.301377 -3.399752 -3.399752 
C -4.301377 -2.498127 -4.807976 -1.27509 -4.807976 0 
C -4.807976 1.27509 -4.301377 2.498127 -3.399752 3.399752 
C -2.498127 4.301377 -1.27509 4.807976 0 4.807976 
z
" style="stroke: #feff63"/>
    </defs>
    <g clip-path="url(#p1172862e41)">
     <use xlink:href="#mf23eb5c14b" x="329.116982" y="328.202157" style="fill: #feff63; stroke: #feff63"/>
    </g>
   </g>
   <g id="PathCollection_15">
    <defs>
     <path id="m10f3ec75da" d="M 0 4.770733 
C 1.265213 4.770733 2.478777 4.268059 3.373418 3.373418 
C 4.268059 2.478777 4.770733 1.265213 4.770733 0 
C 4.770733 -1.265213 4.268059 -2.478777 3.373418 -3.373418 
C 2.478777 -4.268059 1.265213 -4.770733 0 -4.770733 
C -1.265213 -4.770733 -2.478777 -4.268059 -3.373418 -3.373418 
C -4.268059 -2.478777 -4.770733 -1.265213 -4.770733 0 
C -4.770733 1.265213 -4.268059 2.478777 -3.373418 3.373418 
C -2.478777 4.268059 -1.265213 4.770733 0 4.770733 
z
" style="stroke: #808080"/>
    </defs>
    <g clip-path="url(#p1172862e41)">
     <use xlink:href="#m10f3ec75da" x="345.915427" y="328.202157" style="fill: #808080; stroke: #808080"/>
    </g>
   </g>
   <g id="PathCollection_16">
    <defs>
     <path id="m7fc92977fb" d="M 0 4.565165 
C 1.210696 4.565165 2.371968 4.084151 3.228059 3.228059 
C 4.084151 2.371968 4.565165 1.210696 4.565165 0 
C 4.565165 -1.210696 4.084151 -2.371968 3.228059 -3.228059 
C 2.371968 -4.084151 1.210696 -4.565165 0 -4.565165 
C -1.210696 -4.565165 -2.371968 -4.084151 -3.228059 -3.228059 
C -4.084151 -2.371968 -4.565165 -1.210696 -4.565165 0 
C -4.565165 1.210696 -4.084151 2.371968 -3.228059 3.228059 
C -2.371968 4.084151 -1.210696 4.565165 0 4.565165 
z
" style="stroke: #feff63"/>
    </defs>
    <g clip-path="url(#p1172862e41)">
     <use xlink:href="#m7fc92977fb" x="362.713873" y="328.202157" style="fill: #feff63; stroke: #feff63"/>
    </g>
   </g>
   <g id="PathCollection_17">
    <defs>
     <path id="m86ebe2399a" d="M 0 4.545238 
C 1.205411 4.545238 2.361614 4.066323 3.213969 3.213969 
C 4.066323 2.361614 4.545238 1.205411 4.545238 0 
C 4.545238 -1.205411 4.066323 -2.361614 3.213969 -3.213969 
C 2.361614 -4.066323 1.205411 -4.545238 0 -4.545238 
C -1.205411 -4.545238 -2.361614 -4.066323 -3.213969 -3.213969 
C -4.066323 -2.361614 -4.545238 -1.205411 -4.545238 0 
C -4.545238 1.205411 -4.066323 2.361614 -3.213969 3.213969 
C -2.361614 4.066323 -1.205411 4.545238 0 4.545238 
z
" style="stroke: #feff63"/>
    </defs>
    <g clip-path="url(#p1172862e41)">
     <use xlink:href="#m86ebe2399a" x="379.512318" y="328.202157" style="fill: #feff63; stroke: #feff63"/>
    </g>
   </g>
   <g id="PathCollection_18">
    <defs>
     <path id="m4e1bf7790c" d="M 0 4.510736 
C 1.196261 4.510736 2.343687 4.035456 3.189572 3.189572 
C 4.035456 2.343687 4.510736 1.196261 4.510736 0 
C 4.510736 -1.196261 4.035456 -2.343687 3.189572 -3.189572 
C 2.343687 -4.035456 1.196261 -4.510736 0 -4.510736 
C -1.196261 -4.510736 -2.343687 -4.035456 -3.189572 -3.189572 
C -4.035456 -2.343687 -4.510736 -1.196261 -4.510736 0 
C -4.510736 1.196261 -4.035456 2.343687 -3.189572 3.189572 
C -2.343687 4.035456 -1.196261 4.510736 0 4.510736 
z
" style="stroke: #808080"/>
    </defs>
    <g clip-path="url(#p1172862e41)">
     <use xlink:href="#m4e1bf7790c" x="396.310764" y="328.202157" style="fill: #808080; stroke: #808080"/>
    </g>
   </g>
   <g id="PathCollection_19">
    <defs>
     <path id="mf322813af6" d="M 0 4.499805 
C 1.193362 4.499805 2.338008 4.025678 3.181843 3.181843 
C 4.025678 2.338008 4.499805 1.193362 4.499805 0 
C 4.499805 -1.193362 4.025678 -2.338008 3.181843 -3.181843 
C 2.338008 -4.025678 1.193362 -4.499805 0 -4.499805 
C -1.193362 -4.499805 -2.338008 -4.025678 -3.181843 -3.181843 
C -4.025678 -2.338008 -4.499805 -1.193362 -4.499805 0 
C -4.499805 1.193362 -4.025678 2.338008 -3.181843 3.181843 
C -2.338008 4.025678 -1.193362 4.499805 0 4.499805 
z
" style="stroke: #808080"/>
    </defs>
    <g clip-path="url(#p1172862e41)">
     <use xlink:href="#mf322813af6" x="413.109209" y="328.202157" style="fill: #808080; stroke: #808080"/>
    </g>
   </g>
   <g id="PathCollection_20">
    <defs>
     <path id="mf0787e2ecf" d="M 0 4.359219 
C 1.156078 4.359219 2.264962 3.899904 3.082433 3.082433 
C 3.899904 2.264962 4.359219 1.156078 4.359219 0 
C 4.359219 -1.156078 3.899904 -2.264962 3.082433 -3.082433 
C 2.264962 -3.899904 1.156078 -4.359219 0 -4.359219 
C -1.156078 -4.359219 -2.264962 -3.899904 -3.082433 -3.082433 
C -3.899904 -2.264962 -4.359219 -1.156078 -4.359219 0 
C -4.359219 1.156078 -3.899904 2.264962 -3.082433 3.082433 
C -2.264962 3.899904 -1.156078 4.359219 0 4.359219 
z
" style="stroke: #808080"/>
    </defs>
    <g clip-path="url(#p1172862e41)">
     <use xlink:href="#mf0787e2ecf" x="429.907655" y="328.202157" style="fill: #808080; stroke: #808080"/>
    </g>
   </g>
   <g id="PathCollection_21">
    <defs>
     <path id="m297d511d13" d="M 0 4.341086 
C 1.151269 4.341086 2.255541 3.883682 3.069611 3.069611 
C 3.883682 2.255541 4.341086 1.151269 4.341086 0 
C 4.341086 -1.151269 3.883682 -2.255541 3.069611 -3.069611 
C 2.255541 -3.883682 1.151269 -4.341086 0 -4.341086 
C -1.151269 -4.341086 -2.255541 -3.883682 -3.069611 -3.069611 
C -3.883682 -2.255541 -4.341086 -1.151269 -4.341086 0 
C -4.341086 1.151269 -3.883682 2.255541 -3.069611 3.069611 
C -2.255541 3.883682 -1.151269 4.341086 0 4.341086 
z
" style="stroke: #808080"/>
    </defs>
    <g clip-path="url(#p1172862e41)">
     <use xlink:href="#m297d511d13" x="110.73719" y="341.921438" style="fill: #808080; stroke: #808080"/>
    </g>
   </g>
   <g id="PathCollection_22">
    <defs>
     <path id="m8162f2af59" d="M 0 4.152047 
C 1.101136 4.152047 2.15732 3.714561 2.935941 2.935941 
C 3.714561 2.15732 4.152047 1.101136 4.152047 0 
C 4.152047 -1.101136 3.714561 -2.15732 2.935941 -2.935941 
C 2.15732 -3.714561 1.101136 -4.152047 0 -4.152047 
C -1.101136 -4.152047 -2.15732 -3.714561 -2.935941 -2.935941 
C -3.714561 -2.15732 -4.152047 -1.101136 -4.152047 0 
C -4.152047 1.101136 -3.714561 2.15732 -2.935941 2.935941 
C -2.15732 3.714561 -1.101136 4.152047 0 4.152047 
z
" style="stroke: #feff63"/>
    </defs>
    <g clip-path="url(#p1172862e41)">
     <use xlink:href="#m8162f2af59" x="127.535636" y="341.921438" style="fill: #feff63; stroke: #feff63"/>
    </g>
   </g>
   <g id="PathCollection_23">
    <defs>
     <path id="md49ac38517" d="M 0 4.073193 
C 1.080223 4.073193 2.116349 3.644015 2.880182 2.880182 
C 3.644015 2.116349 4.073193 1.080223 4.073193 0 
C 4.073193 -1.080223 3.644015 -2.116349 2.880182 -2.880182 
C 2.116349 -3.644015 1.080223 -4.073193 0 -4.073193 
C -1.080223 -4.073193 -2.116349 -3.644015 -2.880182 -2.880182 
C -3.644015 -2.116349 -4.073193 -1.080223 -4.073193 0 
C -4.073193 1.080223 -3.644015 2.116349 -2.880182 2.880182 
C -2.116349 3.644015 -1.080223 4.073193 0 4.073193 
z
" style="stroke: #808080"/>
    </defs>
    <g clip-path="url(#p1172862e41)">
     <use xlink:href="#md49ac38517" x="144.334081" y="341.921438" style="fill: #808080; stroke: #808080"/>
    </g>
   </g>
   <g id="PathCollection_24">
    <defs>
     <path id="m370753ba4a" d="M 0 4.071891 
C 1.079878 4.071891 2.115673 3.642851 2.879262 2.879262 
C 3.642851 2.115673 4.071891 1.079878 4.071891 0 
C 4.071891 -1.079878 3.642851 -2.115673 2.879262 -2.879262 
C 2.115673 -3.642851 1.079878 -4.071891 0 -4.071891 
C -1.079878 -4.071891 -2.115673 -3.642851 -2.879262 -2.879262 
C -3.642851 -2.115673 -4.071891 -1.079878 -4.071891 0 
C -4.071891 1.079878 -3.642851 2.115673 -2.879262 2.879262 
C -2.115673 3.642851 -1.079878 4.071891 0 4.071891 
z
" style="stroke: #808080"/>
    </defs>
    <g clip-path="url(#p1172862e41)">
     <use xlink:href="#m370753ba4a" x="161.132527" y="341.921438" style="fill: #808080; stroke: #808080"/>
    </g>
   </g>
   <g id="PathCollection_25">
    <defs>
     <path id="mcc9c21144a" d="M 0 3.925257 
C 1.04099 3.925257 2.039485 3.511667 2.775576 2.775576 
C 3.511667 2.039485 3.925257 1.04099 3.925257 0 
C 3.925257 -1.04099 3.511667 -2.039485 2.775576 -2.775576 
C 2.039485 -3.511667 1.04099 -3.925257 0 -3.925257 
C -1.04099 -3.925257 -2.039485 -3.511667 -2.775576 -2.775576 
C -3.511667 -2.039485 -3.925257 -1.04099 -3.925257 0 
C -3.925257 1.04099 -3.511667 2.039485 -2.775576 2.775576 
C -2.039485 3.511667 -1.04099 3.925257 0 3.925257 
z
" style="stroke: #feff63"/>
    </defs>
    <g clip-path="url(#p1172862e41)">
     <use xlink:href="#mcc9c21144a" x="177.930972" y="341.921438" style="fill: #feff63; stroke: #feff63"/>
    </g>
   </g>
   <g id="PathCollection_26">
    <defs>
     <path id="m45dce562b5" d="M 0 3.913501 
C 1.037873 3.913501 2.033376 3.50115 2.767263 2.767263 
C 3.50115 2.033376 3.913501 1.037873 3.913501 0 
C 3.913501 -1.037873 3.50115 -2.033376 2.767263 -2.767263 
C 2.033376 -3.50115 1.037873 -3.913501 0 -3.913501 
C -1.037873 -3.913501 -2.033376 -3.50115 -2.767263 -2.767263 
C -3.50115 -2.033376 -3.913501 -1.037873 -3.913501 0 
C -3.913501 1.037873 -3.50115 2.033376 -2.767263 2.767263 
C -2.033376 3.50115 -1.037873 3.913501 0 3.913501 
z
" style="stroke: #feff63"/>
    </defs>
    <g clip-path="url(#p1172862e41)">
     <use xlink:href="#m45dce562b5" x="194.729418" y="341.921438" style="fill: #feff63; stroke: #feff63"/>
    </g>
   </g>
   <g id="PathCollection_27">
    <defs>
     <path id="mce0a81f2a3" d="M 0 3.912452 
C 1.037594 3.912452 2.032831 3.500211 2.766521 2.766521 
C 3.500211 2.032831 3.912452 1.037594 3.912452 0 
C 3.912452 -1.037594 3.500211 -2.032831 2.766521 -2.766521 
C 2.032831 -3.500211 1.037594 -3.912452 0 -3.912452 
C -1.037594 -3.912452 -2.032831 -3.500211 -2.766521 -2.766521 
C -3.500211 -2.032831 -3.912452 -1.037594 -3.912452 0 
C -3.912452 1.037594 -3.500211 2.032831 -2.766521 2.766521 
C -2.032831 3.500211 -1.037594 3.912452 0 3.912452 
z
" style="stroke: #808080"/>
    </defs>
    <g clip-path="url(#p1172862e41)">
     <use xlink:href="#mce0a81f2a3" x="211.527863" y="341.921438" style="fill: #808080; stroke: #808080"/>
    </g>
   </g>
   <g id="PathCollection_28">
    <defs>
     <path id="mcf058d6207" d="M 0 3.766577 
C 0.998908 3.766577 1.957038 3.369707 2.663372 2.663372 
C 3.369707 1.957038 3.766577 0.998908 3.766577 0 
C 3.766577 -0.998908 3.369707 -1.957038 2.663372 -2.663372 
C 1.957038 -3.369707 0.998908 -3.766577 0 -3.766577 
C -0.998908 -3.766577 -1.957038 -3.369707 -2.663372 -2.663372 
C -3.369707 -1.957038 -3.766577 -0.998908 -3.766577 0 
C -3.766577 0.998908 -3.369707 1.957038 -2.663372 2.663372 
C -1.957038 3.369707 -0.998908 3.766577 0 3.766577 
z
" style="stroke: #feff63"/>
    </defs>
    <g clip-path="url(#p1172862e41)">
     <use xlink:href="#mcf058d6207" x="228.326309" y="341.921438" style="fill: #feff63; stroke: #feff63"/>
    </g>
   </g>
   <g id="PathCollection_29">
    <defs>
     <path id="ma538f38ed9" d="M 0 3.736419 
C 0.99091 3.736419 1.941368 3.342726 2.642047 2.642047 
C 3.342726 1.941368 3.736419 0.99091 3.736419 0 
C 3.736419 -0.99091 3.342726 -1.941368 2.642047 -2.642047 
C 1.941368 -3.342726 0.99091 -3.736419 0 -3.736419 
C -0.99091 -3.736419 -1.941368 -3.342726 -2.642047 -2.642047 
C -3.342726 -1.941368 -3.736419 -0.99091 -3.736419 0 
C -3.736419 0.99091 -3.342726 1.941368 -2.642047 2.642047 
C -1.941368 3.342726 -0.99091 3.736419 0 3.736419 
z
" style="stroke: #feff63"/>
    </defs>
    <g clip-path="url(#p1172862e41)">
     <use xlink:href="#ma538f38ed9" x="245.124754" y="341.921438" style="fill: #feff63; stroke: #feff63"/>
    </g>
   </g>
   <g id="PathCollection_30">
    <defs>
     <path id="m801bbfcd44" d="M 0 3.731787 
C 0.989681 3.731787 1.938961 3.338582 2.638772 2.638772 
C 3.338582 1.938961 3.731787 0.989681 3.731787 0 
C 3.731787 -0.989681 3.338582 -1.938961 2.638772 -2.638772 
C 1.938961 -3.338582 0.989681 -3.731787 0 -3.731787 
C -0.989681 -3.731787 -1.938961 -3.338582 -2.638772 -2.638772 
C -3.338582 -1.938961 -3.731787 -0.989681 -3.731787 0 
C -3.731787 0.989681 -3.338582 1.938961 -2.638772 2.638772 
C -1.938961 3.338582 -0.989681 3.731787 0 3.731787 
z
" style="stroke: #808080"/>
    </defs>
    <g clip-path="url(#p1172862e41)">
     <use xlink:href="#m801bbfcd44" x="261.9232" y="341.921438" style="fill: #808080; stroke: #808080"/>
    </g>
   </g>
   <g id="PathCollection_31">
    <defs>
     <path id="mcdb4c6ec3a" d="M 0 3.59229 
C 0.952686 3.59229 1.866481 3.213783 2.540132 2.540132 
C 3.213783 1.866481 3.59229 0.952686 3.59229 0 
C 3.59229 -0.952686 3.213783 -1.866481 2.540132 -2.540132 
C 1.866481 -3.213783 0.952686 -3.59229 0 -3.59229 
C -0.952686 -3.59229 -1.866481 -3.213783 -2.540132 -2.540132 
C -3.213783 -1.866481 -3.59229 -0.952686 -3.59229 0 
C -3.59229 0.952686 -3.213783 1.866481 -2.540132 2.540132 
C -1.866481 3.213783 -0.952686 3.59229 0 3.59229 
z
" style="stroke: #808080"/>
    </defs>
    <g clip-path="url(#p1172862e41)">
     <use xlink:href="#mcdb4c6ec3a" x="278.721645" y="341.921438" style="fill: #808080; stroke: #808080"/>
    </g>
   </g>
   <g id="PathCollection_32">
    <defs>
     <path id="ma6c266b8f8" d="M 0 3.583514 
C 0.950359 3.583514 1.861922 3.205932 2.533927 2.533927 
C 3.205932 1.861922 3.583514 0.950359 3.583514 0 
C 3.583514 -0.950359 3.205932 -1.861922 2.533927 -2.533927 
C 1.861922 -3.205932 0.950359 -3.583514 0 -3.583514 
C -0.950359 -3.583514 -1.861922 -3.205932 -2.533927 -2.533927 
C -3.205932 -1.861922 -3.583514 -0.950359 -3.583514 0 
C -3.583514 0.950359 -3.205932 1.861922 -2.533927 2.533927 
C -1.861922 3.205932 -0.950359 3.583514 0 3.583514 
z
" style="stroke: #808080"/>
    </defs>
    <g clip-path="url(#p1172862e41)">
     <use xlink:href="#ma6c266b8f8" x="295.520091" y="341.921438" style="fill: #808080; stroke: #808080"/>
    </g>
   </g>
   <g id="PathCollection_33">
    <defs>
     <path id="m509693c159" d="M 0 3.562908 
C 0.944894 3.562908 1.851215 3.187498 2.519357 2.519357 
C 3.187498 1.851215 3.562908 0.944894 3.562908 0 
C 3.562908 -0.944894 3.187498 -1.851215 2.519357 -2.519357 
C 1.851215 -3.187498 0.944894 -3.562908 0 -3.562908 
C -0.944894 -3.562908 -1.851215 -3.187498 -2.519357 -2.519357 
C -3.187498 -1.851215 -3.562908 -0.944894 -3.562908 0 
C -3.562908 0.944894 -3.187498 1.851215 -2.519357 2.519357 
C -1.851215 3.187498 -0.944894 3.562908 0 3.562908 
z
" style="stroke: #feff63"/>
    </defs>
    <g clip-path="url(#p1172862e41)">
     <use xlink:href="#m509693c159" x="312.318536" y="341.921438" style="fill: #feff63; stroke: #feff63"/>
    </g>
   </g>
   <g id="PathCollection_34">
    <defs>
     <path id="m9a30fe8b54" d="M 0 3.408198 
C 0.903865 3.408198 1.770831 3.049089 2.40996 2.40996 
C 3.049089 1.770831 3.408198 0.903865 3.408198 0 
C 3.408198 -0.903865 3.049089 -1.770831 2.40996 -2.40996 
C 1.770831 -3.049089 0.903865 -3.408198 0 -3.408198 
C -0.903865 -3.408198 -1.770831 -3.049089 -2.40996 -2.40996 
C -3.049089 -1.770831 -3.408198 -0.903865 -3.408198 0 
C -3.408198 0.903865 -3.049089 1.770831 -2.40996 2.40996 
C -1.770831 3.049089 -0.903865 3.408198 0 3.408198 
z
" style="stroke: #feff63"/>
    </defs>
    <g clip-path="url(#p1172862e41)">
     <use xlink:href="#m9a30fe8b54" x="329.116982" y="341.921438" style="fill: #feff63; stroke: #feff63"/>
    </g>
   </g>
   <g id="PathCollection_35">
    <defs>
     <path id="m43e6f0765c" d="M 0 3.238615 
C 0.858891 3.238615 1.682719 2.897374 2.290047 2.290047 
C 2.897374 1.682719 3.238615 0.858891 3.238615 0 
C 3.238615 -0.858891 2.897374 -1.682719 2.290047 -2.290047 
C 1.682719 -2.897374 0.858891 -3.238615 0 -3.238615 
C -0.858891 -3.238615 -1.682719 -2.897374 -2.290047 -2.290047 
C -2.897374 -1.682719 -3.238615 -0.858891 -3.238615 0 
C -3.238615 0.858891 -2.897374 1.682719 -2.290047 2.290047 
C -1.682719 2.897374 -0.858891 3.238615 0 3.238615 
z
" style="stroke: #feff63"/>
    </defs>
    <g clip-path="url(#p1172862e41)">
     <use xlink:href="#m43e6f0765c" x="345.915427" y="341.921438" style="fill: #feff63; stroke: #feff63"/>
    </g>
   </g>
   <g id="PathCollection_36">
    <defs>
     <path id="m0a8d23bb97" d="M 0 3.223671 
C 0.854928 3.223671 1.674955 2.884005 2.27948 2.27948 
C 2.884005 1.674955 3.223671 0.854928 3.223671 0 
C 3.223671 -0.854928 2.884005 -1.674955 2.27948 -2.27948 
C 1.674955 -2.884005 0.854928 -3.223671 0 -3.223671 
C -0.854928 -3.223671 -1.674955 -2.884005 -2.27948 -2.27948 
C -2.884005 -1.674955 -3.223671 -0.854928 -3.223671 0 
C -3.223671 0.854928 -2.884005 1.674955 -2.27948 2.27948 
C -1.674955 2.884005 -0.854928 3.223671 0 3.223671 
z
" style="stroke: #808080"/>
    </defs>
    <g clip-path="url(#p1172862e41)">
     <use xlink:href="#m0a8d23bb97" x="362.713873" y="341.921438" style="fill: #808080; stroke: #808080"/>
    </g>
   </g>
   <g id="PathCollection_37">
    <defs>
     <path id="mcc661c07b7" d="M 0 3.218638 
C 0.853593 3.218638 1.672339 2.879502 2.275921 2.275921 
C 2.879502 1.672339 3.218638 0.853593 3.218638 0 
C 3.218638 -0.853593 2.879502 -1.672339 2.275921 -2.275921 
C 1.672339 -2.879502 0.853593 -3.218638 0 -3.218638 
C -0.853593 -3.218638 -1.672339 -2.879502 -2.275921 -2.275921 
C -2.879502 -1.672339 -3.218638 -0.853593 -3.218638 0 
C -3.218638 0.853593 -2.879502 1.672339 -2.275921 2.275921 
C -1.672339 2.879502 -0.853593 3.218638 0 3.218638 
z
" style="stroke: #808080"/>
    </defs>
    <g clip-path="url(#p1172862e41)">
     <use xlink:href="#mcc661c07b7" x="379.512318" y="341.921438" style="fill: #808080; stroke: #808080"/>
    </g>
   </g>
   <g id="PathCollection_38">
    <defs>
     <path id="m29cfbba6d5" d="M 0 3.203044 
C 0.849457 3.203044 1.664237 2.865551 2.264894 2.264894 
C 2.865551 1.664237 3.203044 0.849457 3.203044 0 
C 3.203044 -0.849457 2.865551 -1.664237 2.264894 -2.264894 
C 1.664237 -2.865551 0.849457 -3.203044 0 -3.203044 
C -0.849457 -3.203044 -1.664237 -2.865551 -2.264894 -2.264894 
C -2.865551 -1.664237 -3.203044 -0.849457 -3.203044 0 
C -3.203044 0.849457 -2.865551 1.664237 -2.264894 2.264894 
C -1.664237 2.865551 -0.849457 3.203044 0 3.203044 
z
" style="stroke: #feff63"/>
    </defs>
    <g clip-path="url(#p1172862e41)">
     <use xlink:href="#m29cfbba6d5" x="396.310764" y="341.921438" style="fill: #feff63; stroke: #feff63"/>
    </g>
   </g>
   <g id="PathCollection_39">
    <defs>
     <path id="mb49a82a3c7" d="M 0 3.198078 
C 0.84814 3.198078 1.661657 2.861109 2.261383 2.261383 
C 2.861109 1.661657 3.198078 0.84814 3.198078 0 
C 3.198078 -0.84814 2.861109 -1.661657 2.261383 -2.261383 
C 1.661657 -2.861109 0.84814 -3.198078 0 -3.198078 
C -0.84814 -3.198078 -1.661657 -2.861109 -2.261383 -2.261383 
C -2.861109 -1.661657 -3.198078 -0.84814 -3.198078 0 
C -3.198078 0.84814 -2.861109 1.661657 -2.261383 2.261383 
C -1.661657 2.861109 -0.84814 3.198078 0 3.198078 
z
" style="stroke: #808080"/>
    </defs>
    <g clip-path="url(#p1172862e41)">
     <use xlink:href="#mb49a82a3c7" x="413.109209" y="341.921438" style="fill: #808080; stroke: #808080"/>
    </g>
   </g>
   <g id="PathCollection_40">
    <defs>
     <path id="m8065e22a80" d="M 0 2.992803 
C 0.793701 2.992803 1.555 2.677463 2.116232 2.116232 
C 2.677463 1.555 2.992803 0.793701 2.992803 0 
C 2.992803 -0.793701 2.677463 -1.555 2.116232 -2.116232 
C 1.555 -2.677463 0.793701 -2.992803 0 -2.992803 
C -0.793701 -2.992803 -1.555 -2.677463 -2.116232 -2.116232 
C -2.677463 -1.555 -2.992803 -0.793701 -2.992803 0 
C -2.992803 0.793701 -2.677463 1.555 -2.116232 2.116232 
C -1.555 2.677463 -0.793701 2.992803 0 2.992803 
z
" style="stroke: #808080"/>
    </defs>
    <g clip-path="url(#p1172862e41)">
     <use xlink:href="#m8065e22a80" x="429.907655" y="341.921438" style="fill: #808080; stroke: #808080"/>
    </g>
   </g>
   <g id="PathCollection_41">
    <defs>
     <path id="m76c5333063" d="M 0 2.831546 
C 0.750935 2.831546 1.471214 2.533196 2.002205 2.002205 
C 2.533196 1.471214 2.831546 0.750935 2.831546 0 
C 2.831546 -0.750935 2.533196 -1.471214 2.002205 -2.002205 
C 1.471214 -2.533196 0.750935 -2.831546 0 -2.831546 
C -0.750935 -2.831546 -1.471214 -2.533196 -2.002205 -2.002205 
C -2.533196 -1.471214 -2.831546 -0.750935 -2.831546 0 
C -2.831546 0.750935 -2.533196 1.471214 -2.002205 2.002205 
C -1.471214 2.533196 -0.750935 2.831546 0 2.831546 
z
" style="stroke: #808080"/>
    </defs>
    <g clip-path="url(#p1172862e41)">
     <use xlink:href="#m76c5333063" x="110.73719" y="355.640719" style="fill: #808080; stroke: #808080"/>
    </g>
   </g>
   <g id="PathCollection_42">
    <defs>
     <path id="m1abd685450" d="M 0 2.810399 
C 0.745327 2.810399 1.460227 2.514278 1.987252 1.987252 
C 2.514278 1.460227 2.810399 0.745327 2.810399 0 
C 2.810399 -0.745327 2.514278 -1.460227 1.987252 -1.987252 
C 1.460227 -2.514278 0.745327 -2.810399 0 -2.810399 
C -0.745327 -2.810399 -1.460227 -2.514278 -1.987252 -1.987252 
C -2.514278 -1.460227 -2.810399 -0.745327 -2.810399 0 
C -2.810399 0.745327 -2.514278 1.460227 -1.987252 1.987252 
C -1.460227 2.514278 -0.745327 2.810399 0 2.810399 
z
" style="stroke: #feff63"/>
    </defs>
    <g clip-path="url(#p1172862e41)">
     <use xlink:href="#m1abd685450" x="127.535636" y="355.640719" style="fill: #feff63; stroke: #feff63"/>
    </g>
   </g>
   <g id="PathCollection_43">
    <defs>
     <path id="mb8e8c1e306" d="M 0 2.786794 
C 0.739066 2.786794 1.447962 2.49316 1.970561 1.970561 
C 2.49316 1.447962 2.786794 0.739066 2.786794 0 
C 2.786794 -0.739066 2.49316 -1.447962 1.970561 -1.970561 
C 1.447962 -2.49316 0.739066 -2.786794 0 -2.786794 
C -0.739066 -2.786794 -1.447962 -2.49316 -1.970561 -1.970561 
C -2.49316 -1.447962 -2.786794 -0.739066 -2.786794 0 
C -2.786794 0.739066 -2.49316 1.447962 -1.970561 1.970561 
C -1.447962 2.49316 -0.739066 2.786794 0 2.786794 
z
" style="stroke: #feff63"/>
    </defs>
    <g clip-path="url(#p1172862e41)">
     <use xlink:href="#mb8e8c1e306" x="144.334081" y="355.640719" style="fill: #feff63; stroke: #feff63"/>
    </g>
   </g>
   <g id="PathCollection_44">
    <defs>
     <path id="md136f1a2fc" d="M 0 2.786729 
C 0.739049 2.786729 1.447928 2.493102 1.970515 1.970515 
C 2.493102 1.447928 2.786729 0.739049 2.786729 0 
C 2.786729 -0.739049 2.493102 -1.447928 1.970515 -1.970515 
C 1.447928 -2.493102 0.739049 -2.786729 0 -2.786729 
C -0.739049 -2.786729 -1.447928 -2.493102 -1.970515 -1.970515 
C -2.493102 -1.447928 -2.786729 -0.739049 -2.786729 0 
C -2.786729 0.739049 -2.493102 1.447928 -1.970515 1.970515 
C -1.447928 2.493102 -0.739049 2.786729 0 2.786729 
z
" style="stroke: #808080"/>
    </defs>
    <g clip-path="url(#p1172862e41)">
     <use xlink:href="#md136f1a2fc" x="161.132527" y="355.640719" style="fill: #808080; stroke: #808080"/>
    </g>
   </g>
   <g id="PathCollection_45">
    <defs>
     <path id="m87903c4a8b" d="M 0 2.763532 
C 0.732897 2.763532 1.435876 2.472349 1.954112 1.954112 
C 2.472349 1.435876 2.763532 0.732897 2.763532 0 
C 2.763532 -0.732897 2.472349 -1.435876 1.954112 -1.954112 
C 1.435876 -2.472349 0.732897 -2.763532 0 -2.763532 
C -0.732897 -2.763532 -1.435876 -2.472349 -1.954112 -1.954112 
C -2.472349 -1.435876 -2.763532 -0.732897 -2.763532 0 
C -2.763532 0.732897 -2.472349 1.435876 -1.954112 1.954112 
C -1.435876 2.472349 -0.732897 2.763532 0 2.763532 
z
" style="stroke: #feff63"/>
    </defs>
    <g clip-path="url(#p1172862e41)">
     <use xlink:href="#m87903c4a8b" x="177.930972" y="355.640719" style="fill: #feff63; stroke: #feff63"/>
    </g>
   </g>
   <g id="PathCollection_46">
    <defs>
     <path id="m243b7a1727" d="M 0 2.567248 
C 0.680842 2.567248 1.33389 2.296747 1.815319 1.815319 
C 2.296747 1.33389 2.567248 0.680842 2.567248 0 
C 2.567248 -0.680842 2.296747 -1.33389 1.815319 -1.815319 
C 1.33389 -2.296747 0.680842 -2.567248 0 -2.567248 
C -0.680842 -2.567248 -1.33389 -2.296747 -1.815319 -1.815319 
C -2.296747 -1.33389 -2.567248 -0.680842 -2.567248 0 
C -2.567248 0.680842 -2.296747 1.33389 -1.815319 1.815319 
C -1.33389 2.296747 -0.680842 2.567248 0 2.567248 
z
" style="stroke: #808080"/>
    </defs>
    <g clip-path="url(#p1172862e41)">
     <use xlink:href="#m243b7a1727" x="194.729418" y="355.640719" style="fill: #808080; stroke: #808080"/>
    </g>
   </g>
   <g id="PathCollection_47">
    <defs>
     <path id="mddf415d6db" d="M 0 2.566029 
C 0.680519 2.566029 1.333257 2.295656 1.814457 1.814457 
C 2.295656 1.333257 2.566029 0.680519 2.566029 0 
C 2.566029 -0.680519 2.295656 -1.333257 1.814457 -1.814457 
C 1.333257 -2.295656 0.680519 -2.566029 0 -2.566029 
C -0.680519 -2.566029 -1.333257 -2.295656 -1.814457 -1.814457 
C -2.295656 -1.333257 -2.566029 -0.680519 -2.566029 0 
C -2.566029 0.680519 -2.295656 1.333257 -1.814457 1.814457 
C -1.333257 2.295656 -0.680519 2.566029 0 2.566029 
z
" style="stroke: #feff63"/>
    </defs>
    <g clip-path="url(#p1172862e41)">
     <use xlink:href="#mddf415d6db" x="211.527863" y="355.640719" style="fill: #feff63; stroke: #feff63"/>
    </g>
   </g>
   <g id="PathCollection_48">
    <defs>
     <path id="m086087bbb5" d="M 0 2.560886 
C 0.679155 2.560886 1.330585 2.291055 1.81082 1.81082 
C 2.291055 1.330585 2.560886 0.679155 2.560886 0 
C 2.560886 -0.679155 2.291055 -1.330585 1.81082 -1.81082 
C 1.330585 -2.291055 0.679155 -2.560886 0 -2.560886 
C -0.679155 -2.560886 -1.330585 -2.291055 -1.81082 -1.81082 
C -2.291055 -1.330585 -2.560886 -0.679155 -2.560886 0 
C -2.560886 0.679155 -2.291055 1.330585 -1.81082 1.81082 
C -1.330585 2.291055 -0.679155 2.560886 0 2.560886 
z
" style="stroke: #808080"/>
    </defs>
    <g clip-path="url(#p1172862e41)">
     <use xlink:href="#m086087bbb5" x="228.326309" y="355.640719" style="fill: #808080; stroke: #808080"/>
    </g>
   </g>
   <g id="PathCollection_49">
    <defs>
     <path id="mdd63fa3162" d="M 0 2.523424 
C 0.66922 2.523424 1.311121 2.257541 1.784331 1.784331 
C 2.257541 1.311121 2.523424 0.66922 2.523424 0 
C 2.523424 -0.66922 2.257541 -1.311121 1.784331 -1.784331 
C 1.311121 -2.257541 0.66922 -2.523424 0 -2.523424 
C -0.66922 -2.523424 -1.311121 -2.257541 -1.784331 -1.784331 
C -2.257541 -1.311121 -2.523424 -0.66922 -2.523424 0 
C -2.523424 0.66922 -2.257541 1.311121 -1.784331 1.784331 
C -1.311121 2.257541 -0.66922 2.523424 0 2.523424 
z
" style="stroke: #808080"/>
    </defs>
    <g clip-path="url(#p1172862e41)">
     <use xlink:href="#mdd63fa3162" x="245.124754" y="355.640719" style="fill: #808080; stroke: #808080"/>
    </g>
   </g>
   <g id="PathCollection_50">
    <defs>
     <path id="m10c4e2ca71" d="M 0 2.314505 
C 0.613814 2.314505 1.20257 2.070634 1.636602 1.636602 
C 2.070634 1.20257 2.314505 0.613814 2.314505 0 
C 2.314505 -0.613814 2.070634 -1.20257 1.636602 -1.636602 
C 1.20257 -2.070634 0.613814 -2.314505 0 -2.314505 
C -0.613814 -2.314505 -1.20257 -2.070634 -1.636602 -1.636602 
C -2.070634 -1.20257 -2.314505 -0.613814 -2.314505 0 
C -2.314505 0.613814 -2.070634 1.20257 -1.636602 1.636602 
C -1.20257 2.070634 -0.613814 2.314505 0 2.314505 
z
" style="stroke: #feff63"/>
    </defs>
    <g clip-path="url(#p1172862e41)">
     <use xlink:href="#m10c4e2ca71" x="261.9232" y="355.640719" style="fill: #feff63; stroke: #feff63"/>
    </g>
   </g>
   <g id="PathCollection_51">
    <defs>
     <path id="m6a963be2ae" d="M 0 2.291365 
C 0.607677 2.291365 1.190547 2.049932 1.62024 1.62024 
C 2.049932 1.190547 2.291365 0.607677 2.291365 0 
C 2.291365 -0.607677 2.049932 -1.190547 1.62024 -1.62024 
C 1.190547 -2.049932 0.607677 -2.291365 0 -2.291365 
C -0.607677 -2.291365 -1.190547 -2.049932 -1.62024 -1.62024 
C -2.049932 -1.190547 -2.291365 -0.607677 -2.291365 0 
C -2.291365 0.607677 -2.049932 1.190547 -1.62024 1.62024 
C -1.190547 2.049932 -0.607677 2.291365 0 2.291365 
z
" style="stroke: #808080"/>
    </defs>
    <g clip-path="url(#p1172862e41)">
     <use xlink:href="#m6a963be2ae" x="278.721645" y="355.640719" style="fill: #808080; stroke: #808080"/>
    </g>
   </g>
   <g id="PathCollection_52">
    <defs>
     <path id="m6201ee87a8" d="M 0 1.800335 
C 0.477455 1.800335 0.935418 1.610641 1.273029 1.273029 
C 1.610641 0.935418 1.800335 0.477455 1.800335 0 
C 1.800335 -0.477455 1.610641 -0.935418 1.273029 -1.273029 
C 0.935418 -1.610641 0.477455 -1.800335 0 -1.800335 
C -0.477455 -1.800335 -0.935418 -1.610641 -1.273029 -1.273029 
C -1.610641 -0.935418 -1.800335 -0.477455 -1.800335 0 
C -1.800335 0.477455 -1.610641 0.935418 -1.273029 1.273029 
C -0.935418 1.610641 -0.477455 1.800335 0 1.800335 
z
" style="stroke: #808080"/>
    </defs>
    <g clip-path="url(#p1172862e41)">
     <use xlink:href="#m6201ee87a8" x="295.520091" y="355.640719" style="fill: #808080; stroke: #808080"/>
    </g>
   </g>
   <g id="PathCollection_53">
    <defs>
     <path id="m8f9bbd6b1e" d="M 0 1.694963 
C 0.449509 1.694963 0.880669 1.516371 1.19852 1.19852 
C 1.516371 0.880669 1.694963 0.449509 1.694963 0 
C 1.694963 -0.449509 1.516371 -0.880669 1.19852 -1.19852 
C 0.880669 -1.516371 0.449509 -1.694963 0 -1.694963 
C -0.449509 -1.694963 -0.880669 -1.516371 -1.19852 -1.19852 
C -1.516371 -0.880669 -1.694963 -0.449509 -1.694963 0 
C -1.694963 0.449509 -1.516371 0.880669 -1.19852 1.19852 
C -0.880669 1.516371 -0.449509 1.694963 0 1.694963 
z
" style="stroke: #feff63"/>
    </defs>
    <g clip-path="url(#p1172862e41)">
     <use xlink:href="#m8f9bbd6b1e" x="312.318536" y="355.640719" style="fill: #feff63; stroke: #feff63"/>
    </g>
   </g>
   <g id="PathCollection_54">
    <defs>
     <path id="mced0bc0085" d="M 0 1.642866 
C 0.435693 1.642866 0.8536 1.469763 1.161681 1.161681 
C 1.469763 0.8536 1.642866 0.435693 1.642866 0 
C 1.642866 -0.435693 1.469763 -0.8536 1.161681 -1.161681 
C 0.8536 -1.469763 0.435693 -1.642866 0 -1.642866 
C -0.435693 -1.642866 -0.8536 -1.469763 -1.161681 -1.161681 
C -1.469763 -0.8536 -1.642866 -0.435693 -1.642866 0 
C -1.642866 0.435693 -1.469763 0.8536 -1.161681 1.161681 
C -0.8536 1.469763 -0.435693 1.642866 0 1.642866 
z
" style="stroke: #feff63"/>
    </defs>
    <g clip-path="url(#p1172862e41)">
     <use xlink:href="#mced0bc0085" x="329.116982" y="355.640719" style="fill: #feff63; stroke: #feff63"/>
    </g>
   </g>
   <g id="PathCollection_55">
    <defs>
     <path id="m6873b0c91d" d="M 0 1.633016 
C 0.433081 1.633016 0.848482 1.460951 1.154717 1.154717 
C 1.460951 0.848482 1.633016 0.433081 1.633016 0 
C 1.633016 -0.433081 1.460951 -0.848482 1.154717 -1.154717 
C 0.848482 -1.460951 0.433081 -1.633016 0 -1.633016 
C -0.433081 -1.633016 -0.848482 -1.460951 -1.154717 -1.154717 
C -1.460951 -0.848482 -1.633016 -0.433081 -1.633016 0 
C -1.633016 0.433081 -1.460951 0.848482 -1.154717 1.154717 
C -0.848482 1.460951 -0.433081 1.633016 0 1.633016 
z
" style="stroke: #feff63"/>
    </defs>
    <g clip-path="url(#p1172862e41)">
     <use xlink:href="#m6873b0c91d" x="345.915427" y="355.640719" style="fill: #feff63; stroke: #feff63"/>
    </g>
   </g>
   <g id="PathCollection_56">
    <defs>
     <path id="m5fea1f448d" d="M 0 1.631853 
C 0.432772 1.631853 0.847878 1.459911 1.153894 1.153894 
C 1.459911 0.847878 1.631853 0.432772 1.631853 0 
C 1.631853 -0.432772 1.459911 -0.847878 1.153894 -1.153894 
C 0.847878 -1.459911 0.432772 -1.631853 0 -1.631853 
C -0.432772 -1.631853 -0.847878 -1.459911 -1.153894 -1.153894 
C -1.459911 -0.847878 -1.631853 -0.432772 -1.631853 0 
C -1.631853 0.432772 -1.459911 0.847878 -1.153894 1.153894 
C -0.847878 1.459911 -0.432772 1.631853 0 1.631853 
z
" style="stroke: #feff63"/>
    </defs>
    <g clip-path="url(#p1172862e41)">
     <use xlink:href="#m5fea1f448d" x="362.713873" y="355.640719" style="fill: #feff63; stroke: #feff63"/>
    </g>
   </g>
   <g id="PathCollection_57">
    <defs>
     <path id="mbe5c28e4c9" d="M 0 1.629877 
C 0.432248 1.629877 0.846851 1.458143 1.152497 1.152497 
C 1.458143 0.846851 1.629877 0.432248 1.629877 0 
C 1.629877 -0.432248 1.458143 -0.846851 1.152497 -1.152497 
C 0.846851 -1.458143 0.432248 -1.629877 0 -1.629877 
C -0.432248 -1.629877 -0.846851 -1.458143 -1.152497 -1.152497 
C -1.458143 -0.846851 -1.629877 -0.432248 -1.629877 0 
C -1.629877 0.432248 -1.458143 0.846851 -1.152497 1.152497 
C -0.846851 1.458143 -0.432248 1.629877 0 1.629877 
z
" style="stroke: #feff63"/>
    </defs>
    <g clip-path="url(#p1172862e41)">
     <use xlink:href="#mbe5c28e4c9" x="379.512318" y="355.640719" style="fill: #feff63; stroke: #feff63"/>
    </g>
   </g>
   <g id="PathCollection_58">
    <defs>
     <path id="ma684b4cf9f" d="M 0 1.618145 
C 0.429137 1.618145 0.840755 1.447647 1.144201 1.144201 
C 1.447647 0.840755 1.618145 0.429137 1.618145 0 
C 1.618145 -0.429137 1.447647 -0.840755 1.144201 -1.144201 
C 0.840755 -1.447647 0.429137 -1.618145 0 -1.618145 
C -0.429137 -1.618145 -0.840755 -1.447647 -1.144201 -1.144201 
C -1.447647 -0.840755 -1.618145 -0.429137 -1.618145 0 
C -1.618145 0.429137 -1.447647 0.840755 -1.144201 1.144201 
C -0.840755 1.447647 -0.429137 1.618145 0 1.618145 
z
" style="stroke: #feff63"/>
    </defs>
    <g clip-path="url(#p1172862e41)">
     <use xlink:href="#ma684b4cf9f" x="396.310764" y="355.640719" style="fill: #feff63; stroke: #feff63"/>
    </g>
   </g>
   <g id="PathCollection_59">
    <defs>
     <path id="m5a873c738a" d="M 0 1.282473 
C 0.340116 1.282473 0.666347 1.147344 0.906845 0.906845 
C 1.147344 0.666347 1.282473 0.340116 1.282473 0 
C 1.282473 -0.340116 1.147344 -0.666347 0.906845 -0.906845 
C 0.666347 -1.147344 0.340116 -1.282473 0 -1.282473 
C -0.340116 -1.282473 -0.666347 -1.147344 -0.906845 -0.906845 
C -1.147344 -0.666347 -1.282473 -0.340116 -1.282473 0 
C -1.282473 0.340116 -1.147344 0.666347 -0.906845 0.906845 
C -0.666347 1.147344 -0.340116 1.282473 0 1.282473 
z
" style="stroke: #feff63"/>
    </defs>
    <g clip-path="url(#p1172862e41)">
     <use xlink:href="#m5a873c738a" x="413.109209" y="355.640719" style="fill: #feff63; stroke: #feff63"/>
    </g>
   </g>
   <g id="PathCollection_60">
    <defs>
     <path id="mf4c81331c2" d="M 0 1.280869 
C 0.33969 1.280869 0.665514 1.145908 0.905711 0.905711 
C 1.145908 0.665514 1.280869 0.33969 1.280869 0 
C 1.280869 -0.33969 1.145908 -0.665514 0.905711 -0.905711 
C 0.665514 -1.145908 0.33969 -1.280869 0 -1.280869 
C -0.33969 -1.280869 -0.665514 -1.145908 -0.905711 -0.905711 
C -1.145908 -0.665514 -1.280869 -0.33969 -1.280869 0 
C -1.280869 0.33969 -1.145908 0.665514 -0.905711 0.905711 
C -0.665514 1.145908 -0.33969 1.280869 0 1.280869 
z
" style="stroke: #808080"/>
    </defs>
    <g clip-path="url(#p1172862e41)">
     <use xlink:href="#mf4c81331c2" x="429.907655" y="355.640719" style="fill: #808080; stroke: #808080"/>
    </g>
   </g>
   <g id="PathCollection_61">
    <defs>
     <path id="m257594739e" d="M 0 1.237295 
C 0.328134 1.237295 0.642874 1.106926 0.8749 0.8749 
C 1.106926 0.642874 1.237295 0.328134 1.237295 0 
C 1.237295 -0.328134 1.106926 -0.642874 0.8749 -0.8749 
C 0.642874 -1.106926 0.328134 -1.237295 0 -1.237295 
C -0.328134 -1.237295 -0.642874 -1.106926 -0.8749 -0.8749 
C -1.106926 -0.642874 -1.237295 -0.328134 -1.237295 0 
C -1.237295 0.328134 -1.106926 0.642874 -0.8749 0.8749 
C -0.642874 1.106926 -0.328134 1.237295 0 1.237295 
z
" style="stroke: #feff63"/>
    </defs>
    <g clip-path="url(#p1172862e41)">
     <use xlink:href="#m257594739e" x="110.73719" y="369.36" style="fill: #feff63; stroke: #feff63"/>
    </g>
   </g>
   <g id="PathCollection_62">
    <defs>
     <path id="m9d4561c2d9" d="M 0 1.210585 
C 0.321051 1.210585 0.628996 1.083031 0.856013 0.856013 
C 1.083031 0.628996 1.210585 0.321051 1.210585 0 
C 1.210585 -0.321051 1.083031 -0.628996 0.856013 -0.856013 
C 0.628996 -1.083031 0.321051 -1.210585 0 -1.210585 
C -0.321051 -1.210585 -0.628996 -1.083031 -0.856013 -0.856013 
C -1.083031 -0.628996 -1.210585 -0.321051 -1.210585 0 
C -1.210585 0.321051 -1.083031 0.628996 -0.856013 0.856013 
C -0.628996 1.083031 -0.321051 1.210585 0 1.210585 
z
" style="stroke: #feff63"/>
    </defs>
    <g clip-path="url(#p1172862e41)">
     <use xlink:href="#m9d4561c2d9" x="127.535636" y="369.36" style="fill: #feff63; stroke: #feff63"/>
    </g>
   </g>
   <g id="PathCollection_63">
    <defs>
     <path id="m800e93d9e0" d="M 0 1.207615 
C 0.320263 1.207615 0.627452 1.080373 0.853913 0.853913 
C 1.080373 0.627452 1.207615 0.320263 1.207615 0 
C 1.207615 -0.320263 1.080373 -0.627452 0.853913 -0.853913 
C 0.627452 -1.080373 0.320263 -1.207615 0 -1.207615 
C -0.320263 -1.207615 -0.627452 -1.080373 -0.853913 -0.853913 
C -1.080373 -0.627452 -1.207615 -0.320263 -1.207615 0 
C -1.207615 0.320263 -1.080373 0.627452 -0.853913 0.853913 
C -0.627452 1.080373 -0.320263 1.207615 0 1.207615 
z
" style="stroke: #feff63"/>
    </defs>
    <g clip-path="url(#p1172862e41)">
     <use xlink:href="#m800e93d9e0" x="144.334081" y="369.36" style="fill: #feff63; stroke: #feff63"/>
    </g>
   </g>
   <g id="PathCollection_64">
    <defs>
     <path id="m423a1bcde2" d="M 0 1.194875 
C 0.316884 1.194875 0.620833 1.068975 0.844904 0.844904 
C 1.068975 0.620833 1.194875 0.316884 1.194875 0 
C 1.194875 -0.316884 1.068975 -0.620833 0.844904 -0.844904 
C 0.620833 -1.068975 0.316884 -1.194875 0 -1.194875 
C -0.316884 -1.194875 -0.620833 -1.068975 -0.844904 -0.844904 
C -1.068975 -0.620833 -1.194875 -0.316884 -1.194875 0 
C -1.194875 0.316884 -1.068975 0.620833 -0.844904 0.844904 
C -0.620833 1.068975 -0.316884 1.194875 0 1.194875 
z
" style="stroke: #feff63"/>
    </defs>
    <g clip-path="url(#p1172862e41)">
     <use xlink:href="#m423a1bcde2" x="161.132527" y="369.36" style="fill: #feff63; stroke: #feff63"/>
    </g>
   </g>
   <g id="PathCollection_65">
    <defs>
     <path id="mb0eee05b15" d="M 0 1.17105 
C 0.310566 1.17105 0.608454 1.047661 0.828058 0.828058 
C 1.047661 0.608454 1.17105 0.310566 1.17105 0 
C 1.17105 -0.310566 1.047661 -0.608454 0.828058 -0.828058 
C 0.608454 -1.047661 0.310566 -1.17105 0 -1.17105 
C -0.310566 -1.17105 -0.608454 -1.047661 -0.828058 -0.828058 
C -1.047661 -0.608454 -1.17105 -0.310566 -1.17105 0 
C -1.17105 0.310566 -1.047661 0.608454 -0.828058 0.828058 
C -0.608454 1.047661 -0.310566 1.17105 0 1.17105 
z
" style="stroke: #808080"/>
    </defs>
    <g clip-path="url(#p1172862e41)">
     <use xlink:href="#mb0eee05b15" x="177.930972" y="369.36" style="fill: #808080; stroke: #808080"/>
    </g>
   </g>
   <g id="PathCollection_66">
    <defs>
     <path id="m5da4f4a50d" d="M 0 1.164063 
C 0.308713 1.164063 0.604824 1.04141 0.823117 0.823117 
C 1.04141 0.604824 1.164063 0.308713 1.164063 0 
C 1.164063 -0.308713 1.04141 -0.604824 0.823117 -0.823117 
C 0.604824 -1.04141 0.308713 -1.164063 0 -1.164063 
C -0.308713 -1.164063 -0.604824 -1.04141 -0.823117 -0.823117 
C -1.04141 -0.604824 -1.164063 -0.308713 -1.164063 0 
C -1.164063 0.308713 -1.04141 0.604824 -0.823117 0.823117 
C -0.604824 1.04141 -0.308713 1.164063 0 1.164063 
z
" style="stroke: #808080"/>
    </defs>
    <g clip-path="url(#p1172862e41)">
     <use xlink:href="#m5da4f4a50d" x="194.729418" y="369.36" style="fill: #808080; stroke: #808080"/>
    </g>
   </g>
   <g id="PathCollection_67">
    <path d="M 441.213711 79.963281 
C 442.824006 79.963281 444.368564 79.323504 445.507214 78.184854 
C 446.645865 77.046203 447.285642 75.501645 447.285642 73.89135 
C 447.285642 72.281055 446.645865 70.736497 445.507214 69.597846 
C 444.368564 68.459196 442.824006 67.819419 441.213711 67.819419 
C 439.603416 67.819419 438.058857 68.459196 436.920207 69.597846 
C 435.781556 70.736497 435.141779 72.281055 435.141779 73.89135 
C 435.141779 75.501645 435.781556 77.046203 436.920207 78.184854 
C 438.058857 79.323504 439.603416 79.963281 441.213711 79.963281 
z
" clip-path="url(#p1172862e41)" style="fill: #808080; stroke: #808080"/>
    <path d="M 369.6264 162.070283 
C 371.332412 162.070283 372.968781 161.392477 374.175114 160.186144 
C 375.381447 158.97981 376.059253 157.343442 376.059253 155.637429 
C 376.059253 153.931417 375.381447 152.295048 374.175114 151.088715 
C 372.968781 149.882382 371.332412 149.204576 369.6264 149.204576 
C 367.920387 149.204576 366.284018 149.882382 365.077685 151.088715 
C 363.871352 152.295048 363.193546 153.931417 363.193546 155.637429 
C 363.193546 157.343442 363.871352 158.97981 365.077685 160.186144 
C 366.284018 161.392477 367.920387 162.070283 369.6264 162.070283 
z
" clip-path="url(#p1172862e41)" style="fill: #808080; stroke: #808080"/>
    <path d="M 231.727852 161.28879 
C 233.369636 161.28879 234.944398 160.636502 236.105314 159.475585 
C 237.266231 158.314669 237.918519 156.739907 237.918519 155.098123 
C 237.918519 153.456338 237.266231 151.881577 236.105314 150.72066 
C 234.944398 149.559743 233.369636 148.907455 231.727852 148.907455 
C 230.086067 148.907455 228.511306 149.559743 227.350389 150.72066 
C 226.189472 151.881577 225.537184 153.456338 225.537184 155.098123 
C 225.537184 156.739907 226.189472 158.314669 227.350389 159.475585 
C 228.511306 160.636502 230.086067 161.28879 231.727852 161.28879 
z
" clip-path="url(#p1172862e41)" style="fill: #808080; stroke: #808080"/>
    <path d="M 291.338593 219.157344 
C 293.099275 219.157344 294.788082 218.457817 296.033073 217.212827 
C 297.278064 215.967836 297.977591 214.279029 297.977591 212.518346 
C 297.977591 210.757663 297.278064 209.068856 296.033073 207.823865 
C 294.788082 206.578874 293.099275 205.879348 291.338593 205.879348 
C 289.57791 205.879348 287.889103 206.578874 286.644112 207.823865 
C 285.399121 209.068856 284.699594 210.757663 284.699594 212.518346 
C 284.699594 214.279029 285.399121 215.967836 286.644112 217.212827 
C 287.889103 218.457817 289.57791 219.157344 291.338593 219.157344 
z
" clip-path="url(#p1172862e41)" style="fill: #808080; stroke: #808080"/>
    <path d="M 479.66281 211.167786 
C 481.328745 211.167786 482.926671 210.505903 484.104665 209.32791 
C 485.282659 208.149916 485.944542 206.551989 485.944542 204.886054 
C 485.944542 203.220119 485.282659 201.622193 484.104665 200.444199 
C 482.926671 199.266205 481.328745 198.604322 479.66281 198.604322 
C 477.996875 198.604322 476.398948 199.266205 475.220955 200.444199 
C 474.042961 201.622193 473.381078 203.220119 473.381078 204.886054 
C 473.381078 206.551989 474.042961 208.149916 475.220955 209.32791 
C 476.398948 210.505903 477.996875 211.167786 479.66281 211.167786 
z
" clip-path="url(#p1172862e41)" style="fill: #808080; stroke: #808080"/>
    <path d="M 110.73719 144.701167 
C 112.451892 144.701167 114.096594 144.019909 115.309071 142.807432 
C 116.521548 141.594955 117.202806 139.950252 117.202806 138.235551 
C 117.202806 136.520849 116.521548 134.876147 115.309071 133.66367 
C 114.096594 132.451193 112.451892 131.769935 110.73719 131.769935 
C 109.022489 131.769935 107.377786 132.451193 106.165309 133.66367 
C 104.952832 134.876147 104.271574 136.520849 104.271574 138.235551 
C 104.271574 139.950252 104.952832 141.594955 106.165309 142.807432 
C 107.377786 144.019909 109.022489 144.701167 110.73719 144.701167 
z
" clip-path="url(#p1172862e41)" style="fill: #808080; stroke: #808080"/>
   </g>
   <g id="text_1">
    <g clip-path="url(#p1172862e41)">
     <!-- Agr capi -->
     <g transform="translate(428.844336 75.546975) scale(0.06 -0.06)">
      <defs>
       <path id="DejaVuSans-41" d="M 2188 4044 
L 1331 1722 
L 3047 1722 
L 2188 4044 
z
M 1831 4666 
L 2547 4666 
L 4325 0 
L 3669 0 
L 3244 1197 
L 1141 1197 
L 716 0 
L 50 0 
L 1831 4666 
z
" transform="scale(0.015625)"/>
       <path id="DejaVuSans-67" d="M 2906 1791 
Q 2906 2416 2648 2759 
Q 2391 3103 1925 3103 
Q 1463 3103 1205 2759 
Q 947 2416 947 1791 
Q 947 1169 1205 825 
Q 1463 481 1925 481 
Q 2391 481 2648 825 
Q 2906 1169 2906 1791 
z
M 3481 434 
Q 3481 -459 3084 -895 
Q 2688 -1331 1869 -1331 
Q 1566 -1331 1297 -1286 
Q 1028 -1241 775 -1147 
L 775 -588 
Q 1028 -725 1275 -790 
Q 1522 -856 1778 -856 
Q 2344 -856 2625 -561 
Q 2906 -266 2906 331 
L 2906 616 
Q 2728 306 2450 153 
Q 2172 0 1784 0 
Q 1141 0 747 490 
Q 353 981 353 1791 
Q 353 2603 747 3093 
Q 1141 3584 1784 3584 
Q 2172 3584 2450 3431 
Q 2728 3278 2906 2969 
L 2906 3500 
L 3481 3500 
L 3481 434 
z
" transform="scale(0.015625)"/>
       <path id="DejaVuSans-72" d="M 2631 2963 
Q 2534 3019 2420 3045 
Q 2306 3072 2169 3072 
Q 1681 3072 1420 2755 
Q 1159 2438 1159 1844 
L 1159 0 
L 581 0 
L 581 3500 
L 1159 3500 
L 1159 2956 
Q 1341 3275 1631 3429 
Q 1922 3584 2338 3584 
Q 2397 3584 2469 3576 
Q 2541 3569 2628 3553 
L 2631 2963 
z
" transform="scale(0.015625)"/>
       <path id="DejaVuSans-20" transform="scale(0.015625)"/>
       <path id="DejaVuSans-63" d="M 3122 3366 
L 3122 2828 
Q 2878 2963 2633 3030 
Q 2388 3097 2138 3097 
Q 1578 3097 1268 2742 
Q 959 2388 959 1747 
Q 959 1106 1268 751 
Q 1578 397 2138 397 
Q 2388 397 2633 464 
Q 2878 531 3122 666 
L 3122 134 
Q 2881 22 2623 -34 
Q 2366 -91 2075 -91 
Q 1284 -91 818 406 
Q 353 903 353 1747 
Q 353 2603 823 3093 
Q 1294 3584 2113 3584 
Q 2378 3584 2631 3529 
Q 2884 3475 3122 3366 
z
" transform="scale(0.015625)"/>
       <path id="DejaVuSans-61" d="M 2194 1759 
Q 1497 1759 1228 1600 
Q 959 1441 959 1056 
Q 959 750 1161 570 
Q 1363 391 1709 391 
Q 2188 391 2477 730 
Q 2766 1069 2766 1631 
L 2766 1759 
L 2194 1759 
z
M 3341 1997 
L 3341 0 
L 2766 0 
L 2766 531 
Q 2569 213 2275 61 
Q 1981 -91 1556 -91 
Q 1019 -91 701 211 
Q 384 513 384 1019 
Q 384 1609 779 1909 
Q 1175 2209 1959 2209 
L 2766 2209 
L 2766 2266 
Q 2766 2663 2505 2880 
Q 2244 3097 1772 3097 
Q 1472 3097 1187 3025 
Q 903 2953 641 2809 
L 641 3341 
Q 956 3463 1253 3523 
Q 1550 3584 1831 3584 
Q 2591 3584 2966 3190 
Q 3341 2797 3341 1997 
z
" transform="scale(0.015625)"/>
       <path id="DejaVuSans-70" d="M 1159 525 
L 1159 -1331 
L 581 -1331 
L 581 3500 
L 1159 3500 
L 1159 2969 
Q 1341 3281 1617 3432 
Q 1894 3584 2278 3584 
Q 2916 3584 3314 3078 
Q 3713 2572 3713 1747 
Q 3713 922 3314 415 
Q 2916 -91 2278 -91 
Q 1894 -91 1617 61 
Q 1341 213 1159 525 
z
M 3116 1747 
Q 3116 2381 2855 2742 
Q 2594 3103 2138 3103 
Q 1681 3103 1420 2742 
Q 1159 2381 1159 1747 
Q 1159 1113 1420 752 
Q 1681 391 2138 391 
Q 2594 391 2855 752 
Q 3116 1113 3116 1747 
z
" transform="scale(0.015625)"/>
       <path id="DejaVuSans-69" d="M 603 3500 
L 1178 3500 
L 1178 0 
L 603 0 
L 603 3500 
z
M 603 4863 
L 1178 4863 
L 1178 4134 
L 603 4134 
L 603 4863 
z
" transform="scale(0.015625)"/>
      </defs>
      <use xlink:href="#DejaVuSans-41"/>
      <use xlink:href="#DejaVuSans-67" transform="translate(68.408203 0)"/>
      <use xlink:href="#DejaVuSans-72" transform="translate(131.884766 0)"/>
      <use xlink:href="#DejaVuSans-20" transform="translate(172.998047 0)"/>
      <use xlink:href="#DejaVuSans-63" transform="translate(204.785156 0)"/>
      <use xlink:href="#DejaVuSans-61" transform="translate(259.765625 0)"/>
      <use xlink:href="#DejaVuSans-70" transform="translate(321.044922 0)"/>
      <use xlink:href="#DejaVuSans-69" transform="translate(384.521484 0)"/>
     </g>
    </g>
   </g>
   <g id="text_2">
    <g clip-path="url(#p1172862e41)">
     <!-- Car semp -->
     <g transform="translate(355.270931 157.293054) scale(0.06 -0.06)">
      <defs>
       <path id="DejaVuSans-43" d="M 4122 4306 
L 4122 3641 
Q 3803 3938 3442 4084 
Q 3081 4231 2675 4231 
Q 1875 4231 1450 3742 
Q 1025 3253 1025 2328 
Q 1025 1406 1450 917 
Q 1875 428 2675 428 
Q 3081 428 3442 575 
Q 3803 722 4122 1019 
L 4122 359 
Q 3791 134 3420 21 
Q 3050 -91 2638 -91 
Q 1578 -91 968 557 
Q 359 1206 359 2328 
Q 359 3453 968 4101 
Q 1578 4750 2638 4750 
Q 3056 4750 3426 4639 
Q 3797 4528 4122 4306 
z
" transform="scale(0.015625)"/>
       <path id="DejaVuSans-73" d="M 2834 3397 
L 2834 2853 
Q 2591 2978 2328 3040 
Q 2066 3103 1784 3103 
Q 1356 3103 1142 2972 
Q 928 2841 928 2578 
Q 928 2378 1081 2264 
Q 1234 2150 1697 2047 
L 1894 2003 
Q 2506 1872 2764 1633 
Q 3022 1394 3022 966 
Q 3022 478 2636 193 
Q 2250 -91 1575 -91 
Q 1294 -91 989 -36 
Q 684 19 347 128 
L 347 722 
Q 666 556 975 473 
Q 1284 391 1588 391 
Q 1994 391 2212 530 
Q 2431 669 2431 922 
Q 2431 1156 2273 1281 
Q 2116 1406 1581 1522 
L 1381 1569 
Q 847 1681 609 1914 
Q 372 2147 372 2553 
Q 372 3047 722 3315 
Q 1072 3584 1716 3584 
Q 2034 3584 2315 3537 
Q 2597 3491 2834 3397 
z
" transform="scale(0.015625)"/>
       <path id="DejaVuSans-65" d="M 3597 1894 
L 3597 1613 
L 953 1613 
Q 991 1019 1311 708 
Q 1631 397 2203 397 
Q 2534 397 2845 478 
Q 3156 559 3463 722 
L 3463 178 
Q 3153 47 2828 -22 
Q 2503 -91 2169 -91 
Q 1331 -91 842 396 
Q 353 884 353 1716 
Q 353 2575 817 3079 
Q 1281 3584 2069 3584 
Q 2775 3584 3186 3129 
Q 3597 2675 3597 1894 
z
M 3022 2063 
Q 3016 2534 2758 2815 
Q 2500 3097 2075 3097 
Q 1594 3097 1305 2825 
Q 1016 2553 972 2059 
L 3022 2063 
z
" transform="scale(0.015625)"/>
       <path id="DejaVuSans-6d" d="M 3328 2828 
Q 3544 3216 3844 3400 
Q 4144 3584 4550 3584 
Q 5097 3584 5394 3201 
Q 5691 2819 5691 2113 
L 5691 0 
L 5113 0 
L 5113 2094 
Q 5113 2597 4934 2840 
Q 4756 3084 4391 3084 
Q 3944 3084 3684 2787 
Q 3425 2491 3425 1978 
L 3425 0 
L 2847 0 
L 2847 2094 
Q 2847 2600 2669 2842 
Q 2491 3084 2119 3084 
Q 1678 3084 1418 2786 
Q 1159 2488 1159 1978 
L 1159 0 
L 581 0 
L 581 3500 
L 1159 3500 
L 1159 2956 
Q 1356 3278 1631 3431 
Q 1906 3584 2284 3584 
Q 2666 3584 2933 3390 
Q 3200 3197 3328 2828 
z
" transform="scale(0.015625)"/>
      </defs>
      <use xlink:href="#DejaVuSans-43"/>
      <use xlink:href="#DejaVuSans-61" transform="translate(69.824219 0)"/>
      <use xlink:href="#DejaVuSans-72" transform="translate(131.103516 0)"/>
      <use xlink:href="#DejaVuSans-20" transform="translate(172.216797 0)"/>
      <use xlink:href="#DejaVuSans-73" transform="translate(204.003906 0)"/>
      <use xlink:href="#DejaVuSans-65" transform="translate(256.103516 0)"/>
      <use xlink:href="#DejaVuSans-6d" transform="translate(317.626953 0)"/>
      <use xlink:href="#DejaVuSans-70" transform="translate(415.039062 0)"/>
     </g>
    </g>
   </g>
   <g id="text_3">
    <g clip-path="url(#p1172862e41)">
     <!-- Fes laev -->
     <g transform="translate(219.511758 156.753748) scale(0.06 -0.06)">
      <defs>
       <path id="DejaVuSans-46" d="M 628 4666 
L 3309 4666 
L 3309 4134 
L 1259 4134 
L 1259 2759 
L 3109 2759 
L 3109 2228 
L 1259 2228 
L 1259 0 
L 628 0 
L 628 4666 
z
" transform="scale(0.015625)"/>
       <path id="DejaVuSans-6c" d="M 603 4863 
L 1178 4863 
L 1178 0 
L 603 0 
L 603 4863 
z
" transform="scale(0.015625)"/>
       <path id="DejaVuSans-76" d="M 191 3500 
L 800 3500 
L 1894 563 
L 2988 3500 
L 3597 3500 
L 2284 0 
L 1503 0 
L 191 3500 
z
" transform="scale(0.015625)"/>
      </defs>
      <use xlink:href="#DejaVuSans-46"/>
      <use xlink:href="#DejaVuSans-65" transform="translate(52.019531 0)"/>
      <use xlink:href="#DejaVuSans-73" transform="translate(113.542969 0)"/>
      <use xlink:href="#DejaVuSans-20" transform="translate(165.642578 0)"/>
      <use xlink:href="#DejaVuSans-6c" transform="translate(197.429688 0)"/>
      <use xlink:href="#DejaVuSans-61" transform="translate(225.212891 0)"/>
      <use xlink:href="#DejaVuSans-65" transform="translate(286.492188 0)"/>
      <use xlink:href="#DejaVuSans-76" transform="translate(348.015625 0)"/>
     </g>
    </g>
   </g>
   <g id="text_4">
    <g clip-path="url(#p1172862e41)">
     <!-- Pat pani -->
     <g transform="translate(279.219061 214.173971) scale(0.06 -0.06)">
      <defs>
       <path id="DejaVuSans-50" d="M 1259 4147 
L 1259 2394 
L 2053 2394 
Q 2494 2394 2734 2622 
Q 2975 2850 2975 3272 
Q 2975 3691 2734 3919 
Q 2494 4147 2053 4147 
L 1259 4147 
z
M 628 4666 
L 2053 4666 
Q 2838 4666 3239 4311 
Q 3641 3956 3641 3272 
Q 3641 2581 3239 2228 
Q 2838 1875 2053 1875 
L 1259 1875 
L 1259 0 
L 628 0 
L 628 4666 
z
" transform="scale(0.015625)"/>
       <path id="DejaVuSans-74" d="M 1172 4494 
L 1172 3500 
L 2356 3500 
L 2356 3053 
L 1172 3053 
L 1172 1153 
Q 1172 725 1289 603 
Q 1406 481 1766 481 
L 2356 481 
L 2356 0 
L 1766 0 
Q 1100 0 847 248 
Q 594 497 594 1153 
L 594 3053 
L 172 3053 
L 172 3500 
L 594 3500 
L 594 4494 
L 1172 4494 
z
" transform="scale(0.015625)"/>
       <path id="DejaVuSans-6e" d="M 3513 2113 
L 3513 0 
L 2938 0 
L 2938 2094 
Q 2938 2591 2744 2837 
Q 2550 3084 2163 3084 
Q 1697 3084 1428 2787 
Q 1159 2491 1159 1978 
L 1159 0 
L 581 0 
L 581 3500 
L 1159 3500 
L 1159 2956 
Q 1366 3272 1645 3428 
Q 1925 3584 2291 3584 
Q 2894 3584 3203 3211 
Q 3513 2838 3513 2113 
z
" transform="scale(0.015625)"/>
      </defs>
      <use xlink:href="#DejaVuSans-50"/>
      <use xlink:href="#DejaVuSans-61" transform="translate(55.802734 0)"/>
      <use xlink:href="#DejaVuSans-74" transform="translate(117.082031 0)"/>
      <use xlink:href="#DejaVuSans-20" transform="translate(156.291016 0)"/>
      <use xlink:href="#DejaVuSans-70" transform="translate(188.078125 0)"/>
      <use xlink:href="#DejaVuSans-61" transform="translate(251.554688 0)"/>
      <use xlink:href="#DejaVuSans-6e" transform="translate(312.833984 0)"/>
      <use xlink:href="#DejaVuSans-69" transform="translate(376.212891 0)"/>
     </g>
    </g>
   </g>
   <g id="text_5">
    <g clip-path="url(#p1172862e41)">
     <!-- Pla mari -->
     <g transform="translate(467.401247 206.541679) scale(0.06 -0.06)">
      <use xlink:href="#DejaVuSans-50"/>
      <use xlink:href="#DejaVuSans-6c" transform="translate(60.302734 0)"/>
      <use xlink:href="#DejaVuSans-61" transform="translate(88.085938 0)"/>
      <use xlink:href="#DejaVuSans-20" transform="translate(149.365234 0)"/>
      <use xlink:href="#DejaVuSans-6d" transform="translate(181.152344 0)"/>
      <use xlink:href="#DejaVuSans-61" transform="translate(278.564453 0)"/>
      <use xlink:href="#DejaVuSans-72" transform="translate(339.84375 0)"/>
      <use xlink:href="#DejaVuSans-69" transform="translate(380.957031 0)"/>
     </g>
    </g>
   </g>
   <g id="text_6">
    <g clip-path="url(#p1172862e41)">
     <!-- Fes nigr -->
     <g transform="translate(98.942034 139.891176) scale(0.06 -0.06)">
      <use xlink:href="#DejaVuSans-46"/>
      <use xlink:href="#DejaVuSans-65" transform="translate(52.019531 0)"/>
      <use xlink:href="#DejaVuSans-73" transform="translate(113.542969 0)"/>
      <use xlink:href="#DejaVuSans-20" transform="translate(165.642578 0)"/>
      <use xlink:href="#DejaVuSans-6e" transform="translate(197.429688 0)"/>
      <use xlink:href="#DejaVuSans-69" transform="translate(260.808594 0)"/>
      <use xlink:href="#DejaVuSans-67" transform="translate(288.591797 0)"/>
      <use xlink:href="#DejaVuSans-72" transform="translate(352.068359 0)"/>
     </g>
    </g>
   </g>
   <g id="text_7">
    <!-- L_CP -->
    <g transform="translate(281.049375 45.84) scale(0.12 -0.12)">
     <defs>
      <path id="DejaVuSans-4c" d="M 628 4666 
L 1259 4666 
L 1259 531 
L 3531 531 
L 3531 0 
L 628 0 
L 628 4666 
z
" transform="scale(0.015625)"/>
      <path id="DejaVuSans-5f" d="M 3263 -1063 
L 3263 -1509 
L -63 -1509 
L -63 -1063 
L 3263 -1063 
z
" transform="scale(0.015625)"/>
     </defs>
     <use xlink:href="#DejaVuSans-4c"/>
     <use xlink:href="#DejaVuSans-5f" transform="translate(55.712891 0)"/>
     <use xlink:href="#DejaVuSans-43" transform="translate(105.712891 0)"/>
     <use xlink:href="#DejaVuSans-50" transform="translate(175.537109 0)"/>
    </g>
   </g>
  </g>
 </g>
 <defs>
  <clipPath id="p1172862e41">
   <rect x="72" y="51.84" width="446.4" height="332.64"/>
  </clipPath>
 </defs>
</svg>
